<svg width="140" height="43" viewBox="0 0 140 43" fill="none" xmlns="http://www.w3.org/2000/svg">
<g clip-path="url(#clip0_165_43)">
<path d="M45.0745 37.1396C45.0114 37.2124 44.8417 37.2464 44.5555 37.2464H40.8886C40.4812 37.2464 40.3066 37.0717 40.3599 36.7177L42.1934 23.7042C42.2807 23.0688 42.4504 22.4431 42.6978 21.832C42.9452 21.2209 43.2944 20.6825 43.7455 20.212C44.1966 19.7415 44.7592 19.368 45.4334 19.0819C46.1076 18.8005 46.9127 18.655 47.8489 18.655H55.5754C55.7695 18.655 55.8956 18.6841 55.9489 18.7472C56.0023 18.8102 56.012 18.9897 55.9732 19.2904L55.5463 22.2928C55.5124 22.5207 55.4542 22.676 55.3717 22.7584C55.2941 22.836 55.1632 22.8797 54.9885 22.8797H48.7219C48.3872 22.8797 48.1059 22.9282 47.8877 23.0252C47.6645 23.1222 47.4948 23.2434 47.3687 23.3841C47.2426 23.5248 47.1504 23.6848 47.0922 23.8643C47.0292 24.0437 46.9904 24.2184 46.9709 24.393L46.7333 26.0372H53.5043C53.7178 26.0372 53.8439 26.0712 53.8875 26.1439C53.9312 26.2167 53.936 26.401 53.9021 26.7017L53.5286 29.4616C53.4558 29.869 53.2521 30.0727 52.9175 30.0727H46.1512L45.22 36.7128C45.186 36.9262 45.1375 37.0717 45.0745 37.1396Z" fill="#1DA1F2"/>
<path d="M58.34 36.7953C57.7386 36.4946 57.2875 36.1017 56.9868 35.6118C56.6861 35.1268 56.5066 34.5787 56.4435 33.9773C56.3805 33.3758 56.395 32.7841 56.4823 32.1972L58.2867 19.1838C58.34 18.8103 58.5631 18.626 58.9512 18.626H62.6423C62.9236 18.626 63.0933 18.6648 63.1467 18.7472C63.2001 18.8297 63.2098 18.9752 63.171 19.1838L61.4442 31.5327C61.3909 31.8674 61.3909 32.1342 61.4442 32.3282C61.4976 32.5222 61.5849 32.6677 61.711 32.7647C61.8323 32.8617 61.9875 32.9248 62.1766 32.949C62.3609 32.9733 62.5598 32.9878 62.7732 32.9878H68.8798C69.0932 32.9878 69.2339 33.0169 69.3066 33.08C69.3794 33.143 69.3939 33.3225 69.36 33.6232L68.9331 36.6256C68.8604 37.033 68.6518 37.2367 68.2978 37.2367H60.7846C59.7563 37.2464 58.9415 37.096 58.34 36.7953Z" fill="#1DA1F2"/>
<path d="M76.6355 26.1487L78.5223 22.5352L80.409 19.2418C80.5158 19.0478 80.6322 18.9023 80.7534 18.8053C80.8747 18.7083 81.0638 18.6598 81.3112 18.6598H85.6377C85.9724 18.6598 86.1324 18.7277 86.1179 18.8587C86.0985 18.9896 86.0548 19.1206 85.9869 19.2418L78.5999 30.7662L77.7753 36.6351C77.7414 36.8485 77.688 37.0037 77.6152 37.1008C77.5425 37.1978 77.3679 37.2463 77.0866 37.2463H73.4197C73.0317 37.2463 72.8619 37.0426 72.9153 36.6351L73.7107 30.8438L69.4424 19.2709C69.3891 19.1497 69.3988 19.0139 69.4667 18.8732C69.5394 18.7325 69.7044 18.6598 69.9711 18.6598H73.8465C74.2006 18.6598 74.4189 18.7131 74.4965 18.8199C74.5741 18.9266 74.642 19.1012 74.6954 19.3485L75.6266 22.5886L76.4754 26.1487H76.6355Z" fill="#1DA1F2"/>
<path d="M96.2892 18.6598C96.9973 18.6598 97.6715 18.7325 98.3069 18.8732C98.9423 19.0139 99.5001 19.2515 99.9803 19.5765C100.46 19.9063 100.834 20.3283 101.11 20.8521C101.387 21.376 101.523 22.0162 101.523 22.7777C101.523 23.8593 101.285 24.7276 100.805 25.3824C100.325 26.0371 99.7523 26.561 99.0781 26.949L99.0539 27.1091C99.8493 27.4825 100.397 28.0161 100.698 28.7145C100.999 29.413 101.149 30.1454 101.149 30.9069C101.149 31.7945 100.97 32.619 100.616 33.3903C100.262 34.1615 99.7669 34.8308 99.1266 35.3934C98.4912 35.9609 97.7346 36.412 96.8567 36.7467C95.9787 37.0814 95.0281 37.2511 93.9998 37.2511H87.3063C86.5788 37.2511 86.1374 37.1153 85.9774 36.8388C85.8173 36.5624 85.7833 36.1161 85.8707 35.5001L87.9951 20.4156C88.0824 19.8336 88.2425 19.3922 88.4753 19.1012C88.7032 18.8102 89.1834 18.6646 89.911 18.6646H96.2892V18.6598ZM91.0557 32.9198H94.1114C94.4994 32.9198 94.8292 32.847 95.096 32.7064C95.3628 32.5657 95.5762 32.3911 95.7314 32.1874C95.8914 31.9837 96.003 31.7605 96.0612 31.5229C96.1243 31.2852 96.1534 31.0669 96.1534 30.8729C96.1534 30.4461 96.0224 30.1017 95.7702 29.835C95.5131 29.5682 95.1299 29.4372 94.6158 29.4372H91.5601L91.0557 32.9198ZM92.1179 25.5085H94.8244C94.999 25.5085 95.1833 25.4842 95.3676 25.4406C95.5519 25.3969 95.7265 25.3144 95.8866 25.1883C96.0466 25.0671 96.1728 24.907 96.2698 24.7082C96.3668 24.5141 96.4153 24.2668 96.4153 23.9661C96.4153 23.6459 96.3134 23.3986 96.1097 23.224C95.906 23.0493 95.6295 22.9572 95.2754 22.9572H92.4623L92.1179 25.5085Z" fill="#1DA1F2"/>
<path d="M113.707 18.364C114.929 18.364 115.986 18.5435 116.879 18.9073C117.771 19.271 118.513 19.7803 119.095 20.4351C119.678 21.0899 120.119 21.8805 120.41 22.8118C120.701 23.743 120.846 24.7713 120.846 25.9063C120.846 27.6233 120.648 29.1948 120.25 30.6208C119.852 32.0468 119.256 33.2739 118.455 34.2974C117.66 35.3256 116.665 36.1211 115.482 36.6886C114.294 37.2561 112.926 37.5374 111.364 37.5374C110.122 37.5374 109.06 37.3676 108.177 37.0329C107.29 36.6983 106.562 36.2035 105.985 35.5584C105.408 34.9133 104.986 34.1179 104.709 33.1818C104.433 32.2457 104.297 31.1834 104.297 29.9951C104.297 28.2587 104.515 26.6775 104.947 25.2418C105.379 23.8061 106.004 22.5838 106.819 21.5652C107.634 20.5467 108.619 19.7609 109.778 19.2031C110.952 18.6453 112.257 18.364 113.707 18.364ZM113.256 22.8263C112.62 22.8263 112.062 23.03 111.582 23.4375C111.102 23.8449 110.704 24.3784 110.389 25.0429C110.069 25.7074 109.831 26.4495 109.671 27.2741C109.511 28.0986 109.434 28.9329 109.434 29.7817C109.434 30.81 109.623 31.6103 110.006 32.1826C110.384 32.7598 111.039 33.046 111.956 33.046C112.611 33.046 113.173 32.8471 113.644 32.4494C114.114 32.0517 114.502 31.523 114.813 30.8682C115.123 30.2134 115.346 29.481 115.492 28.6758C115.632 27.8707 115.705 27.051 115.705 26.2216C115.705 25.7268 115.666 25.2709 115.584 24.8538C115.506 24.4366 115.37 24.0777 115.186 23.777C115.002 23.4763 114.754 23.2434 114.444 23.0737C114.129 22.9136 113.736 22.8263 113.256 22.8263Z" fill="#1DA1F2"/>
<path d="M130.518 26.1487L132.405 22.5352L134.292 19.2418C134.398 19.0478 134.515 18.9023 134.636 18.8053C134.757 18.7083 134.946 18.6598 135.194 18.6598H139.52C139.855 18.6598 140.015 18.7277 140 18.8587C139.981 18.9896 139.937 19.1206 139.869 19.2418L132.482 30.7662L131.658 36.6351C131.624 36.8485 131.571 37.0037 131.498 37.1008C131.425 37.1978 131.25 37.2463 130.969 37.2463H127.302C126.914 37.2463 126.744 37.0426 126.798 36.6351L127.593 30.8438L123.32 19.2709C123.267 19.1497 123.276 19.0139 123.344 18.8732C123.417 18.7325 123.582 18.6598 123.849 18.6598H127.724C128.078 18.6598 128.297 18.7131 128.374 18.8199C128.452 18.9266 128.52 19.1012 128.573 19.3485L129.504 22.5886L130.353 26.1487H130.518Z" fill="#1DA1F2"/>
<path d="M15.065 5.59311C15.259 5.48641 15.4288 5.39425 15.5888 5.30209C15.778 5.19054 15.8847 5.22934 15.9478 5.44275C15.9575 5.47671 15.9817 5.51066 16.006 5.54461C16.1272 5.71922 16.1272 5.78713 15.9672 5.92294C15.8313 6.03935 15.6761 6.1412 15.6034 6.19941C15.841 6.1121 16.1563 6.00054 16.4619 5.88898C16.4328 5.69497 16.4085 5.49126 16.3697 5.28754C16.3309 5.09838 16.4231 4.98682 16.5734 4.89467C16.7093 4.80736 16.8305 4.70065 16.9615 4.60365C16.9469 4.58425 16.9372 4.56484 16.9227 4.55029C16.8208 4.6085 16.7287 4.67155 16.622 4.7152C16.5152 4.75886 16.3988 4.81221 16.2873 4.80251C16.0254 4.78311 15.8119 4.87041 15.6519 5.05958C15.4918 5.25359 15.2687 5.23904 15.065 5.28269C15.031 5.29239 14.9728 5.19054 14.9146 5.13718C14.8904 5.19539 14.8564 5.26814 14.8176 5.3603C14.9874 5.33605 15.0601 5.4282 15.065 5.59311Z" fill="#1DA1F2"/>
<path d="M31.4642 6.60196C31.4303 6.20908 31.2557 5.87441 31.0423 5.56399C30.5427 4.82674 29.8733 4.26895 29.17 3.73541C28.3067 3.07577 27.3608 2.57133 26.3762 2.12995C25.8815 1.90684 25.3674 1.72737 24.8532 1.54306C24.1208 1.27629 23.3787 1.02408 22.6075 0.888266C21.783 0.747606 20.9536 0.602096 20.1242 0.480838C19.6052 0.403233 19.0813 0.35958 18.5623 0.325627C18.1743 0.301376 17.7766 0.296525 17.3886 0.315927C16.273 0.374131 15.1623 0.432335 14.0515 0.519641C13.6635 0.548743 13.2706 0.636049 12.8923 0.742756C12.3006 0.912517 11.7137 1.11623 11.1365 1.3248C10.2877 1.63037 9.54073 2.0863 9.00719 2.8381C8.74527 3.20672 8.65797 3.619 8.78893 4.06038C8.84713 4.25925 8.92959 4.44841 9.02174 4.62787C9.21576 4.53087 9.41947 4.44841 9.62318 4.38051C10.0258 4.23985 10.438 4.13799 10.8552 4.05068C11.5003 3.91487 12.1551 3.81787 12.805 3.75481C12.8875 3.74511 12.8875 3.87607 12.805 3.88577C12.5188 3.92457 12.2278 3.96823 11.9416 4.02158C11.185 4.15739 10.4283 4.3126 9.70079 4.55027C9.49708 4.61332 9.29336 4.68608 9.09935 4.77823C9.22546 5.00135 9.37097 5.20991 9.51648 5.42333C9.77354 5.79195 10.0597 6.12663 10.4332 6.38854C10.5787 6.4904 10.7145 6.60681 10.8309 6.69896C11.8252 6.5195 12.8196 6.33519 13.7993 6.08782C13.7363 6.00537 13.6975 5.90351 13.6635 5.8065C13.5908 5.58339 13.5568 5.34087 13.5374 5.10321C13.484 4.53087 13.6635 4.02158 14.0321 3.5802C14.4008 3.14367 14.9246 2.78475 15.5115 2.7702C16.1081 2.75564 16.6416 3.08547 17.0927 3.44439C17.4953 3.76936 17.8396 4.18164 18.024 4.67153C18.1307 4.95285 18.1743 5.25357 18.1598 5.55429C18.9698 5.51548 19.7555 5.56884 20.5413 5.78225C20.5073 5.7289 20.4831 5.66584 20.4831 5.60764C20.4831 5.60279 20.4879 5.59794 20.4928 5.60279C20.6237 5.67069 20.7304 5.7871 20.8517 5.87926C21.1961 5.98597 21.5356 6.11207 21.8751 6.21878C22.268 6.34004 22.6609 6.4322 23.0683 6.49525C23.4951 6.56316 23.922 6.62136 24.3391 6.71837C24.5331 6.76202 24.7271 6.81052 24.9211 6.86873C25.3092 6.90753 25.6923 6.93663 26.0804 6.97058C26.449 6.99968 26.8661 7.00454 27.2105 7.13549C27.3075 7.1743 27.2881 7.30041 27.1862 7.31011C26.8564 7.34891 26.5072 7.31496 26.1677 7.281C26.7546 7.49927 27.3317 7.74179 27.8992 8.00855C28.2339 8.16862 28.5831 8.31898 28.9033 8.50329C28.9857 8.55179 29.0682 8.6003 29.1506 8.6585C29.1749 8.53239 29.2185 8.41598 29.3349 8.33353C29.4998 8.21712 29.6745 8.11041 29.8539 8.0134C29.9315 7.96975 30.0285 7.94065 30.1158 7.9358C30.3487 7.93095 30.5621 7.87759 30.7561 7.77089C30.6882 7.67873 30.6203 7.58172 30.5427 7.49442C30.4214 7.35376 30.2904 7.22765 30.1498 7.10639C29.8588 6.86388 29.5241 6.66986 29.1797 6.5098C28.457 6.17998 27.6761 6.00052 26.9001 5.85501C26.8128 5.84046 26.8516 5.7095 26.9389 5.72405C27.7489 5.85986 28.5686 6.02477 29.3204 6.35944C29.6842 6.5195 30.0285 6.72807 30.3293 6.98998C30.5427 7.17915 30.7658 7.41681 30.8967 7.68358C30.9258 7.66418 30.9549 7.63993 30.984 7.61568C31.2896 7.35376 31.4982 7.03849 31.4642 6.60196ZM20.5849 2.02809C20.6092 2.03294 20.6383 2.03779 20.6625 2.04264C20.6383 2.03779 20.6092 2.03294 20.5849 2.02809C20.5461 2.02324 20.5025 2.01354 20.4637 2.00869C20.5025 2.01839 20.5413 2.02324 20.5849 2.02809ZM22.1516 2.81385C21.2494 2.41127 20.2891 2.14935 19.3141 1.98444C17.568 1.69342 15.7589 1.74677 14.0321 2.12025C13.3385 2.27061 12.674 2.48888 12.0047 2.71684C11.7088 2.8187 11.4178 2.92056 11.1219 3.01271C10.9813 3.05636 10.8115 3.11942 10.6612 3.11942C10.6515 3.11942 10.6515 3.10487 10.6612 3.10487C10.7388 3.09517 10.8115 3.04181 10.8794 3.01271C11.0104 2.95451 11.1462 2.906 11.2771 2.85265C11.6167 2.72169 11.9562 2.59073 12.3006 2.46462C13.8478 1.89228 15.4872 1.59641 17.1363 1.59641C17.7523 1.59641 18.3683 1.63522 18.9795 1.72252C19.3093 1.74192 19.6391 1.77103 19.9689 1.80498C19.6391 1.77103 19.3093 1.74192 18.9795 1.72252C20.0999 1.88258 21.1961 2.19786 22.2243 2.69259C22.302 2.73624 22.2292 2.8478 22.1516 2.81385ZM22.9276 2.47917C22.8112 2.45492 22.6948 2.43552 22.5784 2.41127C22.6948 2.43552 22.8112 2.45977 22.9276 2.47917C22.9276 2.46947 22.9325 2.46462 22.9325 2.45492C22.9325 2.46462 22.9325 2.47432 22.9276 2.47917ZM30.0528 6.06357C29.9412 6.15088 29.7569 6.07812 29.6454 6.03447C29.3592 5.92776 29.0973 5.7483 28.8645 5.55429C28.8305 5.52518 28.879 5.46213 28.913 5.49123C29.1264 5.65129 29.3592 5.78225 29.5969 5.89866C29.6939 5.94716 29.7957 5.99082 29.8976 6.02962C29.9412 6.04417 30.0091 6.08782 30.0528 6.06357C30.0528 6.05872 30.0528 6.05872 30.0528 6.06357ZM29.7327 5.53974C30.0916 5.89866 30.4457 6.25758 30.8046 6.61651C30.7852 6.58741 30.7706 6.5583 30.7512 6.5292C30.7706 6.5583 30.79 6.58741 30.8046 6.61651C30.4505 6.25758 30.0916 5.89866 29.7327 5.53974Z" fill="#1DA1F2"/>
<path d="M17.8589 5.58826C17.9171 4.78795 17.4369 4.0701 16.7918 3.58992C16.3844 3.28435 15.8945 3.00788 15.3609 3.08549C14.8614 3.16309 14.4103 3.54142 14.1338 3.94885C13.8864 4.30777 13.7991 4.68125 13.8379 5.10807C13.8525 5.27299 13.8767 5.4379 13.9155 5.59796C13.9495 5.61251 13.9786 5.64161 13.9931 5.68526C14.0902 5.97143 14.2114 6.2479 14.3472 6.51952C14.3521 6.52922 14.3569 6.53407 14.3666 6.54862C14.5606 6.92695 14.8468 7.25677 15.2494 7.42653C15.5938 7.57204 15.9818 7.5866 16.3359 7.48959C17.0731 7.29072 17.6066 6.66988 17.8007 5.94233C17.8104 5.90838 17.8152 5.87928 17.8249 5.84533C17.8346 5.75802 17.8637 5.67071 17.8589 5.58826ZM16.9324 6.89785C16.6802 7.08701 16.4814 7.37803 16.0982 7.30043C16.0982 7.31983 16.0933 7.33438 16.0933 7.35378C15.8993 7.30528 15.6956 7.27617 15.5113 7.19857C15.2009 7.06761 14.9196 6.8736 14.711 6.61168C14.4103 6.23335 14.1338 5.83077 14.1144 5.32634C14.1047 5.06927 14.0902 4.80735 14.1144 4.55029C14.129 4.38538 14.1581 4.18651 14.2599 4.07495C14.4588 3.85184 14.6867 3.62387 14.9535 3.48806C15.4191 3.24555 15.909 3.16794 16.4135 3.46381C16.7287 3.64812 16.9858 3.87124 17.2138 4.15741C17.757 4.82676 17.7279 6.28671 16.9324 6.89785Z" fill="#1DA1F2"/>
<path d="M8.92441 12.3545C8.91958 12.3593 8.91475 12.3641 8.90991 12.369C8.91475 12.3641 8.91958 12.3593 8.92441 12.3545C8.92925 12.3496 8.93408 12.3448 8.93891 12.34C8.93408 12.3448 8.92925 12.3496 8.92441 12.3545Z" fill="#1DA1F2"/>
<path d="M8.97863 12.6166C8.96872 12.6166 8.96377 12.6116 8.95386 12.6067C8.96377 12.6116 8.97367 12.6116 8.97863 12.6166C8.98358 12.6166 8.98358 12.6166 8.97863 12.6166C8.98358 12.6166 8.98358 12.6166 8.97863 12.6166Z" fill="#1DA1F2"/>
<path d="M9.59868 12.7279C9.59385 12.7424 9.58418 12.7472 9.57935 12.7569C9.58418 12.7472 9.58901 12.7424 9.59868 12.7279Z" fill="#1DA1F2"/>
<path d="M41.4754 15.5993C41.4511 15.0997 41.4414 14.6001 41.2959 14.1151C41.2135 13.8338 41.1553 13.5379 41.0437 13.2663C40.9321 12.985 40.7624 12.7328 40.6314 12.4611C40.4665 12.1216 40.2773 11.8064 40.0057 11.5444C39.9087 11.4523 39.9087 11.3456 39.933 11.2437C39.9427 11.1952 40.0251 11.1613 40.1076 11.1031C39.7196 10.812 39.3509 10.5113 38.9581 10.2445C38.6331 10.0263 38.2887 9.83226 37.9346 9.6528C37.6776 9.52184 37.4011 9.43939 37.1295 9.33753C37.1198 9.33268 37.1004 9.34723 37.0858 9.34723C36.853 9.34723 36.5959 9.41029 36.3874 9.33753C36.0382 9.21627 35.718 9.02226 35.33 9.04166V8.74579C35.5386 8.72154 35.7326 8.69244 35.9266 8.66818C35.8296 8.60513 35.7423 8.57118 35.6453 8.55663C35.4367 8.52753 35.2233 8.51297 35.0099 8.47902C34.7189 8.43537 34.4278 8.36746 34.132 8.34806C33.7003 8.31411 33.2686 8.35291 32.8515 8.48872C32.4926 8.60028 32.1336 8.70699 31.7844 8.83795C31.5564 8.92525 31.3576 9.08531 31.1248 9.16777C30.6106 9.36178 30.3148 9.72071 30.242 10.2882C30.1207 10.2688 30.0043 10.2494 29.8443 10.2251C29.8249 10.4822 29.8055 10.7587 29.7812 11.0642C29.6503 11.0448 29.5096 11.0497 29.398 10.9963C29.3835 10.9866 29.3689 10.9818 29.3544 10.9721C29.3495 11.0448 29.3447 11.1176 29.3253 11.1904C29.2622 11.4474 29.1264 11.6996 28.9761 11.9228C28.913 12.0149 28.7384 12.0295 28.5929 12.0877C28.5832 12.3835 28.3698 12.5921 28.137 12.7667C27.8217 13.0044 27.4919 13.2275 27.1523 13.4312C26.3423 13.9162 25.5372 14.4013 24.7126 14.8572C23.9317 15.2889 23.112 15.6527 22.2632 15.9243C21.8752 16.0455 21.4581 16.0892 21.0506 16.1231C20.8324 16.1425 20.6092 16.0698 20.391 16.031C19.5955 15.8952 18.8001 15.7642 18.0046 15.6187C17.4517 15.5169 16.9036 15.3956 16.3507 15.2986C15.7492 15.187 15.1478 15.1046 14.5463 14.9882C13.552 14.7942 12.5625 14.5759 11.5634 14.3916C11.0104 14.2897 10.4478 14.2412 9.89486 14.1491C9.69114 14.1151 9.48743 14.0957 9.27887 14.0812C9.27402 14.12 9.26917 14.1636 9.25947 14.2024C9.19156 14.2073 9.13821 14.2121 9.0703 14.217C9.0703 14.2558 9.06545 14.2849 9.06545 14.314C9.08 14.6098 9.03635 14.8863 8.83749 15.124C8.75503 15.2258 8.68227 15.3325 8.61922 15.449C8.43491 15.7885 8.21664 16.094 7.84317 16.2493C7.82377 16.2541 7.80922 16.2735 7.79951 16.2929C7.74616 16.3705 7.70736 16.4675 7.6346 16.5257C7.15927 16.9186 6.75184 17.3745 6.41717 17.8935C6.20861 18.2185 6.01944 18.558 5.83513 18.8975C5.63142 19.2759 5.52471 19.6833 5.51016 20.1101C5.50046 20.3963 5.51016 20.6873 5.51016 20.9783C5.27734 21.0123 5.19974 20.9492 5.19489 20.7019C5.19004 20.6097 5.19974 20.5127 5.19489 20.4205C5.19004 20.3672 5.18033 20.3041 5.15123 20.2605C4.86021 19.8579 4.56434 19.4553 4.26362 19.0576C4.11811 18.8636 3.94835 18.6841 3.82709 18.4804C3.57002 18.0487 3.32266 17.6122 3.09469 17.166C2.89583 16.7828 2.79882 16.3657 2.74547 15.9437C2.68726 15.4684 2.66786 14.9882 2.63391 14.5177C2.56116 14.5322 2.4981 14.5468 2.4302 14.5565C2.18768 14.5904 1.94031 14.6341 1.6978 14.6535C1.42618 14.6777 1.29037 14.702 1.33887 14.3528C1.6881 14.2994 2.01307 14.2364 2.34289 14.2073C2.72607 14.1733 3.08499 14.0763 3.42936 13.9211C3.71553 13.7901 3.992 13.6446 4.26847 13.4991C4.6759 13.2809 5.05908 12.9947 5.48591 12.8492C5.82543 12.7328 6.17465 12.6746 6.51903 12.6697C6.55783 12.6455 6.59178 12.6261 6.63058 12.6067C6.83915 12.4902 7.05256 12.3884 7.27083 12.2962C7.75586 12.0877 8.25545 11.9276 8.75018 11.753C9.1188 11.622 9.47773 11.4814 9.82695 11.3019C10.1471 11.137 10.5157 10.9381 10.7291 10.6423C10.8407 10.4871 11.0977 10.6374 10.9862 10.7926C10.7534 11.1176 10.3993 11.3359 10.0549 11.5202C9.696 11.7142 9.32252 11.8694 8.93934 12.0052C8.40096 12.1944 7.84802 12.369 7.32418 12.597C7.09622 12.6988 6.8828 12.8104 6.66454 12.9316C6.54328 12.9995 6.40747 13.082 6.26681 13.1159C6.22801 13.1741 6.1892 13.2372 6.15525 13.3003V13.4021C6.18435 13.5525 6.20375 13.7271 6.38807 13.7659C6.67909 13.8338 6.97011 13.9162 7.27568 13.8144C7.41634 13.7659 7.56185 13.7368 7.70736 13.7271C8.3573 13.6786 9.0024 13.6446 9.65234 13.7562C10.2053 13.8483 10.7679 13.8968 11.3209 13.9987C12.32 14.183 13.3095 14.4013 14.3038 14.5953C14.9053 14.7117 15.5067 14.7942 16.1081 14.9057C16.6611 15.0076 17.2092 15.1288 17.7621 15.2258C18.5576 15.3713 19.353 15.5023 20.1485 15.6381C20.3667 15.6769 20.5947 15.7497 20.8081 15.7303C21.2155 15.6963 21.6327 15.6527 22.0207 15.5314C22.8744 15.2646 23.6892 14.9009 24.4701 14.4643C25.2947 14.0084 26.0998 13.5234 26.9098 13.0383C27.2494 12.8346 27.5792 12.6164 27.8944 12.3738C28.1224 12.1992 28.3358 11.9907 28.3504 11.6948C28.491 11.6366 28.6705 11.622 28.7336 11.5299C28.8839 11.3068 29.0149 11.0545 29.0828 10.7975C29.141 10.5744 29.0973 10.327 29.0876 10.0893C29.0828 9.95352 29.0391 9.81771 29.044 9.6819C29.0585 9.44909 29.0779 9.22112 29.107 8.98831C28.9276 8.8428 28.7142 8.73124 28.5153 8.62938C28.1321 8.43537 27.7441 8.25106 27.3512 8.07644C26.6043 7.74177 25.8379 7.45075 25.0522 7.21794C24.9745 7.19368 24.8969 7.17428 24.8193 7.15003C24.0627 7.07243 23.3109 6.97057 22.5736 6.79596C22.1031 6.6844 21.6278 6.54374 21.201 6.31577C21.1816 6.30607 21.1622 6.29637 21.1476 6.28667C20.8712 6.19452 20.5947 6.10236 20.3134 6.0296C19.5907 5.84044 18.8583 5.81134 18.121 5.85014C18.0968 5.9714 18.0628 6.09751 18.024 6.21392C17.733 7.02877 17.0588 7.68357 16.1809 7.80968C15.3563 7.93093 14.6191 7.52836 14.1971 6.84446C14.1874 6.83476 14.1777 6.82021 14.168 6.80566C14.0855 6.6553 14.0128 6.50494 13.9449 6.35458C12.936 6.61164 11.9077 6.80566 10.8843 6.98512C10.8649 7.08698 10.8504 7.18398 10.8552 7.27614C10.8843 7.81453 10.8746 8.34806 10.7728 8.88645C10.7097 9.22597 10.603 9.5946 10.8746 9.91472C10.8843 9.92442 10.8795 9.94867 10.8843 9.96322C10.9134 10.0893 10.9425 10.2154 11.088 10.2833C11.0638 10.3124 10.9668 10.3464 10.9183 10.3318C10.7388 10.2736 10.5497 10.2251 10.3993 10.1184C10.1665 9.95352 9.94336 9.75951 9.7445 9.5461C9.45348 9.23082 9.20126 8.87675 8.91024 8.55663C8.76958 8.40142 8.58527 8.28501 8.42036 8.15405C8.3185 8.07644 8.21179 8.00854 8.10509 7.93578C8.11479 8.03279 8.14874 8.09585 8.17299 8.1686C8.19724 8.24621 8.21179 8.32381 8.21664 8.40627C8.23119 8.64393 8.12449 8.71669 7.89652 8.62453C7.84802 8.60513 7.80436 8.58088 7.75586 8.55663C7.654 8.49357 7.557 8.42567 7.45029 8.37231C6.98466 8.1201 6.48022 8.02309 5.96124 8.02309C5.46165 8.02309 4.95722 8.04249 4.45764 8.05704C4.43823 8.05704 4.42368 8.06674 4.38003 8.08614C4.42368 8.10555 4.44308 8.1201 4.46249 8.12495C4.6371 8.1977 4.70985 8.33836 4.66135 8.55178C4.6274 8.69244 4.50129 8.68274 4.38488 8.69244C4.19572 8.71184 3.99685 8.71184 3.82709 8.78459C3.47302 8.9301 3.13349 9.11442 2.78912 9.28903C2.65331 9.35693 2.52235 9.44424 2.38654 9.51214C2.21678 9.59945 2.04217 9.67705 1.85301 9.76921C2.01792 9.86622 2.17798 9.95837 2.33804 10.0554V10.2542C1.60079 10.4192 0.247546 11.981 0.0438322 13.0044C0.213594 12.9995 0.276648 13.1014 0.271798 13.2566C0.266948 13.3633 0.257247 13.4749 0.237846 13.5816C0.189342 13.8532 0.0923355 14.1151 0.131138 14.3964C0.135989 14.4449 0.15539 14.4934 0.169941 14.5419C0.189342 14.5953 0.232995 14.6486 0.232995 14.702C0.208744 15.0415 0.121438 15.3713 -0.00952148 15.6866V15.7933C0.30575 15.7933 0.310601 15.7933 0.30575 16.1134C0.30575 16.1765 0.286349 16.2396 0.281498 16.3026C0.257247 16.4918 0.232995 16.6858 0.213594 16.8604H0.543417C0.59677 17.1417 0.659824 17.3988 0.688926 17.6656C0.718028 17.9129 0.713178 18.0681 0.465811 18.1263C0.640423 18.3883 0.931443 18.4707 1.19336 18.5968C1.39222 18.6938 1.44558 18.8684 1.28067 19.0188C1.17881 19.111 1.04785 19.1789 0.912042 19.2662C1.31947 19.3826 1.7269 19.499 2.17798 19.6251C2.06157 19.9113 1.95001 20.1974 1.82875 20.5078C2.31864 20.3041 2.78912 20.4011 3.28871 20.537C3.25475 20.7407 3.2208 20.9492 3.1917 21.1481C3.47787 21.0899 3.61368 20.6679 3.9435 20.7504C4.10356 21.1287 4.24907 21.4731 4.40428 21.8368C4.48189 21.3373 4.6856 21.1141 5.01057 21.1529C5.01542 21.1723 5.01542 21.1966 5.02027 21.216C5.07363 21.4779 5.13668 21.735 5.18519 21.9969C5.23854 22.2588 5.30159 22.5207 5.02997 22.7245C4.77291 22.9136 4.52554 23.127 4.26362 23.3404C4.38003 23.3647 4.50614 23.4083 4.63225 23.418C4.73895 23.4277 4.76806 23.4666 4.77291 23.5684C4.78261 23.8061 4.75836 24.0292 4.64195 24.2523C4.50614 24.5045 4.41398 24.7858 4.28787 25.0914C4.41883 25.0575 4.49159 25.0332 4.55949 25.0235C4.6371 25.009 4.71955 25.0041 4.80201 25.0041C5.03482 25.0041 5.11728 25.1157 5.03968 25.3436C5.02997 25.3776 5.00572 25.4067 4.99117 25.4358C4.88932 25.6055 4.79231 25.7802 4.6856 25.9499C4.48189 26.2749 4.29272 26.9297 4.29757 27.3759C4.42368 27.148 4.608 27.0655 4.83111 27.1189C4.90872 27.1383 5.00087 27.2013 5.03968 27.2692C5.06878 27.3226 5.03482 27.4293 5.00087 27.4923C4.83596 27.8076 4.66135 28.118 4.48189 28.443C4.52554 28.443 4.54494 28.4478 4.55949 28.443C4.89417 28.3508 5.02027 28.4381 5.01057 28.7728C5.01057 28.831 4.99117 28.8844 4.97662 28.9426C4.91357 29.2239 4.85536 29.5101 4.79231 29.7914C4.77776 29.8593 4.76806 29.932 4.75351 30.0339C4.87476 29.9078 4.95722 29.8108 5.04938 29.7235C5.16093 29.6216 5.418 29.6071 5.4568 29.6992C5.53441 29.8884 5.61201 30.0776 5.67022 30.2716C5.78178 30.6353 5.76723 31.004 5.70417 31.3726C5.64597 31.7024 5.51016 31.9983 5.27249 32.2408C5.18033 32.3378 5.10758 32.4445 5.02027 32.5561C5.22399 32.5221 5.418 32.4736 5.61687 32.4591C5.80118 32.4445 5.85938 32.5124 5.80603 32.687C5.74782 32.8713 5.68477 33.0557 5.59746 33.2254C5.3598 33.6765 5.3404 34.1567 5.3598 34.6611C5.44225 34.5932 5.50531 34.5253 5.57806 34.4962C5.66537 34.4574 5.77693 34.4283 5.86423 34.4477C5.90789 34.4574 5.94669 34.5932 5.94669 34.6708C5.95154 34.9133 5.98064 35.1462 6.04854 35.3838C6.20375 35.9125 6.54328 36.3199 6.844 36.7613C6.8634 36.674 6.86825 36.5964 6.85855 36.5139C6.84885 36.3927 6.8343 36.2714 6.8246 36.1453C6.8343 36.1647 6.83915 36.1793 6.84885 36.1987L6.8537 36.2035C6.96526 36.5236 7.10592 36.8292 7.29508 37.1105C7.32418 37.2463 7.34358 37.3822 7.34358 37.518C7.33873 37.8866 7.46484 38.1922 7.6055 38.5074C7.64915 38.6044 7.68311 38.7063 7.73646 38.8373C7.74131 38.7888 7.74131 38.7645 7.74616 38.7402C7.76071 38.6626 7.69766 38.5511 7.83832 38.5317C7.97898 38.5123 8.08083 38.5365 8.16814 38.6869C8.3573 39.0167 8.57557 39.332 8.78413 39.6521C8.79868 39.6473 8.81323 39.6424 8.82294 39.6376C8.83749 39.4629 8.84719 39.2883 8.86174 39.104H9.19156C9.31767 39.3368 9.45348 39.5745 9.56989 39.8219C9.68144 40.0595 9.7736 40.3118 9.89486 40.6028C9.92881 40.4573 9.95306 40.3506 9.97731 40.2439C10.2198 40.1808 10.375 40.3021 10.3847 40.564C10.3896 40.7434 10.4138 40.9229 10.4187 41.1024C10.4235 41.2091 10.4041 41.3206 10.4284 41.4467C10.5448 41.2333 10.6758 41.0248 10.7679 40.7968C10.8213 40.6658 10.8989 40.6804 10.9959 40.6755C11.1123 40.6707 11.1026 40.7483 11.1317 40.8307C11.1996 41.0102 11.2966 41.1848 11.3936 41.3497C11.5585 41.631 11.7331 41.9075 11.9029 42.184C11.9223 42.2179 11.9465 42.247 11.9951 42.3198C11.9999 42.2228 12.0048 42.1694 12.0048 42.1161C12.0145 41.9172 12.0193 41.7232 12.0484 41.5292C12.0581 41.4758 12.1454 41.4031 12.2036 41.3934C12.2861 41.3788 12.4073 41.3352 12.4316 41.5001C12.451 41.5971 12.4946 41.6941 12.5528 41.7814C12.7905 42.1452 13.0427 42.5041 13.3143 42.9067C13.3289 42.8145 13.3337 42.7757 13.3386 42.7418C13.3628 42.3295 13.3822 41.9221 13.4114 41.5098C13.4259 41.3255 13.4793 41.3012 13.7848 41.3352C13.8139 41.7038 13.843 42.0773 13.877 42.5041C14.0176 42.3974 14.1341 42.3198 14.2359 42.2325C14.5948 41.9318 14.9974 41.7669 15.4727 41.8154C15.5212 41.8202 15.6086 41.8542 15.6134 41.8784C15.6231 41.9512 15.6183 42.0433 15.5843 42.1064C15.4679 42.3149 15.3369 42.509 15.2157 42.7127C15.2351 42.7321 15.2496 42.7466 15.269 42.766C15.5649 42.6157 15.8705 42.475 16.1615 42.3101C16.3846 42.184 16.5883 42.0239 16.8114 41.893C16.8842 41.8493 16.986 41.8493 17.0734 41.8348C17.1995 42.1064 16.9375 42.281 16.923 42.5235C17.2383 42.4362 17.4226 42.1985 17.6651 42.053C17.8252 41.9609 17.9319 41.7426 18.1986 41.8299C18.1744 42.1888 18.1501 42.5623 18.1259 42.9358H18.1598C18.3053 42.7757 18.4363 42.5914 18.6012 42.4556C18.8534 42.2422 19.1202 42.053 19.3918 41.8687C19.7265 41.6456 20.066 41.4419 20.4104 41.2382C20.4686 41.2042 20.5559 41.2188 20.6335 41.2091C20.6772 41.3594 20.6432 41.4661 20.5559 41.5874C20.4104 41.7814 20.2891 41.9948 20.1291 42.247C20.2455 42.2228 20.3182 42.2276 20.3813 42.1985C20.9148 41.9415 21.4484 41.6844 21.977 41.4176C22.0692 41.374 22.142 41.2915 22.2196 41.2188C22.3748 41.0684 22.3748 41.0684 22.6124 41.083C22.6415 41.1703 22.6706 41.2624 22.6949 41.3546C22.7143 41.4419 22.724 41.5292 22.7725 41.631C22.8404 41.5001 22.8986 41.3691 22.9714 41.243C23.112 41.0102 23.2818 40.7968 23.403 40.5591C23.5049 40.3603 23.5825 40.1371 23.6407 39.9189C23.6456 39.9043 23.6504 39.8898 23.6504 39.8704C23.8153 39.817 23.9463 39.6861 24.0142 39.5017C24.0239 39.4678 24.0384 39.4387 24.0481 39.4047C24.0578 39.3902 24.0724 39.3756 24.0821 39.3611C24.0772 39.4096 24.0675 39.4532 24.0578 39.5017C23.9317 40.011 23.7959 40.5155 23.5679 40.9908C23.5437 41.0393 23.5243 41.1169 23.5437 41.1606C23.665 41.4322 23.8056 41.6941 23.9366 41.956C23.9608 41.8687 23.9657 41.7911 23.9608 41.7184C23.9511 41.2236 24.0772 40.7677 24.3828 40.37C24.441 40.2972 24.538 40.2439 24.5623 40.1614C24.6253 39.9431 24.7757 39.9771 24.9406 39.9916C24.9406 40.3021 24.9018 40.6076 25.1152 40.8792C25.3238 40.6852 25.5081 40.5058 25.7021 40.3312C25.8913 40.1662 26.0804 39.9916 26.2938 39.851C26.5655 39.6667 26.8565 39.5018 27.1475 39.3514C27.2251 39.3126 27.3658 39.3174 27.4337 39.3659C27.4822 39.3999 27.4725 39.5454 27.4482 39.6327C27.4143 39.7685 27.3464 39.8995 27.2882 40.0353C27.2979 40.0498 27.3076 40.0644 27.3173 40.0789C27.5646 40.011 27.8265 39.9771 28.0497 39.8607C28.4134 39.6667 28.7724 39.4581 29.0634 39.1574C29.1119 39.1089 29.2283 39.104 29.3059 39.1186C29.335 39.1234 29.3738 39.235 29.3641 39.2932C29.3447 39.4629 29.301 39.6279 29.2671 39.817C29.4854 39.6279 29.6891 39.4581 29.8831 39.2786C30.3245 38.8615 30.6834 38.3862 30.9017 37.8187C30.9987 37.5665 31.0084 37.2851 31.0423 37.0135C31.0569 36.9117 31.0278 36.8001 31.0181 36.6983C31.246 36.6449 31.3867 36.7322 31.4788 36.8971C31.6001 37.1154 31.7117 37.3385 31.8426 37.5762C31.7214 36.7856 31.9251 36.0774 32.3228 35.4178C32.6041 35.4081 32.6138 35.4275 32.5993 35.7185C32.5944 35.8688 32.6381 36.0241 32.6623 36.1744C32.6817 36.1744 32.706 36.1696 32.7254 36.1696C32.7448 36.0338 32.7545 35.898 32.7787 35.767C32.8127 35.5584 32.8127 35.3305 32.9048 35.1462C33.1183 34.7242 33.3753 34.3264 33.6178 33.919C33.7245 33.7396 33.8701 33.5746 33.9234 33.3855C33.9719 33.206 34.0495 33.1769 34.2193 33.2157C34.2484 33.3709 34.2823 33.5358 34.3114 33.6959C34.3308 33.7008 34.3502 33.7056 34.3648 33.7056C34.4472 33.3952 34.5394 33.0848 34.6073 32.7743C34.6946 32.3669 34.6995 31.9595 34.5151 31.5666C34.4472 31.4162 34.4424 31.2416 34.3987 31.0185C34.5879 31.067 34.7237 31.0913 34.8498 31.1301C35.0632 31.2028 35.2718 31.2853 35.4852 31.3629C35.4949 31.3483 35.5046 31.3386 35.5143 31.3241C35.0438 30.7712 34.7916 30.1261 34.651 29.4373C34.908 29.3452 35.0729 29.4519 35.233 29.5828C35.2476 29.4519 35.267 29.3403 35.2767 29.2336C35.3009 28.8795 35.2136 28.54 35.136 28.1956C35.0341 27.7203 34.8644 27.2741 34.5588 26.8909C34.4327 26.7308 34.3648 26.5853 34.423 26.3477C34.6364 26.3865 34.8498 26.4253 35.0535 26.4592C34.942 26.173 34.7334 25.9208 34.5006 25.6832C34.3551 25.5328 34.229 25.3679 34.0932 25.2127L34.1223 25.1739H33.8943C33.8458 25.0235 33.8846 24.9411 34.0204 24.8731C34.3648 24.7034 34.6704 24.4754 34.8838 24.1504C34.9565 24.0389 35.0341 23.9516 35.1699 23.9516C35.8344 23.9467 36.2904 23.5587 36.6735 23.0834C36.7706 22.9621 36.8433 22.9621 36.9694 22.9767V23.2919C37.3962 23.161 37.7746 22.9815 38.0171 22.6226C38.1141 22.4771 38.1917 22.4625 38.3518 22.4868V22.7681C38.4633 22.6517 38.5312 22.5304 38.5991 22.4092C38.7155 22.2152 38.8805 22.1473 39.0405 22.2103C39.1715 22.2637 39.3073 22.2976 39.4285 22.3364C39.4625 22.026 39.5061 21.7301 39.5304 21.4343C39.5546 21.1384 39.5886 21.0996 39.8699 21.0608C39.9233 21.0559 39.996 20.9929 40.0106 20.9444C40.19 20.4448 40.3598 19.9404 40.5344 19.4214H40.7866C40.7915 19.4796 40.7963 19.5378 40.8012 19.6057C40.8351 19.5087 40.8885 19.4262 40.8933 19.3438C40.9176 19.1352 40.9224 18.9266 40.9321 18.7181C40.9467 18.4222 40.9467 18.1263 40.9709 17.8305C40.9903 17.5976 41.034 17.3648 41.0777 17.132C41.131 16.841 41.2086 16.5548 41.2426 16.259C41.2717 16.0116 41.2474 16.0116 41.4948 16.0116V15.6624C41.4996 15.6333 41.4802 15.6187 41.4754 15.5993ZM9.38072 12.8831C9.43408 12.9365 9.47773 13.0044 9.53593 13.0335C9.54078 13.0335 9.54563 13.0383 9.55048 13.0383C9.54563 13.0383 9.54078 13.0335 9.53593 13.0335C9.47288 13.0044 9.42923 12.9365 9.38072 12.8831ZM9.01695 12.272C8.91994 12.2332 8.82779 12.2283 8.74533 12.238C8.82779 12.2235 8.91994 12.2332 9.01695 12.272ZM8.82779 12.4902C8.84719 12.529 8.88114 12.563 8.91994 12.5921C8.88114 12.563 8.84719 12.5242 8.82779 12.4902C8.82779 12.4854 8.82779 12.4805 8.82779 12.4757C8.82779 12.4805 8.82779 12.4854 8.82779 12.4902ZM8.23119 12.6212C8.21179 12.7037 8.10023 12.7037 8.02748 12.7376C8.10509 12.6988 8.21664 12.7037 8.23119 12.6212ZM7.97413 12.7861C8.07113 12.7861 8.15844 12.8007 8.21179 12.8637C8.15844 12.8007 8.07113 12.791 7.97413 12.7861ZM8.3573 13.2178C8.3379 13.1887 8.32335 13.1644 8.30395 13.145C8.32335 13.1644 8.3379 13.1887 8.3573 13.2178ZM22.7967 14.1733C22.53 14.411 22.2099 14.5759 21.8752 14.6923C21.1816 14.93 20.4104 14.9591 19.6828 14.896C19.3385 14.8669 18.9941 14.8087 18.6546 14.7214C18.5042 14.6826 18.349 14.6389 18.2083 14.5759C18.1501 14.5516 18.0725 14.5225 18.0289 14.4789C17.9901 14.4401 17.9852 14.3964 17.9755 14.377C17.9707 14.3673 17.9755 14.3576 17.9852 14.3576C18.0337 14.3528 18.0725 14.3237 18.1453 14.3382C18.218 14.3528 18.2859 14.3722 18.3587 14.3916C18.5188 14.4352 18.6837 14.474 18.8437 14.508C19.5179 14.6389 20.2261 14.6583 20.91 14.5856C21.5114 14.5225 22.1759 14.3819 22.6706 14.0133C22.7628 13.9453 22.8792 14.1006 22.7967 14.1733ZM11.0201 9.73526C11.0201 9.71101 11.0201 9.6819 11.025 9.65765H11.0201C10.9959 9.65765 10.9474 9.6043 10.9474 9.57035C10.9377 9.47334 10.9328 9.37148 10.9474 9.26963C10.9522 9.22597 10.9959 9.16292 11.0347 9.14352C11.1462 9.09986 11.2675 9.05136 11.3839 9.04651C11.8495 9.01256 12.32 8.99316 12.7905 8.97376C13.4502 8.9495 14.1098 8.9495 14.7694 8.91555C14.9247 8.90585 15.0799 8.89615 15.2351 8.88645C16.0402 8.8234 16.8357 8.8816 17.636 8.94465C18.1453 8.98346 18.6546 9.02711 19.1687 9.07076C19.5034 9.09986 19.838 9.13867 20.1727 9.16777C20.5365 9.19687 20.9003 9.21627 21.264 9.23567C21.4484 9.24537 21.6424 9.22597 21.8218 9.25508C22.3796 9.34723 22.9374 9.44424 23.4952 9.5558C24.1645 9.69646 24.8242 9.86622 25.4935 10.002C25.8719 10.0796 26.255 10.1524 26.6334 10.2251L27.6034 10.4968C27.7441 10.521 28.3601 10.8896 28.4959 10.9139C28.4959 10.9575 28.3407 11.171 28.3455 11.2098C28.3504 11.2486 28.3455 11.268 28.2582 11.3601C28.1612 11.4571 28.2 11.5105 28.0351 11.4426C27.8362 11.4377 27.6374 11.428 27.4434 11.4086C26.871 11.3456 26.2987 11.2534 25.7312 11.1516C25.0182 11.0206 24.31 10.8508 23.5971 10.715C22.7143 10.5453 21.8315 10.4046 20.9488 10.2397C20.3667 10.133 19.7847 10.0457 19.1929 10.0554C18.8825 10.0602 18.5721 10.0554 18.2665 10.0408C17.699 10.0166 17.1316 9.97778 16.5641 9.94867C16.2391 9.93412 15.9141 9.91472 15.5892 9.90987C15.3854 9.90987 15.1769 9.92442 14.9732 9.94382C14.7403 9.96807 14.5075 10.0166 14.2699 10.036C13.8818 10.0699 13.489 10.0942 13.0961 10.1233C12.5237 10.1669 11.9563 10.2106 11.3791 10.2591C11.4033 10.2154 11.4179 10.1766 11.4227 10.1427C11.3888 10.1475 11.3548 10.1427 11.3257 10.1281C11.1753 10.0457 11.0298 9.91472 11.0201 9.73526ZM11.1802 10.3221C11.1608 10.3318 11.1414 10.3464 11.122 10.3561C11.1171 10.3415 11.122 10.3173 11.1123 10.3076C11.1074 10.3027 11.1074 10.3027 11.1026 10.2979C11.1268 10.3076 11.1511 10.3124 11.1802 10.3221ZM12.0193 13.5913C12.1018 13.6155 12.0678 13.7416 11.9854 13.7222C11.2578 13.5476 10.5157 13.4118 9.77845 13.3003C9.38557 13.242 8.9927 13.1935 8.59497 13.1547C8.40581 13.1353 8.22149 13.1208 8.03233 13.1062C7.86742 13.0917 7.68796 13.0965 7.53275 13.0432C7.5182 13.0383 7.5182 13.0141 7.53275 13.0092C7.70251 12.951 7.90622 12.9656 8.08568 12.9704C8.27485 12.9704 8.46401 12.9801 8.65317 12.9898C9.0315 13.0141 9.40497 13.0529 9.77845 13.1062C10.5351 13.2129 11.2821 13.3779 12.0193 13.5913ZM7.92077 26.435C7.77041 26.2797 7.62005 26.11 7.59095 25.882C7.5667 25.6638 7.557 25.4455 7.5376 25.2224C7.5473 24.4172 7.66371 23.646 8.18754 22.9961C8.39611 22.739 8.63862 22.5159 8.95874 22.3995C9.39042 22.2394 9.81725 22.2976 10.2489 22.3995C10.637 22.4916 10.8892 22.739 10.9522 23.1125C11.0444 23.6897 11.0541 24.2766 10.8552 24.8392C10.7291 25.1933 10.5788 25.5376 10.4332 25.882C10.3896 25.9839 10.3411 26.11 10.2586 26.1585C10.0695 26.2749 9.86091 26.3671 9.64749 26.435C9.15761 26.5853 8.64832 26.5611 8.14389 26.5514C8.07113 26.5417 7.97898 26.4883 7.92077 26.435ZM10.5303 35.6991C10.5739 35.1947 10.6127 34.6854 10.6564 34.1809C10.6758 34.1809 10.6952 34.1858 10.7194 34.1858C10.6709 34.6902 10.6273 35.1995 10.5788 35.7039C10.5594 35.7039 10.5448 35.7039 10.5303 35.6991ZM10.603 37.9884C10.6758 38.3474 10.7437 38.7111 10.8164 39.0701C10.6855 38.7208 10.54 38.3716 10.603 37.9884ZM12.9506 32.2166C12.7566 32.5367 12.514 32.8277 12.2667 33.1042C11.9368 33.4776 11.4858 33.6619 11.025 33.8075C10.9183 33.8414 10.8213 33.8463 10.8261 33.9433C10.7776 33.9093 10.7388 33.8657 10.6903 33.8414C10.5836 33.7929 10.4429 33.7784 10.3605 33.7008C10.1228 33.4679 9.88516 33.2351 9.70085 32.9635C9.43408 32.5755 9.31282 32.1195 9.20611 31.6636C9.17701 31.5327 9.12851 31.4017 9.11395 31.2659C9.0994 31.1446 9.07515 30.9797 9.13821 30.907C9.26917 30.7566 9.45348 30.6499 9.62324 30.5383C9.793 30.4268 9.97246 30.3346 10.1519 30.2376C10.1471 30.2182 10.1422 30.2037 10.1374 30.1843C9.44863 30.1358 8.80838 30.4025 8.14389 30.5286C8.65802 30.3492 9.16731 30.16 9.72025 30.1455C9.96276 30.1406 10.2053 30.1455 10.4478 30.1358C10.5351 30.1309 10.6176 30.1018 10.7049 30.0776C11.0104 29.9951 11.316 30.0436 11.6119 30.1115C11.8883 30.1746 12.16 30.2522 12.4219 30.354C12.6159 30.4268 12.7954 30.5432 12.9797 30.645C13.1785 30.7615 13.3192 30.9458 13.3095 31.164C13.2804 31.5472 13.1446 31.9013 12.9506 32.2166ZM16.5398 31.4841C16.0402 31.2998 15.5164 31.2707 14.9974 31.2222C14.6191 31.1834 14.2408 31.1737 13.8673 31.1495C13.8139 31.1446 13.7654 31.1155 13.7169 31.101C14.6967 31.1543 15.6862 31.0622 16.6077 31.4841C16.5786 31.4841 16.5544 31.4939 16.5398 31.4841ZM18.2229 32.3863C19.0232 32.5221 19.9836 33.822 20.2649 34.6466C19.7313 33.7347 19.2221 32.8422 18.2229 32.3863ZM20.7111 25.0526C20.7014 25.2078 20.716 25.3727 20.682 25.5231C20.585 25.9596 20.3522 26.3234 19.9787 26.5805C19.9108 26.629 19.838 26.6775 19.7653 26.7163C19.3918 26.6775 19.0038 26.726 18.6255 26.7987C18.5042 26.7599 18.3829 26.726 18.2568 26.6969C18.0628 26.6532 17.927 26.5514 17.8591 26.3768C17.7184 26.0227 17.5729 25.6686 17.4662 25.3C17.2965 24.7082 17.1558 24.1068 17.1898 23.4811C17.2043 23.2337 17.3256 23.0397 17.5196 22.8845C17.9561 22.5353 18.4848 22.5789 18.9601 22.6759C19.4985 22.7827 19.9496 23.1416 20.2746 23.5975C20.5753 24.0243 20.7402 24.5142 20.7111 25.0526ZM38.7931 17.1902C38.6573 17.3648 38.5215 17.5443 38.3712 17.7141C37.9298 18.2233 37.4496 18.6793 36.8773 19.0479C36.4456 19.3292 35.9897 19.5135 35.5046 19.6299C35.1117 19.7221 34.7092 19.7706 34.3066 19.8288C34.0641 19.8628 33.8167 19.8773 33.5645 19.9016C33.5693 19.9501 33.5742 19.9695 33.579 19.9937C33.6712 20.3526 33.7682 20.7067 33.8507 21.0705C33.8895 21.2451 33.8798 21.4294 33.9331 21.5992C34.035 21.9435 34.0204 22.2734 33.9186 22.6032H33.676C33.676 22.3898 33.6857 22.1861 33.6712 21.9823C33.6615 21.8417 33.6275 21.701 33.6033 21.5652C33.5451 21.2451 33.516 20.9104 33.419 20.6049C33.2783 20.1732 33.0746 19.7657 32.9048 19.3438C32.6478 18.7035 32.2985 18.1166 31.9251 17.5443C31.7505 17.2824 31.5467 17.0399 31.3479 16.7925C31.2606 16.6809 31.149 16.5888 31.0714 16.4724C31.0132 16.3851 31.0181 16.2541 30.9599 16.1716C30.6106 15.7012 30.2469 15.2404 29.8928 14.7699C29.82 14.6729 29.7667 14.5613 29.6842 14.4255C29.2331 14.4449 28.7918 14.2509 28.3892 13.9599C28.2728 13.8774 28.1709 13.7901 28.2437 13.6204C28.4425 13.5816 28.622 13.6398 28.7724 13.761C29.1846 14.086 29.6697 14.1685 30.1741 14.1345C30.6834 14.1006 31.1878 14.0278 31.6971 13.9647C31.9057 13.9405 32.1191 13.9065 32.3228 13.8483C32.6866 13.7416 33.0358 13.5767 33.4044 13.4943C34.1465 13.3245 34.9032 13.2615 35.6695 13.3633C36.2419 13.4409 36.7706 13.6155 37.241 13.9405C37.6436 14.2218 37.988 14.5662 38.2742 14.9785C38.5167 15.3325 38.6525 15.7254 38.7592 16.1183C38.8416 16.4239 38.8222 16.7634 38.8416 17.0835C38.8368 17.1223 38.8174 17.1611 38.7931 17.1902Z" fill="#1DA1F2"/>
</g>
<defs>
<clipPath id="clip0_165_43">
<rect width="140" height="42.6199" fill="white" transform="translate(0 0.306274)"/>
</clipPath>
</defs>
</svg>
