<svg width="147" height="498" viewBox="0 0 147 498" fill="none" xmlns="http://www.w3.org/2000/svg">
<path d="M109.835 71.3782L109.834 71.3772L100.781 40.9842L100.658 40.5715L100.287 40.7899L77.0256 54.4793L76.8695 54.5712L76.8599 54.7521L76.357 64.297L76.3565 64.3059V64.3147C76.3565 65.3245 75.7917 66.3473 74.8831 66.9158C74.2968 67.2666 73.6026 67.4942 72.9215 67.4942C71.556 67.4942 70.1822 66.5819 69.7236 65.0968C69.7234 65.0961 69.7232 65.0954 69.7229 65.0947L67.5867 57.8147L67.4639 57.3963L67.09 57.6205L63.3294 59.8742C63.1097 59.982 62.7903 60.0843 62.4852 60.0843C61.9722 60.0843 61.467 59.7694 61.2778 59.3914L61.2736 59.383L61.2689 59.3749C60.8492 58.6412 61.0696 57.7242 61.7721 57.3232L61.7723 57.3234L61.7827 57.317L65.4291 55.0563L65.8566 54.7912L65.4489 54.4966L59.5515 50.2354C57.8409 48.7431 57.965 46.1361 59.8971 44.8832C60.483 44.5331 61.1762 44.3061 61.8565 44.3061C62.1775 44.3061 62.6372 44.417 63.0047 44.5391C63.0056 44.5394 63.0065 44.5397 63.0074 44.54L71.9295 47.6779L72.111 47.7418L72.2583 47.6179L93.0051 30.1607L93.3174 29.8979L93.0003 29.6409L68.3556 9.6719L68.3556 9.67189L68.3538 9.67046C66.0134 7.80032 66.1373 4.18709 68.7015 2.55723L68.7015 2.55729L68.7075 2.55332C69.3972 2.09401 70.3353 1.85629 71.1611 1.85629C71.7415 1.85629 72.3257 1.9716 72.9153 2.2063L85.9852 8.10599L86.2554 8.22795L86.4109 7.97557L87.4135 6.34825C87.8561 5.68847 88.5054 5.37284 89.1416 5.37284C89.4599 5.37284 89.8963 5.48276 90.2122 5.6931L90.2235 5.70065L90.2355 5.70727C91.1919 6.23801 91.52 7.52156 90.8731 8.49076L90.1186 9.62108L89.898 9.95171L90.2602 10.1154L95.5412 12.5016L95.8169 12.6262L95.9705 12.3655L97.2229 10.2389C97.6654 9.58093 98.3138 9.26616 98.9492 9.26616C99.2675 9.26616 99.7039 9.37608 100.02 9.58642L100.031 9.59398L100.043 9.6006C100.999 10.1313 101.328 11.4149 100.681 12.3841L100.68 12.384L100.674 12.3944L99.6681 14.0271L99.4653 14.3563L99.8191 14.5123L109.501 18.7824L109.671 18.8574L109.825 18.7538L130.564 4.81787L130.565 4.81778L130.565 4.81728L130.569 4.81512L130.583 4.80614L130.64 4.7703C130.691 4.73872 130.767 4.69215 130.865 4.63273C131.061 4.51388 131.346 4.34367 131.704 4.13922C132.42 3.73016 133.422 3.18489 134.568 2.63995C136.875 1.54273 139.707 0.474784 141.952 0.474784C143.285 0.474784 144.414 0.838404 145.077 1.72161L145.078 1.72346C146.096 3.05964 146.18 4.56404 145.702 6.11384C145.22 7.67592 144.173 9.26007 142.967 10.6898C141.765 12.1156 140.423 13.3663 139.38 14.2621C138.859 14.7096 138.414 15.0673 138.099 15.3128C137.942 15.4355 137.818 15.5302 137.733 15.5939C137.716 15.6067 137.7 15.6182 137.687 15.6285C137.666 15.6438 137.649 15.6563 137.636 15.6659L137.612 15.6838L137.609 15.6861L117.118 29.4977L116.965 29.6013L116.97 29.7866L117.221 38.8291L117.231 39.181L117.582 39.156L121.091 38.9057H121.205C122.271 38.9057 123.148 39.7605 123.258 40.8628C123.366 41.9343 122.5 43.0039 121.331 43.0039H121.319L121.308 43.0047L117.536 43.2559L117.207 43.2778L117.222 43.6072L117.473 49.2588L117.488 49.6004L117.83 49.5803L119.957 49.4553H120.073C121.139 49.4553 122.016 50.3102 122.127 51.4124C122.234 52.4839 121.369 53.5536 120.199 53.5536H120.19L120.18 53.5541L117.917 53.6797L117.588 53.6979L117.599 54.027L118.101 69.846C118.1 71.3679 117.398 72.7718 116.103 73.7125L116.066 73.7392L116.038 73.7745C115.627 74.287 114.872 74.5273 114.038 74.5273C112.167 74.5273 110.419 73.3618 109.835 71.3782Z" fill="#33B2FF" stroke="black" stroke-width="0.674178"/>
<path d="M137.92 15.724C137.918 15.7269 137.915 15.7308 137.912 15.7357L117.496 29.4974L117.342 29.601L117.347 29.7863L117.599 38.8288L117.608 39.1808L117.959 39.1557L121.468 38.9054C122.545 38.9116 123.518 39.7768 123.634 40.8458C123.625 41.9225 122.754 42.8945 121.68 43.0048L117.913 43.2556L117.584 43.2775L117.599 43.6069L117.85 49.2585L117.865 49.6001L118.207 49.58L120.334 49.455C121.412 49.4601 122.386 50.3258 122.502 51.3954C122.493 52.4716 121.623 53.4431 120.55 53.5543L118.294 53.6794L117.96 53.698L117.976 54.032L118.73 69.8484C118.728 71.3833 118.016 72.8947 116.749 73.7005L116.749 73.7004L116.743 73.7044C114.296 75.334 110.904 74.0535 110.086 71.2531L110.086 71.2513L101.032 40.8583L100.91 40.4456L100.538 40.664L77.2769 54.3534L77.1208 54.4453L77.1113 54.6262L76.6083 64.1711L76.6079 64.18V64.1889C76.6079 65.1996 76.042 66.2234 75.1318 66.7915L75.1274 66.7944C73.1765 68.0552 70.6631 67.1402 69.9746 64.9697C69.9743 64.9686 69.9739 64.9675 69.9736 64.9664L67.8381 57.6888L67.7153 57.2705L67.3413 57.4946L63.5723 59.7533C62.8376 60.1706 61.9211 59.9496 61.5203 59.249C61.1005 58.5153 61.321 57.5983 62.0235 57.1973L62.0236 57.1975L62.034 57.1911L65.6804 54.9304L66.108 54.6654L65.7002 54.3707L59.7974 50.1055C58.1146 48.7538 58.3166 46.0156 60.1612 44.7489L60.1612 44.749L60.1661 44.7455C60.9427 44.1915 62.0825 44.0652 63.1303 44.4132C63.1312 44.4135 63.1321 44.4138 63.133 44.4141L72.0551 47.5521L72.2373 47.6161L72.3847 47.4913L93.0057 30.0342L93.3181 29.7697L92.9987 29.5138L68.2315 9.67299C66.0114 7.80221 66.1369 4.1838 68.5786 2.55501C69.8643 1.73927 71.5056 1.62032 72.9148 2.20573L86.1144 7.98168L86.3828 8.09914L86.5365 7.84968L87.5424 6.217L87.5464 6.2106L87.55 6.20403C88.0672 5.2743 89.3513 5.02104 90.3611 5.58139C91.2884 6.09599 91.5432 7.37031 90.9909 8.37661L90.2443 9.49519L90.0236 9.82582L90.3858 9.98951L95.6668 12.3757L95.9426 12.5003L96.0961 12.2396L97.3535 10.1046L97.3536 10.1046L97.3576 10.0974C97.8747 9.16763 99.1588 8.91436 100.169 9.47471C101.098 9.9902 101.352 11.268 100.796 12.2751L99.7937 13.9012L99.5909 14.2304L99.9447 14.3864L109.626 18.6565L109.796 18.7315L109.951 18.6279L130.691 4.69133L130.691 4.69115L130.693 4.69029L130.697 4.68729L130.699 4.68657L130.723 4.6714C130.744 4.65791 130.776 4.63779 130.818 4.61162C130.902 4.55926 131.027 4.48271 131.187 4.38664C131.506 4.19447 131.968 3.92436 132.532 3.61371C133.662 2.99185 135.201 2.21018 136.841 1.56576C138.485 0.919575 140.21 0.420438 141.718 0.346531C143.228 0.272576 144.452 0.625056 145.205 1.59845C146.222 2.93443 146.306 4.43872 145.831 5.99074C145.353 7.55534 144.313 9.14368 143.122 10.582C141.934 12.0162 140.616 13.2795 139.605 14.1952C139.239 14.5271 138.916 14.8112 138.652 15.0427C138.551 15.131 138.46 15.2117 138.377 15.2844C138.231 15.4138 138.111 15.522 138.031 15.6013C137.993 15.6385 137.952 15.6819 137.92 15.724Z" fill="white" stroke="black" stroke-width="0.674178"/>
<path d="M60.6488 59.8936L60.6394 59.8748L60.6277 59.8573C60.2337 59.267 60.4298 58.3457 61.0343 57.9407L72.089 50.9141C72.8141 50.5043 73.6101 50.713 74.0127 51.2982L74.1286 51.5296L74.138 51.5484L74.1496 51.5658C74.5437 52.1562 74.3476 53.0774 73.743 53.4825L62.6813 60.5135L62.6813 60.5135L62.6753 60.5174C62.0881 60.9084 61.1746 60.718 60.7645 60.1248L60.6488 59.8936Z" fill="#FFD35C" stroke="black" stroke-width="0.674178"/>
<path d="M73.6486 13.9112C73.6308 13.8965 73.6139 13.8827 73.5979 13.8695C73.6018 13.8665 73.6058 13.8634 73.6099 13.8603C73.8082 13.7105 74.117 13.5237 74.4529 13.3364C74.7851 13.1512 75.1302 12.973 75.3931 12.8407C75.4991 12.7874 75.5915 12.7417 75.6638 12.7062L96.9579 26.5189L92.8043 29.3575L92.7817 29.3394L92.1667 28.8447L89.9698 27.0771C88.1505 25.6132 85.7223 23.6587 83.2862 21.6964C80.85 19.7341 78.4062 17.764 76.5557 16.2689C75.6304 15.5212 74.8536 14.8926 74.3005 14.443C74.0238 14.2182 73.8035 14.0384 73.6486 13.9112Z" fill="#FFD35C" stroke="black" stroke-width="0.674178"/>
<path d="M106.938 61.6462L100.851 41.2198L104.998 38.3858L109.014 60.2638L106.938 61.6462Z" fill="#FFD35C" stroke="black" stroke-width="0.674178"/>
<path d="M62.988 36.5589L81.3458 24.251" stroke="black" stroke-width="0.315047" stroke-miterlimit="10" stroke-linecap="round"/>
<path d="M70.155 38.5684L79.3339 31.9121" stroke="black" stroke-width="0.315047" stroke-miterlimit="10" stroke-linecap="round"/>
<path d="M81.0942 62.054L92.9136 54.0161" stroke="black" stroke-width="0.315047" stroke-miterlimit="10" stroke-linecap="round"/>
<path d="M84.9922 65.6964L101.212 54.77" stroke="black" stroke-width="0.315047" stroke-miterlimit="10" stroke-linecap="round"/>
<path d="M-37.329 290.644C-35.0982 314.402 -21.6713 361.034 30.6148 387.475C82.901 413.915 77.907 477.671 67.0231 486.305" stroke="#1DA1F2" stroke-dasharray="2 2"/>
<path d="M58.0756 87C53.046 90.6421 50.0283 96.5449 46.6334 101.694C42.1068 108.727 36.4486 115.007 29.9103 120.282C25.5094 123.924 19.0968 127.064 14.4445 123.798C9.91794 120.658 10.9238 112.621 15.8276 109.983C20.7314 107.346 27.3955 110.109 29.9103 115.007C32.5508 119.905 31.5449 126.184 28.4014 130.706C25.258 135.227 20.3542 138.367 15.0732 140.251C5.51712 143.893 -4.91913 144.144 -14.8524 146.279C-24.9115 148.414 -35.222 152.935 -40 161.978" stroke="#1DA1F2" stroke-miterlimit="10" stroke-dasharray="2 2"/>
</svg>
