<svg width="156" height="512" viewBox="0 0 156 512" fill="none" xmlns="http://www.w3.org/2000/svg">
<path d="M36.6122 439.659L36.6125 439.66L45.6657 470.053L45.7886 470.466L46.1597 470.248L69.4212 456.558L69.5773 456.466L69.5869 456.286L70.0898 446.741L70.0903 446.732V446.723C70.0903 445.713 70.6551 444.69 71.5637 444.122C72.15 443.771 72.8442 443.543 73.5253 443.543C74.8908 443.543 76.2646 444.456 76.7232 445.941C76.7234 445.941 76.7236 445.942 76.7238 445.943L78.8601 453.223L78.9828 453.641L79.3568 453.417L83.1174 451.163C83.3371 451.056 83.6565 450.953 83.9616 450.953C84.4745 450.953 84.9798 451.268 85.169 451.646L85.1732 451.655L85.1778 451.663C85.5976 452.396 85.3771 453.313 84.6746 453.714L84.6745 453.714L84.6641 453.721L81.0177 455.981L80.5901 456.246L80.9979 456.541L86.8953 460.802C88.6059 462.294 88.4818 464.901 86.5496 466.154C85.9638 466.504 85.2706 466.732 84.5903 466.732C84.2693 466.732 83.8095 466.621 83.4421 466.499C83.4412 466.498 83.4403 466.498 83.4394 466.498L74.5173 463.36L74.3357 463.296L74.1885 463.42L53.4417 480.877L53.1294 481.14L53.4465 481.397L78.0911 501.366L78.0911 501.366L78.0929 501.367C80.4333 503.237 80.3095 506.851 77.7453 508.48L77.7453 508.48L77.7393 508.484C77.0496 508.944 76.1115 509.181 75.2857 509.181C74.7052 509.181 74.1211 509.066 73.5314 508.831L60.4615 502.932L60.1914 502.81L60.0359 503.062L59.0333 504.689C58.5907 505.349 57.9414 505.665 57.3051 505.665C56.9868 505.665 56.5505 505.555 56.2346 505.344L56.2232 505.337L56.2113 505.33C55.2549 504.8 54.9268 503.516 55.5737 502.547L56.3281 501.417L56.5488 501.086L56.1866 500.922L50.9056 498.536L50.6299 498.411L50.4763 498.672L49.2239 500.799C48.7814 501.457 48.133 501.771 47.4976 501.771C47.1793 501.771 46.7429 501.662 46.427 501.451L46.4157 501.444L46.4038 501.437C45.4473 500.906 45.1193 499.623 45.7662 498.654L45.7663 498.654L45.7728 498.643L46.7787 497.011L46.9815 496.681L46.6277 496.525L36.9459 492.255L36.776 492.18L36.6219 492.284L15.8823 506.22L15.8821 506.22L15.8814 506.22L15.878 506.222L15.8637 506.231L15.8063 506.267C15.7556 506.299 15.6801 506.345 15.5821 506.405C15.3861 506.524 15.1003 506.694 14.7426 506.898C14.0269 507.307 13.0247 507.853 11.879 508.398C9.57216 509.495 6.73972 510.563 4.49524 510.563C3.16177 510.563 2.03306 510.199 1.36989 509.316L1.36848 509.314C0.350632 507.978 0.266792 506.474 0.744644 504.924C1.22628 503.362 2.27402 501.778 3.47984 500.348C4.68227 498.922 6.02346 497.671 7.06655 496.775C7.58752 496.328 8.0328 495.97 8.34734 495.725C8.50458 495.602 8.62907 495.507 8.71391 495.444C8.73097 495.431 8.74643 495.419 8.76022 495.409C8.78073 495.394 8.79757 495.381 8.81056 495.372L8.83496 495.354L8.83818 495.351L29.3283 481.54L29.482 481.436L29.4768 481.251L29.2253 472.208L29.2155 471.857L28.8644 471.882L25.3557 472.132H25.242C24.1759 472.132 23.2987 471.277 23.1884 470.175C23.0811 469.103 23.9464 468.034 25.1162 468.034H25.1274L25.1386 468.033L28.9108 467.782L29.2398 467.76L29.2251 467.43L28.9737 461.779L28.9585 461.437L28.6171 461.457L26.4895 461.582H26.3736C25.3075 461.582 24.4304 460.727 24.32 459.625C24.2127 458.554 25.078 457.484 26.2479 457.484H26.2572L26.2666 457.483L28.5299 457.358L28.8586 457.34L28.8481 457.011L28.3453 441.192C28.3469 439.67 29.0488 438.266 30.3439 437.325L30.3805 437.298L30.4089 437.263C30.8193 436.751 31.5747 436.51 32.409 436.51C34.2799 436.51 36.0282 437.676 36.6122 439.659Z" fill="#33B2FF" stroke="black" stroke-width="0.674178"/>
<path d="M8.52652 495.314C8.52868 495.311 8.53159 495.307 8.535 495.302L28.9512 481.54L29.1049 481.437L29.0997 481.251L28.8483 472.209L28.8385 471.857L28.4873 471.882L24.9791 472.132C23.9019 472.126 22.9292 471.261 22.813 470.192C22.822 469.115 23.6928 468.143 24.7673 468.033L28.5337 467.782L28.8627 467.76L28.8481 467.431L28.5966 461.779L28.5814 461.438L28.24 461.458L26.1127 461.583C25.0348 461.577 24.0609 460.712 23.9447 459.642C23.9537 458.566 24.8235 457.594 25.8972 457.483L28.1528 457.358L28.4867 457.34L28.4708 457.006L27.7167 441.189C27.7192 439.654 28.4303 438.143 29.698 437.337L29.6981 437.337L29.704 437.333C32.1512 435.704 35.5429 436.984 36.3607 439.785L36.3612 439.786L45.4143 470.179L45.5372 470.592L45.9083 470.374L69.1699 456.684L69.326 456.592L69.3355 456.411L69.8384 446.866L69.8389 446.858V446.849C69.8389 445.838 70.4048 444.814 71.315 444.246L71.3194 444.243C73.2703 442.982 75.7837 443.897 76.4722 446.068C76.4725 446.069 76.4729 446.07 76.4732 446.071L78.6087 453.349L78.7315 453.767L79.1054 453.543L82.8744 451.284C83.6091 450.867 84.5257 451.088 84.9265 451.789C85.3462 452.522 85.1258 453.439 84.4233 453.84L84.4232 453.84L84.4128 453.847L80.7664 456.107L80.3388 456.372L80.7466 456.667L86.6494 460.932C88.3321 462.284 88.1301 465.022 86.2856 466.289L86.2856 466.289L86.2807 466.292C85.5041 466.846 84.3643 466.972 83.3165 466.624C83.3156 466.624 83.3146 466.624 83.3137 466.623L74.3917 463.486L74.2095 463.421L74.0621 463.546L53.4411 481.003L53.1287 481.268L53.4481 481.524L78.2153 501.365C80.4354 503.235 80.3099 506.854 77.8682 508.483C76.5825 509.298 74.9412 509.417 73.532 508.832L60.3324 503.056L60.0639 502.938L59.9102 503.188L58.9043 504.821L58.9004 504.827L58.8967 504.834C58.3796 505.763 57.0955 506.017 56.0857 505.456C55.1583 504.942 54.9035 503.667 55.4559 502.661L56.2025 501.542L56.4232 501.212L56.0609 501.048L50.7799 498.662L50.5042 498.537L50.3507 498.798L49.0933 500.933L49.0932 500.933L49.0892 500.94C48.5721 501.87 47.2879 502.123 46.2781 501.563C45.3492 501.047 45.0951 499.77 45.6512 498.762L46.6531 497.136L46.8559 496.807L46.5021 496.651L36.8203 492.381L36.6504 492.306L36.4962 492.41L15.7557 506.346L15.7554 506.346L15.754 506.347L15.7495 506.35L15.7482 506.351L15.7243 506.366C15.7029 506.38 15.6709 506.4 15.6288 506.426C15.5446 506.478 15.4201 506.555 15.2602 506.651C14.9404 506.843 14.479 507.113 13.9145 507.424C12.7844 508.046 11.2461 508.827 9.60593 509.472C7.96129 510.118 6.23669 510.617 4.72837 510.691C3.21906 510.765 1.99455 510.413 1.24218 509.439C0.224937 508.103 0.141121 506.599 0.615334 505.047C1.09339 503.482 2.13383 501.894 3.32472 500.456C4.5123 499.021 5.83095 497.758 6.84156 496.842C7.20784 496.511 7.53127 496.226 7.79476 495.995C7.89532 495.907 7.98714 495.826 8.06928 495.753C8.21543 495.624 8.33549 495.516 8.41569 495.436C8.45332 495.399 8.49513 495.356 8.52652 495.314Z" fill="white" stroke="black" stroke-width="0.674178"/>
<path d="M85.798 451.144L85.8074 451.163L85.819 451.18C86.2131 451.771 86.017 452.692 85.4124 453.097L74.3578 460.123C73.6327 460.533 72.8367 460.325 72.434 459.739L72.3182 459.508L72.3088 459.489L72.2971 459.472C71.9031 458.881 72.0992 457.96 72.7038 457.555L83.7655 450.524L83.7655 450.524L83.7715 450.52C84.3587 450.129 85.2722 450.32 85.6822 450.913L85.798 451.144Z" fill="#F6BBA9" stroke="black" stroke-width="0.674178"/>
<path d="M72.7982 497.126C72.816 497.141 72.8329 497.155 72.8489 497.168C72.845 497.171 72.841 497.174 72.8369 497.177C72.6386 497.327 72.3298 497.514 71.9939 497.701C71.6617 497.886 71.3166 498.065 71.0536 498.197C70.9476 498.25 70.8553 498.296 70.783 498.331L49.4889 484.519L53.6425 481.68L53.6651 481.698L54.2801 482.193L56.477 483.96C58.2962 485.424 60.7245 487.379 63.1606 489.341C65.5968 491.304 68.0406 493.274 69.8911 494.769C70.8164 495.516 71.5931 496.145 72.1463 496.595C72.4229 496.819 72.6433 496.999 72.7982 497.126Z" fill="#F6BBA9" stroke="black" stroke-width="0.674178"/>
<path d="M39.5091 449.391L45.5955 469.818L41.4487 472.652L37.433 450.774L39.5091 449.391Z" fill="#F6BBA9" stroke="black" stroke-width="0.674178"/>
<path d="M83.4587 474.479L65.101 486.787" stroke="black" stroke-width="0.315047" stroke-miterlimit="10" stroke-linecap="round"/>
<path d="M76.2917 472.469L67.1129 479.125" stroke="black" stroke-width="0.315047" stroke-miterlimit="10" stroke-linecap="round"/>
<path d="M65.3525 448.984L53.5332 457.021" stroke="black" stroke-width="0.315047" stroke-miterlimit="10" stroke-linecap="round"/>
<path d="M61.4546 445.341L45.2344 456.268" stroke="black" stroke-width="0.315047" stroke-miterlimit="10" stroke-linecap="round"/>
<path d="M98.9244 438.309C103.954 434.666 106.972 428.764 110.367 423.614C114.893 416.581 120.551 410.302 127.09 405.027C131.491 401.385 137.903 398.245 142.555 401.51C147.082 404.65 146.076 412.688 141.172 415.325C136.269 417.963 129.604 415.2 127.09 410.302C124.449 405.404 125.455 399.124 128.599 394.603C131.742 390.082 136.646 386.942 141.927 385.058C151.483 381.416 161.919 381.165 171.852 379.03C181.911 376.895 192.222 372.373 197 363.331" stroke="#1DA1F2" stroke-miterlimit="10" stroke-dasharray="1.58 1.58"/>
<path d="M136.5 1.83086C109.5 36.8309 84.7665 78.4185 100.03 133.919C113.756 183.83 189.283 205.346 195.087 283.409" stroke="#1DA1F2" stroke-dasharray="2 2"/>
</svg>
