<svg width="294" height="220" viewBox="0 0 294 220" fill="none" xmlns="http://www.w3.org/2000/svg">
<path d="M238.901 105.875L238.901 105.873L225.472 60.7915L225.29 60.1794L224.74 60.5034L190.236 80.8087L190.004 80.945L189.99 81.2133L189.244 95.3712L189.244 95.3843V95.3975C189.244 96.8953 188.406 98.4124 187.058 99.2556C186.188 99.776 185.159 100.114 184.148 100.114C182.123 100.114 180.085 98.7604 179.405 96.5575C179.405 96.5564 179.404 96.5554 179.404 96.5543L176.235 85.756L176.053 85.1355L175.499 85.4679L169.921 88.8108C169.595 88.9708 169.121 89.1226 168.669 89.1226C167.908 89.1226 167.158 88.6554 166.878 88.0948L166.871 88.0823L166.864 88.0703C166.242 86.9819 166.569 85.6218 167.611 85.0271L167.619 85.0226L167.626 85.0178L173.035 81.6646L173.669 81.2714L173.064 80.8344L164.317 74.5137C161.78 72.3003 161.964 68.4333 164.83 66.5749C165.699 66.0556 166.727 65.7189 167.736 65.7189C168.212 65.7189 168.894 65.8834 169.439 66.0646C169.44 66.065 169.442 66.0654 169.443 66.0659L182.677 70.7203L182.946 70.8151L183.165 70.6312L213.938 44.7373L214.402 44.3474L213.931 43.9662L177.376 14.3465L177.376 14.3464L177.373 14.3443C173.902 11.5704 174.086 6.21091 177.889 3.79336L177.889 3.79346L177.898 3.78756C178.921 3.10628 180.312 2.75366 181.537 2.75366C182.398 2.75366 183.265 2.9247 184.139 3.27283L203.526 12.0238L203.927 12.2047L204.157 11.8303L205.644 9.4165C206.301 8.43788 207.264 7.96972 208.208 7.96972C208.68 7.96972 209.327 8.13276 209.796 8.44476L209.812 8.45597L209.83 8.46578C211.249 9.25302 211.735 11.1569 210.776 12.5945L209.657 14.2711L209.329 14.7615L209.867 15.0043L217.7 18.5438L218.109 18.7286L218.337 18.3418L220.194 15.1875C220.851 14.2115 221.813 13.7446 222.755 13.7446C223.227 13.7446 223.874 13.9077 224.343 14.2197L224.36 14.2309L224.378 14.2407C225.796 15.0279 226.283 16.9318 225.323 18.3694L225.318 18.377L225.313 18.3847L223.821 20.8064L223.521 21.2948L224.045 21.5262L238.406 27.86L238.658 27.9711L238.887 27.8175L269.651 7.14567L269.656 7.14246L269.677 7.12914C269.696 7.11724 269.725 7.09939 269.762 7.07597C269.838 7.02914 269.95 6.96007 270.095 6.87193C270.386 6.69563 270.81 6.44316 271.34 6.13991C272.402 5.53315 273.888 4.72437 275.588 3.91606C279.009 2.28857 283.211 0.704498 286.54 0.704498C288.518 0.704498 290.192 1.24385 291.176 2.55389L291.178 2.55665C292.688 4.53858 292.812 6.77005 292.103 9.06884C291.389 11.3859 289.835 13.7356 288.046 15.8563C286.262 17.9711 284.273 19.8264 282.726 21.1551C281.953 21.8188 281.293 22.3494 280.826 22.7135C280.593 22.8956 280.408 23.036 280.282 23.1305C280.229 23.1706 280.186 23.2025 280.155 23.2257L280.139 23.2372L280.103 23.2638L280.098 23.2673L249.705 43.7538L249.477 43.9075L249.485 44.1823L249.858 57.595L249.873 58.117L250.393 58.0798L255.598 57.7085H255.767C257.348 57.7085 258.649 58.9765 258.813 60.6115C258.972 62.2008 257.688 63.7875 255.953 63.7875H255.936L255.92 63.7886L250.325 64.1611L249.837 64.1936L249.858 64.6823L250.231 73.0652L250.254 73.5719L250.76 73.5421L253.916 73.3567H254.088C255.669 73.3567 256.97 74.6247 257.134 76.2597C257.293 77.849 256.01 79.4356 254.274 79.4356H254.261L254.247 79.4364L250.89 79.6227L250.402 79.6497L250.418 80.1378L251.163 103.602C251.161 105.859 250.12 107.942 248.199 109.337L248.145 109.377L248.103 109.429C247.494 110.189 246.373 110.546 245.136 110.546C242.361 110.546 239.768 108.817 238.901 105.875Z" fill="#33B2FF" stroke="black"/>
<path d="M280.561 23.3233C280.557 23.3276 280.553 23.3334 280.548 23.3405L250.265 43.7531L250.037 43.9068L250.045 44.1816L250.418 57.5943L250.432 58.1163L250.953 58.0792L256.157 57.7079C257.754 57.717 259.197 59.0004 259.37 60.586C259.356 62.1832 258.065 63.625 256.471 63.7885L250.884 64.1605L250.396 64.1929L250.418 64.6816L250.791 73.0645L250.814 73.5712L251.32 73.5414L254.475 73.356C256.074 73.3635 257.519 74.6476 257.691 76.2342C257.678 77.8305 256.387 79.2716 254.795 79.4364L251.449 79.622L250.954 79.6495L250.978 80.145L252.096 103.605C252.092 105.882 251.038 108.124 249.157 109.319L249.157 109.319L249.148 109.325C245.518 111.742 240.488 109.843 239.275 105.689L239.274 105.686L225.845 60.6046L225.663 59.9924L225.113 60.3164L190.609 80.6217L190.378 80.758L190.363 81.0264L189.617 95.1842L189.617 95.1974V95.2105C189.617 96.7097 188.777 98.2283 187.427 99.071L187.421 99.0752C184.527 100.945 180.799 99.5882 179.778 96.3687C179.777 96.3671 179.777 96.3654 179.776 96.3638L176.609 85.5691L176.427 84.9485L175.872 85.281L170.286 88.6288C170.284 88.6296 170.283 88.6305 170.281 88.6314C169.192 89.2503 167.832 88.9225 167.238 87.8833C166.615 86.795 166.942 85.4348 167.984 84.8401L167.992 84.8356L168 84.8308L173.408 81.4776L174.042 81.0844L173.438 80.6474L164.682 74.3209C162.186 72.3159 162.486 68.2543 165.222 66.3755L165.222 66.3756L165.229 66.3704C166.381 65.5486 168.071 65.3614 169.626 65.8775C169.627 65.878 169.628 65.8784 169.63 65.8789L182.864 70.5334L183.134 70.6284L183.353 70.4433L213.939 44.5493L214.403 44.1571L213.929 43.7775L177.192 14.3478C173.899 11.5729 174.085 6.20576 177.707 3.78981C179.614 2.57983 182.049 2.4034 184.139 3.27174L203.718 11.8391L204.116 12.0134L204.344 11.6433L205.836 9.2216L205.842 9.21211L205.847 9.20236C206.614 7.8233 208.519 7.44764 210.017 8.2788C211.392 9.0421 211.77 10.9323 210.951 12.4249L209.843 14.0841L209.516 14.5745L210.053 14.8173L217.887 18.3568L218.296 18.5416L218.523 18.1549L220.388 14.988L220.389 14.9881L220.395 14.9773C221.162 13.5982 223.066 13.2226 224.564 14.0537C225.942 14.8183 226.319 16.7137 225.494 18.2075L224.008 20.6195L223.707 21.1078L224.232 21.3392L238.593 27.673L238.845 27.7842L239.073 27.6305L269.838 6.95833L269.84 6.95704L269.842 6.95593L269.849 6.95153L269.884 6.92903C269.916 6.90902 269.964 6.87918 270.026 6.84035C270.151 6.76269 270.335 6.64914 270.573 6.50664C271.047 6.2216 271.731 5.82095 272.569 5.36017C274.245 4.43777 276.527 3.27834 278.96 2.32247C281.399 1.36399 283.957 0.623631 286.194 0.514006C288.433 0.404318 290.249 0.927055 291.365 2.37062C292.874 4.35233 292.999 6.58377 292.295 8.88599C291.586 11.2067 290.043 13.5627 288.276 15.6961C286.515 17.8235 284.559 19.6973 283.06 21.0555C282.517 21.5477 282.037 21.9691 281.646 22.3124C281.497 22.4435 281.361 22.5632 281.239 22.6712C281.022 22.8631 280.844 23.0237 280.725 23.1413C280.669 23.1965 280.607 23.2608 280.561 23.3233Z" fill="#F6BBA9" stroke="black"/>
<path d="M165.945 88.8392L165.931 88.8113L165.914 88.7854C165.329 87.9098 165.62 86.5432 166.517 85.9425L182.914 75.5201C183.99 74.9122 185.17 75.2218 185.767 76.0898L185.939 76.433L185.953 76.4608L185.97 76.4867C186.555 77.3624 186.264 78.7289 185.367 79.3297L168.96 89.7588L168.96 89.7587L168.951 89.7646C168.08 90.3445 166.725 90.0621 166.117 89.1822L165.945 88.8392Z" fill="#FFD35C" stroke="black"/>
<path d="M185.227 20.6341C185.201 20.6124 185.175 20.5918 185.152 20.5723C185.158 20.5679 185.163 20.5633 185.17 20.5587C185.464 20.3364 185.922 20.0593 186.42 19.7816C186.913 19.5069 187.425 19.2426 187.815 19.0464C187.972 18.9673 188.109 18.8995 188.216 18.8468L219.801 39.3351L213.64 43.5455L213.607 43.5186L212.695 42.7848C211.909 42.1525 210.785 41.2487 209.436 40.163C206.737 37.9916 203.136 35.0926 199.522 32.1819C195.909 29.2712 192.284 26.349 189.539 24.1313C188.166 23.0223 187.014 22.0898 186.194 21.423C185.784 21.0895 185.457 20.8229 185.227 20.6341Z" fill="#FFD35C" stroke="black"/>
<path d="M234.604 91.4388L225.576 61.1405L231.727 56.9369L237.684 89.3882L234.604 91.4388Z" fill="#FFD35C" stroke="black"/>
<path d="M169.414 54.2272L196.644 35.971" stroke="black" stroke-width="0.467305" stroke-miterlimit="10" stroke-linecap="round"/>
<path d="M180.045 57.2078L193.66 47.3346" stroke="black" stroke-width="0.467305" stroke-miterlimit="10" stroke-linecap="round"/>
<path d="M196.271 92.0436L213.803 80.1212" stroke="black" stroke-width="0.467305" stroke-miterlimit="10" stroke-linecap="round"/>
<path d="M202.053 97.4459L226.112 81.2389" stroke="black" stroke-width="0.467305" stroke-miterlimit="10" stroke-linecap="round"/>
<path d="M146.474 107.878C139.014 113.28 134.538 122.036 129.502 129.674C122.788 140.106 114.395 149.42 104.697 157.244C98.1693 162.647 88.6575 167.304 81.7568 162.46C75.0427 157.803 76.5347 145.881 83.8084 141.969C91.0821 138.057 100.967 142.155 104.697 149.42C108.614 156.685 107.122 166 102.459 172.706C97.7963 179.413 90.5226 184.07 82.6894 186.864C68.515 192.266 53.035 192.639 38.3011 195.806C23.3807 198.973 8.08721 205.679 1 219.092" stroke="black" stroke-width="0.467305" stroke-miterlimit="10" stroke-dasharray="2.34 2.34"/>
</svg>
