<svg width="156" height="121" viewBox="0 0 156 121" fill="none" xmlns="http://www.w3.org/2000/svg">
<path d="M89.7147 78.3705C89.8315 79.2715 90.4987 79.8552 91.3634 79.8151C92.1797 79.7772 92.7814 79.1101 92.7379 78.1725C92.6999 77.3562 92.0329 76.7545 91.0953 76.7981C90.2231 76.8386 89.6131 77.5867 89.7147 78.3705Z" fill="#868485" stroke="black" stroke-width="1.70626"/>
<path d="M92.2624 80.9326C93.4315 80.4449 94.184 79.2576 94.0595 78.0617C94.0061 77.3353 93.6957 76.5914 93.1109 76.0867C92.526 75.582 91.7729 75.2722 90.9403 75.37C90.5771 75.3967 90.3645 75.4854 90.0457 75.6184C88.8765 76.106 88.124 77.2934 88.2485 78.4892C88.302 79.2156 88.7186 79.9152 89.3034 80.4199C89.8883 80.9246 90.597 81.1281 91.4297 81.0303C91.7309 81.1542 91.9435 81.0656 92.2624 80.9326ZM90.489 76.6812C90.7016 76.5925 90.8079 76.5482 91.0648 76.5658C91.5342 76.4948 91.9861 76.6806 92.376 77.0171C92.7659 77.3536 92.9432 77.7787 93.0143 78.2482C93.0677 78.9745 92.6517 79.772 91.9077 80.0823C91.6951 80.171 91.5888 80.2153 91.3319 80.1977C90.8625 80.2687 90.4106 80.0829 90.0207 79.7464C89.6308 79.4099 89.4535 78.9848 89.3824 78.5153C89.2846 77.6827 89.745 76.9915 90.489 76.6812Z" fill="#231F20"/>
<path d="M91.7674 79.0126C91.1148 79.0589 90.4735 79.0388 89.9057 79.0127C90.1909 79.3965 90.6779 79.63 91.2744 79.6023C91.7716 79.5792 92.1836 79.3261 92.4271 78.9676C92.2139 78.9918 91.9937 79.0083 91.7674 79.0126Z" fill="#C8C2BB" stroke="black" stroke-width="1.70626"/>
<g opacity="0.53">
<mask id="path-4-inside-1_163_2250" fill="white">
<path d="M89.984 77.2665C89.8157 77.4614 90.4358 77.4523 91.1622 77.3989C91.9329 77.4517 92.4467 77.487 92.358 77.2744C92.2694 77.0618 91.7289 76.6634 91.1531 76.7788C90.595 76.6373 90.1079 76.9652 89.984 77.2665Z"/>
</mask>
<path d="M89.984 77.2665C89.8157 77.4614 90.4358 77.4523 91.1622 77.3989C91.9329 77.4517 92.4467 77.487 92.358 77.2744C92.2694 77.0618 91.7289 76.6634 91.1531 76.7788C90.595 76.6373 90.1079 76.9652 89.984 77.2665Z" fill="#F2F3F3"/>
<path d="M89.984 77.2665L91.562 77.9155L91.4567 78.1716L91.2758 78.3812L89.984 77.2665ZM91.1622 77.3989L91.037 75.6972L91.158 75.6883L91.2789 75.6966L91.1622 77.3989ZM91.1531 76.7788L91.4884 78.4518L91.1089 78.5279L90.7337 78.4327L91.1531 76.7788ZM91.2758 78.3812C91.373 78.2685 91.736 77.8142 91.6498 77.12C91.5561 76.3658 91.0268 75.9995 90.8303 75.8891C90.623 75.7728 90.4514 75.74 90.4208 75.734C90.3675 75.7235 90.3402 75.7226 90.3543 75.7236C90.4431 75.7297 90.6676 75.7244 91.037 75.6972L91.2874 79.1006C90.9304 79.1268 90.4817 79.1528 90.1209 79.1281C90.0227 79.1214 89.8969 79.1089 89.7618 79.0823C89.6494 79.0602 89.4128 79.0068 89.1597 78.8647C88.9173 78.7287 88.3615 78.3314 88.2633 77.5407C88.1725 76.8098 88.5529 76.3132 88.6922 76.1517L91.2758 78.3812ZM91.2789 75.6966C91.7153 75.7266 91.9088 75.7367 91.9934 75.7322C92.0019 75.7318 91.9675 75.7328 91.9069 75.7442C91.8602 75.753 91.7003 75.7849 91.5067 75.8894C91.3057 75.9978 90.9453 76.255 90.7618 76.7555C90.5754 77.2639 90.6881 77.7032 90.7833 77.9313L93.9328 76.6175C94.0501 76.8988 94.1662 77.3835 93.9657 77.9304C93.768 78.4694 93.376 78.7583 93.1273 78.8925C92.7122 79.1166 92.2865 79.1341 92.1713 79.1401C91.8286 79.158 91.3798 79.1241 91.0455 79.1012L91.2789 75.6966ZM90.7833 77.9313C90.8489 78.0886 90.9245 78.1928 90.9633 78.2421C91.0071 78.2979 91.0444 78.3344 91.0669 78.3548C91.1109 78.3947 91.142 78.4129 91.1604 78.4223C91.185 78.4349 91.3012 78.4893 91.4884 78.4518L90.8178 75.1058C91.5808 74.9529 92.2551 75.1489 92.7161 75.385C92.9526 75.5061 93.1715 75.6566 93.3597 75.8273C93.5177 75.9706 93.7731 76.2346 93.9328 76.6175L90.7833 77.9313ZM90.7337 78.4327C90.8894 78.4722 91.0429 78.4448 91.1595 78.3873C91.2158 78.3596 91.2771 78.3189 91.3392 78.2575C91.3962 78.2012 91.4892 78.0925 91.562 77.9155L88.406 76.6174C88.6612 75.997 89.164 75.5662 89.6519 75.3259C90.1826 75.0645 90.8587 74.9439 91.5725 75.1249L90.7337 78.4327Z" fill="black" mask="url(#path-4-inside-1_163_2250)"/>
</g>
<path d="M15.4526 81.5495L15.4527 81.5495L15.4567 81.557C16.4192 83.3298 17.8242 84.2147 19.272 84.3192C20.7312 84.4246 22.4163 83.7492 23.9354 82.0251L23.9464 82.0127L23.9578 82.0007C26.1104 79.7409 28.1158 77.4173 30.1367 75.0754C31.6401 73.3332 32.5674 71.3107 32.8767 69.4781C33.1894 67.6251 32.856 66.0978 32.0374 65.1801L32.0323 65.1745L32.0274 65.1688C30.092 62.9206 28.1674 60.6989 26.2419 58.476L26.2416 58.4756C24.3193 56.2565 22.3961 54.0363 20.4617 51.7894C19.5731 50.8226 18.1515 50.0626 16.5309 49.682C14.9123 49.3019 13.1829 49.3214 11.7238 49.8175C9.63929 50.5608 7.40884 51.2396 5.30331 51.8686C3.9477 52.282 3.0786 53.2666 2.7529 54.5899C2.42081 55.9392 2.64933 57.69 3.64864 59.5307L3.65275 59.5382L3.65671 59.5459C7.52694 67.0312 11.4589 74.3657 15.4526 81.5495Z" fill="#E2DFEF" stroke="black" stroke-width="1.70626"/>
<path opacity="0.72" d="M32.7403 66.5579C32.5856 65.997 32.343 65.5306 32.031 65.1726L32.0276 65.1686C30.0921 62.9205 28.1676 60.6987 26.2421 58.4759L26.242 58.4758C24.4412 56.3969 22.6396 54.3171 20.8287 52.2153C22.803 54.5982 24.7699 56.9637 26.7375 59.3299L26.7377 59.3301C28.7356 61.7327 30.734 64.1359 32.7403 66.5579Z" fill="#E2DFEF" stroke="black" stroke-width="1.70626"/>
<mask id="path-8-inside-2_163_2250" fill="white">
<path d="M126.26 55.6461L127.323 55.2028L129.54 60.517L128.477 60.9603L126.26 55.6461Z"/>
</mask>
<path d="M126.26 55.6461L127.323 55.2028L129.54 60.517L128.477 60.9603L126.26 55.6461Z" fill="#6A6869"/>
<path d="M127.323 55.2028L126.666 53.628L128.241 52.9711L128.898 54.5459L127.323 55.2028ZM126.26 55.6461L124.686 56.303L124.029 54.7282L125.604 54.0713L126.26 55.6461ZM128.477 60.9603L129.134 62.5351L127.559 63.1919L126.902 61.6172L128.477 60.9603ZM129.54 60.517L131.115 59.8601L131.772 61.4348L130.197 62.0917L129.54 60.517ZM127.98 56.7775L126.917 57.2208L125.604 54.0713L126.666 53.628L127.98 56.7775ZM127.835 54.9892L130.052 60.3034L126.902 61.6172L124.686 56.303L127.835 54.9892ZM127.82 59.3855L128.883 58.9422L130.197 62.0917L129.134 62.5351L127.82 59.3855ZM127.965 61.1738L125.748 55.8596L128.898 54.5459L131.115 59.8601L127.965 61.1738Z" fill="black" mask="url(#path-8-inside-2_163_2250)"/>
<mask id="path-10-inside-3_163_2250" fill="white">
<path d="M126.792 55.4256L127.855 54.9823L130.072 60.2965L129.009 60.7398L126.792 55.4256Z"/>
</mask>
<path d="M126.792 55.4256L127.855 54.9823L130.072 60.2965L129.009 60.7398L126.792 55.4256Z" fill="#A9A5A5"/>
<path d="M127.855 54.9823L127.198 53.4075L128.773 52.7507L129.43 54.3254L127.855 54.9823ZM126.792 55.4256L125.218 56.0825L124.561 54.5078L126.136 53.8509L126.792 55.4256ZM129.009 60.7398L129.666 62.3146L128.091 62.9715L127.434 61.3967L129.009 60.7398ZM130.072 60.2965L131.647 59.6396L132.304 61.2144L130.729 61.8713L130.072 60.2965ZM128.512 56.5571L127.449 57.0004L126.136 53.8509L127.198 53.4075L128.512 56.5571ZM128.367 54.7688L130.584 60.083L127.434 61.3967L125.218 56.0825L128.367 54.7688ZM128.352 59.1651L129.415 58.7218L130.729 61.8713L129.666 62.3146L128.352 59.1651ZM128.497 60.9534L126.28 55.6392L129.43 54.3254L131.647 59.6396L128.497 60.9534Z" fill="black" mask="url(#path-10-inside-3_163_2250)"/>
<path d="M132.649 60.9157L132.641 60.8962L127.414 63.0767L127.422 63.0962L132.649 60.9157Z" fill="#515051" stroke="black" stroke-width="1.70626"/>
<path d="M132.339 60.1717L132.331 60.1522L127.104 62.3327L127.112 62.3522L132.339 60.1717Z" fill="#908D8E" stroke="black" stroke-width="1.70626"/>
<path d="M87.6028 79.6319C87.7716 80.934 88.7907 81.8814 90.1371 81.8189C91.4836 81.7564 92.3867 80.631 92.3242 79.2845C92.2617 77.9381 91.1363 77.0349 89.7898 77.0975C88.4434 77.16 87.5402 78.2854 87.6028 79.6319Z" fill="#868485"/>
<mask id="path-15-inside-4_163_2250" fill="white">
<path d="M90.9965 82.0845C92.1656 81.5969 92.9181 80.4095 92.7936 79.2137C92.7402 78.4873 92.4299 77.7433 91.845 77.2386C91.2601 76.7339 90.5071 76.4242 89.6744 76.522C89.3112 76.5487 89.0986 76.6373 88.7798 76.7703C87.6107 77.258 86.8582 78.4453 86.9827 79.6412C87.0361 80.3676 87.4527 81.0672 88.0376 81.5719C88.6224 82.0766 89.3312 82.2801 90.1638 82.1823C90.4651 82.3062 90.7839 82.1732 90.9965 82.0845ZM89.2231 77.8332C89.4357 77.7445 89.542 77.7002 89.7989 77.7178C90.2684 77.6467 90.7202 77.8326 91.1101 78.1691C91.5 78.5055 91.6774 78.9307 91.7484 79.4001C91.8018 80.1265 91.3858 80.9239 90.6418 81.2343C90.4293 81.3229 90.323 81.3673 90.0661 81.3497C89.5966 81.4207 89.1447 81.2349 88.7548 80.8984C88.3649 80.5619 88.1876 80.1368 88.1165 79.6673C88.1251 78.7903 88.5854 78.0992 89.2231 77.8332Z"/>
</mask>
<path d="M90.9965 82.0845C92.1656 81.5969 92.9181 80.4095 92.7936 79.2137C92.7402 78.4873 92.4299 77.7433 91.845 77.2386C91.2601 76.7339 90.5071 76.4242 89.6744 76.522C89.3112 76.5487 89.0986 76.6373 88.7798 76.7703C87.6107 77.258 86.8582 78.4453 86.9827 79.6412C87.0361 80.3676 87.4527 81.0672 88.0376 81.5719C88.6224 82.0766 89.3312 82.2801 90.1638 82.1823C90.4651 82.3062 90.7839 82.1732 90.9965 82.0845ZM89.2231 77.8332C89.4357 77.7445 89.542 77.7002 89.7989 77.7178C90.2684 77.6467 90.7202 77.8326 91.1101 78.1691C91.5 78.5055 91.6774 78.9307 91.7484 79.4001C91.8018 80.1265 91.3858 80.9239 90.6418 81.2343C90.4293 81.3229 90.323 81.3673 90.0661 81.3497C89.5966 81.4207 89.1447 81.2349 88.7548 80.8984C88.3649 80.5619 88.1876 80.1368 88.1165 79.6673C88.1251 78.7903 88.5854 78.0992 89.2231 77.8332Z" fill="#231F20"/>
<path d="M92.7936 79.2137L91.0965 79.3904L91.0939 79.3647L91.092 79.3389L92.7936 79.2137ZM89.6744 76.522L89.8734 78.2166L89.8366 78.2209L89.7996 78.2236L89.6744 76.522ZM86.9827 79.6412L88.6797 79.4645L88.6824 79.4902L88.6843 79.516L86.9827 79.6412ZM90.1638 82.1823L89.9649 80.4877L90.404 80.4361L90.8129 80.6043L90.1638 82.1823ZM89.7989 77.7178L90.0542 79.4048L89.869 79.4329L89.6822 79.4201L89.7989 77.7178ZM91.7484 79.4001L93.4355 79.1448L93.4453 79.2096L93.4501 79.275L91.7484 79.4001ZM90.0661 81.3497L89.8107 79.6626L89.9959 79.6346L90.1828 79.6474L90.0661 81.3497ZM88.1165 79.6673L86.4295 79.9226L86.409 79.7875L86.4104 79.6507L88.1165 79.6673ZM90.3396 80.5098C90.8799 80.2844 91.1358 79.7674 91.0965 79.3904L94.4907 79.037C94.7004 81.0517 93.4514 82.9093 91.6534 83.6593L90.3396 80.5098ZM91.092 79.3389C91.0656 78.9809 90.9143 78.6892 90.7303 78.5304L92.9597 75.9469C93.9454 76.7975 94.4148 77.9938 94.4953 79.0885L91.092 79.3389ZM90.7303 78.5304C90.4286 78.2701 90.1366 78.1857 89.8734 78.2166L89.4754 74.8273C90.8775 74.6627 92.0917 75.1977 92.9597 75.9469L90.7303 78.5304ZM89.7996 78.2236C89.7432 78.2278 89.724 78.2335 89.7074 78.2386C89.692 78.2433 89.6668 78.2518 89.6222 78.2691C89.5742 78.2878 89.5206 78.3101 89.4367 78.3451L88.1229 75.1956C88.4564 75.0565 88.8891 74.8689 89.5492 74.8203L89.7996 78.2236ZM89.4367 78.3451C88.8964 78.5704 88.6405 79.0875 88.6797 79.4645L85.2856 79.8179C85.0758 77.8032 86.3249 75.9456 88.1229 75.1956L89.4367 78.3451ZM88.6843 79.516C88.697 79.6889 88.8238 79.9967 89.1523 80.2801L86.9228 82.8637C86.0816 82.1377 85.3751 81.0462 85.281 79.7664L88.6843 79.516ZM89.1523 80.2801C89.3419 80.4438 89.5619 80.535 89.9649 80.4877L90.3628 83.8769C89.1004 84.0252 87.9029 83.7095 86.9228 82.8637L89.1523 80.2801ZM90.8129 80.6043C90.553 80.4974 90.341 80.5275 90.2781 80.5401C90.2455 80.5467 90.2322 80.5524 90.2459 80.5475C90.2621 80.5418 90.2825 80.5336 90.3396 80.5098L91.6534 83.6593C91.5685 83.6947 90.572 84.1951 89.5148 83.7603L90.8129 80.6043ZM88.5663 76.2584C88.6415 76.227 88.8567 76.1326 89.1053 76.0743C89.3958 76.0063 89.6634 75.9982 89.9156 76.0155L89.6822 79.4201C89.6739 79.4195 89.6953 79.4214 89.7361 79.4189C89.7808 79.4161 89.8316 79.4091 89.8834 79.3969C89.9319 79.3856 89.9624 79.3741 89.9625 79.3741C89.9625 79.3741 89.9621 79.3742 89.9612 79.3746C89.9604 79.3749 89.9591 79.3754 89.9573 79.3761C89.9536 79.3776 89.9485 79.3796 89.9414 79.3825C89.9259 79.3888 89.9081 79.3962 89.88 79.4079L88.5663 76.2584ZM89.5436 76.0307C90.6569 75.8623 91.5916 76.3308 92.2249 76.8773L89.9954 79.4608C89.962 79.4321 89.9363 79.4142 89.9196 79.4041C89.9029 79.394 89.8977 79.3929 89.9045 79.3953C89.9117 79.3979 89.9304 79.4037 89.959 79.4069C89.9883 79.4101 90.0211 79.4098 90.0542 79.4048L89.5436 76.0307ZM92.2249 76.8773C93.0038 77.5495 93.3216 78.3922 93.4355 79.1448L90.0614 79.6555C90.0456 79.5514 90.0257 79.504 90.0181 79.4886C90.0145 79.4811 90.0122 79.478 90.011 79.4765C90.0099 79.4751 90.0059 79.4699 89.9954 79.4608L92.2249 76.8773ZM93.4501 79.275C93.5518 80.6581 92.788 82.1878 91.2987 82.809L89.985 79.6595C89.9757 79.6634 89.9933 79.6602 90.0173 79.6187C90.0289 79.5987 90.0376 79.5765 90.0425 79.5557C90.0475 79.5347 90.0466 79.5238 90.0467 79.5253L93.4501 79.275ZM91.2987 82.809C91.2234 82.8404 91.0083 82.9349 90.7596 82.9931C90.4692 83.0611 90.2015 83.0692 89.9493 83.0519L90.1828 79.6474C90.1911 79.648 90.1696 79.646 90.1289 79.6485C90.0842 79.6513 90.0333 79.6584 89.9815 79.6705C89.9331 79.6818 89.9026 79.6933 89.9025 79.6933C89.9024 79.6934 89.9028 79.6932 89.9037 79.6929C89.9046 79.6925 89.9059 79.692 89.9077 79.6913C89.9113 79.6899 89.9164 79.6879 89.9236 79.685C89.9391 79.6786 89.9569 79.6712 89.985 79.6595L91.2987 82.809ZM90.3214 83.0367C89.2081 83.2052 88.2734 82.7366 87.6401 82.1902L89.8696 79.6066C89.9029 79.6354 89.9287 79.6532 89.9454 79.6634C89.962 79.6735 89.9672 79.6746 89.9605 79.6721C89.9533 79.6695 89.9346 79.6637 89.9059 79.6606C89.8766 79.6573 89.8438 79.6576 89.8107 79.6626L90.3214 83.0367ZM87.6401 82.1902C86.8612 81.518 86.5434 80.6752 86.4295 79.9226L89.8036 79.412C89.8193 79.516 89.8392 79.5634 89.8468 79.5789C89.8505 79.5863 89.8528 79.5895 89.8539 79.591C89.855 79.5924 89.8591 79.5975 89.8696 79.6066L87.6401 82.1902ZM86.4104 79.6507C86.4245 78.1957 87.2075 76.8252 88.5663 76.2584L89.88 79.4079C89.9634 79.3732 89.8256 79.3849 89.8227 79.6839L86.4104 79.6507Z" fill="black" mask="url(#path-15-inside-4_163_2250)"/>
<g opacity="0.53">
<mask id="path-17-inside-5_163_2250" fill="white">
<path d="M88.8245 78.3738C88.6563 78.5687 89.2764 78.5596 90.0027 78.5062C90.7735 78.559 91.2873 78.5943 91.1986 78.3817C91.1099 78.1691 90.5694 77.7707 89.9936 77.8861C89.3736 77.8952 88.8865 78.2231 88.8245 78.3738Z"/>
</mask>
<path d="M88.8245 78.3738C88.6563 78.5687 89.2764 78.5596 90.0027 78.5062C90.7735 78.559 91.2873 78.5943 91.1986 78.3817C91.1099 78.1691 90.5694 77.7707 89.9936 77.8861C89.3736 77.8952 88.8865 78.2231 88.8245 78.3738Z" fill="#F2F3F3"/>
<path d="M88.8245 78.3738L90.4025 79.0228L90.2972 79.2789L90.1163 79.4885L88.8245 78.3738ZM90.0027 78.5062L89.8776 76.8045L89.9985 76.7956L90.1195 76.8039L90.0027 78.5062ZM89.9936 77.8861L90.3289 79.5591L90.1753 79.5899L90.0187 79.5922L89.9936 77.8861ZM90.1163 79.4885C90.2136 79.3758 90.5765 78.9215 90.4903 78.2273C90.3966 77.4731 89.8674 77.1068 89.6708 76.9964C89.4635 76.88 89.292 76.8473 89.2613 76.8413C89.208 76.8308 89.1807 76.8299 89.1949 76.8309C89.2837 76.8369 89.5082 76.8317 89.8776 76.8045L90.1279 80.2078C89.7709 80.2341 89.3222 80.2601 88.9614 80.2354C88.8632 80.2286 88.7375 80.2162 88.6024 80.1896C88.49 80.1674 88.2533 80.1141 88.0002 79.972C87.7578 79.8359 87.202 79.4387 87.1038 78.6479C87.013 77.9171 87.3934 77.4205 87.5327 77.259L90.1163 79.4885ZM90.1195 76.8039C90.5559 76.8338 90.7494 76.8439 90.834 76.8395C90.8425 76.8391 90.808 76.8401 90.7474 76.8515C90.7007 76.8603 90.5408 76.8922 90.3472 76.9967C90.1462 77.1051 89.7859 77.3623 89.6023 77.8628C89.4159 78.3712 89.5287 78.8105 89.6238 79.0386L92.7733 77.7248C92.8907 78.0061 93.0068 78.4908 92.8062 79.0377C92.6086 79.5767 92.2165 79.8656 91.9678 79.9998C91.5527 80.2238 91.127 80.2414 91.0119 80.2474C90.6691 80.2653 90.2203 80.2314 89.886 80.2084L90.1195 76.8039ZM89.6238 79.0386C89.6895 79.1959 89.765 79.3001 89.8038 79.3494C89.8476 79.4051 89.8849 79.4416 89.9075 79.4621C89.9514 79.502 89.9826 79.5202 90.0009 79.5296C90.0255 79.5421 90.1417 79.5966 90.3289 79.5591L89.6584 76.2131C90.4214 76.0602 91.0957 76.2562 91.5566 76.4923C91.7931 76.6134 92.0121 76.7639 92.2003 76.9346C92.3582 77.0779 92.6136 77.3419 92.7733 77.7248L89.6238 79.0386ZM90.0187 79.5922C89.996 79.5925 89.9668 79.6011 89.9536 79.6076C89.9474 79.6106 89.9729 79.5995 90.0223 79.5594C90.0469 79.5394 90.0945 79.4983 90.1516 79.433C90.1976 79.3804 90.3124 79.2419 90.4025 79.0228L87.2465 77.7247C87.43 77.2787 87.7514 77.0076 87.87 76.9112C88.0475 76.7669 88.2451 76.6451 88.446 76.5461C88.8468 76.3487 89.3712 76.1888 89.9686 76.18L90.0187 79.5922Z" fill="black" mask="url(#path-17-inside-5_163_2250)"/>
</g>
<path d="M130.478 60.3747C130.647 61.6768 131.666 62.6242 133.013 62.5617C134.359 62.4992 135.262 61.3738 135.2 60.0273C135.137 58.6809 134.012 57.7778 132.666 57.8403C131.363 58.0091 130.354 59.1788 130.478 60.3747Z" fill="#868485"/>
<path d="M133.917 62.9333C135.086 62.4456 135.839 61.2583 135.714 60.0625C135.661 59.3361 135.351 58.5921 134.766 58.0874C134.181 57.5827 133.428 57.2729 132.595 57.3707C132.232 57.3974 132.019 57.4861 131.7 57.6191C130.531 58.1068 129.779 59.2941 129.903 60.4899C129.957 61.2163 130.373 61.916 130.958 62.4207C131.543 62.9254 132.252 63.1288 133.129 63.1374C133.341 63.0487 133.705 63.022 133.917 62.9333ZM132.099 58.5757C132.312 58.487 132.418 58.4427 132.675 58.4603C133.145 58.3892 133.597 58.5751 133.986 58.9115C134.376 59.248 134.554 59.6731 134.625 60.1426C134.678 60.869 134.262 61.6664 133.518 61.9767C133.306 62.0654 133.199 62.1097 132.942 62.0921C132.473 62.1632 132.021 61.9773 131.631 61.6409C131.241 61.3044 131.064 60.8793 130.993 60.4098C131.046 59.6391 131.462 58.8417 132.099 58.5757Z" fill="#231F20"/>
<g opacity="0.53">
<mask id="path-21-inside-6_163_2250" fill="white">
<path d="M131.594 59.1601C131.426 59.3551 132.046 59.346 132.773 59.2926C133.543 59.3454 134.057 59.3806 133.968 59.1681C133.88 58.9555 133.339 58.5571 132.763 58.6725C132.25 58.6372 131.763 58.9652 131.594 59.1601Z"/>
</mask>
<path d="M131.594 59.1601C131.426 59.3551 132.046 59.346 132.773 59.2926C133.543 59.3454 134.057 59.3806 133.968 59.1681C133.88 58.9555 133.339 58.5571 132.763 58.6725C132.25 58.6372 131.763 58.9652 131.594 59.1601Z" fill="#F2F3F3"/>
<path d="M132.773 59.2926L132.647 57.5909L132.768 57.582L132.889 57.5903L132.773 59.2926ZM132.763 58.6725L133.099 60.3455L132.875 60.3904L132.647 60.3747L132.763 58.6725ZM132.886 60.2749C132.983 60.1622 133.346 59.7079 133.26 59.0137C133.166 58.2595 132.637 57.8931 132.441 57.7828C132.233 57.6664 132.062 57.6337 132.031 57.6277C131.978 57.6172 131.95 57.6163 131.965 57.6172C132.053 57.6233 132.278 57.6181 132.647 57.5909L132.898 60.9942C132.541 61.0205 132.092 61.0465 131.731 61.0218C131.633 61.015 131.507 61.0025 131.372 60.9759C131.26 60.9538 131.023 60.9005 130.77 60.7584C130.528 60.6223 129.972 60.2251 129.874 59.4343C129.783 58.7035 130.163 58.2069 130.303 58.0454L132.886 60.2749ZM132.889 57.5903C133.326 57.6202 133.519 57.6303 133.604 57.6259C133.612 57.6255 133.578 57.6265 133.517 57.6379C133.47 57.6466 133.311 57.6786 133.117 57.7831C132.916 57.8915 132.556 58.1487 132.372 58.6492C132.186 59.1575 132.298 59.5968 132.394 59.8249L135.543 58.5112C135.66 58.7924 135.777 59.2771 135.576 59.824C135.378 60.3631 134.986 60.652 134.738 60.7862C134.322 61.0102 133.897 61.0278 133.782 61.0338C133.439 61.0517 132.99 61.0177 132.656 60.9948L132.889 57.5903ZM132.394 59.8249C132.459 59.9823 132.535 60.0865 132.574 60.1358C132.617 60.1915 132.655 60.228 132.677 60.2485C132.721 60.2883 132.752 60.3065 132.771 60.3159C132.795 60.3285 132.911 60.383 133.099 60.3455L132.428 56.9995C133.191 56.8466 133.865 57.0425 134.326 57.2786C134.563 57.3998 134.782 57.5502 134.97 57.721C135.128 57.8642 135.383 58.1283 135.543 58.5112L132.394 59.8249ZM132.647 60.3747C132.716 60.3795 132.764 60.3707 132.785 60.3658C132.805 60.3611 132.81 60.3574 132.803 60.3607C132.796 60.364 132.792 60.3671 132.795 60.3652C132.797 60.3637 132.804 60.3579 132.817 60.3464C132.829 60.3359 132.854 60.3126 132.886 60.2749L130.303 58.0454C130.562 57.7443 130.922 57.483 131.295 57.2993C131.681 57.1094 132.236 56.926 132.88 56.9702L132.647 60.3747Z" fill="black" mask="url(#path-21-inside-6_163_2250)"/>
</g>
<path d="M123.782 63.1684C123.951 64.4705 124.97 65.4179 126.317 65.3554C127.663 65.2929 128.566 64.1675 128.504 62.821C128.441 61.4746 127.316 60.5715 125.969 60.634C124.667 60.8028 123.658 61.9725 123.782 63.1684Z" fill="#868485"/>
<mask id="path-24-inside-7_163_2250" fill="white">
<path d="M127.221 65.7269C128.39 65.2392 129.142 64.0519 129.018 62.856C128.965 62.1297 128.654 61.3857 128.069 60.881C127.485 60.3763 126.731 60.0665 125.899 60.1643C125.536 60.191 125.323 60.2797 125.004 60.4127C123.835 60.9003 123.083 62.0877 123.207 63.2835C123.26 64.0099 123.571 64.7539 124.262 65.2142C124.847 65.7189 125.556 65.9224 126.433 65.9309C126.645 65.8423 127.008 65.8155 127.221 65.7269ZM125.403 61.3692C125.616 61.2806 125.722 61.2362 125.979 61.2538C126.448 61.1828 126.9 61.3686 127.29 61.7051C127.68 62.0416 127.857 62.4667 127.928 62.9362C127.982 63.6626 127.566 64.46 126.822 64.7703C126.609 64.859 126.503 64.9033 126.246 64.8857C125.777 64.9568 125.325 64.7709 124.935 64.4344C124.545 64.098 124.368 63.6728 124.297 63.2034C124.349 62.4327 124.659 61.6796 125.403 61.3692Z"/>
</mask>
<path d="M127.221 65.7269C128.39 65.2392 129.142 64.0519 129.018 62.856C128.965 62.1297 128.654 61.3857 128.069 60.881C127.485 60.3763 126.731 60.0665 125.899 60.1643C125.536 60.191 125.323 60.2797 125.004 60.4127C123.835 60.9003 123.083 62.0877 123.207 63.2835C123.26 64.0099 123.571 64.7539 124.262 65.2142C124.847 65.7189 125.556 65.9224 126.433 65.9309C126.645 65.8423 127.008 65.8155 127.221 65.7269ZM125.403 61.3692C125.616 61.2806 125.722 61.2362 125.979 61.2538C126.448 61.1828 126.9 61.3686 127.29 61.7051C127.68 62.0416 127.857 62.4667 127.928 62.9362C127.982 63.6626 127.566 64.46 126.822 64.7703C126.609 64.859 126.503 64.9033 126.246 64.8857C125.777 64.9568 125.325 64.7709 124.935 64.4344C124.545 64.098 124.368 63.6728 124.297 63.2034C124.349 62.4327 124.659 61.6796 125.403 61.3692Z" fill="#231F20"/>
<path d="M129.018 62.856L127.321 63.0327L127.318 63.007L127.316 62.9812L129.018 62.856ZM125.899 60.1643L126.098 61.8589L126.061 61.8632L126.024 61.8659L125.899 60.1643ZM123.207 63.2835L124.904 63.1069L124.907 63.1326L124.909 63.1583L123.207 63.2835ZM124.262 65.2142L125.208 63.7942L125.296 63.8531L125.377 63.9225L124.262 65.2142ZM126.433 65.9309L127.089 67.5057L126.766 67.6405L126.416 67.6371L126.433 65.9309ZM125.979 61.2538L126.234 62.9409L126.049 62.9689L125.862 62.9561L125.979 61.2538ZM127.928 62.9362L129.615 62.6809L129.625 62.7457L129.63 62.811L127.928 62.9362ZM126.246 64.8857L125.991 63.1987L126.176 63.1706L126.363 63.1834L126.246 64.8857ZM124.297 63.2034L122.61 63.4587L122.582 63.2735L122.594 63.0866L124.297 63.2034ZM126.564 64.1521C127.104 63.9268 127.36 63.4098 127.321 63.0327L130.715 62.6794C130.925 64.694 129.676 66.5516 127.878 67.3016L126.564 64.1521ZM127.316 62.9812C127.29 62.6232 127.139 62.3316 126.955 62.1727L129.184 59.5892C130.17 60.4398 130.639 61.6361 130.72 62.7309L127.316 62.9812ZM126.955 62.1727C126.653 61.9125 126.361 61.828 126.098 61.8589L125.7 58.4697C127.102 58.305 128.316 58.8401 129.184 59.5892L126.955 62.1727ZM126.024 61.8659C125.968 61.8701 125.948 61.8759 125.932 61.8809C125.916 61.8856 125.891 61.8941 125.847 61.9115C125.799 61.9302 125.745 61.9524 125.661 61.9874L124.347 58.8379C124.681 58.6988 125.113 58.5112 125.774 58.4626L126.024 61.8659ZM125.661 61.9874C125.121 62.2128 124.865 62.7298 124.904 63.1069L121.51 63.4602C121.3 61.4456 122.549 59.5879 124.347 58.8379L125.661 61.9874ZM124.909 63.1583C124.935 63.51 125.067 63.7002 125.208 63.7942L123.316 66.6343C122.075 65.8075 121.586 64.5097 121.505 63.4087L124.909 63.1583ZM125.377 63.9225C125.568 64.0877 125.842 64.2189 126.449 64.2248L126.416 67.6371C125.269 67.626 124.125 67.3502 123.147 66.506L125.377 63.9225ZM125.776 64.3562C125.948 64.2844 126.108 64.2415 126.212 64.2162C126.319 64.1901 126.427 64.1689 126.491 64.1559C126.571 64.14 126.607 64.1324 126.635 64.1258C126.665 64.1183 126.63 64.1247 126.564 64.1521L127.878 67.3016C127.706 67.3734 127.545 67.4163 127.441 67.4416C127.334 67.4677 127.227 67.4889 127.162 67.5019C127.083 67.5178 127.046 67.5254 127.019 67.532C126.988 67.5395 127.024 67.5331 127.089 67.5057L125.776 64.3562ZM124.746 59.7945C124.822 59.7631 125.037 59.6686 125.285 59.6104C125.576 59.5424 125.843 59.5343 126.096 59.5516L125.862 62.9561C125.854 62.9555 125.875 62.9575 125.916 62.955C125.961 62.9522 126.012 62.9451 126.063 62.933C126.112 62.9217 126.142 62.9102 126.143 62.9102C126.143 62.9101 126.142 62.9103 126.141 62.9106C126.14 62.911 126.139 62.9115 126.137 62.9122C126.134 62.9136 126.129 62.9157 126.121 62.9185C126.106 62.9249 126.088 62.9323 126.06 62.944L124.746 59.7945ZM125.724 59.5668C126.837 59.3983 127.772 59.8669 128.405 60.4133L126.175 62.9969C126.142 62.9681 126.116 62.9503 126.1 62.9401C126.083 62.93 126.078 62.9289 126.084 62.9314C126.092 62.934 126.11 62.9398 126.139 62.9429C126.168 62.9462 126.201 62.9459 126.234 62.9409L125.724 59.5668ZM128.405 60.4133C129.184 61.0855 129.502 61.9283 129.615 62.6809L126.241 63.1915C126.226 63.0875 126.206 63.0401 126.198 63.0246C126.195 63.0172 126.192 63.014 126.191 63.0125C126.19 63.0111 126.186 63.006 126.175 62.9969L128.405 60.4133ZM129.63 62.811C129.732 64.1942 128.968 65.7239 127.479 66.3451L126.165 63.1956C126.156 63.1994 126.173 63.1962 126.197 63.1548C126.209 63.1347 126.218 63.1125 126.223 63.0918C126.227 63.0708 126.227 63.0598 126.227 63.0614L129.63 62.811ZM127.479 66.3451C127.403 66.3765 127.188 66.4709 126.94 66.5292C126.649 66.5972 126.382 66.6053 126.129 66.588L126.363 63.1834C126.371 63.184 126.35 63.1821 126.309 63.1846C126.264 63.1874 126.213 63.1944 126.162 63.2066C126.113 63.2179 126.083 63.2294 126.082 63.2294C126.082 63.2294 126.083 63.2293 126.084 63.2289C126.085 63.2286 126.086 63.2281 126.088 63.2274C126.091 63.2259 126.096 63.2239 126.104 63.221C126.119 63.2147 126.137 63.2073 126.165 63.1956L127.479 66.3451ZM126.501 66.5728C125.388 66.7412 124.453 66.2727 123.82 65.7262L126.05 63.1427C126.083 63.1714 126.109 63.1893 126.125 63.1994C126.142 63.2095 126.147 63.2106 126.141 63.2082C126.133 63.2056 126.115 63.1998 126.086 63.1966C126.057 63.1934 126.024 63.1937 125.991 63.1987L126.501 66.5728ZM123.82 65.7262C123.041 65.054 122.723 64.2113 122.61 63.4587L125.984 62.948C125.999 63.0521 126.019 63.0995 126.027 63.115C126.031 63.1224 126.033 63.1255 126.034 63.127C126.035 63.1284 126.039 63.1336 126.05 63.1427L123.82 65.7262ZM122.594 63.0866C122.667 62.0253 123.137 60.4659 124.746 59.7945L126.06 62.944C126.066 62.9416 126.079 62.9339 126.092 62.9222C126.102 62.9122 126.099 62.9116 126.087 62.933C126.059 62.9849 126.013 63.1098 125.999 63.3201L122.594 63.0866Z" fill="black" mask="url(#path-24-inside-7_163_2250)"/>
<g opacity="0.53">
<mask id="path-26-inside-8_163_2250" fill="white">
<path d="M124.898 61.9536C124.73 62.1485 125.35 62.1394 126.076 62.086C126.847 62.1389 127.361 62.1741 127.272 61.9615C127.183 61.749 126.643 61.3505 126.067 61.4659C125.553 61.4307 125.066 61.7586 124.898 61.9536Z"/>
</mask>
<path d="M124.898 61.9536C124.73 62.1485 125.35 62.1394 126.076 62.086C126.847 62.1389 127.361 62.1741 127.272 61.9615C127.183 61.749 126.643 61.3505 126.067 61.4659C125.553 61.4307 125.066 61.7586 124.898 61.9536Z" fill="#F2F3F3"/>
<path d="M126.076 62.086L125.951 60.3843L126.072 60.3755L126.193 60.3837L126.076 62.086ZM126.067 61.4659L126.402 63.1389L126.178 63.1838L125.95 63.1682L126.067 61.4659ZM126.19 63.0683C126.287 62.9556 126.65 62.5014 126.564 61.8071C126.47 61.0529 125.941 60.6866 125.744 60.5762C125.537 60.4599 125.365 60.4271 125.335 60.4211C125.281 60.4106 125.254 60.4097 125.268 60.4107C125.357 60.4168 125.582 60.4115 125.951 60.3843L126.201 63.7877C125.844 63.8139 125.396 63.84 125.035 63.8152C124.937 63.8085 124.811 63.796 124.676 63.7694C124.563 63.7473 124.327 63.694 124.074 63.5519C123.831 63.4158 123.276 63.0186 123.177 62.2278C123.087 61.4969 123.467 61.0003 123.606 60.8389L126.19 63.0683ZM126.193 60.3837C126.629 60.4137 126.823 60.4238 126.907 60.4194C126.916 60.4189 126.881 60.4199 126.821 60.4313C126.774 60.4401 126.614 60.472 126.421 60.5765C126.22 60.685 125.859 60.9422 125.676 61.4426C125.489 61.951 125.602 62.3903 125.697 62.6184L128.847 61.3047C128.964 61.5859 129.08 62.0706 128.88 62.6175C128.682 63.1565 128.29 63.4454 128.041 63.5797C127.626 63.8037 127.2 63.8212 127.085 63.8272C126.743 63.8451 126.294 63.8112 125.96 63.7883L126.193 60.3837ZM125.697 62.6184C125.763 62.7758 125.838 62.8799 125.877 62.9293C125.921 62.985 125.958 63.0215 125.981 63.0419C126.025 63.0818 126.056 63.1 126.074 63.1094C126.099 63.122 126.215 63.1764 126.402 63.1389L125.732 59.7929C126.495 59.64 127.169 59.836 127.63 60.0721C127.867 60.1932 128.086 60.3437 128.274 60.5144C128.432 60.6577 128.687 60.9217 128.847 61.3047L125.697 62.6184ZM125.95 63.1682C126.02 63.173 126.068 63.1642 126.088 63.1593C126.108 63.1545 126.113 63.1509 126.107 63.1542C126.1 63.1574 126.096 63.1606 126.099 63.1586C126.101 63.1572 126.108 63.1514 126.121 63.1398C126.132 63.1294 126.157 63.106 126.19 63.0683L123.606 60.8389C123.866 60.5377 124.226 60.2765 124.599 60.0927C124.985 59.9028 125.539 59.7195 126.184 59.7637L125.95 63.1682Z" fill="black" mask="url(#path-26-inside-8_163_2250)"/>
</g>
<path d="M29.361 89.1529L30.122 88.884L30.1586 88.9719C30.2323 88.9538 30.312 88.934 30.3977 88.9126C31.0144 88.7586 31.9231 88.5238 33.09 88.2154C35.423 87.5989 38.7791 86.6907 42.8779 85.5519C51.0753 83.2743 62.2379 80.0755 74.1195 76.4441C86.0023 72.8125 98.5974 68.7503 109.662 64.7461C120.744 60.7358 130.234 56.8032 135.942 53.4368L135.952 53.4309L135.962 53.4253C138.451 52.0469 141.042 48.4842 142.247 44.8319C142.844 43.0207 143.068 41.2793 142.821 39.8556C142.579 38.4636 141.897 37.3951 140.648 36.7738L140.637 36.7685L140.627 36.7628C140.089 36.4762 139.001 35.9883 137.751 35.4274C137.398 35.269 137.032 35.1048 136.661 34.9377C135.043 34.2072 133.319 33.4106 132.482 32.8774C131.408 32.24 130.462 31.643 129.622 31.1131C129.229 30.8653 128.859 30.6322 128.511 30.4166C127.396 29.7267 126.488 29.2086 125.612 28.8636C123.943 28.206 122.3 28.137 119.476 29.0769L119.454 29.0843L119.431 29.0905C106.561 32.5975 81.9739 42.6634 60.6224 52.0066C49.9582 56.6732 40.1214 61.1504 32.9877 64.5233C29.4197 66.2103 26.534 67.6182 24.5608 68.634C23.5718 69.1431 22.8248 69.5473 22.3388 69.8356C22.3138 69.8505 22.2897 69.8648 22.2666 69.8788L22.3364 70.0082L21.5771 70.4108C20.9103 70.7644 20.2526 71.0943 19.6251 71.409L19.5322 71.4556C18.8733 71.7861 18.2508 72.0995 17.6679 72.415C16.4937 73.0507 15.5435 73.6627 14.8586 74.3609C14.1927 75.0397 13.7839 75.7928 13.6767 76.7444C13.5668 77.72 13.7649 78.9855 14.4751 80.6881C17.2852 87.4248 24.0452 91.0315 29.361 89.1529Z" fill="#E2DFEF" stroke="black" stroke-width="1.70626"/>
<path d="M21.208 84.7846C20.067 85.1705 18.9003 85.4141 17.7268 85.4688C21.0846 88.8918 25.6209 90.3893 29.4154 89.0052L30.1813 88.7258L30.2211 88.8212C30.2948 88.8031 30.3744 88.7834 30.4601 88.762C31.0769 88.6079 31.9856 88.3731 33.1525 88.0648C35.4855 87.4483 38.8416 86.5401 42.9403 85.4013C51.1378 83.1236 62.3004 79.9248 74.182 76.2935C86.0648 72.6618 98.6598 68.5997 109.724 64.5955C120.806 60.5851 130.296 56.6526 136.005 53.2861L136.013 53.2814L136.021 53.2768C137.987 52.1746 140.029 49.7024 141.401 46.8612C142.407 44.7759 142.987 42.6285 142.976 40.817C141.672 42.3534 140.169 43.697 138.696 44.5142C125.808 51.9003 96.3958 62.0334 70.309 70.2665C57.2424 74.3904 44.9767 78.0477 35.9783 80.658C31.4792 81.9632 27.7956 83.007 25.2363 83.7167C23.957 84.0715 22.9564 84.3434 22.2743 84.523C21.9343 84.6126 21.6685 84.6804 21.4854 84.7243C21.3959 84.7458 21.3157 84.7641 21.2531 84.7763C21.2414 84.7786 21.2259 84.7815 21.208 84.7846Z" fill="#C4C2D1" stroke="black" stroke-width="1.70626"/>
<path d="M132.536 32.9073L132.513 32.8955L132.491 32.8824C131.569 32.3285 130.755 31.8228 130.021 31.3671C129.013 30.7412 128.157 30.2094 127.379 29.7761L127.377 29.7767L127.375 29.7779L127.372 29.779L127.369 29.7802L127.366 29.7813L127.364 29.7825L127.361 29.7836L127.358 29.7847L127.355 29.7859L127.353 29.787L127.35 29.7882L127.347 29.7893L127.344 29.7905L127.342 29.7916L127.339 29.7928L127.336 29.7939L127.333 29.7951L127.331 29.7962L127.328 29.7974L127.325 29.7985L127.322 29.7997L127.32 29.8008L127.317 29.802L127.314 29.8032L127.311 29.8043L127.308 29.8055L127.306 29.8066L127.303 29.8078L127.3 29.8089L127.297 29.8101L127.295 29.8112L127.292 29.8124L127.289 29.8135L127.286 29.8147L127.284 29.8159L127.281 29.817L127.278 29.8182L127.275 29.8193L127.272 29.8205L127.27 29.8216L127.267 29.8228L127.264 29.824L127.261 29.8251L127.259 29.8263L127.256 29.8274L127.253 29.8286L127.25 29.8298L127.247 29.8309L127.245 29.8321L127.242 29.8332L127.239 29.8344L127.236 29.8356L127.234 29.8367L127.231 29.8379L127.228 29.8391L127.225 29.8402L127.222 29.8414L127.22 29.8425L127.217 29.8437L127.214 29.8449L127.211 29.846L127.208 29.8472L127.206 29.8484L127.203 29.8495L127.2 29.8507L127.197 29.8519L127.194 29.853L127.192 29.8542L127.189 29.8553L127.186 29.8565L127.183 29.8577L127.181 29.8588L127.178 29.86L127.175 29.8612L127.172 29.8623L127.169 29.8635L127.167 29.8647L127.164 29.8658L127.161 29.867L127.158 29.8682L127.155 29.8693L127.153 29.8705L127.15 29.8717L127.147 29.8728L127.144 29.874L127.141 29.8752L127.139 29.8763L127.136 29.8775L127.133 29.8787L127.13 29.8798L127.127 29.881L127.125 29.8822L127.122 29.8834L127.119 29.8845L127.116 29.8857L127.113 29.8869L127.111 29.888L127.108 29.8892L127.105 29.8904L127.102 29.8915L127.099 29.8927L127.097 29.8939L127.094 29.895L127.091 29.8962L127.088 29.8974L127.085 29.8985L127.083 29.8997L127.08 29.9009L127.077 29.902L127.074 29.9032L127.071 29.9044L127.069 29.9056L127.066 29.9067L127.063 29.9079L127.06 29.9091L127.057 29.9102L127.055 29.9114L127.052 29.9126L127.049 29.9137L127.046 29.9149L127.043 29.9161L127.041 29.9172L127.038 29.9184L127.035 29.9196L127.032 29.9208L127.029 29.9219L127.026 29.9231L127.024 29.9243L127.021 29.9254L127.018 29.9266L127.015 29.9278L127.012 29.9289L127.01 29.9301L127.007 29.9313L127.004 29.9324L127.001 29.9336L126.998 29.9348L126.996 29.9359L126.993 29.9371L126.99 29.9383L126.987 29.9394L126.984 29.9406L126.982 29.9418L126.979 29.9429L126.976 29.9441L126.973 29.9453L126.971 29.9464L126.968 29.9476L126.965 29.9488L126.962 29.9499L126.959 29.9511L126.957 29.9523L126.954 29.9534L126.951 29.9546L126.948 29.9558L126.945 29.9569L126.943 29.9581L126.94 29.9593L126.937 29.9604L126.934 29.9616L126.931 29.9628L126.929 29.9639L126.926 29.9651L126.923 29.9663L126.92 29.9674L126.917 29.9686L126.915 29.9697L126.912 29.9709L126.909 29.9721L126.906 29.9732L126.903 29.9744L126.901 29.9756L126.898 29.9767L126.895 29.9779L126.892 29.979L126.89 29.9802L126.887 29.9814L126.884 29.9825L126.881 29.9837L126.878 29.9848L126.876 29.986L126.873 29.9872L126.87 29.9883L126.867 29.9895L126.865 29.9906L126.862 29.9918L126.859 29.993L126.856 29.9941L126.853 29.9953L126.851 29.9964L126.848 29.9976L126.845 29.9987L126.842 29.9999L126.84 30.0011L126.837 30.0022L126.834 30.0034L126.831 30.0045L126.828 30.0057L126.826 30.0068L126.823 30.008L126.82 30.0091L126.817 30.0103L126.815 30.0114L126.812 30.0126L126.809 30.0138L126.806 30.0149L126.804 30.0161L126.801 30.0172L126.798 30.0184L126.795 30.0195L126.793 30.0207L126.79 30.0218L126.787 30.023L126.784 30.0241L126.782 30.0253L126.779 30.0264L126.776 30.0276L126.773 30.0287L126.771 30.0298L126.768 30.031L126.765 30.0321L126.762 30.0333L126.76 30.0344L126.757 30.0356L126.754 30.0367L126.751 30.0379L126.749 30.039L126.746 30.0402L126.743 30.0413L126.74 30.0424L126.738 30.0436L126.735 30.0447L126.732 30.0459L126.729 30.047L126.727 30.0481L126.724 30.0493L126.721 30.0504L126.719 30.0516L126.716 30.0527L126.713 30.0538L126.71 30.055L126.708 30.0561L126.705 30.0572L126.702 30.0584L126.699 30.0595L126.697 30.0606L126.694 30.0618L126.691 30.0629L126.689 30.064L126.686 30.0652L126.683 30.0663L126.68 30.0674L126.678 30.0686L126.675 30.0697L126.672 30.0708L126.67 30.072L126.667 30.0731L126.664 30.0742L126.662 30.0753L126.659 30.0765L126.656 30.0776L126.653 30.0787L126.651 30.0798L126.648 30.081L126.645 30.0821L126.643 30.0832L126.64 30.0843L126.637 30.0855L126.635 30.0866L126.632 30.0877L126.629 30.0888L126.627 30.0899L126.624 30.0911L126.621 30.0922L126.618 30.0933L126.616 30.0944L126.613 30.0955L126.61 30.0966L126.608 30.0978L126.605 30.0989L126.602 30.1L126.6 30.1011L126.597 30.1022L126.594 30.1033L126.592 30.1044L126.589 30.1055L126.586 30.1066L126.584 30.1078L126.581 30.1089L126.578 30.11L126.576 30.1111L126.573 30.1122L126.571 30.1133L126.568 30.1144L126.565 30.1155L126.563 30.1166L126.56 30.1177L126.557 30.1188L126.555 30.1199L126.552 30.121L126.549 30.1221L126.547 30.1232L126.544 30.1243L126.541 30.1254L126.539 30.1265L126.536 30.1276L126.534 30.1287L126.531 30.1298L126.528 30.1309L126.526 30.132L126.523 30.1331L126.521 30.1341L126.518 30.1352L126.515 30.1363L126.513 30.1374L126.51 30.1385L126.507 30.1396L126.505 30.1407L126.502 30.1418L126.5 30.1428L126.497 30.1439L126.494 30.145L126.492 30.1461L126.489 30.1472L126.487 30.1482L126.484 30.1493L126.482 30.1504L126.479 30.1515L126.476 30.1526L126.474 30.1536L126.471 30.1547L126.469 30.1558L126.466 30.1569L126.463 30.1579L126.461 30.159L126.458 30.1601L126.456 30.1611L126.453 30.1622L126.451 30.1633L126.448 30.1644L126.446 30.1654L126.443 30.1665L126.44 30.1675L126.438 30.1686L126.435 30.1697L126.433 30.1707L126.43 30.1718L126.428 30.1729L126.425 30.1739L126.423 30.175L126.42 30.176L126.418 30.1771L126.415 30.1781L126.413 30.179C123.868 31.5458 121.879 33.274 120.705 34.9165C119.486 36.6223 119.311 37.97 119.768 38.779L119.778 38.7958L119.786 38.8132C120.267 39.7613 121.54 40.3934 123.62 40.3527C125.654 40.313 128.206 39.6168 130.768 38.2469L130.768 38.2468L130.78 38.2405C132.837 37.1828 134.575 35.8444 135.77 34.4854C134.429 33.8846 133.174 33.2401 132.536 32.9073Z" fill="#83C1E9" stroke="black" stroke-width="1.70626"/>
<path d="M109.444 47.5987L109.467 47.5996L109.489 47.6018C110.964 47.742 112.267 46.6237 112.293 45.1307L112.293 45.0976L112.296 45.0647C112.437 43.5898 111.318 42.2872 109.825 42.2614L109.803 42.2611L109.782 42.2596C108.481 42.1704 107.204 43.2244 107.059 44.7505C106.917 46.2382 108.053 47.541 109.444 47.5987Z" fill="#76BDE9" stroke="black" stroke-width="1.70626"/>
<path opacity="0.45" d="M107.711 46.1213C107.637 46.0934 107.563 46.0642 107.49 46.0334C107.921 46.7738 108.696 47.3078 109.635 47.4044C110.467 47.432 111.237 47.0786 111.766 46.485C111.12 46.5954 110.451 46.6159 109.929 46.5541C109.122 46.4975 108.402 46.3796 107.711 46.1213Z" fill="#B2ADA7" stroke="black" stroke-width="1.70626"/>
<g opacity="0.74">
<mask id="path-33-inside-9_163_2250" fill="white">
<path d="M108.317 42.5424C108.193 42.8437 108.963 42.8965 110.035 43.0733C111.214 43.2057 111.967 43.5154 111.834 43.1966C111.701 42.8777 111.027 42.1604 110.15 42.1519C109.441 41.9485 108.591 42.3031 108.317 42.5424Z"/>
</mask>
<path d="M108.317 42.5424C108.193 42.8437 108.963 42.8965 110.035 43.0733C111.214 43.2057 111.967 43.5154 111.834 43.1966C111.701 42.8777 111.027 42.1604 110.15 42.1519C109.441 41.9485 108.591 42.3031 108.317 42.5424Z" fill="#F2F3F3"/>
<path d="M108.317 42.5424L106.739 41.8934L106.892 41.5209L107.196 41.2562L108.317 42.5424ZM110.035 43.0733L109.845 44.7688L109.801 44.7639L109.758 44.7568L110.035 43.0733ZM110.15 42.1519L110.134 43.8581L109.902 43.8559L109.679 43.7919L110.15 42.1519ZM109.895 43.1915C110.008 42.9151 110.077 42.5003 109.912 42.0533C109.761 41.6466 109.494 41.4228 109.36 41.3295C109.225 41.2352 109.119 41.1971 109.103 41.1912C109.077 41.1819 109.077 41.1838 109.117 41.1933C109.203 41.2135 109.339 41.2376 109.56 41.2723C109.759 41.3032 110.037 41.3442 110.313 41.3897L109.758 44.7568C109.338 44.6875 108.721 44.6055 108.338 44.5157C108.17 44.4764 107.767 44.3794 107.404 44.1257C107.199 43.9823 106.883 43.7036 106.71 43.2357C106.523 42.7274 106.594 42.245 106.739 41.8934L109.895 43.1915ZM110.226 41.3777C110.873 41.4504 111.516 41.5887 111.712 41.6219C111.775 41.6326 111.789 41.6334 111.777 41.6323C111.769 41.6316 111.738 41.6292 111.692 41.6298C111.649 41.6303 111.561 41.6337 111.447 41.6558C111.272 41.69 110.628 41.8559 110.297 42.5668C109.996 43.2117 110.22 43.7599 110.259 43.8534L113.408 42.5397C113.481 42.7129 113.71 43.3212 113.389 44.0097C113.037 44.7642 112.347 44.9571 112.102 45.0051C111.831 45.0578 111.596 45.0417 111.491 45.0328C111.362 45.022 111.237 45.0027 111.141 44.9863C110.699 44.9113 110.376 44.8286 109.845 44.7688L110.226 41.3777ZM110.259 43.8534C110.277 43.8976 110.294 43.9304 110.306 43.9511C110.317 43.9724 110.327 43.9872 110.332 43.9957C110.343 44.0117 110.346 44.0143 110.339 44.0062C110.324 43.9886 110.292 43.9567 110.249 43.9245C110.207 43.8928 110.17 43.8735 110.145 43.8639C110.123 43.855 110.12 43.858 110.134 43.8581L110.167 40.4457C111.069 40.4545 111.801 40.8237 112.293 41.1912C112.743 41.5283 113.188 42.0117 113.408 42.5397L110.259 43.8534ZM109.679 43.7919C109.714 43.8018 109.718 43.7963 109.681 43.7979C109.645 43.7996 109.592 43.8073 109.527 43.8252C109.463 43.8431 109.408 43.8654 109.373 43.8826C109.356 43.8908 109.351 43.8943 109.357 43.8906C109.36 43.8886 109.391 43.8693 109.438 43.8286L107.196 41.2562C107.584 40.918 108.121 40.6739 108.614 40.5371C109.129 40.394 109.86 40.2936 110.621 40.5119L109.679 43.7919Z" fill="black" mask="url(#path-33-inside-9_163_2250)"/>
</g>
<mask id="path-35-inside-10_163_2250" fill="white">
<path d="M111.313 48.5298C112.695 47.9535 113.66 46.6775 113.765 45.1361C113.968 42.9302 112.293 41.0086 110.132 40.912C109.512 40.9211 108.892 40.9302 108.254 41.1962C106.872 41.7726 105.907 43.0486 105.802 44.59C105.731 45.6176 106.024 46.6185 106.742 47.442C107.459 48.2656 108.408 48.7436 109.435 48.814C110.1 48.9112 110.675 48.7958 111.313 48.5298ZM108.609 42.0465C109.034 41.8692 109.503 41.7981 110.017 41.8333C111.709 42.001 113.056 43.4355 112.888 45.1276C112.756 46.3058 112.066 47.3425 111.003 47.7858C110.578 47.9632 110.108 48.0342 109.594 47.999C108.824 47.9461 108.026 47.5301 107.503 46.8748C106.98 46.2195 106.67 45.4755 106.785 44.5541C106.705 43.4646 107.44 42.5342 108.609 42.0465Z"/>
</mask>
<path d="M111.313 48.5298C112.695 47.9535 113.66 46.6775 113.765 45.1361C113.968 42.9302 112.293 41.0086 110.132 40.912C109.512 40.9211 108.892 40.9302 108.254 41.1962C106.872 41.7726 105.907 43.0486 105.802 44.59C105.731 45.6176 106.024 46.6185 106.742 47.442C107.459 48.2656 108.408 48.7436 109.435 48.814C110.1 48.9112 110.675 48.7958 111.313 48.5298ZM108.609 42.0465C109.034 41.8692 109.503 41.7981 110.017 41.8333C111.709 42.001 113.056 43.4355 112.888 45.1276C112.756 46.3058 112.066 47.3425 111.003 47.7858C110.578 47.9632 110.108 48.0342 109.594 47.999C108.824 47.9461 108.026 47.5301 107.503 46.8748C106.98 46.2195 106.67 45.4755 106.785 44.5541C106.705 43.4646 107.44 42.5342 108.609 42.0465Z" fill="#6573A4"/>
<path d="M113.765 45.1361L112.063 45.0193L112.065 44.9996L112.066 44.9798L113.765 45.1361ZM110.132 40.912L110.107 39.2059L110.157 39.2052L110.208 39.2075L110.132 40.912ZM109.435 48.814L109.552 47.1118L109.617 47.1162L109.682 47.1257L109.435 48.814ZM110.017 41.8333L110.134 40.1311L110.16 40.1328L110.185 40.1354L110.017 41.8333ZM112.888 45.1276L114.586 45.2958L114.585 45.307L114.584 45.3181L112.888 45.1276ZM106.785 44.5541L108.486 44.429L108.499 44.5975L108.478 44.7651L106.785 44.5541ZM110.656 46.9551C111.466 46.6174 112.003 45.8902 112.063 45.0193L115.468 45.2528C115.316 47.4648 113.924 49.2895 111.97 50.1046L110.656 46.9551ZM112.066 44.9798C112.182 43.7281 111.229 42.669 110.056 42.6166L110.208 39.2075C113.358 39.3482 115.755 42.1324 115.465 45.2923L112.066 44.9798ZM110.157 42.6181C109.504 42.6277 109.203 42.649 108.911 42.771L107.597 39.6215C108.58 39.2114 109.52 39.2145 110.107 39.2059L110.157 42.6181ZM108.911 42.771C108.101 43.1086 107.563 43.8358 107.504 44.7067L104.099 44.4732C104.251 42.2613 105.643 40.4365 107.597 39.6215L108.911 42.771ZM107.504 44.7067C107.462 45.3192 107.63 45.865 108.028 46.3209L105.455 48.5632C104.417 47.3719 104 45.9159 104.099 44.4732L107.504 44.7067ZM108.028 46.3209C108.463 46.82 108.997 47.0737 109.552 47.1118L109.318 50.5163C107.818 50.4134 106.456 49.7112 105.455 48.5632L108.028 46.3209ZM109.682 47.1257C109.961 47.1665 110.219 47.1373 110.656 46.9551L111.97 50.1046C111.131 50.4543 110.238 50.6559 109.188 50.5023L109.682 47.1257ZM107.952 40.4717C108.649 40.1809 109.387 40.0799 110.134 40.1311L109.9 43.5356C109.619 43.5163 109.419 43.5574 109.266 43.6212L107.952 40.4717ZM110.185 40.1354C112.679 40.3824 114.86 42.5351 114.586 45.2958L111.191 44.9593C111.252 44.336 110.74 43.6195 109.849 43.5313L110.185 40.1354ZM114.584 45.3181C114.393 47.0179 113.377 48.6443 111.66 49.3606L110.346 46.2111C110.754 46.0407 111.119 45.5936 111.193 44.937L114.584 45.3181ZM111.66 49.3606C110.962 49.6514 110.224 49.7524 109.478 49.7012L109.711 46.2967C109.992 46.316 110.193 46.2749 110.346 46.2111L111.66 49.3606ZM109.478 49.7012C108.212 49.6145 106.98 48.9545 106.17 47.939L108.837 45.8106C109.072 46.1057 109.435 46.2778 109.711 46.2967L109.478 49.7012ZM106.17 47.939C105.44 47.0246 104.906 45.8339 105.092 44.3432L108.478 44.7651C108.434 45.1171 108.521 45.4143 108.837 45.8106L106.17 47.939ZM105.083 44.6793C104.932 42.6248 106.348 41.1406 107.952 40.4717L109.266 43.6212C108.912 43.7687 108.703 43.9511 108.597 44.0933C108.502 44.2213 108.479 44.3257 108.486 44.429L105.083 44.6793Z" fill="black" mask="url(#path-35-inside-10_163_2250)"/>
<path d="M99.3467 51.8101L99.3694 51.811L99.3921 51.8132C100.867 51.9534 102.17 50.8351 102.195 49.3421L102.196 49.309L102.199 49.2761C102.339 47.8012 101.221 46.4986 99.7279 46.4729L99.7061 46.4725L99.6843 46.471C98.384 46.3818 97.1063 47.4358 96.9612 48.9619C96.8198 50.4496 97.956 51.7524 99.3467 51.8101Z" fill="#76BDE9" stroke="black" stroke-width="1.70626"/>
<path opacity="0.45" d="M99.7095 50.8081C98.7909 50.7115 98.0113 50.542 97.2379 50.2019C97.6575 50.9874 98.4557 51.5599 99.4312 51.6603C100.263 51.6879 101.034 51.3345 101.562 50.7408C100.909 50.8524 100.233 50.8722 99.7095 50.8081Z" fill="#B2ADA7" stroke="black" stroke-width="1.70626"/>
<g opacity="0.74">
<mask id="path-39-inside-11_163_2250" fill="white">
<path d="M98.2195 46.7541C98.0956 47.0553 98.8663 47.1082 99.9382 47.2849C101.116 47.4173 101.87 47.7271 101.737 47.4082C101.604 47.0894 100.93 46.3721 100.053 46.3636C99.238 46.2045 98.3877 46.5591 98.2195 46.7541Z"/>
</mask>
<path d="M98.2195 46.7541C98.0956 47.0553 98.8663 47.1082 99.9382 47.2849C101.116 47.4173 101.87 47.7271 101.737 47.4082C101.604 47.0894 100.93 46.3721 100.053 46.3636C99.238 46.2045 98.3877 46.5591 98.2195 46.7541Z" fill="#F2F3F3"/>
<path d="M98.2195 46.7541L96.6415 46.105L96.7468 45.849L96.9277 45.6393L98.2195 46.7541ZM99.9382 47.2849L99.7477 48.9805L99.704 48.9756L99.6607 48.9684L99.9382 47.2849ZM100.053 46.3636L100.036 48.0698L99.8798 48.0683L99.7261 48.0382L100.053 46.3636ZM99.7975 47.4031C99.9112 47.1268 99.9795 46.7119 99.8144 46.2649C99.6642 45.8583 99.3965 45.6345 99.2631 45.5412C99.1283 45.4468 99.0217 45.4088 99.0054 45.4029C98.9797 45.3936 98.9794 45.3955 99.0199 45.405C99.106 45.4251 99.2413 45.4493 99.4633 45.4839C99.6616 45.5149 99.94 45.5559 100.216 45.6014L99.6607 48.9684C99.2405 48.8992 98.6238 48.8172 98.2409 48.7274C98.0733 48.6881 97.6696 48.5911 97.3069 48.3373C97.102 48.1939 96.7861 47.9152 96.6132 47.4473C96.4255 46.9391 96.4969 46.4567 96.6415 46.105L99.7975 47.4031ZM100.129 45.5893C100.776 45.662 101.419 45.8004 101.615 45.8336C101.678 45.8443 101.692 45.8451 101.68 45.844C101.672 45.8433 101.641 45.8409 101.594 45.8415C101.552 45.842 101.464 45.8453 101.35 45.8675C101.175 45.9017 100.531 46.0675 100.2 46.7785C99.8987 47.4233 100.123 47.9716 100.162 48.0651L103.311 46.7514C103.384 46.9246 103.613 47.5329 103.292 48.2213C102.94 48.9759 102.25 49.1688 102.004 49.2167C101.734 49.2695 101.498 49.2533 101.394 49.2445C101.264 49.2336 101.14 49.2144 101.044 49.198C100.601 49.123 100.279 49.0402 99.7477 48.9805L100.129 45.5893ZM100.162 48.0651C100.18 48.1093 100.197 48.1421 100.208 48.1628C100.22 48.1841 100.229 48.1989 100.235 48.2073C100.245 48.2233 100.249 48.226 100.242 48.2179C100.227 48.2003 100.195 48.1684 100.152 48.1362C100.11 48.1044 100.073 48.0852 100.048 48.0755C100.026 48.0667 100.023 48.0696 100.036 48.0698L100.07 44.6574C100.972 44.6662 101.704 45.0354 102.195 45.4029C102.646 45.74 103.091 46.2233 103.311 46.7514L100.162 48.0651ZM99.7261 48.0382C99.6922 48.0316 99.6389 48.027 99.5666 48.0321C99.4946 48.0372 99.4195 48.0509 99.3502 48.0701C99.2786 48.09 99.2354 48.1096 99.2267 48.1139C99.2224 48.1161 99.2416 48.107 99.2774 48.0825C99.2959 48.0698 99.3253 48.0486 99.3615 48.0179C99.396 47.9887 99.4504 47.9394 99.5113 47.8688L96.9277 45.6393C97.1952 45.3294 97.5267 45.1488 97.698 45.063C97.9215 44.951 98.1733 44.8553 98.4372 44.782C98.9522 44.639 99.645 44.5454 100.38 44.689L99.7261 48.0382Z" fill="black" mask="url(#path-39-inside-11_163_2250)"/>
</g>
<mask id="path-41-inside-12_163_2250" fill="white">
<path d="M101.11 52.7856C102.491 52.2092 103.456 50.9332 103.562 49.3918C103.765 47.186 102.09 45.2643 99.9285 45.1677C99.3084 45.1769 98.6883 45.186 98.0506 45.452C96.6689 46.0283 95.7038 47.3043 95.5981 48.8457C95.5277 49.8733 95.8204 50.8742 96.5383 51.6978C97.2561 52.5213 98.2042 52.9993 99.2318 53.0698C100.002 53.1226 100.578 53.0072 101.11 52.7856ZM98.4053 46.3022C98.8304 46.1249 99.2999 46.0538 99.8137 46.0891C101.506 46.2567 102.853 47.6913 102.685 49.3833C102.553 50.5615 101.862 51.5982 100.799 52.0416C100.374 52.2189 99.9047 52.29 99.3909 52.2547C98.6202 52.2019 97.8228 51.7858 97.2999 51.1305C96.777 50.4752 96.4666 49.7312 96.5814 48.8099C96.6076 47.676 97.3424 46.7456 98.4053 46.3022Z"/>
</mask>
<path d="M101.11 52.7856C102.491 52.2092 103.456 50.9332 103.562 49.3918C103.765 47.186 102.09 45.2643 99.9285 45.1677C99.3084 45.1769 98.6883 45.186 98.0506 45.452C96.6689 46.0283 95.7038 47.3043 95.5981 48.8457C95.5277 49.8733 95.8204 50.8742 96.5383 51.6978C97.2561 52.5213 98.2042 52.9993 99.2318 53.0698C100.002 53.1226 100.578 53.0072 101.11 52.7856ZM98.4053 46.3022C98.8304 46.1249 99.2999 46.0538 99.8137 46.0891C101.506 46.2567 102.853 47.6913 102.685 49.3833C102.553 50.5615 101.862 51.5982 100.799 52.0416C100.374 52.2189 99.9047 52.29 99.3909 52.2547C98.6202 52.2019 97.8228 51.7858 97.2999 51.1305C96.777 50.4752 96.4666 49.7312 96.5814 48.8099C96.6076 47.676 97.3424 46.7456 98.4053 46.3022Z" fill="#6573A4"/>
<path d="M103.562 49.3918L101.86 49.2751L101.861 49.2553L101.863 49.2355L103.562 49.3918ZM99.9285 45.1677L99.9034 43.4617L99.9541 43.4609L100.005 43.4632L99.9285 45.1677ZM99.8137 46.0891L99.9304 44.3868L99.9562 44.3886L99.9819 44.3911L99.8137 46.0891ZM102.685 49.3833L104.383 49.5515L104.382 49.5627L104.381 49.5739L102.685 49.3833ZM96.5814 48.8099L98.2872 48.8492L98.2852 48.9353L98.2746 49.0209L96.5814 48.8099ZM100.453 51.2108C101.262 50.8732 101.8 50.1459 101.86 49.2751L105.264 49.5085C105.113 51.7205 103.72 53.5453 101.767 54.3603L100.453 51.2108ZM101.863 49.2355C101.978 47.9838 101.025 46.9247 99.8523 46.8723L100.005 43.4632C103.155 43.604 105.552 46.3881 105.261 49.5481L101.863 49.2355ZM99.9535 46.8738C99.3002 46.8834 98.9998 46.9048 98.7075 47.0267L97.3937 43.8772C98.3768 43.4671 99.3166 43.4703 99.9034 43.4617L99.9535 46.8738ZM98.7075 47.0267C97.898 47.3644 97.3601 48.0916 97.3004 48.9624L93.8959 48.729C94.0476 46.517 95.4398 44.6922 97.3937 43.8772L98.7075 47.0267ZM97.3004 48.9624C97.2584 49.575 97.4271 50.1207 97.8245 50.5766L95.252 52.8189C94.2137 51.6277 93.797 50.1717 93.8959 48.729L97.3004 48.9624ZM97.8245 50.5766C98.2595 51.0757 98.7939 51.3295 99.3485 51.3675L99.115 54.772C97.6144 54.6691 96.2527 53.9669 95.252 52.8189L97.8245 50.5766ZM99.3485 51.3675C99.8594 51.4025 100.17 51.3288 100.453 51.2108L101.767 54.3603C100.986 54.6857 100.146 54.8427 99.115 54.772L99.3485 51.3675ZM97.7484 44.7275C98.4456 44.4367 99.1839 44.3356 99.9304 44.3868L99.697 47.7913C99.4159 47.7721 99.2152 47.8131 99.0621 47.877L97.7484 44.7275ZM99.9819 44.3911C102.475 44.6382 104.657 46.7908 104.383 49.5515L100.987 49.2151C101.049 48.5917 100.536 47.8753 99.6455 47.787L99.9819 44.3911ZM104.381 49.5739C104.19 51.2737 103.173 52.9 101.456 53.6163L100.142 50.4668C100.551 50.2964 100.916 49.8494 100.99 49.1927L104.381 49.5739ZM101.456 53.6163C100.759 53.9071 100.021 54.0082 99.2742 53.957L99.5076 50.5525C99.7887 50.5717 99.9894 50.5307 100.142 50.4668L101.456 53.6163ZM99.2742 53.957C98.0091 53.8702 96.7764 53.2102 95.9662 52.1947L98.6336 50.0663C98.8691 50.3615 99.2313 50.5335 99.5076 50.5525L99.2742 53.957ZM95.9662 52.1947C95.2366 51.2804 94.7025 50.0896 94.8883 48.5989L98.2746 49.0209C98.2307 49.3728 98.3174 49.67 98.6336 50.0663L95.9662 52.1947ZM94.8756 48.7706C94.9197 46.8562 96.1677 45.3868 97.7484 44.7275L99.0621 47.877C98.5172 48.1043 98.2954 48.4958 98.2872 48.8492L94.8756 48.7706Z" fill="black" mask="url(#path-41-inside-12_163_2250)"/>
<path d="M86.8672 53.1284L86.8662 53.1512L86.8641 53.1738C86.7227 54.6615 87.8588 55.9643 89.2495 56.022L89.2722 56.023L89.2949 56.0251C90.7697 56.1653 92.0724 55.047 92.0981 53.554L92.0987 53.5209L92.1018 53.488C92.242 52.0132 91.1238 50.7105 89.6308 50.6848L89.6089 50.6844L89.5871 50.6829C88.2541 50.5915 86.9257 51.7173 86.8672 53.1284Z" fill="#76BDE9" stroke="black" stroke-width="1.70626"/>
<path opacity="0.45" d="M87.4105 54.5891C87.3361 54.5613 87.2626 54.5321 87.1897 54.5013C87.6206 55.2417 88.3953 55.7757 89.3342 55.8723C90.1661 55.8999 90.9369 55.5465 91.4654 54.9529C90.819 55.0633 90.15 55.0838 89.6284 55.022C88.8215 54.9654 88.101 54.8475 87.4105 54.5891Z" fill="#B2ADA7" stroke="black" stroke-width="1.70626"/>
<g opacity="0.74">
<mask id="path-45-inside-13_163_2250" fill="white">
<path d="M88.0166 51.0106C87.8927 51.3118 88.6634 51.3646 89.7354 51.5414C90.9136 51.6738 91.6667 51.9836 91.5337 51.6647C91.4007 51.3459 90.7272 50.6286 89.8502 50.6201C89.1414 50.4166 88.2911 50.7713 88.0166 51.0106Z"/>
</mask>
<path d="M88.0166 51.0106C87.8927 51.3118 88.6634 51.3646 89.7354 51.5414C90.9136 51.6738 91.6667 51.9836 91.5337 51.6647C91.4007 51.3459 90.7272 50.6286 89.8502 50.6201C89.1414 50.4166 88.2911 50.7713 88.0166 51.0106Z" fill="#F2F3F3"/>
<path d="M88.0166 51.0106L86.4386 50.3615L86.5918 49.989L86.8955 49.7243L88.0166 51.0106ZM89.7354 51.5414L89.5448 53.237L89.5011 53.2321L89.4578 53.2249L89.7354 51.5414ZM89.8502 50.6201L89.8336 52.3262L89.602 52.324L89.3794 52.2601L89.8502 50.6201ZM89.5946 51.6596C89.7083 51.3832 89.7766 50.9684 89.6115 50.5214C89.4613 50.1147 89.1937 49.891 89.0603 49.7977C88.9254 49.7033 88.8188 49.6652 88.8025 49.6593C88.7769 49.6501 88.7765 49.6519 88.817 49.6614C88.9031 49.6816 89.0385 49.7058 89.2604 49.7404C89.4587 49.7714 89.7371 49.8124 90.013 49.8579L89.4578 53.2249C89.0376 53.1556 88.4209 53.0736 88.0381 52.9839C87.8704 52.9446 87.4667 52.8476 87.104 52.5938C86.8991 52.4504 86.5832 52.1717 86.4104 51.7038C86.2226 51.1956 86.294 50.7132 86.4386 50.3615L89.5946 51.6596ZM89.9259 49.8458C90.5727 49.9185 91.2161 50.0569 91.4118 50.0901C91.4747 50.1008 91.4894 50.1015 91.4768 50.1005C91.4687 50.0998 91.4379 50.0974 91.3916 50.0979C91.3487 50.0985 91.2609 50.1018 91.1474 50.1239C90.9723 50.1581 90.3284 50.324 89.9967 51.035C89.6958 51.6798 89.9199 52.228 89.9589 52.3216L93.1084 51.0078C93.1807 51.1811 93.4104 51.7894 93.0892 52.4778C92.7371 53.2323 92.047 53.4253 91.8015 53.4732C91.5312 53.526 91.2956 53.5098 91.1908 53.501C91.0615 53.4901 90.9372 53.4708 90.8407 53.4545C90.3986 53.3794 90.0763 53.2967 89.5448 53.237L89.9259 49.8458ZM89.9589 52.3216C89.9773 52.3657 89.9942 52.3985 90.0055 52.4192C90.0171 52.4406 90.0265 52.4554 90.032 52.4638C90.0425 52.4798 90.0457 52.4825 90.0387 52.4743C90.0238 52.4568 89.9924 52.4248 89.9493 52.3926C89.9069 52.3609 89.8701 52.3417 89.8453 52.332C89.8227 52.3232 89.8202 52.3261 89.8336 52.3262L89.8667 48.9139C90.7692 48.9226 91.5008 49.2918 91.9925 49.6594C92.4434 49.9964 92.8882 50.4798 93.1084 51.0078L89.9589 52.3216ZM89.3794 52.2601C89.4135 52.2699 89.4176 52.2644 89.381 52.2661C89.345 52.2677 89.2915 52.2754 89.227 52.2933C89.1626 52.3112 89.108 52.3335 89.0731 52.3507C89.0564 52.3589 89.0514 52.3624 89.0573 52.3587C89.0604 52.3568 89.0911 52.3375 89.1378 52.2968L86.8955 49.7243C87.2835 49.3861 87.8212 49.1421 88.3141 49.0052C88.8293 48.8622 89.5604 48.7617 90.321 48.98L89.3794 52.2601Z" fill="black" mask="url(#path-45-inside-13_163_2250)"/>
</g>
<mask id="path-47-inside-14_163_2250" fill="white">
<path d="M91.013 56.9976C92.3947 56.4213 93.3597 55.1453 93.4654 53.6038C93.6683 51.398 91.9933 49.4764 89.8318 49.3798C89.2117 49.3889 88.5916 49.398 87.9539 49.664C86.5722 50.2403 85.6072 51.5163 85.5015 53.0577C85.431 54.0853 85.7237 55.0862 86.4416 55.9098C87.1594 56.7333 88.1075 57.2113 89.1351 57.2818C89.7995 57.379 90.3753 57.2636 91.013 56.9976ZM88.3086 50.5143C88.7337 50.3369 89.2032 50.2659 89.717 50.3011C91.409 50.4688 92.7561 51.9033 92.5884 53.5953C92.456 54.7736 91.7655 55.8103 90.7026 56.2536C90.2775 56.4309 89.808 56.502 89.2942 56.4668C88.5235 56.4139 87.7261 55.9979 87.2032 55.3426C86.6803 54.6872 86.3699 53.9432 86.4847 53.0219C86.4046 51.9324 87.2458 50.9576 88.3086 50.5143Z"/>
</mask>
<path d="M91.013 56.9976C92.3947 56.4213 93.3597 55.1453 93.4654 53.6038C93.6683 51.398 91.9933 49.4764 89.8318 49.3798C89.2117 49.3889 88.5916 49.398 87.9539 49.664C86.5722 50.2403 85.6072 51.5163 85.5015 53.0577C85.431 54.0853 85.7237 55.0862 86.4416 55.9098C87.1594 56.7333 88.1075 57.2113 89.1351 57.2818C89.7995 57.379 90.3753 57.2636 91.013 56.9976ZM88.3086 50.5143C88.7337 50.3369 89.2032 50.2659 89.717 50.3011C91.409 50.4688 92.7561 51.9033 92.5884 53.5953C92.456 54.7736 91.7655 55.8103 90.7026 56.2536C90.2775 56.4309 89.808 56.502 89.2942 56.4668C88.5235 56.4139 87.7261 55.9979 87.2032 55.3426C86.6803 54.6872 86.3699 53.9432 86.4847 53.0219C86.4046 51.9324 87.2458 50.9576 88.3086 50.5143Z" fill="#6573A4"/>
<path d="M93.4654 53.6038L91.7632 53.4871L91.7645 53.4673L91.7663 53.4476L93.4654 53.6038ZM89.8318 49.3798L89.8068 47.6737L89.8574 47.673L89.908 47.6752L89.8318 49.3798ZM89.1351 57.2818L89.2518 55.5795L89.3172 55.584L89.382 55.5935L89.1351 57.2818ZM89.717 50.3011L89.8337 48.5988L89.8595 48.6006L89.8852 48.6032L89.717 50.3011ZM92.5884 53.5953L94.2864 53.7636L94.2853 53.7747L94.284 53.7859L92.5884 53.5953ZM86.4847 53.0219L88.1864 52.8967L88.1988 53.0652L88.1779 53.2329L86.4847 53.0219ZM90.3561 55.4228C91.1656 55.0852 91.7035 54.358 91.7632 53.4871L95.1677 53.7206C95.016 55.9325 93.6238 57.7573 91.6698 58.5723L90.3561 55.4228ZM91.7663 53.4476C91.8815 52.1958 90.9286 51.1368 89.7556 51.0843L89.908 47.6752C93.058 47.816 95.4551 50.6002 95.1645 53.7601L91.7663 53.4476ZM89.8568 51.0859C89.2035 51.0955 88.9031 51.1168 88.6108 51.2387L87.2971 48.0892C88.2801 47.6792 89.2199 47.6823 89.8068 47.6737L89.8568 51.0859ZM88.6108 51.2387C87.8013 51.5764 87.2634 52.3036 87.2037 53.1745L83.7992 52.941C83.9509 50.729 85.3431 48.9043 87.2971 48.0892L88.6108 51.2387ZM87.2037 53.1745C87.1617 53.787 87.3304 54.3328 87.7278 54.7887L85.1554 57.0309C84.117 55.8397 83.7003 54.3837 83.7992 52.941L87.2037 53.1745ZM87.7278 54.7887C88.1628 55.2877 88.6973 55.5415 89.2518 55.5795L89.0184 58.9841C87.5177 58.8812 86.156 58.179 85.1554 57.0309L87.7278 54.7887ZM89.382 55.5935C89.6609 55.6343 89.9191 55.6051 90.3561 55.4228L91.6698 58.5723C90.8314 58.9221 89.9381 59.1237 88.8881 58.9701L89.382 55.5935ZM87.6517 48.9395C88.3489 48.6487 89.0872 48.5477 89.8337 48.5988L89.6003 52.0034C89.3192 51.9841 89.1185 52.0252 88.9655 52.089L87.6517 48.9395ZM89.8852 48.6032C92.3785 48.8502 94.5599 51.0028 94.2864 53.7636L90.8905 53.4271C90.9523 52.8038 90.4396 52.0873 89.5488 51.9991L89.8852 48.6032ZM94.284 53.7859C94.093 55.4857 93.0767 57.1121 91.3595 57.8284L90.0458 54.6789C90.4543 54.5085 90.8191 54.0614 90.8929 53.4048L94.284 53.7859ZM91.3595 57.8284C90.6623 58.1192 89.924 58.2202 89.1775 58.169L89.4109 54.7645C89.692 54.7838 89.8927 54.7427 90.0458 54.6789L91.3595 57.8284ZM89.1775 58.169C87.9124 58.0823 86.6798 57.4222 85.8695 56.4068L88.5369 54.2783C88.7724 54.5735 89.1346 54.7455 89.4109 54.7645L89.1775 58.169ZM85.8695 56.4068C85.1399 55.4924 84.6058 54.3017 84.7916 52.811L88.1779 53.2329C88.1341 53.5848 88.2207 53.8821 88.5369 54.2783L85.8695 56.4068ZM84.7831 53.1471C84.6296 51.0602 86.1936 49.5477 87.6517 48.9395L88.9655 52.089C88.684 52.2064 88.4583 52.386 88.3231 52.5627C88.1928 52.733 88.1826 52.8456 88.1864 52.8967L84.7831 53.1471Z" fill="black" mask="url(#path-47-inside-14_163_2250)"/>
<path d="M79.0471 60.2779L79.0698 60.2788L79.0925 60.281C80.5673 60.4212 81.87 59.3029 81.8957 57.8099L81.8963 57.7768L81.8994 57.7439C82.0396 56.269 80.9214 54.9664 79.4284 54.9406L79.4065 54.9403L79.3847 54.9388C78.0845 54.8496 76.8068 55.9036 76.6617 57.4297C76.5203 58.9174 77.6564 60.2202 79.0471 60.2779Z" fill="#76BDE9" stroke="black" stroke-width="1.70626"/>
<path opacity="0.45" d="M77.3135 58.8007C77.2392 58.7729 77.1656 58.7436 77.0928 58.7128C77.5237 59.4533 78.2984 59.9873 79.2373 60.0838C80.0692 60.1115 80.8399 59.7581 81.3685 59.1644C80.7221 59.2749 80.0531 59.2954 79.5314 59.2336C78.7246 59.177 78.0041 59.059 77.3135 58.8007Z" fill="#B2ADA7" stroke="black" stroke-width="1.70626"/>
<g opacity="0.74">
<mask id="path-51-inside-15_163_2250" fill="white">
<path d="M77.9192 55.2221C77.7953 55.5233 78.566 55.5762 79.638 55.7529C80.8162 55.8854 81.5693 56.1951 81.4363 55.8763C81.3033 55.5574 80.6297 54.8401 79.7528 54.8316C79.044 54.6281 78.0874 55.0272 77.9192 55.2221Z"/>
</mask>
<path d="M77.9192 55.2221C77.7953 55.5233 78.566 55.5762 79.638 55.7529C80.8162 55.8854 81.5693 56.1951 81.4363 55.8763C81.3033 55.5574 80.6297 54.8401 79.7528 54.8316C79.044 54.6281 78.0874 55.0272 77.9192 55.2221Z" fill="#F2F3F3"/>
<path d="M77.9192 55.2221L76.3412 54.5731L76.4465 54.317L76.6274 54.1074L77.9192 55.2221ZM79.638 55.7529L79.4474 57.4485L79.4037 57.4436L79.3604 57.4365L79.638 55.7529ZM79.7528 54.8316L79.7362 56.5378L79.5046 56.5355L79.2819 56.4716L79.7528 54.8316ZM79.4972 55.8711C79.6109 55.5948 79.6792 55.18 79.5141 54.733C79.3639 54.3263 79.0962 54.1025 78.9629 54.0092C78.828 53.9149 78.7214 53.8768 78.7051 53.8709C78.6794 53.8616 78.6791 53.8635 78.7196 53.873C78.8057 53.8932 78.9411 53.9173 79.163 53.952C79.3613 53.9829 79.6397 54.0239 79.9155 54.0694L79.3604 57.4365C78.9402 57.3672 78.3235 57.2852 77.9406 57.1954C77.773 57.1561 77.3693 57.0591 77.0066 56.8054C76.8017 56.662 76.4858 56.3832 76.313 55.9154C76.1252 55.4071 76.1966 54.9247 76.3412 54.5731L79.4972 55.8711ZM79.8285 54.0574C80.4753 54.13 81.1186 54.2684 81.3143 54.3016C81.3773 54.3123 81.392 54.3131 81.3794 54.312C81.3713 54.3113 81.3405 54.3089 81.2942 54.3095C81.2513 54.31 81.1635 54.3133 81.05 54.3355C80.8749 54.3697 80.231 54.5355 79.8993 55.2465C79.5984 55.8914 79.8225 56.4396 79.8615 56.5331L83.011 55.2194C83.0833 55.3926 83.3129 56.0009 82.9918 56.6893C82.6397 57.4439 81.9495 57.6368 81.7041 57.6847C81.4338 57.7375 81.1982 57.7213 81.0934 57.7125C80.9641 57.7016 80.8398 57.6824 80.7433 57.666C80.3011 57.591 79.9788 57.5083 79.4474 57.4485L79.8285 54.0574ZM79.8615 56.5331C79.8799 56.5773 79.8968 56.6101 79.9081 56.6308C79.9197 56.6521 79.929 56.6669 79.9346 56.6753C79.9451 56.6914 79.9483 56.694 79.9413 56.6859C79.9264 56.6683 79.895 56.6364 79.8519 56.6042C79.8094 56.5724 79.7727 56.5532 79.7479 56.5436C79.7253 56.5347 79.7227 56.5377 79.7362 56.5378L79.7693 53.1254C80.6718 53.1342 81.4034 53.5034 81.8951 53.8709C82.346 54.208 82.7908 54.6913 83.011 55.2194L79.8615 56.5331ZM79.2819 56.4716C79.3126 56.4804 79.3299 56.4819 79.3299 56.4819C79.3301 56.4819 79.319 56.481 79.2959 56.4824C79.2467 56.4854 79.1771 56.4968 79.0979 56.5192C79.0602 56.5299 79.0254 56.5416 78.9955 56.5531C78.9652 56.5647 78.9446 56.5741 78.9345 56.5791C78.9221 56.5853 78.9346 56.5801 78.9654 56.5596C78.9814 56.5489 79.0103 56.5287 79.0472 56.4981C79.0661 56.4825 79.0897 56.4621 79.1162 56.4367C79.1424 56.4116 79.1751 56.3784 79.211 56.3368L76.6274 54.1074C76.9061 53.7845 77.2624 53.5992 77.4195 53.5214C77.6436 53.4103 77.8997 53.3118 78.1687 53.2357C78.6628 53.0958 79.4354 52.9653 80.2236 53.1916L79.2819 56.4716Z" fill="black" mask="url(#path-51-inside-15_163_2250)"/>
</g>
<mask id="path-53-inside-16_163_2250" fill="white">
<path d="M80.8096 61.2536C82.1913 60.6772 83.1564 59.4012 83.2621 57.8598C83.4649 55.654 81.7899 53.7324 79.6284 53.6358C79.0084 53.6449 78.3883 53.654 77.7506 53.92C76.3689 54.4963 75.4038 55.7723 75.2981 57.3137C75.2276 58.3413 75.5204 59.3422 76.2382 60.1658C76.9561 60.9893 77.9041 61.4673 78.9317 61.5378C79.7024 61.5906 80.2782 61.4752 80.8096 61.2536ZM78.2115 54.7259C78.6366 54.5486 79.1061 54.4775 79.6199 54.5128C81.312 54.6804 82.659 56.1149 82.4914 57.807C82.3589 58.9852 81.6684 60.0219 80.6055 60.4653C80.1804 60.6426 79.7109 60.7136 79.1971 60.6784C78.4264 60.6256 77.629 60.2095 77.1061 59.5542C76.5832 58.8989 76.2729 58.1549 76.3877 57.2336C76.3075 56.144 77.0424 55.2136 78.2115 54.7259Z"/>
</mask>
<path d="M80.8096 61.2536C82.1913 60.6772 83.1564 59.4012 83.2621 57.8598C83.4649 55.654 81.7899 53.7324 79.6284 53.6358C79.0084 53.6449 78.3883 53.654 77.7506 53.92C76.3689 54.4963 75.4038 55.7723 75.2981 57.3137C75.2276 58.3413 75.5204 59.3422 76.2382 60.1658C76.9561 60.9893 77.9041 61.4673 78.9317 61.5378C79.7024 61.5906 80.2782 61.4752 80.8096 61.2536ZM78.2115 54.7259C78.6366 54.5486 79.1061 54.4775 79.6199 54.5128C81.312 54.6804 82.659 56.1149 82.4914 57.807C82.3589 58.9852 81.6684 60.0219 80.6055 60.4653C80.1804 60.6426 79.7109 60.7136 79.1971 60.6784C78.4264 60.6256 77.629 60.2095 77.1061 59.5542C76.5832 58.8989 76.2729 58.1549 76.3877 57.2336C76.3075 56.144 77.0424 55.2136 78.2115 54.7259Z" fill="#6573A4"/>
<path d="M83.2621 57.8598L81.5598 57.7431L81.5612 57.7233L81.563 57.7036L83.2621 57.8598ZM79.6284 53.6358L79.6034 51.9297L79.654 51.9289L79.7046 51.9312L79.6284 53.6358ZM79.6199 54.5128L79.7367 52.8105L79.7624 52.8123L79.7882 52.8148L79.6199 54.5128ZM82.4914 57.807L84.1893 57.9752L84.1882 57.9864L84.1869 57.9975L82.4914 57.807ZM76.3877 57.2336L78.0893 57.1084L78.1017 57.2769L78.0808 57.4445L76.3877 57.2336ZM80.1527 59.6788C80.9622 59.3412 81.5001 58.614 81.5598 57.7431L84.9643 57.9766C84.8126 60.1885 83.4204 62.0133 81.4665 62.8283L80.1527 59.6788ZM81.563 57.7036C81.6781 56.4518 80.7252 55.3927 79.5523 55.3403L79.7046 51.9312C82.8546 52.072 85.2518 54.8562 84.9611 58.0161L81.563 57.7036ZM79.6535 55.3418C79.0001 55.3514 78.6998 55.3728 78.4074 55.4947L77.0937 52.3452C78.0767 51.9352 79.0166 51.9383 79.6034 51.9297L79.6535 55.3418ZM78.4074 55.4947C77.598 55.8324 77.0601 56.5596 77.0004 57.4304L73.5958 57.197C73.7475 54.985 75.1398 53.1603 77.0937 52.3452L78.4074 55.4947ZM77.0004 57.4304C76.9584 58.043 77.1271 58.5887 77.5244 59.0446L74.952 61.2869C73.9137 60.0957 73.4969 58.6397 73.5958 57.197L77.0004 57.4304ZM77.5244 59.0446C77.9595 59.5437 78.4939 59.7975 79.0484 59.8355L78.815 63.24C77.3143 63.1371 75.9527 62.4349 74.952 61.2869L77.5244 59.0446ZM79.0484 59.8355C79.5594 59.8706 79.8699 59.7968 80.1527 59.6788L81.4665 62.8283C80.6865 63.1537 79.8455 63.3107 78.815 63.24L79.0484 59.8355ZM77.5546 53.1512C78.2518 52.8603 78.9901 52.7593 79.7367 52.8105L79.5032 56.215C79.2221 56.1957 79.0215 56.2368 78.8684 56.3007L77.5546 53.1512ZM79.7882 52.8148C82.2814 53.0618 84.4628 55.2145 84.1893 57.9752L80.7934 57.6387C80.8552 57.0154 80.3425 56.299 79.4517 56.2107L79.7882 52.8148ZM84.1869 57.9975C83.9959 59.6974 82.9796 61.3237 81.2624 62.04L79.9487 58.8905C80.3572 58.7201 80.722 58.273 80.7958 57.6164L84.1869 57.9975ZM81.2624 62.04C80.5652 62.3308 79.827 62.4319 79.0804 62.3807L79.3139 58.9761C79.5949 58.9954 79.7956 58.9544 79.9487 58.8905L81.2624 62.04ZM79.0804 62.3807C77.8153 62.2939 76.5827 61.6339 75.7724 60.6184L78.4398 58.49C78.6753 58.7852 79.0375 58.9572 79.3139 58.9761L79.0804 62.3807ZM75.7724 60.6184C75.0428 59.7041 74.5087 58.5133 74.6945 57.0226L78.0808 57.4445C78.037 57.7965 78.1236 58.0937 78.4398 58.49L75.7724 60.6184ZM74.686 57.3588C74.5349 55.3042 75.9511 53.82 77.5546 53.1512L78.8684 56.3007C78.5148 56.4482 78.3058 56.6305 78.1999 56.7727C78.1046 56.9008 78.0817 57.0051 78.0893 57.1084L74.686 57.3588Z" fill="black" mask="url(#path-53-inside-16_163_2250)"/>
<path d="M66.5669 61.5968L66.5659 61.6196L66.5638 61.6422C66.4224 63.1299 67.5585 64.4327 68.9492 64.4904L68.9719 64.4913L68.9946 64.4935C70.4694 64.6337 71.7721 63.5154 71.7978 62.0224L71.7984 61.9893L71.8015 61.9564C71.9417 60.4815 70.8235 59.1789 69.3305 59.1532L69.3086 59.1528L69.2868 59.1513C67.9538 59.0599 66.6254 60.1857 66.5669 61.5968Z" fill="#76BDE9" stroke="black" stroke-width="1.70626"/>
<path opacity="0.45" d="M67.1107 63.0574C67.0363 63.0296 66.9627 63.0003 66.8899 62.9696C67.3208 63.71 68.0955 64.244 69.0344 64.3406C69.8663 64.3682 70.6371 64.0148 71.1656 63.4211C70.5192 63.5316 69.8502 63.5521 69.3285 63.4903C68.5217 63.4337 67.8012 63.3157 67.1107 63.0574Z" fill="#B2ADA7" stroke="black" stroke-width="1.70626"/>
<g opacity="0.74">
<mask id="path-57-inside-17_163_2250" fill="white">
<path d="M67.7163 59.4786C67.5924 59.7798 68.3631 59.8327 69.4351 60.0094C70.6133 60.1418 71.3664 60.4516 71.2334 60.1327C71.1004 59.8139 70.4269 59.0966 69.5499 59.0881C68.8411 58.8846 67.9908 59.2393 67.7163 59.4786Z"/>
</mask>
<path d="M67.7163 59.4786C67.5924 59.7798 68.3631 59.8327 69.4351 60.0094C70.6133 60.1418 71.3664 60.4516 71.2334 60.1327C71.1004 59.8139 70.4269 59.0966 69.5499 59.0881C68.8411 58.8846 67.9908 59.2393 67.7163 59.4786Z" fill="#F2F3F3"/>
<path d="M67.7163 59.4786L66.1383 58.8295L66.2915 58.457L66.5952 58.1924L67.7163 59.4786ZM69.4351 60.0094L69.2445 61.705L69.2008 61.7001L69.1575 61.6929L69.4351 60.0094ZM69.5499 59.0881L69.5333 60.7943L69.3017 60.792L69.0791 60.7281L69.5499 59.0881ZM69.2943 60.1276C69.408 59.8513 69.4763 59.4364 69.3112 58.9894C69.161 58.5828 68.8934 58.359 68.76 58.2657C68.6251 58.1713 68.5185 58.1332 68.5022 58.1274C68.4766 58.1181 68.4762 58.12 68.5167 58.1295C68.6028 58.1496 68.7382 58.1738 68.9601 58.2084C69.1584 58.2394 69.4368 58.2804 69.7127 58.3259L69.1575 61.6929C68.7373 61.6237 68.1206 61.5417 67.7378 61.4519C67.5701 61.4126 67.1665 61.3156 66.8038 61.0618C66.5988 60.9184 66.2829 60.6397 66.1101 60.1718C65.9223 59.6636 65.9937 59.1812 66.1383 58.8295L69.2943 60.1276ZM69.6256 58.3138C70.2724 58.3865 70.9158 58.5249 71.1115 58.5581C71.1744 58.5688 71.1891 58.5695 71.1765 58.5685C71.1684 58.5678 71.1376 58.5654 71.0913 58.566C71.0484 58.5665 70.9606 58.5698 70.8472 58.592C70.672 58.6262 70.0281 58.792 69.6964 59.503C69.3955 60.1478 69.6196 60.6961 69.6586 60.7896L72.8081 59.4758C72.8804 59.6491 73.1101 60.2574 72.7889 60.9458C72.4368 61.7004 71.7467 61.8933 71.5012 61.9412C71.2309 61.994 70.9953 61.9778 70.8905 61.969C70.7612 61.9581 70.6369 61.9389 70.5404 61.9225C70.0983 61.8474 69.776 61.7647 69.2445 61.705L69.6256 58.3138ZM69.6586 60.7896C69.677 60.8337 69.6939 60.8666 69.7052 60.8872C69.7168 60.9086 69.7262 60.9234 69.7317 60.9318C69.7422 60.9478 69.7454 60.9505 69.7384 60.9423C69.7235 60.9248 69.6921 60.8928 69.649 60.8607C69.6066 60.8289 69.5698 60.8097 69.545 60.8C69.5224 60.7912 69.5199 60.7941 69.5333 60.7943L69.5664 57.3819C70.4689 57.3907 71.2005 57.7598 71.6922 58.1274C72.1431 58.4645 72.5879 58.9478 72.8081 59.4758L69.6586 60.7896ZM69.0791 60.7281C69.1132 60.7379 69.1173 60.7324 69.0807 60.7341C69.0447 60.7357 68.9913 60.7434 68.9267 60.7614C68.8624 60.7792 68.8077 60.8015 68.7728 60.8187C68.7561 60.8269 68.7511 60.8305 68.757 60.8267C68.7601 60.8248 68.7908 60.8055 68.8375 60.7648L66.5952 58.1924C66.9832 57.8542 67.5209 57.6101 68.0138 57.4732C68.529 57.3302 69.2601 57.2297 70.0207 57.4481L69.0791 60.7281Z" fill="black" mask="url(#path-57-inside-17_163_2250)"/>
</g>
<mask id="path-59-inside-18_163_2250" fill="white">
<path d="M70.7127 65.4654C72.0944 64.889 73.0594 63.613 73.1651 62.0716C73.368 59.8658 71.693 57.9442 69.5315 57.8476C68.9114 57.8567 68.2913 57.8658 67.6536 58.1318C66.2719 58.7081 65.3069 59.9841 65.2012 61.5255C65.1307 62.5531 65.4234 63.554 66.1413 64.3776C66.8591 65.2011 67.8072 65.6791 68.8348 65.7496C69.6055 65.8024 70.1812 65.687 70.7127 65.4654ZM68.0083 58.982C68.4334 58.8047 68.9029 58.7337 69.4167 58.7689C71.1087 58.9365 72.4558 60.3711 72.2881 62.0631C72.1557 63.2413 71.4652 64.278 70.4023 64.7214C69.9772 64.8987 69.5077 64.9698 68.9939 64.9345C68.2232 64.8817 67.4258 64.4657 66.9029 63.8103C66.38 63.155 66.0696 62.411 66.1844 61.4897C66.2106 60.3558 66.9455 59.4254 68.0083 58.982Z"/>
</mask>
<path d="M70.7127 65.4654C72.0944 64.889 73.0594 63.613 73.1651 62.0716C73.368 59.8658 71.693 57.9442 69.5315 57.8476C68.9114 57.8567 68.2913 57.8658 67.6536 58.1318C66.2719 58.7081 65.3069 59.9841 65.2012 61.5255C65.1307 62.5531 65.4234 63.554 66.1413 64.3776C66.8591 65.2011 67.8072 65.6791 68.8348 65.7496C69.6055 65.8024 70.1812 65.687 70.7127 65.4654ZM68.0083 58.982C68.4334 58.8047 68.9029 58.7337 69.4167 58.7689C71.1087 58.9365 72.4558 60.3711 72.2881 62.0631C72.1557 63.2413 71.4652 64.278 70.4023 64.7214C69.9772 64.8987 69.5077 64.9698 68.9939 64.9345C68.2232 64.8817 67.4258 64.4657 66.9029 63.8103C66.38 63.155 66.0696 62.411 66.1844 61.4897C66.2106 60.3558 66.9455 59.4254 68.0083 58.982Z" fill="#6573A4"/>
<path d="M73.1651 62.0716L71.4629 61.9549L71.4642 61.9351L71.466 61.9153L73.1651 62.0716ZM69.5315 57.8476L69.5065 56.1415L69.5571 56.1407L69.6077 56.143L69.5315 57.8476ZM69.4167 58.7689L69.5334 57.0666L69.5592 57.0684L69.5849 57.0709L69.4167 58.7689ZM72.2881 62.0631L73.9861 62.2313L73.985 62.2425L73.9837 62.2537L72.2881 62.0631ZM66.1844 61.4897L67.8903 61.529L67.8883 61.6152L67.8776 61.7007L66.1844 61.4897ZM70.0558 63.8906C70.8653 63.553 71.4032 62.8257 71.4629 61.9549L74.8674 62.1883C74.7157 64.4003 73.3235 66.2251 71.3695 67.0401L70.0558 63.8906ZM71.466 61.9153C71.5812 60.6636 70.6283 59.6045 69.4553 59.5521L69.6077 56.143C72.7577 56.2838 75.1549 59.068 74.8642 62.2279L71.466 61.9153ZM69.5566 59.5536C68.9032 59.5632 68.6029 59.5846 68.3105 59.7065L66.9968 56.557C67.9798 56.147 68.9196 56.1501 69.5065 56.1415L69.5566 59.5536ZM68.3105 59.7065C67.501 60.0442 66.9631 60.7714 66.9034 61.6422L63.4989 61.4088C63.6506 59.1968 65.0428 57.3721 66.9968 56.557L68.3105 59.7065ZM66.9034 61.6422C66.8614 62.2548 67.0301 62.8005 67.4275 63.2564L64.8551 65.4987C63.8167 64.3075 63.4 62.8515 63.4989 61.4088L66.9034 61.6422ZM67.4275 63.2564C67.8625 63.7555 68.397 64.0093 68.9515 64.0473L68.7181 67.4518C67.2174 67.3489 65.8557 66.6467 64.8551 65.4987L67.4275 63.2564ZM68.9515 64.0473C69.4625 64.0823 69.773 64.0086 70.0558 63.8906L71.3695 67.0401C70.5895 67.3655 69.7485 67.5225 68.7181 67.4518L68.9515 64.0473ZM67.3514 57.4073C68.0486 57.1165 68.7869 57.0154 69.5334 57.0666L69.3 60.4711C69.0189 60.4519 68.8182 60.4929 68.6652 60.5568L67.3514 57.4073ZM69.5849 57.0709C72.0782 57.318 74.2596 59.4706 73.9861 62.2313L70.5902 61.8949C70.652 61.2715 70.1393 60.5551 69.2485 60.4668L69.5849 57.0709ZM73.9837 62.2537C73.7927 63.9535 72.7764 65.5799 71.0592 66.2961L69.7455 63.1466C70.154 62.9762 70.5188 62.5292 70.5926 61.8725L73.9837 62.2537ZM71.0592 66.2961C70.362 66.587 69.6237 66.688 68.8772 66.6368L69.1107 63.2323C69.3917 63.2515 69.5924 63.2105 69.7455 63.1466L71.0592 66.2961ZM68.8772 66.6368C67.6121 66.55 66.3795 65.89 65.5692 64.8745L68.2366 62.7461C68.4721 63.0413 68.8343 63.2133 69.1107 63.2323L68.8772 66.6368ZM65.5692 64.8745C64.8396 63.9602 64.3055 62.7694 64.4913 61.2787L67.8776 61.7007C67.8338 62.0526 67.9204 62.3498 68.2366 62.7461L65.5692 64.8745ZM64.4786 61.4504C64.5228 59.536 65.7707 58.0666 67.3514 57.4073L68.6652 60.5568C68.1202 60.7841 67.8984 61.1756 67.8903 61.529L64.4786 61.4504Z" fill="black" mask="url(#path-59-inside-18_163_2250)"/>
<path d="M58.7456 68.746L58.7683 68.747L58.791 68.7491C60.2658 68.8893 61.5685 67.771 61.5942 66.278L61.5948 66.2449L61.5979 66.212C61.7381 64.7372 60.6198 63.4345 59.1269 63.4088L59.0921 63.4082L59.0574 63.4047C57.8882 63.2889 56.5059 64.3648 56.3602 65.8978C56.2188 67.3855 57.3549 68.6883 58.7456 68.746Z" fill="#76BDE9" stroke="black" stroke-width="1.70626"/>
<path opacity="0.45" d="M57.0128 67.2686C56.9384 67.2408 56.8648 67.2115 56.792 67.1807C57.2229 67.9212 57.9976 68.4552 58.9365 68.5517C59.7684 68.5794 60.5391 68.226 61.0677 67.6323C60.4213 67.7428 59.7523 67.7633 59.2306 67.7014C58.4238 67.6449 57.7033 67.5269 57.0128 67.2686Z" fill="#B2ADA7" stroke="black" stroke-width="1.70626"/>
<g opacity="0.74">
<mask id="path-63-inside-19_163_2250" fill="white">
<path d="M57.6189 63.69C57.495 63.9912 58.2657 64.0441 59.3377 64.2208C60.5159 64.3532 61.269 64.663 61.136 64.3441C61.003 64.0253 60.3294 63.308 59.4525 63.2995C58.7437 63.096 57.8934 63.4507 57.6189 63.69Z"/>
</mask>
<path d="M57.6189 63.69C57.495 63.9912 58.2657 64.0441 59.3377 64.2208C60.5159 64.3532 61.269 64.663 61.136 64.3441C61.003 64.0253 60.3294 63.308 59.4525 63.2995C58.7437 63.096 57.8934 63.4507 57.6189 63.69Z" fill="#F2F3F3"/>
<path d="M57.6189 63.69L56.0409 63.041L56.1941 62.6684L56.4978 62.4038L57.6189 63.69ZM59.3377 64.2208L59.1471 65.9164L59.1034 65.9115L59.0601 65.9044L59.3377 64.2208ZM59.4525 63.2995L59.4359 65.0057L59.2043 65.0034L58.9816 64.9395L59.4525 63.2995ZM59.1969 64.339C59.3106 64.0627 59.3789 63.6479 59.2138 63.2008C59.0636 62.7942 58.796 62.5704 58.6626 62.4771C58.5277 62.3828 58.4211 62.3447 58.4048 62.3388C58.3792 62.3295 58.3788 62.3314 58.4193 62.3409C58.5054 62.3611 58.6408 62.3852 58.8627 62.4199C59.061 62.4508 59.3394 62.4918 59.6152 62.5373L59.0601 65.9044C58.6399 65.8351 58.0232 65.7531 57.6404 65.6633C57.4727 65.624 57.069 65.527 56.7063 65.2732C56.5014 65.1298 56.1855 64.8511 56.0127 64.3832C55.8249 63.875 55.8963 63.3926 56.0409 63.041L59.1969 64.339ZM59.5282 62.5252C60.175 62.5979 60.8183 62.7363 61.0141 62.7695C61.077 62.7802 61.0917 62.781 61.0791 62.7799C61.071 62.7792 61.0402 62.7768 60.9939 62.7774C60.951 62.7779 60.8632 62.7812 60.7497 62.8034C60.5746 62.8376 59.9307 63.0034 59.599 63.7144C59.2981 64.3593 59.5222 64.9075 59.5612 65.001L62.7107 63.6873C62.783 63.8605 63.0127 64.4688 62.6915 65.1572C62.3394 65.9118 61.6493 66.1047 61.4038 66.1526C61.1335 66.2054 60.8979 66.1892 60.7931 66.1804C60.6638 66.1695 60.5395 66.1503 60.443 66.1339C60.0008 66.0589 59.6785 65.9761 59.1471 65.9164L59.5282 62.5252ZM59.5612 65.001C59.5796 65.0452 59.5965 65.078 59.6078 65.0987C59.6194 65.12 59.6288 65.1348 59.6343 65.1432C59.6448 65.1593 59.648 65.1619 59.641 65.1538C59.6261 65.1362 59.5947 65.1043 59.5516 65.0721C59.5092 65.0403 59.4724 65.0211 59.4476 65.0114C59.425 65.0026 59.4225 65.0056 59.4359 65.0057L59.469 61.5933C60.3715 61.6021 61.1031 61.9713 61.5948 62.3388C62.0457 62.6759 62.4905 63.1592 62.7107 63.6873L59.5612 65.001ZM58.9816 64.9395C59.0158 64.9493 59.0199 64.9439 58.9833 64.9455C58.9473 64.9472 58.8938 64.9549 58.8293 64.9728C58.7649 64.9907 58.7103 65.013 58.6754 65.0301C58.6587 65.0384 58.6537 65.0419 58.6596 65.0382C58.6627 65.0362 58.6934 65.0169 58.7401 64.9762L56.4978 62.4038C56.8858 62.0656 57.4234 61.8215 57.9164 61.6847C58.4316 61.5416 59.1627 61.4412 59.9233 61.6595L58.9816 64.9395Z" fill="black" mask="url(#path-63-inside-19_163_2250)"/>
</g>
<mask id="path-65-inside-20_163_2250" fill="white">
<path d="M60.6153 69.6772C61.997 69.1008 62.962 67.8248 63.0677 66.2834C63.2706 64.0776 61.5956 62.1559 59.4341 62.0594C58.814 62.0685 58.1939 62.0776 57.5562 62.3436C56.1745 62.9199 55.2095 64.1959 55.1038 65.7373C55.0333 66.7649 55.326 67.7658 56.0439 68.5894C56.7617 69.4129 57.7098 69.8909 58.7374 69.9614C59.4018 70.0585 59.9776 69.9432 60.6153 69.6772ZM57.9109 63.1938C58.336 63.0165 58.8055 62.9454 59.3193 62.9807C61.0113 63.1483 62.3584 64.5829 62.1907 66.2749C62.0583 67.4531 61.3678 68.4898 60.3049 68.9332C59.8798 69.1105 59.4103 69.1816 58.8965 69.1463C58.1258 69.0935 57.3284 68.6774 56.8055 68.0221C56.2826 67.3668 55.9722 66.6228 56.087 65.7015C56.0069 64.6119 56.7418 63.6815 57.9109 63.1938Z"/>
</mask>
<path d="M60.6153 69.6772C61.997 69.1008 62.962 67.8248 63.0677 66.2834C63.2706 64.0776 61.5956 62.1559 59.4341 62.0594C58.814 62.0685 58.1939 62.0776 57.5562 62.3436C56.1745 62.9199 55.2095 64.1959 55.1038 65.7373C55.0333 66.7649 55.326 67.7658 56.0439 68.5894C56.7617 69.4129 57.7098 69.8909 58.7374 69.9614C59.4018 70.0585 59.9776 69.9432 60.6153 69.6772ZM57.9109 63.1938C58.336 63.0165 58.8055 62.9454 59.3193 62.9807C61.0113 63.1483 62.3584 64.5829 62.1907 66.2749C62.0583 67.4531 61.3678 68.4898 60.3049 68.9332C59.8798 69.1105 59.4103 69.1816 58.8965 69.1463C58.1258 69.0935 57.3284 68.6774 56.8055 68.0221C56.2826 67.3668 55.9722 66.6228 56.087 65.7015C56.0069 64.6119 56.7418 63.6815 57.9109 63.1938Z" fill="#6573A4"/>
<path d="M63.0677 66.2834L61.3655 66.1667L61.3668 66.1469L61.3686 66.1271L63.0677 66.2834ZM59.4341 62.0594L59.4091 60.3533L59.4597 60.3525L59.5103 60.3548L59.4341 62.0594ZM58.7374 69.9614L58.8541 68.2591L58.9195 68.2636L58.9843 68.2731L58.7374 69.9614ZM59.3193 62.9807L59.436 61.2784L59.4618 61.2802L59.4875 61.2827L59.3193 62.9807ZM62.1907 66.2749L63.8887 66.4431L63.8876 66.4543L63.8863 66.4655L62.1907 66.2749ZM56.087 65.7015L57.7887 65.5763L57.8011 65.7448L57.7802 65.9125L56.087 65.7015ZM59.9584 68.1024C60.7678 67.7648 61.3057 67.0375 61.3655 66.1667L64.77 66.4001C64.6183 68.6121 63.2261 70.4369 61.2721 71.2519L59.9584 68.1024ZM61.3686 66.1271C61.4838 64.8754 60.5309 63.8163 59.3579 63.7639L59.5103 60.3548C62.6603 60.4956 65.0574 63.2797 64.7668 66.4397L61.3686 66.1271ZM59.4591 63.7654C58.8058 63.775 58.5054 63.7964 58.2131 63.9183L56.8993 60.7688C57.8824 60.3588 58.8222 60.3619 59.4091 60.3533L59.4591 63.7654ZM58.2131 63.9183C57.4036 64.256 56.8657 64.9832 56.806 65.854L53.4015 65.6206C53.5532 63.4086 54.9454 61.5838 56.8993 60.7688L58.2131 63.9183ZM56.806 65.854C56.764 66.4666 56.9327 67.0123 57.3301 67.4682L54.7577 69.7105C53.7193 68.5193 53.3026 67.0633 53.4015 65.6206L56.806 65.854ZM57.3301 67.4682C57.7651 67.9673 58.2996 68.2211 58.8541 68.2591L58.6207 71.6636C57.12 71.5607 55.7583 70.8585 54.7577 69.7105L57.3301 67.4682ZM58.9843 68.2731C59.2632 68.3139 59.5214 68.2847 59.9584 68.1024L61.2721 71.2519C60.4337 71.6017 59.5404 71.8032 58.4904 71.6497L58.9843 68.2731ZM57.254 61.6191C57.9512 61.3283 58.6895 61.2272 59.436 61.2784L59.2026 64.6829C58.9215 64.6637 58.7208 64.7047 58.5678 64.7686L57.254 61.6191ZM59.4875 61.2827C61.9808 61.5298 64.1622 63.6824 63.8887 66.4431L60.4928 66.1067C60.5545 65.4833 60.0419 64.7669 59.1511 64.6786L59.4875 61.2827ZM63.8863 66.4655C63.6953 68.1653 62.679 69.7916 60.9618 70.5079L59.648 67.3584C60.0566 67.188 60.4213 66.741 60.4951 66.0843L63.8863 66.4655ZM60.9618 70.5079C60.2646 70.7987 59.5263 70.8998 58.7798 70.8486L59.0132 67.4441C59.2943 67.4633 59.495 67.4223 59.648 67.3584L60.9618 70.5079ZM58.7798 70.8486C57.5147 70.7618 56.2821 70.1018 55.4718 69.0863L58.1392 66.9579C58.3747 67.2531 58.7369 67.4251 59.0132 67.4441L58.7798 70.8486ZM55.4718 69.0863C54.7422 68.172 54.2081 66.9812 54.3939 65.4905L57.7802 65.9125C57.7363 66.2644 57.823 66.5616 58.1392 66.9579L55.4718 69.0863ZM54.3854 65.8267C54.2342 63.7721 55.6505 62.288 57.254 61.6191L58.5678 64.7686C58.2141 64.9161 58.0051 65.0984 57.8993 65.2407C57.804 65.3687 57.7811 65.473 57.7887 65.5763L54.3854 65.8267Z" fill="black" mask="url(#path-65-inside-20_163_2250)"/>
<path d="M48.6496 72.9578L48.6724 72.9587L48.695 72.9609C50.1699 73.1011 51.4725 71.9828 51.4983 70.4898L51.4988 70.4567L51.502 70.4238C51.6422 68.9489 50.5239 67.6463 49.0309 67.6206L49.0091 67.6202L48.9872 67.6187C47.687 67.5295 46.4093 68.5835 46.2642 70.1096C46.1228 71.5973 47.259 72.9001 48.6496 72.9578Z" fill="#76BDE9" stroke="black" stroke-width="1.70626"/>
<path opacity="0.45" d="M46.9168 71.4806C46.8424 71.4528 46.7689 71.4235 46.6961 71.3928C47.127 72.1332 47.9017 72.6672 48.8406 72.7638C49.6725 72.7914 50.4432 72.438 50.9717 71.8444C50.3254 71.9548 49.6564 71.9753 49.1347 71.9135C48.3279 71.8569 47.6074 71.739 46.9168 71.4806Z" fill="#B2ADA7" stroke="black" stroke-width="1.70626"/>
<g opacity="0.74">
<mask id="path-69-inside-21_163_2250" fill="white">
<path d="M47.522 67.9022C47.3981 68.2034 48.1688 68.2562 49.2407 68.433C50.419 68.5654 51.1721 68.8752 51.039 68.5563C50.906 68.2375 50.2325 67.5202 49.3555 67.5117C48.6468 67.3082 47.6902 67.7072 47.522 67.9022Z"/>
</mask>
<path d="M47.522 67.9022C47.3981 68.2034 48.1688 68.2562 49.2407 68.433C50.419 68.5654 51.1721 68.8752 51.039 68.5563C50.906 68.2375 50.2325 67.5202 49.3555 67.5117C48.6468 67.3082 47.6902 67.7072 47.522 67.9022Z" fill="#F2F3F3"/>
<path d="M47.522 67.9022L45.944 67.2531L46.0493 66.997L46.2302 66.7874L47.522 67.9022ZM49.2407 68.433L49.0502 70.1286L49.0065 70.1237L48.9631 70.1165L49.2407 68.433ZM49.3555 67.5117L49.339 69.2178L49.1074 69.2156L48.8847 69.1517L49.3555 67.5117ZM49.1 68.5512C49.2136 68.2748 49.282 67.86 49.1169 67.413C48.9667 67.0064 48.699 66.7826 48.5656 66.6893C48.4308 66.5949 48.3242 66.5568 48.3079 66.5509C48.2822 66.5417 48.2819 66.5435 48.3224 66.553C48.4084 66.5732 48.5438 66.5974 48.7658 66.632C48.9641 66.663 49.2425 66.704 49.5183 66.7495L48.9631 70.1165C48.543 70.0472 47.9263 69.9652 47.5434 69.8755C47.3757 69.8362 46.9721 69.7392 46.6094 69.4854C46.4045 69.342 46.0886 69.0633 45.9157 68.5954C45.728 68.0872 45.7994 67.6048 45.944 67.2531L49.1 68.5512ZM49.4313 66.7374C50.0781 66.8101 50.7214 66.9485 50.9171 66.9817C50.9801 66.9924 50.9948 66.9931 50.9822 66.9921C50.9741 66.9914 50.9433 66.989 50.897 66.9895C50.854 66.9901 50.7663 66.9934 50.6528 67.0155C50.4777 67.0497 49.8338 67.2156 49.502 67.9266C49.2012 68.5714 49.4253 69.1196 49.4643 69.2132L52.6138 67.8994C52.6861 68.0727 52.9157 68.681 52.5945 69.3694C52.2425 70.1239 51.5523 70.3169 51.3069 70.3648C51.0366 70.4176 50.801 70.4014 50.6961 70.3926C50.5669 70.3817 50.4426 70.3624 50.3461 70.3461C49.9039 70.271 49.5816 70.1883 49.0502 70.1286L49.4313 66.7374ZM49.4643 69.2132C49.4827 69.2573 49.4995 69.2901 49.5108 69.3108C49.5225 69.3322 49.5318 69.347 49.5373 69.3554C49.5478 69.3714 49.551 69.3741 49.5441 69.3659C49.5292 69.3484 49.4978 69.3164 49.4547 69.2842C49.4122 69.2525 49.3755 69.2333 49.3507 69.2236C49.328 69.2148 49.3255 69.2177 49.339 69.2178L49.3721 65.8055C50.2745 65.8142 51.0062 66.1834 51.4979 66.551C51.9488 66.888 52.3935 67.3714 52.6138 67.8994L49.4643 69.2132ZM48.8847 69.1517C48.9154 69.1605 48.9327 69.1619 48.9327 69.1619C48.9328 69.1619 48.9218 69.161 48.8987 69.1625C48.8495 69.1655 48.7799 69.1769 48.7006 69.1993C48.663 69.21 48.6282 69.2217 48.5983 69.2331C48.568 69.2447 48.5473 69.2542 48.5373 69.2592C48.5248 69.2653 48.5374 69.2602 48.5682 69.2396C48.5842 69.2289 48.6131 69.2087 48.65 69.1782C48.6689 69.1626 48.6924 69.1421 48.719 69.1168C48.7452 69.0917 48.7779 69.0584 48.8138 69.0169L46.2302 66.7874C46.5088 66.4645 46.8652 66.2792 47.0223 66.2014C47.2464 66.0904 47.5025 65.9918 47.7715 65.9157C48.2656 65.7759 49.0382 65.6454 49.8263 65.8716L48.8847 69.1517Z" fill="black" mask="url(#path-69-inside-21_163_2250)"/>
</g>
<mask id="path-71-inside-22_163_2250" fill="white">
<path d="M50.4121 73.9331C51.7938 73.3568 52.7589 72.0808 52.8646 70.5394C53.0675 68.3336 51.3925 66.4119 49.231 66.3153C48.6109 66.3244 47.9908 66.3335 47.3531 66.5995C45.9714 67.1759 45.0063 68.4519 44.9006 69.9933C44.8302 71.0209 45.1229 72.0218 45.8408 72.8453C46.5586 73.6689 47.5067 74.1469 48.5343 74.2173C49.305 74.2702 49.8807 74.1548 50.4121 73.9331ZM47.7078 67.4498C48.1329 67.2725 48.6024 67.2014 49.1162 67.2367C50.8082 67.4043 52.1553 68.8388 51.9876 70.5309C51.8552 71.7091 51.1646 72.7458 50.1018 73.1892C49.6767 73.3665 49.2072 73.4375 48.6934 73.4023C47.9227 73.3495 47.1253 72.9334 46.6024 72.2781C46.0795 71.6228 45.7691 70.8788 45.8839 69.9575C45.91 68.8236 46.6449 67.8931 47.7078 67.4498Z"/>
</mask>
<path d="M50.4121 73.9331C51.7938 73.3568 52.7589 72.0808 52.8646 70.5394C53.0675 68.3336 51.3925 66.4119 49.231 66.3153C48.6109 66.3244 47.9908 66.3335 47.3531 66.5995C45.9714 67.1759 45.0063 68.4519 44.9006 69.9933C44.8302 71.0209 45.1229 72.0218 45.8408 72.8453C46.5586 73.6689 47.5067 74.1469 48.5343 74.2173C49.305 74.2702 49.8807 74.1548 50.4121 73.9331ZM47.7078 67.4498C48.1329 67.2725 48.6024 67.2014 49.1162 67.2367C50.8082 67.4043 52.1553 68.8388 51.9876 70.5309C51.8552 71.7091 51.1646 72.7458 50.1018 73.1892C49.6767 73.3665 49.2072 73.4375 48.6934 73.4023C47.9227 73.3495 47.1253 72.9334 46.6024 72.2781C46.0795 71.6228 45.7691 70.8788 45.8839 69.9575C45.91 68.8236 46.6449 67.8931 47.7078 67.4498Z" fill="#6573A4"/>
<path d="M52.8646 70.5394L51.1623 70.4227L51.1637 70.4029L51.1655 70.3831L52.8646 70.5394ZM49.231 66.3153L49.2059 64.6093L49.2566 64.6085L49.3072 64.6108L49.231 66.3153ZM49.1162 67.2367L49.2329 65.5344L49.2587 65.5362L49.2844 65.5387L49.1162 67.2367ZM51.9876 70.5309L53.6856 70.6991L53.6845 70.7103L53.6832 70.7214L51.9876 70.5309ZM45.8839 69.9575L47.5897 69.9968L47.5877 70.0829L47.5771 70.1684L45.8839 69.9575ZM49.7553 72.3584C50.5647 72.0207 51.1026 71.2935 51.1623 70.4227L54.5669 70.6561C54.4152 72.8681 53.0229 74.6929 51.069 75.5079L49.7553 72.3584ZM51.1655 70.3831C51.2806 69.1314 50.3278 68.0723 49.1548 68.0199L49.3072 64.6108C52.4572 64.7515 54.8543 67.5357 54.5637 70.6957L51.1655 70.3831ZM49.256 68.0214C48.6027 68.031 48.3023 68.0523 48.01 68.1743L46.6962 65.0248C47.6793 64.6147 48.6191 64.6179 49.2059 64.6093L49.256 68.0214ZM48.01 68.1743C47.2005 68.5119 46.6626 69.2392 46.6029 70.11L43.1984 69.8766C43.3501 67.6646 44.7423 65.8398 46.6962 65.0248L48.01 68.1743ZM46.6029 70.11C46.5609 70.7225 46.7296 71.2683 47.127 71.7242L44.5545 73.9665C43.5162 72.7753 43.0994 71.3193 43.1984 69.8766L46.6029 70.11ZM47.127 71.7242C47.562 72.2233 48.0964 72.4771 48.651 72.5151L48.4175 75.9196C46.9169 75.8167 45.5552 75.1145 44.5545 73.9665L47.127 71.7242ZM48.651 72.5151C49.1619 72.5501 49.4724 72.4764 49.7553 72.3584L51.069 75.5079C50.289 75.8333 49.448 75.9903 48.4175 75.9196L48.651 72.5151ZM47.0509 65.8751C47.7481 65.5842 48.4864 65.4832 49.2329 65.5344L48.9995 68.9389C48.7184 68.9196 48.5177 68.9607 48.3646 69.0246L47.0509 65.8751ZM49.2844 65.5387C51.7777 65.7857 53.9591 67.9384 53.6856 70.6991L50.2897 70.3626C50.3514 69.7393 49.8388 69.0229 48.948 68.9346L49.2844 65.5387ZM53.6832 70.7214C53.4922 72.4213 52.4759 74.0476 50.7587 74.7639L49.4449 71.6144C49.8534 71.444 50.2182 70.9969 50.292 70.3403L53.6832 70.7214ZM50.7587 74.7639C50.0615 75.0547 49.3232 75.1558 48.5767 75.1046L48.8101 71.7C49.0912 71.7193 49.2919 71.6783 49.4449 71.6144L50.7587 74.7639ZM48.5767 75.1046C47.3116 75.0178 46.0789 74.3578 45.2687 73.3423L47.9361 71.2139C48.1716 71.5091 48.5338 71.6811 48.8101 71.7L48.5767 75.1046ZM45.2687 73.3423C44.539 72.428 44.005 71.2372 44.1908 69.7465L47.5771 70.1684C47.5332 70.5204 47.6199 70.8176 47.9361 71.2139L45.2687 73.3423ZM44.1781 69.9182C44.2222 68.0038 45.4702 66.5344 47.0509 65.8751L48.3646 69.0246C47.8196 69.2519 47.5979 69.6433 47.5897 69.9968L44.1781 69.9182Z" fill="black" mask="url(#path-71-inside-22_163_2250)"/>
<path d="M62.0922 97.7176L62.0934 97.72C63.5111 100.425 65.4787 101.733 67.6404 102.098C69.8438 102.47 72.3659 101.879 74.8605 100.539C76.6259 99.5865 78.2575 98.2986 79.82 97.0654C79.9893 96.9317 80.1577 96.7988 80.3255 96.6669L80.3342 96.6601L80.3431 96.6535C82.6654 94.9238 84.4273 92.3585 85.7742 89.5278C87.1187 86.7023 88.0246 83.6662 88.6635 81.0535L88.6643 81.0501C89.119 79.2238 89.5985 77.3808 90.0798 75.5309C90.9658 72.126 91.8578 68.6977 92.6119 65.3069C93.7732 60.0849 94.5848 55.0431 94.518 50.4922L94.5178 50.478L94.518 50.4639C94.5373 49.4221 94.1739 48.6866 93.5059 48.1408C92.7988 47.563 91.6831 47.1461 90.1298 46.9474C87.0246 46.5502 82.5409 47.069 77.2433 48.3482C73.74 49.2065 69.1306 51.3648 64.2046 54.1658L64.2046 54.1658L64.1998 54.1685C60.7362 56.1087 57.2667 58.4771 55.0594 61.0255C52.8534 63.5724 52.0716 66.0768 53.4026 68.5129L53.4642 68.6257L53.4899 68.7516C53.858 70.5575 54.1871 72.2198 54.4938 73.7687C56.4789 83.7944 57.5221 89.0631 62.0922 97.7176Z" fill="#BFD3ED" stroke="black" stroke-width="1.70626"/>
</svg>
