<svg width="35" height="35" viewBox="0 0 35 35" fill="none" xmlns="http://www.w3.org/2000/svg">
<path d="M34.384 0.615723L6.44727 28.5525L18.1282 25.7285L34.384 0.615723Z" fill="#FFAB00"/>
<path d="M34.384 0.615723L6.44727 28.5525L9.2713 16.8715L34.384 0.615723Z" fill="#FFC400"/>
<path d="M34.3839 0.615723L0.615967 8.50826L9.27112 16.8715L34.3839 0.615723Z" fill="#FFD740"/>
<path d="M34.384 0.615723L26.4915 34.3836L18.1282 25.7285L34.384 0.615723Z" fill="#FFD740"/>
<path d="M34.2433 0.0174373L34.2429 0.0175194C34.2346 0.0195725 34.705 -0.0904746 0.475781 7.90981C0.0016739 8.02043 -0.162329 8.61395 0.187934 8.95247L1.37834 10.1026C1.6229 10.3391 2.01283 10.3322 2.24927 10.0877C2.48563 9.84303 2.47897 9.4531 2.23432 9.21675L1.85671 8.85203L31.0801 2.02178L9.34708 16.0895L4.12369 11.0425C3.87896 10.8059 3.48903 10.8128 3.25276 11.0574C3.0164 11.3021 3.02305 11.692 3.2677 11.9284L8.58948 17.0705L7.35038 22.1959C7.27039 22.5265 7.47365 22.8594 7.80429 22.9393C8.13476 23.0192 8.46777 22.816 8.54776 22.4854L9.81199 17.256L13.2159 15.0527L29.8331 4.29631L7.56037 26.5686L7.93026 25.0389C8.01025 24.7083 7.80691 24.3755 7.47636 24.2955C7.14507 24.2154 6.81287 24.4189 6.73288 24.7495L5.84831 28.4084C5.74073 28.8533 6.14413 29.2589 6.59179 29.1518L17.9299 26.4107L26.048 34.8121C26.3859 35.1617 26.9798 34.9995 27.0907 34.5242L32.3805 11.8925C32.458 11.5613 32.2522 11.23 31.9209 11.1525C31.5897 11.075 31.2584 11.2807 31.181 11.6121L26.1484 33.1432L18.9108 25.6531L32.9788 3.92051L31.7788 9.0548C31.7013 9.38601 31.9071 9.7173 32.2383 9.79466C32.5694 9.8726 32.9009 9.66638 32.9783 9.33509L34.9823 0.761079C35.0901 0.318179 34.6847 -0.0902286 34.2433 0.0174373ZM17.7444 25.1882L8.43164 27.4396L30.7043 5.16741L19.9478 21.7843L17.7444 25.1882Z" fill="black"/>
</svg>
