<svg width="25" height="25" viewBox="0 0 25 25" fill="none" xmlns="http://www.w3.org/2000/svg">
<path d="M23.06 13.5064L12.9897 23.5777C12.8334 23.734 12.6208 23.8223 12.3996 23.8223H1.61419C0.871029 23.8223 0.49847 22.9237 1.02435 22.3988C4.10418 19.316 11.1188 12.2984 11.1188 12.2984C11.1188 12.2984 4.10321 5.28279 1.02435 2.20003C0.498226 1.67513 0.871029 0.776443 1.61419 0.776443H12.3996C12.621 0.776443 12.8334 0.864822 12.9897 1.02107L17.56 5.59138L23.06 11.0904C23.7265 11.7579 23.7265 12.8389 23.06 13.5064Z" fill="#FFC843"/>
<path d="M16.7526 13.5064L6.68231 23.5777C6.52606 23.734 6.31366 23.8223 6.09246 23.8223H1.61419C0.871029 23.8223 0.49847 22.9237 1.02435 22.3988C4.10418 19.316 11.1188 12.2984 11.1188 12.2984C11.1188 12.2984 4.10321 5.28279 1.02435 2.20003C0.498226 1.67513 0.871029 0.776443 1.61419 0.776443H6.09246C6.31366 0.776443 6.5263 0.864822 6.68255 1.02107L16.7529 11.0902C17.4194 11.7579 17.4194 12.8389 16.7526 13.5064Z" fill="#FFA816"/>
<path d="M16.7527 13.5064L6.68237 23.5777C6.52612 23.734 6.31372 23.8223 6.09253 23.8223H3.46875C3.68994 23.8223 3.90234 23.734 4.05859 23.5777L14.4202 13.2154C15.0867 12.5477 15.0867 12.0489 14.4202 11.3814L4.05859 1.02107C3.90234 0.864822 3.68994 0.776443 3.46875 0.776443H6.09253C6.31372 0.776443 6.52612 0.864822 6.68237 1.02107L16.7527 11.0904C17.4194 11.7579 17.4194 12.8389 16.7527 13.5064Z" fill="#FFA816"/>
<path d="M23.3915 10.7589L17.8917 5.25984L13.3214 0.689529C13.0787 0.446854 12.7428 0.307693 12.3998 0.307693H1.61437C1.07701 0.307693 0.615589 0.616287 0.410022 1.11287C0.204944 1.60896 0.313343 2.15266 0.692737 2.53133C3.3546 5.19661 9.02745 10.8697 10.4562 12.2984C9.03087 13.7244 3.37267 19.3851 0.693225 22.067C0.313343 22.4464 0.204944 22.9901 0.410022 23.4859C0.615589 23.9825 1.07701 24.2911 1.61437 24.2911H12.3998C12.7428 24.2911 13.0787 24.1519 13.3214 23.9093L23.3917 13.838C23.3917 13.838 23.3917 13.838 23.3917 13.8377C24.2394 12.9888 24.2394 11.608 23.3915 10.7589V10.7589ZM22.7284 13.1754L22.7286 13.1751L12.6583 23.2464C12.5902 23.3145 12.496 23.3536 12.3998 23.3536H1.61437C1.38756 23.3536 1.29821 23.1805 1.27648 23.1275C1.2545 23.0748 1.19567 22.8902 1.35607 22.7301C4.4359 19.6473 11.4506 12.6297 11.4506 12.6297C11.6337 12.4466 11.6337 12.15 11.4506 11.9669C11.3802 11.8968 4.39977 4.91609 1.35558 1.86824C1.19567 1.70857 1.2545 1.524 1.27648 1.47102C1.29821 1.41805 1.38756 1.24519 1.61437 1.24519H12.3998C12.496 1.24519 12.5902 1.28426 12.6583 1.35237L17.2289 5.92293L22.7284 11.4215C23.2113 11.9051 23.2113 12.6917 22.7284 13.1754Z" fill="#0A0A0A"/>
</svg>
