<svg width="25" height="25" viewBox="0 0 25 25" fill="none" xmlns="http://www.w3.org/2000/svg">
<path d="M1.55524 13.5064L11.6256 23.5777C11.7818 23.734 11.9944 23.8223 12.2156 23.8223H23.001C23.7442 23.8223 24.1168 22.9237 23.5909 22.3988C20.5111 19.316 13.4964 12.2984 13.4964 12.2984C13.4964 12.2984 20.512 5.28279 23.5909 2.20003C24.117 1.67513 23.7442 0.776443 23.001 0.776443H12.2156C11.9942 0.776443 11.7818 0.864822 11.6256 1.02107L7.05524 5.59138L1.55524 11.0904C0.888737 11.7579 0.888737 12.8389 1.55524 13.5064Z" fill="#FFC843"/>
<path d="M7.86261 13.5064L17.9329 23.5777C18.0892 23.734 18.3016 23.8223 18.5228 23.8223H23.001C23.7442 23.8223 24.1168 22.9237 23.5909 22.3988C20.5111 19.316 13.4964 12.2984 13.4964 12.2984C13.4964 12.2984 20.512 5.28279 23.5909 2.20003C24.117 1.67513 23.7442 0.776443 23.001 0.776443H18.5228C18.3016 0.776443 18.0889 0.864822 17.9327 1.02107L7.86237 11.0902C7.19587 11.7579 7.19587 12.8389 7.86261 13.5064Z" fill="#FFA816"/>
<path d="M7.86279 13.5064L17.9331 23.5777C18.0894 23.734 18.3018 23.8223 18.5229 23.8223H21.1467C20.9255 23.8223 20.7131 23.734 20.5569 23.5777L10.1953 13.2154C9.52881 12.5477 9.52881 12.0489 10.1953 11.3814L20.5569 1.02107C20.7131 0.864822 20.9255 0.776443 21.1467 0.776443H18.5229C18.3018 0.776443 18.0894 0.864822 17.9331 1.02107L7.86279 11.0904C7.19604 11.7579 7.19604 12.8389 7.86279 13.5064Z" fill="#FFA816"/>
<path d="M1.22401 10.7589L6.72377 5.25984L11.2941 0.689529C11.5368 0.446854 11.8727 0.307693 12.2157 0.307693H23.0011C23.5385 0.307693 23.9999 0.616287 24.2055 1.11287C24.4105 1.60896 24.3021 2.15266 23.9227 2.53133C21.2609 5.19661 15.588 10.8697 14.1593 12.2984C15.5846 13.7244 21.2428 19.3851 23.9223 22.067C24.3021 22.4464 24.4105 22.9901 24.2055 23.4859C23.9999 23.9825 23.5385 24.2911 23.0011 24.2911H12.2157C11.8727 24.2911 11.5368 24.1519 11.2941 23.9093L1.22377 13.838C1.22377 13.838 1.22377 13.838 1.22377 13.8377C0.37611 12.9888 0.37611 11.608 1.22401 10.7589V10.7589ZM1.8871 13.1754L1.88685 13.1751L11.9572 23.2464C12.0253 23.3145 12.1195 23.3536 12.2157 23.3536H23.0011C23.2279 23.3536 23.3173 23.1805 23.339 23.1275C23.361 23.0748 23.4198 22.8902 23.2594 22.7301C20.1796 19.6473 13.1649 12.6297 13.1649 12.6297C12.9818 12.4466 12.9818 12.15 13.1649 11.9669C13.2352 11.8968 20.2157 4.91609 23.2599 1.86824C23.4198 1.70857 23.361 1.524 23.339 1.47102C23.3173 1.41805 23.2279 1.24519 23.0011 1.24519H12.2157C12.1195 1.24519 12.0253 1.28426 11.9572 1.35237L7.38661 5.92293L1.8871 11.4215C1.40419 11.9051 1.40419 12.6917 1.8871 13.1754Z" fill="#0A0A0A"/>
</svg>
