<svg width="35" height="42" viewBox="0 0 35 42" fill="none" xmlns="http://www.w3.org/2000/svg">
<path d="M8.41891 37.4272C8.41899 37.427 8.41899 37.4268 8.41907 37.4268C7.71246 39.2272 6.68022 40.7264 5.2666 40.7264C5.2666 40.7264 8.43122 40.8378 13.038 39.8752C11.2673 39.3804 9.67205 38.5673 8.41891 37.4272Z" fill="#77533E"/>
<path d="M26.488 37.4272C26.4879 37.427 26.4879 37.4268 26.4879 37.4268C27.1945 39.2272 28.2267 40.7264 29.6403 40.7264C29.6403 40.7264 26.4757 40.8378 21.8689 39.8752C23.6397 39.3804 25.235 38.5673 26.488 37.4272Z" fill="#77533E"/>
<path d="M5.26685 29.0508C8.93377 29.0508 9.87255 31.4563 9.34452 34.1552C8.80323 36.9219 7.51896 40.7265 5.26685 40.7265C3.01473 40.7265 1.73046 36.922 1.18917 34.1552C0.66114 31.4563 1.59992 29.0508 5.26685 29.0508Z" fill="#C6946A"/>
<path d="M5.26677 31.1123C7.36016 31.1123 7.89605 32.5769 7.59463 34.2201C7.2856 35.9045 6.55247 38.2209 5.26677 38.2209C3.98107 38.2209 3.24802 35.9045 2.9389 34.2201C2.63757 32.577 3.17338 31.1123 5.26677 31.1123Z" fill="#8C6348"/>
<path d="M29.6406 29.0508C25.9737 29.0508 25.0349 31.4563 25.563 34.1552C26.1042 36.9219 27.3885 40.7265 29.6406 40.7265C31.8927 40.7265 33.177 36.922 33.7183 34.1552C34.2463 31.4563 33.3076 29.0508 29.6406 29.0508Z" fill="#C6946A"/>
<path d="M8.47792 18.0815C8.47792 18.0815 -2.08422 24.8741 2.26724 29.9196C2.26755 29.92 2.26787 29.9203 2.26819 29.9207C2.94145 29.376 3.9193 29.0503 5.26661 29.0503C5.42852 29.0503 5.5832 29.0567 5.73454 29.0658C6.15696 25.5779 7.78211 22.0462 10.4003 19.708C10.4162 19.7174 10.433 19.7259 10.449 19.7354C9.68779 19.2901 9.02223 18.7428 8.47792 18.0815Z" fill="#8C6348"/>
<path d="M26.4291 18.0815C26.4291 18.0815 36.9913 24.8741 32.6398 29.9196C32.6395 29.92 32.6392 29.9203 32.6388 29.9207C31.9656 29.376 30.9877 29.0503 29.6404 29.0503C29.4785 29.0503 29.3238 29.0567 29.1725 29.0658C28.7501 25.5779 27.1249 22.0462 24.5068 19.708C24.4909 19.7174 24.474 19.7259 24.458 19.7354C25.2192 19.2901 25.8847 18.7428 26.4291 18.0815Z" fill="#8C6348"/>
<path d="M26.1044 1.26953C24.6424 1.26953 23.4267 2.31765 23.1641 3.70324C24.545 4.59216 25.6923 5.8002 26.5292 7.22795C27.9818 7.02166 29.0991 5.77376 29.0991 4.26415C29.099 2.61026 27.7583 1.26953 26.1044 1.26953Z" fill="#8C6348"/>
<path d="M11.7431 3.70324C11.4805 2.31765 10.2647 1.26953 8.80272 1.26953C7.14883 1.26953 5.80811 2.61034 5.80811 4.26415C5.80811 5.77376 6.92539 7.02166 8.37799 7.22795C9.21482 5.80012 10.3622 4.59208 11.7431 3.70324Z" fill="#8C6348"/>
<path d="M10.4492 3.94092C10.3011 3.15952 9.61548 2.56836 8.79096 2.56836C7.85821 2.56836 7.10205 3.32444 7.10205 4.25727C7.10205 5.10871 7.7322 5.81246 8.5514 5.92879C9.02329 5.12356 9.67035 4.44228 10.4492 3.94092Z" fill="#5E4132"/>
<path d="M24.458 3.94141C24.6062 3.16001 25.2917 2.56885 26.1163 2.56885C27.049 2.56885 27.8052 3.32493 27.8052 4.25776C27.8052 5.1092 27.175 5.81295 26.3558 5.92928C25.8839 5.12405 25.2368 4.44277 24.458 3.94141Z" fill="#5E4132"/>
<path d="M17.4537 40.4565C20.9239 40.4565 24.2512 39.4627 26.4882 37.4274C26.0691 36.3594 25.7644 35.1855 25.5629 34.1554C25.0582 31.5756 25.8955 29.2655 29.1726 29.0664C28.7502 25.5785 27.125 22.0467 24.5069 19.7085C22.6318 20.8217 20.1615 21.3027 17.4537 21.3027C14.746 21.3027 12.2756 20.8217 10.4006 19.7085C7.78237 22.0467 6.15729 25.5786 5.73486 29.0664C9.01202 29.2655 9.84933 31.5755 9.34456 34.1554C9.14303 35.1855 8.83836 36.3595 8.41927 37.4274C10.6561 39.4627 13.9834 40.4565 17.4537 40.4565Z" fill="#B27C57"/>
<path d="M17.4536 37.8963C14.3022 37.8963 11.2691 37.0766 9.06283 35.4019C8.88933 36.0785 8.6759 36.7728 8.41895 37.4273C10.656 39.4626 13.9832 40.4565 17.4535 40.4565C20.9238 40.4565 24.251 39.4626 26.4881 37.4273C26.2312 36.7727 26.0178 36.0785 25.8442 35.4019C23.6382 37.0766 20.6049 37.8963 17.4536 37.8963Z" fill="#8C6348"/>
<path d="M17.4534 2.0542C23.5594 2.0542 28.0663 6.95651 28.0663 13.0038C28.0663 19.0511 23.3148 21.3023 17.4534 21.3023C11.5921 21.3023 6.84058 19.0511 6.84058 13.0038C6.84058 6.95651 11.3474 2.0542 17.4534 2.0542Z" fill="#C6946A"/>
<path d="M17.4536 19.1544C11.9431 19.1544 7.41396 17.1642 6.89156 11.9009C6.85805 12.2637 6.84082 12.6316 6.84082 13.004C6.84082 19.0513 11.5923 21.3024 17.4537 21.3024C23.315 21.3024 28.0666 19.0512 28.0666 13.004C28.0666 12.6316 28.0493 12.2637 28.0158 11.9009C27.4933 17.1642 22.9641 19.1544 17.4536 19.1544Z" fill="#B27C57"/>
<path d="M26.4292 18.082C25.8849 18.7433 25.2193 19.2906 24.458 19.7359C24.474 19.7266 24.4908 19.7181 24.5068 19.7085C25.1542 20.2867 25.7407 20.9381 26.2635 21.6436C27.1996 21.1235 27.9955 20.4812 28.6156 19.7039C27.3916 18.7011 26.4292 18.082 26.4292 18.082Z" fill="#77533E"/>
<path d="M8.47796 18.082C8.47796 18.082 7.51559 18.7011 6.2915 19.7039C6.91164 20.4812 7.70743 21.1235 8.64367 21.6436C9.16654 20.9382 9.75293 20.2867 10.4004 19.7085C10.4163 19.718 10.4331 19.7265 10.4491 19.7359C9.68782 19.2906 9.02227 18.7433 8.47796 18.082Z" fill="#77533E"/>
<path d="M24.5068 19.7085C22.6317 20.8217 20.1614 21.3027 17.4536 21.3027C14.7459 21.3027 12.2755 20.8217 10.4005 19.7085C9.75307 20.2867 9.16659 20.9381 8.6438 21.6436C10.9213 22.9088 14.0282 23.4507 17.4537 23.4507C20.8793 23.4507 23.9862 22.9087 26.2636 21.6436C25.7406 20.9381 25.1542 20.2867 24.5068 19.7085Z" fill="#8C6348"/>
<path d="M19.5386 11.9721C19.5386 10.896 15.3684 10.896 15.3684 11.9721C15.3684 13.0482 16.302 13.9205 17.4535 13.9205C18.6051 13.9206 19.5386 13.0482 19.5386 11.9721Z" fill="#494949"/>
<path d="M29.6406 31.1123C27.5472 31.1123 27.0113 32.5769 27.3127 34.2201C27.6217 35.9045 28.3549 38.2209 29.6406 38.2209C30.9263 38.2209 31.6593 35.9045 31.9683 34.2201C32.2697 32.577 31.7338 31.1123 29.6406 31.1123Z" fill="#8C6348"/>
<path d="M11.7959 11.8434C12.3121 11.8434 12.7321 11.4236 12.7321 10.9074C12.7321 10.3912 12.3122 9.97119 11.7959 9.97119C11.2798 9.97119 10.8599 10.3911 10.8599 10.9074C10.86 11.4236 11.2799 11.8434 11.7959 11.8434Z" fill="black"/>
<path d="M23.1111 11.8434C23.6273 11.8434 24.0473 11.4236 24.0473 10.9074C24.0473 10.3912 23.6274 9.97119 23.1111 9.97119C22.595 9.97119 22.175 10.3911 22.175 10.9074C22.175 11.4236 22.5949 11.8434 23.1111 11.8434Z" fill="black"/>
<path d="M16.857 14.4533V16.6764C16.857 17.0059 17.1241 17.273 17.4537 17.273C17.7833 17.273 18.0504 17.0059 18.0504 16.6764V14.4533C19.2427 14.1951 20.1355 13.1812 20.1355 11.9725C20.1355 10.9376 18.7502 10.5688 17.4537 10.5688C16.1573 10.5688 14.772 10.9376 14.772 11.9725C14.772 13.1812 15.6647 14.195 16.857 14.4533ZM17.4537 11.7621C18.2653 11.7621 18.7873 11.933 18.9401 12.0453C18.8984 12.7569 18.2476 13.3242 17.4537 13.3242C16.6599 13.3242 16.0092 12.7569 15.9674 12.0453C16.1202 11.933 16.6422 11.7621 17.4537 11.7621Z" fill="black"/>
<path d="M26.0974 33.7484C26.0933 33.7217 26.0893 33.695 26.0854 33.6679C26.0848 33.6637 26.0843 33.6596 26.0836 33.6555C26.0061 33.1026 25.9859 32.4703 26.1243 31.8739C26.1244 31.8737 26.1244 31.8734 26.1245 31.8732C26.1319 31.841 26.1399 31.809 26.1484 31.7772C26.1503 31.77 26.1523 31.7628 26.1542 31.7555C26.161 31.7305 26.1681 31.7057 26.1755 31.6809C26.1788 31.67 26.182 31.659 26.1854 31.6483C26.192 31.627 26.1988 31.6057 26.2058 31.5845C26.2099 31.5723 26.2139 31.56 26.2181 31.548C26.2258 31.5257 26.2339 31.5037 26.2421 31.4816C26.2456 31.4722 26.249 31.4626 26.2525 31.4532C26.2644 31.4223 26.2769 31.3914 26.2899 31.3609C26.2922 31.3556 26.2945 31.3505 26.2968 31.3452C26.3085 31.3181 26.3207 31.2912 26.3332 31.2643C26.3354 31.2597 26.3376 31.2552 26.3397 31.2506C26.4171 31.0886 26.5108 30.9331 26.6238 30.7871C27.1454 30.1131 28.015 29.7345 29.2088 29.662C29.2942 29.6569 29.3724 29.6532 29.447 29.6509C29.511 29.6492 29.5749 29.6476 29.6407 29.6476C29.7125 29.6476 29.783 29.6487 29.8527 29.6506C30.8867 29.68 31.6971 29.9267 32.2639 30.3852C32.2815 30.3995 32.301 30.411 32.3199 30.4231C32.94 30.9523 33.2544 31.7507 33.2576 32.8156C33.2586 33.1446 33.5255 33.4105 33.8543 33.4105C33.8548 33.4105 33.8554 33.4105 33.856 33.4105C34.1855 33.4096 34.4518 33.1416 34.4509 32.8121C34.4474 31.6162 34.0987 30.6008 33.4406 29.8616C34.1447 28.8555 34.4125 27.7304 34.2356 26.5093C33.6861 22.7145 28.9145 19.0812 27.2854 17.9412C28.2007 16.6022 28.6632 14.9513 28.6632 13.0041C28.6632 11.0818 28.2302 9.24083 27.4149 7.6067C28.7583 7.07676 29.6958 5.75858 29.6958 4.26428C29.6957 2.28387 28.0847 0.672852 26.1045 0.672852C24.6622 0.672852 23.3882 1.53375 22.8233 2.80659C21.211 1.92537 19.3788 1.45768 17.4536 1.45768C15.5283 1.45768 13.6963 1.92529 12.084 2.80651C11.519 1.53375 10.2451 0.672852 8.80269 0.672852C6.82244 0.672852 5.21134 2.28387 5.21134 4.26412C5.21134 5.75842 6.14886 7.0766 7.49229 7.60654C6.67681 9.24067 6.24398 11.0817 6.24398 13.0039C6.24398 14.9516 6.70667 16.6028 7.62235 17.9419C7.06605 18.3325 6.13703 19.0191 5.12924 19.9085C4.88221 20.1265 4.85863 20.5035 5.07675 20.7506C5.29479 20.9977 5.6718 21.0213 5.91891 20.8031C6.92106 19.9187 7.8581 19.2332 8.37788 18.8704C8.69756 19.2033 9.05258 19.5114 9.44348 19.7938C9.4114 19.8261 9.38004 19.8591 9.34835 19.8917C9.32088 19.9198 9.29341 19.9478 9.26617 19.9762C9.21503 20.0297 9.16453 20.084 9.11403 20.1385C9.09291 20.1613 9.07163 20.1837 9.05067 20.2066C8.97992 20.2841 8.91004 20.3626 8.84088 20.442C8.82754 20.4573 8.81452 20.4731 8.80126 20.4885C8.74568 20.5529 8.69034 20.6177 8.63579 20.6834C8.61101 20.7132 8.58679 20.7434 8.56218 20.7734C8.51962 20.8255 8.47714 20.8778 8.43521 20.9305C8.40821 20.9645 8.38161 20.9989 8.35493 21.0331C8.31603 21.083 8.27728 21.1331 8.239 21.1837C8.21185 21.2196 8.18493 21.2557 8.15801 21.2918C8.12077 21.3419 8.08377 21.3923 8.04709 21.443C8.02056 21.4797 7.99412 21.5165 7.96784 21.5534C7.93108 21.6053 7.89471 21.6576 7.8585 21.71C7.83349 21.7462 7.80848 21.7823 7.78378 21.8187C7.74543 21.8753 7.70771 21.9326 7.67008 21.9899C7.64856 22.0226 7.6268 22.0551 7.60552 22.088C7.55502 22.1663 7.50531 22.2452 7.456 22.3246C7.44806 22.3374 7.43981 22.3502 7.43179 22.363C7.37604 22.4535 7.32126 22.5449 7.26726 22.637C7.24789 22.6701 7.22891 22.7037 7.20977 22.7368C7.17468 22.7977 7.13974 22.8584 7.10544 22.9197C7.08368 22.9585 7.06248 22.9977 7.04104 23.0368C7.00991 23.0935 6.97887 23.1505 6.94845 23.2078C6.92662 23.2488 6.90518 23.2899 6.88374 23.3311C6.85444 23.3873 6.82546 23.4439 6.79679 23.5006C6.77559 23.5424 6.75463 23.5843 6.73383 23.6264C6.70532 23.684 6.67737 23.7419 6.6495 23.8C6.62973 23.8413 6.60988 23.8826 6.59042 23.9241C6.5616 23.9854 6.53357 24.0472 6.50546 24.1089C6.48799 24.1475 6.47021 24.186 6.45306 24.2247C6.42018 24.2987 6.3881 24.3733 6.35634 24.4479C6.34491 24.4748 6.333 24.5014 6.32164 24.5284C6.27916 24.6295 6.23771 24.7313 6.19722 24.8335C6.18546 24.8633 6.17419 24.8933 6.16252 24.9232C6.13385 24.9968 6.10542 25.0704 6.07779 25.1444C6.06286 25.1844 6.04849 25.2246 6.03388 25.2648C6.0103 25.3296 5.98688 25.3943 5.96401 25.4595C5.949 25.5025 5.93423 25.5457 5.91954 25.5889C5.89794 25.6521 5.87674 25.7154 5.85586 25.7789C5.84149 25.8229 5.82719 25.8669 5.81322 25.911C5.79289 25.9751 5.77288 26.0393 5.75327 26.1036C5.74009 26.147 5.72675 26.1904 5.71389 26.2339C5.69403 26.3011 5.67474 26.3685 5.65568 26.436C5.64409 26.4769 5.63234 26.5177 5.62106 26.5588C5.59994 26.6356 5.57977 26.7126 5.55984 26.7898C5.55158 26.8216 5.54301 26.8533 5.53483 26.8851C5.50712 26.9947 5.48036 27.1046 5.45479 27.215C5.45161 27.2288 5.44876 27.2429 5.44558 27.2567C5.42351 27.3531 5.40215 27.4498 5.38166 27.5467C5.37404 27.583 5.36697 27.6196 5.35951 27.6561C5.34426 27.731 5.32917 27.806 5.31496 27.8812C5.30702 27.923 5.29956 27.965 5.29193 28.007C5.27915 28.0776 5.26652 28.1482 5.25461 28.2191C5.24731 28.2627 5.24024 28.3064 5.23318 28.3501C5.22762 28.3847 5.22158 28.4191 5.21618 28.4538C5.13305 28.4542 5.05126 28.4562 4.97011 28.4591C4.94518 28.46 4.92064 28.4611 4.89587 28.4623C4.82536 28.4654 4.75572 28.4693 4.6868 28.4742C4.66012 28.476 4.6332 28.4775 4.60676 28.4796C4.53093 28.4858 4.45629 28.4933 4.38244 28.5017C4.33798 28.5067 4.29407 28.5123 4.25031 28.5181C4.21871 28.5223 4.18751 28.5268 4.15638 28.5314C3.4847 28.6297 2.89783 28.8227 2.39862 29.1092C1.21566 27.3271 1.8366 25.0846 4.25008 22.4342C4.47193 22.1906 4.4543 21.8132 4.21069 21.5914C3.967 21.3695 3.5896 21.3871 3.36782 21.6308C-0.13968 25.4826 0.290689 28.1797 1.46729 29.8624C1.43593 29.8976 1.40385 29.9321 1.37383 29.9686C0.521594 31.0037 0.255036 32.4908 0.603063 34.2693C1.01676 36.3841 2.29603 41.295 5.24207 41.322C5.24318 41.322 5.24429 41.3223 5.2454 41.3223C5.2697 41.323 5.39564 41.3271 5.61392 41.3271C6.57224 41.3271 9.30857 41.2494 13.0066 40.4903C14.3791 40.86 15.8756 41.0527 17.4533 41.0527C19.0311 41.0527 20.5276 40.86 21.9001 40.4903C25.5984 41.2495 28.3346 41.3271 29.2927 41.3271C29.5109 41.3271 29.6369 41.3231 29.6612 41.3223C29.6647 41.3222 29.668 41.3215 29.6714 41.3214C30.7754 41.3084 31.7506 40.614 32.5701 39.2549C33.3106 38.0268 33.7884 36.467 34.0588 35.3749C34.138 35.055 33.9429 34.7315 33.623 34.6523C33.303 34.5732 32.9795 34.7682 32.9004 35.0881C32.1187 38.2448 30.8999 40.1294 29.6402 40.1294C29.6162 40.1294 29.5924 40.1285 29.5687 40.1272C29.5597 40.1267 29.5507 40.1259 29.5415 40.1252C29.5268 40.1241 29.5121 40.1229 29.4974 40.1213C29.4863 40.1201 29.4751 40.1186 29.4639 40.1171C29.4512 40.1155 29.4385 40.1135 29.4258 40.1114C29.4138 40.1094 29.4018 40.1074 29.3896 40.1051C29.3772 40.1027 29.3648 40.1 29.3525 40.0973C29.3406 40.0947 29.3288 40.0921 29.3169 40.0892C29.3022 40.0855 29.2874 40.0814 29.2728 40.0773C29.2637 40.0747 29.2546 40.0723 29.2453 40.0695C29.2217 40.0623 29.1983 40.0546 29.1748 40.0462C29.1748 40.0462 29.1748 40.0462 29.1747 40.0462C27.7903 39.546 26.7577 36.8831 26.2299 34.4384C26.2299 34.4383 26.2298 34.438 26.2298 34.4379C26.2212 34.3978 26.2128 34.3578 26.2043 34.3179C26.2002 34.298 26.1962 34.2786 26.1922 34.259C26.1869 34.2332 26.1815 34.2076 26.1763 34.1819C26.1665 34.1337 26.1571 34.0863 26.148 34.0404C26.1386 33.992 26.1299 33.9445 26.1216 33.8971C26.1195 33.8855 26.1175 33.8739 26.1154 33.8621C26.1092 33.8238 26.1032 33.786 26.0974 33.7484ZM26.1045 1.86621C27.4267 1.86621 28.5024 2.94189 28.5024 4.26412C28.5024 5.32123 27.8003 6.24628 26.8176 6.55317C26.4293 5.94605 25.9832 5.37546 25.4816 4.84965C24.98 4.32384 24.4339 3.85535 23.851 3.44611C24.1889 2.51168 25.0837 1.86621 26.1045 1.86621ZM6.40478 4.26412C6.40478 2.94189 7.48054 1.86621 8.80269 1.86621C9.82351 1.86621 10.7182 2.51168 11.0562 3.44611C10.4734 3.85527 9.92729 4.32376 9.42561 4.84965C8.9241 5.37554 8.47801 5.94613 8.08973 6.55317C7.10687 6.24628 6.40478 5.32123 6.40478 4.26412ZM8.88114 7.54699C8.88487 7.54112 8.88932 7.5358 8.89281 7.52976C9.67947 6.18744 10.7721 5.04133 12.0529 4.21378C13.6303 3.19606 15.4868 2.65104 17.4536 2.65104C19.4205 2.65104 21.2769 3.19606 22.8544 4.21378C24.1352 5.04125 25.2278 6.18736 26.0145 7.52976C26.0181 7.5358 26.0224 7.54112 26.0262 7.54699C26.9665 9.15706 27.4698 11.0318 27.4698 13.004C27.4698 14.9546 26.9432 16.5537 25.9021 17.7796C25.8779 17.8079 25.8538 17.8361 25.8291 17.864C25.8033 17.8933 25.7773 17.9224 25.7509 17.9513C25.3072 18.4336 24.7734 18.8597 24.1585 19.2197C24.1575 19.2203 24.1568 19.2208 24.1558 19.2213C24.1555 19.2216 24.1552 19.2218 24.1548 19.222C24.0743 19.269 23.9928 19.3151 23.9098 19.36C23.8824 19.3746 23.8549 19.3891 23.8272 19.4036C23.7636 19.4369 23.6991 19.4692 23.6341 19.5012C22.2222 20.1931 20.4301 20.5964 18.3569 20.6862C18.2389 20.6911 18.1206 20.6958 18.0006 20.6987C17.9708 20.6995 17.9407 20.6998 17.9109 20.7005C17.7598 20.7036 17.6079 20.7057 17.4536 20.7057C17.2993 20.7057 17.1474 20.7036 16.9963 20.7005C16.9664 20.6998 16.9363 20.6995 16.9066 20.6987C16.7865 20.6958 16.6682 20.6911 16.5502 20.6862C14.477 20.5963 12.6849 20.1931 11.273 19.5012C11.2081 19.4691 11.1434 19.4368 11.08 19.4036C11.0523 19.3891 11.0247 19.3746 10.9973 19.36C10.9143 19.3152 10.8328 19.269 10.7524 19.222C10.7521 19.2217 10.7517 19.2215 10.7513 19.2213C10.7505 19.2209 10.7497 19.2203 10.7487 19.2198C10.1338 18.8598 9.59998 18.4337 9.15636 17.9513C9.12984 17.9224 9.10387 17.8933 9.07798 17.8639C9.05329 17.8361 9.02923 17.8079 9.00517 17.7796C7.96395 16.5536 7.43734 14.9546 7.43734 13.004C7.43742 11.0317 7.94084 9.15706 8.88114 7.54699ZM1.77451 34.0406C1.42434 32.2506 1.86447 31.2509 2.29547 30.7276C2.39775 30.6032 2.51328 30.4903 2.64009 30.3873C2.6412 30.3864 2.64239 30.3859 2.6435 30.385C2.71878 30.3241 2.79842 30.2669 2.88227 30.2135C2.88306 30.2129 2.88394 30.2125 2.88473 30.2119C3.09253 30.0799 3.32645 29.9708 3.58563 29.885C3.59095 29.8833 3.59627 29.8814 3.60159 29.8797C3.64891 29.8643 3.69719 29.8496 3.74626 29.8357C3.75515 29.8332 3.76421 29.8308 3.77326 29.8283C3.82193 29.8149 3.87108 29.8019 3.92142 29.79C3.92579 29.7889 3.93032 29.7881 3.93469 29.787C4.08166 29.7526 4.23586 29.7249 4.39634 29.7033C4.42683 29.6992 4.45708 29.6949 4.48805 29.6913C4.52346 29.6871 4.55951 29.6835 4.59556 29.6799C4.63376 29.6762 4.67219 29.6726 4.7111 29.6695C4.74365 29.6669 4.77636 29.6644 4.80932 29.6624C4.85632 29.6593 4.90405 29.657 4.95209 29.655C4.97916 29.6538 5.00584 29.6524 5.03324 29.6516C5.10986 29.6492 5.18736 29.6477 5.26652 29.6477C5.33227 29.6477 5.39619 29.6493 5.46019 29.6509C5.53475 29.6533 5.61304 29.657 5.6984 29.6621C6.89224 29.7347 7.76187 30.1131 8.28339 30.7872C8.87924 31.5574 8.94475 32.5892 8.84763 33.4645C8.84748 33.466 8.84732 33.4674 8.84708 33.4689C8.8435 33.5008 8.83977 33.5326 8.8358 33.5639C8.83525 33.5682 8.83469 33.5724 8.83414 33.5766C8.83048 33.6054 8.82667 33.634 8.82262 33.6623C8.82167 33.6692 8.82064 33.6759 8.8196 33.6827C8.81595 33.7083 8.81222 33.7338 8.80825 33.759C8.80642 33.7706 8.80452 33.7819 8.80269 33.7934C8.79944 33.8138 8.79618 33.8344 8.79277 33.8546C8.78975 33.8723 8.78665 33.8898 8.78348 33.9074C8.78109 33.921 8.77871 33.9348 8.77625 33.9483C8.77053 33.9795 8.76474 34.0103 8.75878 34.0408C8.74981 34.0865 8.74036 34.1339 8.73051 34.1822C8.72527 34.2079 8.71995 34.2336 8.71471 34.2594C8.71066 34.2788 8.70669 34.2984 8.70256 34.3182C8.69423 34.3581 8.68573 34.3982 8.67708 34.4382C8.677 34.4383 8.677 34.4386 8.677 34.4387C8.14912 36.8834 7.11663 39.5463 5.73231 40.0465C5.73223 40.0465 5.73223 40.0465 5.73215 40.0465C5.70872 40.0549 5.6853 40.0626 5.66172 40.0698C5.65243 40.0726 5.64337 40.075 5.63416 40.0776C5.61955 40.0817 5.60486 40.0858 5.5901 40.0895C5.57818 40.0924 5.56627 40.095 5.55452 40.0976C5.54221 40.1003 5.52975 40.103 5.51736 40.1054C5.50521 40.1077 5.49314 40.1098 5.48115 40.1117C5.46853 40.1138 5.45582 40.1158 5.44312 40.1175C5.43192 40.119 5.42065 40.1204 5.40961 40.1216C5.395 40.1232 5.38023 40.1244 5.36546 40.1256C5.35641 40.1263 5.34728 40.1271 5.33831 40.1275C5.31448 40.1288 5.29074 40.1297 5.26676 40.1297C3.56848 40.1298 2.32414 36.8495 1.77451 34.0406ZM7.6457 40.0463C8.00659 39.6087 8.34207 39.0596 8.65135 38.3993C8.65762 38.4042 8.66413 38.4088 8.67041 38.4136C8.70383 38.4393 8.73798 38.464 8.77164 38.4894C8.81691 38.5233 8.86185 38.5574 8.9079 38.5905C8.94879 38.6201 8.99064 38.6488 9.03209 38.6779C9.07123 38.7053 9.10983 38.7332 9.14945 38.7602C9.65453 39.1046 10.1982 39.412 10.7751 39.6817C9.56187 39.8711 8.50207 39.9818 7.6457 40.0463ZM9.16731 37.2837C9.15286 37.2719 9.13817 37.26 9.1238 37.248C9.433 36.3894 9.65628 35.5355 9.81104 34.8385C9.81493 34.8211 9.81866 34.8038 9.82247 34.7867C9.82835 34.7598 9.83422 34.733 9.83994 34.7066C9.84892 34.665 9.85765 34.624 9.86623 34.5837C9.86956 34.5679 9.87266 34.5526 9.87591 34.537C9.88266 34.5044 9.88925 34.4723 9.89568 34.4407C9.89862 34.4262 9.90156 34.4117 9.9045 34.3974C9.91276 34.3565 9.92078 34.3162 9.92848 34.2771C9.92895 34.2747 9.92943 34.2721 9.92991 34.2698C9.95135 34.1605 9.97024 34.0524 9.98692 33.9453C9.9947 33.8955 10.0003 33.8469 10.0071 33.7975C10.0148 33.7413 10.0234 33.6846 10.0299 33.6291C10.0374 33.5636 10.0427 33.4995 10.0485 33.4349C10.0519 33.3971 10.0562 33.3587 10.059 33.3212C10.0645 33.2472 10.0675 33.1745 10.0706 33.1018C10.0717 33.075 10.0738 33.0477 10.0746 33.0211C10.077 32.942 10.077 32.8642 10.0766 32.7868C10.0764 32.7676 10.077 32.7478 10.0767 32.7287C10.0755 32.6471 10.0719 32.5667 10.0674 32.4869C10.0666 32.4727 10.0664 32.458 10.0654 32.4439C10.0602 32.3615 10.0527 32.2804 10.044 32.1999C10.0428 32.1889 10.042 32.1776 10.0408 32.1666C10.0315 32.0847 10.0198 32.0041 10.0069 31.9244C10.0054 31.9154 10.0043 31.9061 10.0028 31.897C9.98938 31.8167 9.97366 31.7378 9.95659 31.6598C9.95476 31.6517 9.95333 31.6433 9.95143 31.6351C9.93404 31.5574 9.91434 31.4811 9.8933 31.4058C9.891 31.3976 9.88894 31.3892 9.88663 31.3811C9.86527 31.3066 9.84201 31.2335 9.81707 31.1615C9.81406 31.1529 9.81136 31.144 9.80826 31.1352C9.78333 31.0644 9.75641 30.995 9.72798 30.9265C9.72409 30.917 9.72036 30.9074 9.71639 30.898C9.68804 30.8309 9.65779 30.7653 9.62611 30.7006C9.62103 30.6902 9.61618 30.6797 9.61102 30.6694C9.57942 30.6063 9.54599 30.5445 9.51121 30.4837C9.50486 30.4726 9.49859 30.4612 9.49215 30.4502C9.45738 30.3909 9.42093 30.3328 9.38305 30.2757C9.37535 30.2641 9.36781 30.2523 9.35995 30.2408C9.32191 30.1848 9.28229 30.1301 9.24132 30.0764C9.23639 30.0699 9.23203 30.063 9.22711 30.0566C9.22226 30.0504 9.21702 30.0445 9.21218 30.0383C9.19423 30.0154 9.17748 29.9915 9.15898 29.969C9.14381 29.9506 9.12721 29.9334 9.11173 29.9153C9.10339 29.9056 9.09474 29.8961 9.08616 29.8864C8.96539 29.7484 8.83525 29.62 8.69542 29.5017C8.6943 29.5008 8.69319 29.4998 8.69208 29.4989C8.64627 29.4602 8.59918 29.423 8.55138 29.3865C8.5451 29.3818 8.53883 29.3769 8.53256 29.3722C7.96474 28.9448 7.2563 28.6655 6.41248 28.5372C6.41343 28.5313 6.41431 28.5252 6.41526 28.5193C6.42225 28.4766 6.42995 28.4341 6.43733 28.3915C6.44758 28.332 6.45774 28.2725 6.46878 28.2131C6.47711 28.1678 6.48609 28.1227 6.4949 28.0775C6.50586 28.021 6.5169 27.9644 6.52849 27.9079C6.53794 27.8618 6.54794 27.8158 6.55787 27.7699C6.56978 27.7145 6.58185 27.6591 6.59439 27.6038C6.60488 27.5576 6.61575 27.5115 6.62663 27.4653C6.63957 27.4105 6.65283 27.3555 6.66641 27.3008C6.67777 27.2549 6.68944 27.2091 6.70119 27.1634C6.71525 27.1087 6.72978 27.054 6.74447 26.9994C6.75669 26.954 6.76908 26.9086 6.78171 26.8633C6.79695 26.8085 6.81275 26.7537 6.82863 26.6991C6.84158 26.6546 6.8546 26.6099 6.86786 26.5655C6.88453 26.51 6.90184 26.4547 6.91908 26.3994C6.93249 26.3563 6.94591 26.3132 6.95973 26.2702C6.97815 26.2129 6.99737 26.1558 7.0165 26.0988C7.03008 26.0582 7.04342 26.0176 7.05732 25.9772C7.07892 25.9145 7.10123 25.8523 7.12362 25.79C7.13593 25.7557 7.14784 25.7212 7.16038 25.6869C7.1954 25.5913 7.23129 25.496 7.26813 25.4013C7.27242 25.3903 7.27703 25.3792 7.28132 25.3682C7.31443 25.2838 7.34801 25.1996 7.38248 25.1159C7.39629 25.0823 7.41082 25.049 7.42488 25.0156C7.45037 24.9549 7.47585 24.8942 7.50206 24.834C7.51857 24.7959 7.53573 24.7582 7.55256 24.7204C7.57725 24.6651 7.60179 24.6097 7.62704 24.5548C7.64514 24.5153 7.66372 24.4762 7.68215 24.437C7.707 24.3842 7.73177 24.3314 7.75718 24.2789C7.7764 24.239 7.79609 24.1994 7.81562 24.1598C7.84111 24.1084 7.86668 24.0571 7.89265 24.006C7.91273 23.9664 7.93314 23.9271 7.95347 23.8878C7.97983 23.8371 8.00643 23.7866 8.03335 23.7362C8.05415 23.6973 8.07512 23.6585 8.09624 23.6198C8.12371 23.5696 8.15142 23.5197 8.17937 23.4699C8.20073 23.4319 8.22193 23.3941 8.24361 23.3564C8.27251 23.3062 8.30173 23.2562 8.33111 23.2063C8.35263 23.1698 8.37399 23.1333 8.39575 23.0971C8.42664 23.0458 8.458 22.9951 8.48928 22.9443C8.51033 22.9103 8.53105 22.8762 8.55233 22.8426C8.58648 22.7885 8.62125 22.7348 8.65603 22.6813C8.67525 22.6516 8.6943 22.6216 8.71376 22.5921C8.7568 22.5268 8.80055 22.4624 8.84454 22.3981C8.85621 22.381 8.86772 22.3636 8.87947 22.3466C8.93569 22.2652 8.99278 22.1846 9.05051 22.1048C9.06377 22.0865 9.07751 22.0684 9.09093 22.0502C9.13539 21.9894 9.18002 21.9288 9.22544 21.869C9.24648 21.8412 9.26792 21.8141 9.28912 21.7865C9.32747 21.7368 9.36574 21.6871 9.40465 21.6381C9.42879 21.6076 9.45325 21.5778 9.47762 21.5477C9.51431 21.5024 9.55099 21.457 9.58823 21.4123C9.6142 21.3811 9.64032 21.3504 9.66652 21.3196C9.70281 21.2768 9.73926 21.2341 9.7761 21.1918C9.80326 21.1607 9.83057 21.1299 9.85797 21.0991C9.89449 21.0579 9.93126 21.0171 9.96818 20.9766C9.99621 20.946 10.0243 20.9156 10.0526 20.8853C10.0897 20.8455 10.1272 20.8059 10.1648 20.7667C10.1933 20.737 10.2218 20.7074 10.2505 20.6781C10.2888 20.639 10.3273 20.6004 10.366 20.562C10.3947 20.5335 10.4232 20.505 10.4521 20.4769C10.4641 20.4653 10.4764 20.4538 10.4885 20.4422C10.5077 20.4523 10.5279 20.4617 10.5472 20.4719C11.0933 20.7575 11.6857 21.0005 12.3229 21.2007C12.3363 21.2049 12.3497 21.2092 12.363 21.2133C12.4838 21.2508 12.6062 21.2868 12.7302 21.3212C12.7489 21.3263 12.7678 21.3314 12.7865 21.3366C12.9104 21.3704 13.0355 21.403 13.1624 21.4337C13.1762 21.437 13.1905 21.4401 13.2044 21.4434C13.7198 21.5665 14.261 21.6646 14.8272 21.7377C14.8882 21.7456 14.9489 21.7539 15.0105 21.7613C15.1062 21.7726 15.2032 21.7827 15.3002 21.7927C15.3806 21.8009 15.4613 21.8089 15.5426 21.8162C15.6309 21.8241 15.7197 21.8314 15.8092 21.8382C15.9045 21.8455 16.0007 21.8517 16.0973 21.8577C16.1779 21.8626 16.2583 21.8676 16.3398 21.8716C16.4555 21.8773 16.5726 21.8815 16.69 21.8854C16.7562 21.8876 16.8216 21.8905 16.8884 21.8921C17.0749 21.8966 17.263 21.8993 17.4538 21.8993C17.6446 21.8993 17.8328 21.8966 18.0193 21.8921C18.0859 21.8905 18.1513 21.8875 18.2174 21.8854C18.335 21.8815 18.4522 21.8773 18.568 21.8716C18.6494 21.8676 18.7297 21.8626 18.8102 21.8577C18.9068 21.8517 19.0031 21.8455 19.0984 21.8382C19.1878 21.8315 19.2767 21.8242 19.365 21.8162C19.4463 21.8089 19.5269 21.801 19.6073 21.7927C19.7044 21.7827 19.8014 21.7726 19.8971 21.7613C19.9587 21.754 20.0194 21.7457 20.0804 21.7377C20.6466 21.6646 21.1878 21.5665 21.7032 21.4434C21.7171 21.4401 21.7313 21.437 21.7452 21.4337C21.8722 21.4029 21.9971 21.3702 22.121 21.3366C22.1397 21.3314 22.1587 21.3264 22.1774 21.3212C22.3014 21.2867 22.4238 21.2508 22.5447 21.2133C22.558 21.2091 22.5713 21.2048 22.5846 21.2007C23.2227 21.0002 23.8157 20.7568 24.3625 20.4707C24.3807 20.4612 24.3997 20.4524 24.4178 20.4427C24.4536 20.4773 24.4896 20.5116 24.5252 20.5467C24.5769 20.5976 24.6287 20.6488 24.6796 20.7009C24.7397 20.7623 24.7988 20.825 24.8578 20.8881C24.9068 20.9404 24.956 20.9927 25.0042 21.0461C25.0634 21.1116 25.1216 21.1786 25.1796 21.2457C25.226 21.2992 25.2725 21.3525 25.3182 21.4072C25.3765 21.4769 25.4336 21.5483 25.4906 21.6196C25.5342 21.6742 25.5782 21.7282 25.6211 21.7837C25.6788 21.8582 25.735 21.9346 25.7913 22.0109C25.8318 22.0656 25.8728 22.1196 25.9127 22.1752C25.9705 22.256 26.0266 22.3389 26.083 22.4215C26.1195 22.4749 26.1568 22.5275 26.1927 22.5817C26.2535 22.6736 26.3124 22.7678 26.3715 22.8618C26.401 22.9088 26.4314 22.9547 26.4606 23.0023C26.5478 23.1447 26.6331 23.2895 26.7162 23.4367C26.8782 23.7237 27.2422 23.8249 27.5291 23.6629C27.8161 23.5008 27.9173 23.1368 27.7553 22.8498C27.682 22.7201 27.6067 22.5925 27.5305 22.466C27.5163 22.4425 27.5023 22.419 27.4881 22.3957C27.4138 22.2739 27.3381 22.1537 27.2612 22.0351C27.2472 22.0134 27.2329 21.9921 27.2188 21.9705C27.1401 21.8506 27.0604 21.7319 26.9789 21.6154C26.9768 21.6123 26.9747 21.6092 26.9726 21.6061C26.8896 21.4875 26.8048 21.3712 26.719 21.256C26.7032 21.2348 26.6874 21.2135 26.6715 21.1923C26.5875 21.0809 26.5023 20.9711 26.4157 20.863C26.4012 20.8448 26.3863 20.8269 26.3717 20.8088C26.2855 20.7023 26.1982 20.5972 26.1095 20.4939C26.1042 20.4878 26.0991 20.4815 26.0937 20.4754C26.0022 20.3693 25.909 20.2656 25.8147 20.163C25.7966 20.1434 25.7785 20.1236 25.7604 20.1041C25.6676 20.0043 25.5736 19.906 25.4784 19.8097C25.4734 19.8047 25.4687 19.7995 25.4638 19.7945C25.8546 19.5122 26.2096 19.2042 26.5292 18.8715C27.9623 19.8739 32.5713 23.3342 33.055 26.6819C33.1838 27.5736 33.0051 28.3731 32.5092 29.1119C32.1843 28.9255 31.8228 28.7785 31.4255 28.6713C31.4165 28.6689 31.4075 28.6666 31.3985 28.6642C31.248 28.6245 31.0926 28.5903 30.932 28.5619C30.9021 28.5566 30.8723 28.5513 30.8421 28.5465C30.8009 28.5398 30.7595 28.5334 30.7176 28.5274C30.6707 28.5208 30.6231 28.5148 30.5754 28.5091C30.5329 28.504 30.4902 28.4991 30.447 28.4947C30.3862 28.4885 30.3247 28.483 30.2626 28.4782C30.2331 28.476 30.2036 28.474 30.1739 28.4721C30.1108 28.4681 30.0473 28.4647 29.9831 28.4622C29.9618 28.4613 29.9408 28.4601 29.9194 28.4595C29.8439 28.457 29.7678 28.4553 29.6906 28.455C29.6679 28.3085 29.6432 28.1623 29.6165 28.0162C29.611 27.9859 29.6045 27.9558 29.5988 27.9255C29.5753 27.8013 29.551 27.6773 29.5248 27.5536C29.5134 27.5 29.5009 27.4465 29.489 27.3931C29.4666 27.2926 29.4439 27.192 29.4196 27.0918C29.4054 27.0329 29.3903 26.9741 29.3755 26.9153C29.3513 26.8201 29.3266 26.7251 29.3008 26.6303C29.2846 26.5705 29.2679 26.5109 29.2511 26.4514C29.2241 26.3565 29.1961 26.2619 29.1674 26.1675C29.15 26.1098 29.1325 26.0519 29.1144 25.9943C29.083 25.8945 29.05 25.7951 29.0167 25.6958C28.9997 25.6449 28.9831 25.5937 28.9655 25.5428C28.9224 25.4183 28.8774 25.2943 28.8313 25.1707C28.823 25.1482 28.8155 25.1256 28.807 25.1032C28.8066 25.102 28.806 25.1011 28.8056 25.1C28.8041 25.0959 28.8027 25.0918 28.8012 25.0878C28.6844 24.7796 28.3402 24.6244 28.0318 24.7411C27.7237 24.8578 27.5685 25.2022 27.6852 25.5104C27.7373 25.6479 27.7869 25.7863 27.8351 25.925C27.8501 25.9683 27.8642 26.0119 27.8788 26.0554C27.9107 26.1499 27.9421 26.2447 27.972 26.3396C27.9885 26.3919 28.0044 26.4443 28.0204 26.4967C28.0472 26.5848 28.0733 26.6731 28.0986 26.7617C28.1138 26.8151 28.129 26.8686 28.1436 26.9222C28.1688 27.014 28.1927 27.106 28.2162 27.1983C28.2286 27.2471 28.2414 27.2957 28.2533 27.3446C28.2823 27.4632 28.3095 27.5821 28.3356 27.7012C28.3404 27.7231 28.3458 27.7448 28.3505 27.7667C28.3806 27.9072 28.4084 28.0482 28.4346 28.1893C28.4426 28.2323 28.4496 28.2754 28.4573 28.3185C28.4702 28.3917 28.4824 28.465 28.4942 28.5383C27.6505 28.6667 26.9422 28.9461 26.3747 29.3734C26.3687 29.3779 26.3627 29.3826 26.3566 29.3872C26.3086 29.4238 26.2614 29.4613 26.2154 29.5001C26.2146 29.5008 26.2138 29.5015 26.2129 29.5022C26.0727 29.6207 25.9421 29.7495 25.8211 29.8879C25.8127 29.8974 25.8042 29.9067 25.796 29.9164C25.7804 29.9346 25.7638 29.9517 25.7486 29.9702C25.7301 29.9928 25.7133 30.0166 25.6954 30.0396C25.6905 30.0458 25.6853 30.0516 25.6804 30.0579C25.6754 30.0643 25.6711 30.0712 25.6661 30.0776C25.6252 30.1313 25.5855 30.1861 25.5475 30.2421C25.5397 30.2536 25.5321 30.2654 25.5244 30.2769C25.4866 30.334 25.4501 30.3921 25.4153 30.4514C25.4088 30.4625 25.4026 30.4739 25.3962 30.4851C25.3614 30.5458 25.328 30.6076 25.2964 30.6707C25.2913 30.681 25.2864 30.6915 25.2813 30.7019C25.2497 30.7666 25.2193 30.8322 25.1911 30.8992C25.1871 30.9086 25.1834 30.9183 25.1795 30.9278C25.151 30.9963 25.1242 31.0657 25.0992 31.1366C25.0962 31.1452 25.0934 31.154 25.0904 31.1629C25.0655 31.235 25.0422 31.3081 25.0208 31.3824C25.0185 31.3905 25.0165 31.3988 25.0142 31.4071C24.993 31.4825 24.9735 31.5588 24.956 31.6365C24.9542 31.6446 24.9527 31.6529 24.9509 31.6612C24.9338 31.7392 24.9181 31.8181 24.9047 31.8984C24.9032 31.9074 24.902 31.9167 24.9005 31.9259C24.8877 32.0056 24.876 32.0862 24.8667 32.168C24.8654 32.1791 24.8646 32.1904 24.8634 32.2015C24.8548 32.2818 24.8473 32.3629 24.8421 32.4453C24.8412 32.4595 24.8409 32.4742 24.8401 32.4884C24.8357 32.5682 24.8321 32.6485 24.8308 32.7301C24.8305 32.7493 24.8311 32.7691 24.831 32.7884C24.8305 32.8658 24.8306 32.9436 24.833 33.0226C24.8337 33.0491 24.8358 33.0762 24.8369 33.1029C24.84 33.1758 24.8431 33.2487 24.8486 33.3227C24.8513 33.36 24.8557 33.3981 24.8591 33.4356C24.8649 33.5005 24.8701 33.565 24.8777 33.6307C24.884 33.6853 24.8925 33.741 24.9001 33.7962C24.907 33.8465 24.9128 33.8961 24.9208 33.9469C24.9375 34.0539 24.9564 34.1619 24.9778 34.2712C24.986 34.313 24.9946 34.3564 25.0035 34.4004C25.0062 34.4136 25.0089 34.427 25.0116 34.4403C25.0184 34.4734 25.0253 34.5071 25.0324 34.5412C25.0354 34.5555 25.0383 34.5698 25.0413 34.5842C25.0499 34.625 25.0588 34.6666 25.0679 34.709C25.0734 34.7345 25.0791 34.7606 25.0848 34.7866C25.0888 34.8047 25.0928 34.8229 25.0969 34.8412C25.2516 35.5379 25.4749 36.3914 25.7838 37.2494C25.7694 37.2613 25.7548 37.2732 25.7403 37.285C23.7273 38.9268 20.7393 39.8611 17.4541 39.8611C14.169 39.8611 11.1803 38.9254 9.16731 37.2837ZM24.1319 39.6818C24.7087 39.412 25.2524 39.1046 25.7575 38.7603C25.7972 38.7333 25.8357 38.7054 25.8749 38.6779C25.9163 38.6489 25.9582 38.6202 25.9991 38.5906C26.0451 38.5573 26.09 38.5232 26.1353 38.4894C26.1691 38.4642 26.2033 38.4393 26.2366 38.4137C26.2428 38.4088 26.2494 38.4042 26.2557 38.3994C26.5651 39.0596 26.9004 39.6088 27.2613 40.0464C26.4051 39.9818 25.3453 39.8711 24.1319 39.6818Z" fill="black"/>
</svg>
