<svg width="8" height="12" viewBox="0 0 8 12" fill="none" xmlns="http://www.w3.org/2000/svg">
<path fill-rule="evenodd" clip-rule="evenodd" d="M7.24097 0.3664C7.46597 0.5914 7.59233 0.896559 7.59233 1.2148C7.59233 1.53292 7.46597 1.83808 7.24097 2.0632L3.28937 6.0148L7.24097 9.96635C7.45961 10.1927 7.58057 10.4958 7.57781 10.8104C7.57505 11.1251 7.44881 11.426 7.22633 11.6485C7.00385 11.871 6.70289 11.9972 6.38825 12C6.07361 12.0027 5.77049 11.8817 5.54417 11.6632L0.744171 6.86315C0.519207 6.63811 0.392823 6.33294 0.392823 6.0148C0.392823 5.69656 0.519207 5.3914 0.744171 5.1664L5.54417 0.3664C5.76917 0.1414 6.07433 0.0150397 6.39257 0.0150397C6.71081 0.0150397 7.01597 0.1414 7.24097 0.3664Z" fill="black"/>
</svg>
