<svg width="8" height="12" viewBox="0 0 8 12" fill="none" xmlns="http://www.w3.org/2000/svg">
<path fill-rule="evenodd" clip-rule="evenodd" d="M0.75903 0.3664C0.534029 0.5914 0.40767 0.896559 0.40767 1.2148C0.40767 1.53292 0.53403 1.83808 0.75903 2.0632L4.71063 6.0148L0.75903 9.96635C0.54039 10.1927 0.419429 10.4958 0.422189 10.8104C0.424949 11.1251 0.551189 11.426 0.773669 11.6485C0.99615 11.871 1.29711 11.9972 1.61175 12C1.92639 12.0027 2.22951 11.8817 2.45583 11.6632L7.25583 6.86315C7.48079 6.63811 7.60718 6.33294 7.60718 6.0148C7.60718 5.69656 7.48079 5.3914 7.25583 5.1664L2.45583 0.3664C2.23083 0.1414 1.92567 0.0150397 1.60743 0.0150397C1.28919 0.0150397 0.98403 0.1414 0.75903 0.3664Z" fill="black"/>
</svg>
