<svg width="43" height="27" viewBox="0 0 43 27" fill="none" xmlns="http://www.w3.org/2000/svg">
<path d="M35.743 25.812C39.2165 25.812 42.0324 22.9962 42.0324 19.5226C42.0324 16.5219 39.9303 14.0137 37.1188 13.386C37.3579 12.5349 37.4862 11.6373 37.4862 10.7097C37.4862 5.25732 33.0662 0.837402 27.6139 0.837402C22.5124 0.837402 18.315 4.70697 17.7958 9.67097C16.4062 8.40221 14.3408 8.00985 12.52 8.83903C10.5624 9.73058 9.48509 11.7627 9.71426 13.7904C8.92485 13.4334 8.04946 13.2332 7.12684 13.2332C3.65323 13.2332 0.837402 16.0491 0.837402 19.5227C0.837402 22.9963 3.65323 25.8121 7.12684 25.8121H35.743V25.812Z" fill="#93E7F8"/>
<path d="M35.7429 26.6492H19.8998C19.4373 26.6492 19.0625 26.2744 19.0625 25.8119C19.0625 25.3495 19.4373 24.9746 19.8998 24.9746H35.7429C38.7492 24.9746 41.195 22.5288 41.195 19.5225C41.195 16.9911 39.4039 14.7539 36.9363 14.2031C36.7118 14.1529 36.5179 14.0127 36.3999 13.8154C36.282 13.618 36.2503 13.3808 36.3126 13.1595C36.5357 12.3656 36.6488 11.5414 36.6488 10.7097C36.6488 5.72778 32.5957 1.67468 27.6137 1.67468C22.9732 1.67468 19.1104 5.1498 18.6284 9.75811C18.5955 10.0723 18.3885 10.3414 18.0932 10.4537C17.7979 10.5659 17.4645 10.5025 17.2311 10.2894C16.0433 9.20482 14.3303 8.93463 12.867 9.60112C11.2835 10.3223 10.3508 11.9681 10.5462 13.6965C10.58 13.9958 10.4505 14.2901 10.2071 14.4674C9.96358 14.6447 9.64365 14.6776 9.36927 14.5535C8.66058 14.233 7.90609 14.0706 7.12682 14.0706C4.12042 14.0704 1.67459 16.5163 1.67459 19.5225C1.67459 22.5287 4.12042 24.9746 7.12673 24.9746H13.2015C13.6639 24.9746 14.0388 25.3495 14.0388 25.8119C14.0388 26.2744 13.6639 26.6492 13.2015 26.6492H7.12673C3.19705 26.6492 0 23.4523 0 19.5225C0 15.5927 3.19705 12.3958 7.12673 12.3958C7.72415 12.3958 8.31042 12.4689 8.88012 12.6138C9.09656 10.656 10.3208 8.92048 12.173 8.0769C13.8056 7.3333 15.6578 7.41209 17.1936 8.22887C17.6897 6.13839 18.8089 4.23597 20.4241 2.77212C22.3964 0.984493 24.9498 0 27.6138 0C33.5191 0 38.3235 4.80433 38.3235 10.7096C38.3235 11.4154 38.2547 12.1168 38.1183 12.804C39.3483 13.2403 40.4504 14.0144 41.2801 15.0368C42.305 16.2998 42.8696 17.893 42.8696 19.5225C42.8696 23.4523 39.6725 26.6492 35.7429 26.6492Z" fill="black"/>
<path d="M27.6412 5.02371C27.6399 5.02371 27.6387 5.02371 27.6374 5.02371H27.6137C27.1512 5.02371 26.7764 4.64886 26.7764 4.18642C26.7764 3.72398 27.1512 3.34912 27.6137 3.34912H27.6449C28.1073 3.35121 28.4805 3.72775 28.4785 4.1901C28.4764 4.65129 28.1019 5.02371 27.6412 5.02371Z" fill="black"/>
<path d="M34.1369 11.5469C33.6745 11.5469 33.2996 11.1721 33.2996 10.7096C33.2996 8.6874 32.2111 6.80063 30.459 5.78558C30.0589 5.55382 29.9224 5.04147 30.1542 4.64133C30.386 4.24119 30.8983 4.10479 31.2985 4.33655C33.5658 5.65002 34.9743 8.092 34.9743 10.7096C34.9742 11.1721 34.5993 11.5469 34.1369 11.5469Z" fill="black"/>
<path d="M16.5509 26.6492C16.3299 26.6492 16.1147 26.5596 15.959 26.4039C15.8024 26.2481 15.7136 26.0321 15.7136 25.8119C15.7136 25.5917 15.8024 25.3757 15.959 25.2199C16.1147 25.0642 16.3307 24.9746 16.5509 24.9746C16.7711 24.9746 16.9872 25.0642 17.1429 25.2199C17.2986 25.3757 17.3882 25.5917 17.3882 25.8119C17.3882 26.0321 17.2986 26.2481 17.1429 26.4039C16.9872 26.5596 16.7711 26.6492 16.5509 26.6492Z" fill="black"/>
</svg>
