<svg width="22" height="17" viewBox="0 0 22 17" fill="none" xmlns="http://www.w3.org/2000/svg">
<path d="M4.84701 13.6107C9.63146 15.7138 13.703 16.1234 18.317 12.85C18.2832 12.9071 17.3705 14.43 14.9704 15.2105C15.4774 15.9911 16.1704 16.8858 16.1704 16.8858C17.7085 16.8858 19.2128 16.3908 20.5142 15.439C21.5284 14.6775 22.103 13.3639 21.9847 11.9933C21.7819 9.65174 21.2917 7.36731 20.5311 5.1781C19.5677 2.32258 17.2522 0.342713 14.5647 0.0571377C14.3281 0.0380918 14.1591 0.038092 14.0577 0.038092L13.7873 0.342656C16.8804 1.33259 18.4185 2.87457 18.4522 2.93171C13.7027 0.228437 8.09131 0.190402 3.30801 2.81749C3.30801 2.81749 4.8292 1.1232 8.19267 0.228437L7.98985 0C7.63489 0 7.29684 0.0380916 6.94193 0.0951728C4.45733 0.571094 2.37841 2.49382 1.48259 5.13996C0.705083 7.42439 0.198036 9.82304 0.0121277 12.2598C-0.0892816 13.5543 0.451585 14.8298 1.39809 15.5722C2.64882 16.505 4.13619 17 5.64047 17C5.64047 17 6.24893 16.1052 6.85743 15.3057C4.57565 14.5442 3.64605 13.0213 3.62914 12.9641L4.05857 13.2111C4.31528 13.3588 4.57846 13.4927 4.84701 13.6107ZM7.49971 11.9552C6.40107 11.9171 5.53906 10.8701 5.57288 9.61365C5.6067 8.43337 6.4518 7.48153 7.49971 7.44343C8.59835 7.48153 9.46036 8.52854 9.42654 9.785C9.37581 10.9653 8.54762 11.9172 7.49971 11.9552ZM14.3957 11.9552C13.2971 11.9171 12.435 10.8701 12.4689 9.61365C12.5027 8.43337 13.3478 7.48153 14.3957 7.44343C15.4943 7.48153 16.3563 8.52854 16.3225 9.785C16.2888 10.9653 15.4436 11.9172 14.3957 11.9552Z" fill="white"/>
</svg>
