<svg width="40" height="40" viewBox="0 0 40 40" fill="none" xmlns="http://www.w3.org/2000/svg">
<path d="M38.8375 14.629L34.1688 19.2977L33.2712 20.1952L14.629 38.8375C14.2896 39.1767 13.8294 39.3673 13.3496 39.3673C12.8698 39.3673 12.4096 39.1767 12.0702 38.8375L8.80216 35.5694C9.09202 35.2829 9.32239 34.942 9.48001 34.5662C9.63764 34.1904 9.71941 33.7871 9.72061 33.3796C9.72182 32.9721 9.64245 32.5683 9.48705 32.1916C9.33166 31.8149 9.10332 31.4726 8.81516 31.1844C8.527 30.8963 8.18471 30.6679 7.80798 30.5125C7.43125 30.3571 7.02751 30.2778 6.61999 30.279C6.21247 30.2802 5.80921 30.362 5.43341 30.5196C5.05761 30.6772 4.71668 30.9076 4.43023 31.1974L1.16214 27.9293C0.8229 27.59 0.632324 27.1298 0.632324 26.65C0.632324 26.1701 0.8229 25.71 1.16214 25.3706L20.7019 5.83084L25.3706 1.16214C25.71 0.8229 26.1701 0.632324 26.65 0.632324C27.1298 0.632324 27.59 0.8229 27.9293 1.16214L31.1974 4.43023C30.6233 5.01116 30.3025 5.79567 30.3049 6.6124C30.3073 7.42913 30.6328 8.21172 31.2104 8.78924C31.7879 9.36676 32.5705 9.69228 33.3872 9.6947C34.2039 9.69712 34.9884 9.37624 35.5694 8.80216L38.8375 12.0702C39.1767 12.4096 39.3673 12.8698 39.3673 13.3496C39.3673 13.8294 39.1767 14.2896 38.8375 14.629Z" fill="#FDD82E"/>
<path d="M18.0093 16.5768L19.3021 17.2355C19.5024 17.3376 19.7299 17.3736 19.952 17.3385C20.1741 17.3033 20.3794 17.1987 20.5384 17.0397L21.5644 16.0137C21.7233 15.8546 21.9285 15.75 22.1506 15.7148C22.3727 15.6796 22.6002 15.7156 22.8005 15.8177C23.0009 15.9198 23.1637 16.0827 23.2658 16.283C23.3678 16.4834 23.4038 16.7109 23.3685 16.933L23.1416 18.3661C23.1063 18.5882 23.1423 18.8157 23.2444 19.0161C23.3465 19.2164 23.5094 19.3793 23.7098 19.4812L25.0026 20.1399C25.2029 20.242 25.3658 20.4049 25.4678 20.6052C25.5699 20.8056 25.6059 21.0331 25.5707 21.2552C25.5355 21.4773 25.4309 21.6825 25.2719 21.8415C25.1129 22.0005 24.9076 22.105 24.6855 22.1402L23.2527 22.3671C23.0307 22.4022 22.8254 22.5067 22.6664 22.6657C22.5075 22.8247 22.4029 23.0299 22.3678 23.252L22.1409 24.6848C22.1058 24.9069 22.0012 25.1122 21.8422 25.2712C21.6833 25.4302 21.478 25.5348 21.2559 25.57C21.0339 25.6052 20.8063 25.5692 20.606 25.4671C20.4056 25.365 20.2427 25.2022 20.1406 25.0018L19.4819 23.7091C19.3799 23.5088 19.217 23.3459 19.0167 23.2438C18.8164 23.1417 18.5889 23.1057 18.3669 23.1409L16.9337 23.3678C16.7116 23.4031 16.4841 23.3671 16.2837 23.265C16.0834 23.163 15.9205 23.0001 15.8184 22.7998C15.7163 22.5995 15.6803 22.3719 15.7155 22.1499C15.7507 21.9278 15.8554 21.7226 16.0144 21.5637L17.0405 20.5376C17.1995 20.3786 17.304 20.1734 17.3392 19.9513C17.3744 19.7292 17.3383 19.5017 17.2363 19.3013L16.5765 18.0097C16.4737 17.8092 16.4371 17.5813 16.4721 17.3588C16.507 17.1363 16.6117 16.9306 16.771 16.7713C16.9302 16.612 17.1359 16.5074 17.3585 16.4724C17.581 16.4375 17.8089 16.474 18.0093 16.5768Z" fill="#FF990D"/>
<path d="M39.2852 11.6226L36.0171 8.35484C35.9583 8.29598 35.8885 8.24928 35.8116 8.21742C35.7348 8.18556 35.6524 8.16916 35.5692 8.16916C35.486 8.16916 35.4036 8.18556 35.3268 8.21742C35.2499 8.24928 35.1801 8.29598 35.1213 8.35484C34.6601 8.81453 34.0354 9.07265 33.3841 9.07265C32.7329 9.07265 32.1082 8.81453 31.647 8.35484C31.1876 7.89272 30.9298 7.26761 30.9298 6.61602C30.9298 5.96443 31.1876 5.33932 31.647 4.8772C31.7654 4.75841 31.832 4.59748 31.832 4.4297C31.832 4.26192 31.7654 4.10098 31.647 3.98219L28.3785 0.7141C27.9773 0.31283 27.4488 0.0639851 26.884 0.0104114C26.3191 -0.0431623 25.7532 0.101888 25.2838 0.420587C25.1446 0.514845 25.0486 0.660531 25.0168 0.825596C24.985 0.990661 25.0201 1.16158 25.1144 1.30076C25.2087 1.43994 25.3543 1.53598 25.5194 1.56774C25.6845 1.59951 25.8554 1.5644 25.9946 1.47014C26.2202 1.31717 26.4922 1.24762 26.7636 1.27345C27.035 1.29927 27.2889 1.41886 27.4817 1.61165L30.3408 4.47077C29.8372 5.18886 29.6021 6.06118 29.6766 6.93511C29.7512 7.80903 30.1307 8.62892 30.7487 9.2513C31.3698 9.87184 32.1899 10.2533 33.0647 10.3283C33.9394 10.4034 34.8126 10.1673 35.5303 9.66171L38.3894 12.5208C38.6101 12.7417 38.734 13.0411 38.734 13.3532C38.734 13.6654 38.6101 13.9648 38.3894 14.1856L33.7207 18.8543L33.2727 18.4063C33.1521 18.2989 32.995 18.2417 32.8336 18.2463C32.6722 18.2508 32.5187 18.3169 32.4043 18.4309C32.29 18.5449 32.2235 18.6983 32.2185 18.8596C32.2135 19.021 32.2703 19.1782 32.3773 19.2991L32.8243 19.7468L19.7465 32.8242L19.2988 32.3776C19.1801 32.2588 19.019 32.192 18.851 32.1919C18.683 32.1919 18.5219 32.2585 18.4031 32.3773C18.2842 32.496 18.2174 32.6571 18.2174 32.8251C18.2173 32.9931 18.284 33.1542 18.4027 33.273L18.8511 33.7214L14.1824 38.3901C13.9615 38.6106 13.6621 38.7344 13.35 38.7344C13.0379 38.7344 12.7385 38.6106 12.5176 38.3901L9.65847 35.531C10.1646 34.8136 10.4012 33.9405 10.3266 33.0657C10.2521 32.1909 9.87115 31.3705 9.25096 30.749C8.62865 30.1311 7.80889 29.7515 6.93506 29.6768C6.06123 29.6021 5.18895 29.837 4.47079 30.3404L1.61166 27.4813C1.39119 27.2604 1.26737 26.961 1.26737 26.6489C1.26737 26.3368 1.39119 26.0374 1.61166 25.8165L6.28036 21.1478L6.72877 21.5962C6.78759 21.655 6.85741 21.7017 6.93426 21.7335C7.0111 21.7653 7.09347 21.7817 7.17664 21.7817C7.25982 21.7817 7.34218 21.7653 7.41903 21.7335C7.49587 21.7017 7.5657 21.655 7.62451 21.5962C7.68333 21.5374 7.72998 21.4676 7.76181 21.3907C7.79364 21.3139 7.81003 21.2315 7.81003 21.1483C7.81003 21.0652 7.79364 20.9828 7.76181 20.906C7.72998 20.8291 7.68333 20.7593 7.62451 20.7005L7.17574 20.2535L9.07977 18.3495C9.19855 18.2307 9.26529 18.0696 9.26529 17.9016C9.26529 17.7336 9.19855 17.5725 9.07977 17.4537C8.96099 17.335 8.79989 17.2682 8.6319 17.2682C8.46392 17.2682 8.30282 17.335 8.18403 17.4537L0.714479 24.9222C0.256955 25.3807 0 26.0019 0 26.6496C0 27.2973 0.256955 27.9186 0.714479 28.377L3.98257 31.6448C4.10127 31.7634 4.26224 31.8301 4.43007 31.8301C4.59791 31.8301 4.75888 31.7634 4.87758 31.6448C5.34133 31.1985 5.96162 30.9519 6.6052 30.958C7.24878 30.964 7.86431 31.2222 8.31957 31.6772C8.77484 32.1321 9.03352 32.7475 9.04005 33.391C9.04658 34.0346 8.80044 34.6551 8.3545 35.1191C8.29564 35.1779 8.24896 35.2477 8.2171 35.3245C8.18525 35.4013 8.16885 35.4837 8.16885 35.5668C8.16885 35.65 8.18525 35.7323 8.2171 35.8092C8.24896 35.886 8.29564 35.9558 8.3545 36.0145L11.6222 39.2826C12.0806 39.7401 12.7018 39.9971 13.3495 39.9971C13.9971 39.9971 14.6183 39.7401 15.0767 39.2826L39.2852 15.0781C39.7429 14.6196 40 13.9982 40 13.3503C40 12.7025 39.7429 12.0811 39.2852 11.6226V11.6226Z" fill="black"/>
<path d="M16.9127 10.2538C16.9959 10.2538 17.0782 10.2374 17.1551 10.2056C17.2319 10.1737 17.3017 10.127 17.3604 10.0681L20.2532 7.17604L20.7012 7.62445C20.82 7.74324 20.9811 7.80997 21.1491 7.80997C21.3171 7.80997 21.4782 7.74324 21.597 7.62445C21.7157 7.50567 21.7825 7.34457 21.7825 7.17658C21.7825 7.0086 21.7157 6.8475 21.597 6.72871L21.1485 6.2803L23.6762 3.75269C23.7349 3.6939 23.7816 3.6241 23.8134 3.54729C23.8452 3.47047 23.8616 3.38815 23.8616 3.305C23.8616 3.22186 23.8452 3.13953 23.8134 3.06272C23.7816 2.9859 23.7349 2.9161 23.6762 2.85731C23.6174 2.79852 23.5476 2.75189 23.4708 2.72007C23.3939 2.68825 23.3116 2.67188 23.2285 2.67188C23.1453 2.67188 23.063 2.68825 22.9862 2.72007C22.9094 2.75189 22.8396 2.79852 22.7808 2.85731L16.4646 9.17272C16.3761 9.26132 16.3158 9.37418 16.2914 9.49703C16.267 9.61988 16.2796 9.7472 16.3276 9.86291C16.3755 9.97861 16.4567 10.0775 16.5609 10.1471C16.665 10.2166 16.7874 10.2538 16.9127 10.2538V10.2538Z" fill="black"/>
<path d="M11.0172 16.1491C11.1004 16.1492 11.1828 16.1329 11.2596 16.101C11.3364 16.0691 11.4062 16.0224 11.4649 15.9634L14.9754 12.4528C15.0908 12.3334 15.1547 12.1734 15.1533 12.0074C15.1519 11.8413 15.0853 11.6824 14.9679 11.565C14.8505 11.4475 14.6917 11.3809 14.5256 11.3794C14.3595 11.3779 14.1995 11.4417 14.0801 11.5571L10.5695 15.0677C10.4809 15.1562 10.4205 15.2691 10.396 15.392C10.3715 15.5148 10.384 15.6422 10.432 15.758C10.4799 15.8737 10.5611 15.9727 10.6652 16.0423C10.7694 16.1119 10.8919 16.1491 11.0172 16.1491V16.1491Z" fill="black"/>
<path d="M8.39613 22.3695C8.33726 22.4282 8.29057 22.4981 8.25871 22.5749C8.22685 22.6518 8.21045 22.7341 8.21045 22.8173C8.21045 22.9005 8.22685 22.9829 8.25871 23.0597C8.29057 23.1366 8.33726 23.2064 8.39613 23.2652L10.0638 24.9329C10.1833 25.0483 10.3432 25.1122 10.5093 25.1108C10.6754 25.1093 10.8342 25.0428 10.9517 24.9254C11.0691 24.808 11.1358 24.6491 11.1372 24.4831C11.1387 24.317 11.0749 24.157 10.9596 24.0375L9.29186 22.3695C9.17304 22.2508 9.01195 22.1841 8.844 22.1841C8.67604 22.1841 8.51495 22.2508 8.39613 22.3695V22.3695Z" fill="black"/>
<path d="M11.7318 25.7052C11.6729 25.7639 11.6262 25.8337 11.5944 25.9105C11.5625 25.9874 11.5461 26.0697 11.5461 26.1529C11.5461 26.236 11.5625 26.3184 11.5944 26.3952C11.6262 26.472 11.6729 26.5418 11.7318 26.6006L13.3995 28.2686C13.5183 28.3874 13.6794 28.4541 13.8474 28.4541C14.0153 28.4541 14.1764 28.3874 14.2952 28.2686C14.414 28.1498 14.4807 27.9887 14.4807 27.8207C14.4807 27.6528 14.414 27.4917 14.2952 27.3729L12.6272 25.7052C12.5684 25.6463 12.4986 25.5996 12.4218 25.5678C12.345 25.5359 12.2626 25.5195 12.1795 25.5195C12.0963 25.5195 12.014 25.5359 11.9372 25.5678C11.8603 25.5996 11.7905 25.6463 11.7318 25.7052V25.7052Z" fill="black"/>
<path d="M15.0672 29.0407C15.0084 29.0994 14.9617 29.1692 14.9298 29.246C14.898 29.3228 14.8816 29.4052 14.8816 29.4883C14.8816 29.5715 14.898 29.6539 14.9298 29.7307C14.9617 29.8075 15.0084 29.8773 15.0672 29.936L16.7349 31.6037C16.8537 31.7225 17.0148 31.7893 17.1828 31.7893C17.3508 31.7893 17.5119 31.7225 17.6307 31.6037C17.7495 31.485 17.8162 31.3239 17.8162 31.1559C17.8162 30.9879 17.7495 30.8268 17.6307 30.708L15.963 29.0407C15.9042 28.9818 15.8344 28.9351 15.7575 28.9032C15.6807 28.8714 15.5983 28.855 15.5151 28.855C15.4319 28.855 15.3495 28.8714 15.2727 28.9032C15.1958 28.9351 15.126 28.9818 15.0672 29.0407V29.0407Z" fill="black"/>
<path d="M22.3693 8.39643C22.3104 8.45522 22.2637 8.52504 22.2319 8.60189C22.2 8.67874 22.1836 8.76111 22.1836 8.8443C22.1836 8.92749 22.2 9.00987 22.2319 9.08672C22.2637 9.16357 22.3104 9.23338 22.3693 9.29217L24.0366 10.9599C24.1554 11.0787 24.3165 11.1454 24.4845 11.1454C24.6525 11.1454 24.8136 11.0787 24.9323 10.9599C25.0511 10.8411 25.1179 10.68 25.1179 10.512C25.1179 10.344 25.0511 10.1829 24.9323 10.0641L23.2646 8.39643C23.2059 8.33763 23.1361 8.29098 23.0593 8.25915C22.9824 8.22732 22.9001 8.21094 22.817 8.21094C22.7338 8.21094 22.6515 8.22732 22.5747 8.25915C22.4978 8.29098 22.4281 8.33763 22.3693 8.39643V8.39643Z" fill="black"/>
<path d="M27.8201 14.4811C27.9454 14.4811 28.0678 14.4439 28.172 14.3744C28.2761 14.3048 28.3573 14.2059 28.4052 14.0902C28.4532 13.9745 28.4658 13.8472 28.4414 13.7243C28.417 13.6015 28.3567 13.4886 28.2682 13.4L26.6001 11.7323C26.5413 11.6735 26.4715 11.6269 26.3947 11.5951C26.3179 11.5633 26.2356 11.5469 26.1524 11.5469C26.0693 11.5469 25.9869 11.5633 25.9101 11.5951C25.8333 11.6269 25.7635 11.6735 25.7047 11.7323C25.6459 11.7911 25.5993 11.8609 25.5675 11.9377C25.5357 12.0145 25.5193 12.0969 25.5193 12.18C25.5193 12.2631 25.5357 12.3455 25.5675 12.4223C25.5993 12.4991 25.6459 12.5689 25.7047 12.6277L27.3724 14.2954C27.4311 14.3543 27.5009 14.4011 27.5777 14.4329C27.6546 14.4648 27.7369 14.4812 27.8201 14.4811V14.4811Z" fill="black"/>
<path d="M31.1558 17.8165C31.281 17.8164 31.4034 17.7792 31.5075 17.7096C31.6116 17.64 31.6927 17.5411 31.7406 17.4254C31.7885 17.3097 31.8011 17.1824 31.7766 17.0596C31.7522 16.9368 31.692 16.824 31.6034 16.7354L29.9357 15.0673C29.817 14.9486 29.6559 14.8818 29.4879 14.8818C29.3199 14.8818 29.1588 14.9486 29.04 15.0673C28.9212 15.1861 28.8545 15.3472 28.8545 15.5152C28.8545 15.6832 28.9212 15.8443 29.04 15.9631L30.7081 17.6308C30.7668 17.6897 30.8365 17.7365 30.9134 17.7683C30.9902 17.8002 31.0726 17.8165 31.1558 17.8165V17.8165Z" fill="black"/>
<path d="M15.5658 21.1155C15.3122 21.3691 15.1454 21.6965 15.0893 22.0507C15.0332 22.4049 15.0906 22.7677 15.2535 23.0873C15.4163 23.4068 15.6761 23.6666 15.9956 23.8294C16.3152 23.9922 16.678 24.0496 17.0322 23.9935L18.465 23.7662C18.5551 23.7516 18.6474 23.7661 18.7287 23.8074C18.8099 23.8488 18.8759 23.915 18.9171 23.9964L19.5758 25.2891C19.714 25.5686 19.9278 25.8037 20.1929 25.9678C20.458 26.1319 20.7638 26.2184 21.0755 26.2174C21.1689 26.2174 21.262 26.21 21.3542 26.1954C21.7099 26.143 22.0393 25.9774 22.2935 25.7232C22.5477 25.4689 22.7133 25.1396 22.7657 24.7839L22.993 23.3507C23.007 23.2607 23.0493 23.1776 23.1137 23.1132C23.1781 23.0488 23.2613 23.0065 23.3513 22.9924L24.7841 22.7655C25.1383 22.7095 25.4656 22.5429 25.7193 22.2894C25.973 22.036 26.1399 21.7087 26.1961 21.3546C26.2524 21.0004 26.1951 20.6376 26.0324 20.318C25.8698 19.9984 25.6102 19.7385 25.2908 19.5756L23.998 18.9169C23.9168 18.8757 23.8507 18.8097 23.8093 18.7286C23.768 18.6474 23.7534 18.5552 23.7678 18.4652L23.9947 17.0321C24.0509 16.6779 23.9935 16.315 23.8307 15.9955C23.668 15.676 23.4082 15.4162 23.0887 15.2534C22.7692 15.0906 22.4063 15.0332 22.0521 15.0893C21.698 15.1454 21.3707 15.3123 21.1172 15.5659L20.0915 16.592C20.0271 16.6564 19.9439 16.6987 19.8539 16.713C19.7639 16.7272 19.6718 16.7126 19.5906 16.6712L18.2978 16.0125C17.9784 15.8496 17.6155 15.7921 17.2613 15.8481C16.9071 15.9042 16.5797 16.0709 16.3261 16.3245C16.0726 16.5781 15.9058 16.9055 15.8497 17.2597C15.7937 17.6139 15.8513 17.9767 16.0142 18.2962L16.6728 19.589C16.7143 19.6701 16.729 19.7624 16.7147 19.8524C16.7004 19.9424 16.6578 20.0256 16.5932 20.0899L15.5658 21.1155ZM17.7995 19.0139L17.1408 17.7201C17.1001 17.639 17.086 17.5473 17.1005 17.4578C17.115 17.3683 17.1572 17.2856 17.2213 17.2215C17.2854 17.1574 17.3681 17.1151 17.4576 17.1007C17.5471 17.0862 17.6388 17.1003 17.7199 17.141L19.0126 17.7997C19.332 17.963 19.695 18.0207 20.0493 17.9646C20.4037 17.9085 20.731 17.7414 20.9843 17.4873L22.01 16.4617C22.0744 16.3972 22.1575 16.3548 22.2475 16.3405C22.3374 16.3262 22.4296 16.3408 22.5108 16.3822C22.5919 16.4235 22.6579 16.4896 22.6992 16.5707C22.7405 16.6519 22.7551 16.7441 22.7407 16.8341L22.5138 18.2669C22.457 18.621 22.514 18.984 22.6766 19.3036C22.8392 19.6232 23.099 19.8831 23.4186 20.0457L24.7113 20.7044C24.7925 20.7457 24.8585 20.8116 24.8999 20.8927C24.9413 20.9739 24.9559 21.066 24.9417 21.1559C24.9275 21.2459 24.8851 21.329 24.8207 21.3934C24.7563 21.4578 24.6732 21.5001 24.5832 21.5144L23.15 21.7413C22.7957 21.7969 22.4681 21.9635 22.2144 22.2171C21.9608 22.4708 21.7941 22.7984 21.7386 23.1527L21.5116 24.5859C21.4973 24.6758 21.4549 24.7589 21.3905 24.8233C21.3261 24.8876 21.2429 24.9299 21.153 24.9441C21.0631 24.9584 20.9709 24.9438 20.8898 24.9024C20.8087 24.8611 20.7427 24.7952 20.7013 24.7141L20.0426 23.4213C19.9012 23.1422 19.6852 22.9079 19.4186 22.7442C19.152 22.5805 18.8452 22.4939 18.5324 22.4941C17.9613 22.5461 17.3935 22.629 16.8314 22.7423C16.7414 22.7564 16.6494 22.7417 16.5683 22.7003C16.4872 22.6589 16.4213 22.5929 16.3801 22.5118C16.3388 22.4307 16.3242 22.3386 16.3384 22.2487C16.3527 22.1588 16.395 22.0757 16.4593 22.0113L17.485 20.9856C17.7395 20.7326 17.9071 20.4054 17.9637 20.051C18.0202 19.6967 17.9627 19.3335 17.7995 19.0139V19.0139Z" fill="black"/>
</svg>
