<svg width="44" height="44" viewBox="0 0 44 44" fill="none" xmlns="http://www.w3.org/2000/svg">
<path d="M14.3735 6.17219L12.1819 3.98055L15.2923 0.870141C15.6035 0.558911 16.1082 0.558911 16.4195 0.870141L17.4839 1.93458C17.7952 2.24581 17.7952 2.75046 17.4839 3.06178L14.3735 6.17219Z" fill="#3D6687"/>
<path d="M20.2009 8.92073L18.0093 6.72909L21.1197 3.61868C21.4309 3.30745 21.9356 3.30745 22.2469 3.61868L23.3113 4.68312C23.6226 4.99435 23.6226 5.499 23.3113 5.81032L20.2009 8.92073Z" fill="#3D6687"/>
<path d="M37.7256 29.524L39.9172 31.7156L43.0276 28.6052C43.3389 28.294 43.3389 27.7894 43.0276 27.478L41.9632 26.4136C41.652 26.1024 41.1473 26.1024 40.836 26.4136L37.7256 29.524Z" fill="#3D6687"/>
<path d="M34.6077 23.6969L36.7993 25.8885L39.9097 22.7781C40.2209 22.4669 40.2209 21.9622 39.9097 21.6509L38.8453 20.5864C38.534 20.2752 38.0294 20.2752 37.7181 20.5864L34.6077 23.6969Z" fill="#3D6687"/>
<path d="M37.5484 38.6494L23.6361 20.011L4.9976 6.0986C4.34445 5.6111 4.2756 4.65769 4.85193 4.08136L6.76278 2.17051C7.61827 1.31501 8.90503 1.05917 10.0227 1.52241L32.7185 10.9286L42.1246 33.6243C42.5879 34.742 42.332 36.0288 41.4765 36.8843L39.5657 38.7951C38.9894 39.3715 38.036 39.3026 37.5484 38.6494Z" fill="#CCDFED"/>
<path d="M15.771 42.6611L9.37297 34.1547L0.866544 27.7566C0.587809 27.5469 0.559086 27.1391 0.805755 26.8925L1.78669 25.9116C2.44756 25.2507 3.44872 25.0683 4.30019 25.4538L13.7818 29.7459L18.0739 39.2275C18.4593 40.0789 18.2771 41.0801 17.6162 41.741L16.6353 42.7219C16.3886 42.9686 15.9807 42.9399 15.771 42.6611Z" fill="#CCDFED"/>
<path d="M15.689 36.8959C14.8919 37.693 13.574 37.6002 12.8964 36.6994L10.2917 33.2363L10.2836 33.2445L1.25031 26.4482L0.805755 26.8928C0.559086 27.1395 0.587809 27.5473 0.866544 27.757L9.37297 34.1551L15.771 42.6615C15.9806 42.9402 16.3886 42.969 16.6352 42.7223L17.6161 41.7414C18.277 41.0805 18.4593 40.0793 18.0739 39.2279L16.604 35.9809L15.689 36.8959Z" fill="#BAD5E5"/>
<path d="M42.0748 36.025C42.1133 35.9419 42.1493 35.8577 42.1798 35.7716C42.2425 35.5951 42.2866 35.4129 42.3153 35.2281C42.3979 34.697 42.3395 34.1427 42.1247 33.6244L40.7575 30.3253L40.6706 30.1156C40.5896 30.7618 40.2984 31.3785 39.8179 31.8589L37.907 33.7698C37.3307 34.3461 36.3773 34.2773 35.8898 33.6241L24.8342 18.8131L4.9965 3.93701L4.85203 4.08148C4.47332 4.46019 4.37498 5.00111 4.53608 5.46632C4.62019 5.70913 4.77366 5.93163 4.9977 6.09881L17.1074 15.1378L23.6362 20.0111L28.5094 26.5399L37.5485 38.6496C37.7157 38.8735 37.9381 39.0271 38.181 39.1112C38.6461 39.2723 39.1871 39.174 39.5658 38.7952L41.4766 36.8844C41.7302 36.6308 41.9297 36.3388 42.0748 36.025Z" fill="#BAD5E5"/>
<path d="M9.37163 36.4391C7.91528 37.134 6.39412 35.6129 7.08902 34.1565C8.6336 30.9195 10.6065 27.9049 12.9547 25.1939L29.0912 6.56398C31.4785 3.80775 34.8399 2.08253 38.4711 1.74961L39.4605 1.6589C40.8398 1.53243 41.9957 2.68836 41.8692 4.06763L41.7785 5.05705C41.4456 8.68814 39.7204 12.0495 36.9642 14.4369L18.3343 30.5734C15.6232 32.9217 12.6087 34.8945 9.37163 36.4391Z" fill="#61AFF6"/>
<path d="M41.7785 5.05705L41.8692 4.06763C41.9957 2.68836 40.8398 1.53243 39.4605 1.6589L38.4711 1.74961C38.4582 1.75081 38.4454 1.75244 38.4324 1.75364C38.0908 5.36991 36.3684 8.71601 33.6221 11.0948L7.43188 36.1123C7.90765 36.582 8.64757 36.7846 9.37163 36.4391C12.6087 34.8945 15.6232 32.9216 18.3343 30.5734L36.9642 14.4368C39.7204 12.0496 41.4457 8.68823 41.7785 5.05705Z" fill="#399AEA"/>
<path d="M34.0114 5.13566C33.6604 5.10565 33.3517 5.36578 33.3217 5.71662C33.2917 6.06737 33.5518 6.37629 33.9027 6.4063C35.8149 6.56997 36.958 7.71329 37.1217 9.62534C37.1351 9.78113 37.2033 9.91908 37.3059 10.0216C37.4344 10.15 37.6164 10.2229 37.8114 10.2063C38.1622 10.1762 38.4223 9.86746 38.3923 9.51662C38.1761 6.98957 36.5382 5.3518 34.0114 5.13566Z" fill="black"/>
<path d="M4.61611 6.60966L18.9443 17.3047L14.1618 22.8263C13.9312 23.0924 13.9601 23.4951 14.2262 23.7257C14.3469 23.8301 14.4955 23.8814 14.6434 23.8814C14.822 23.8814 14.9995 23.8068 15.1256 23.6612L20.357 17.6215C20.357 17.6215 20.357 17.6215 20.3571 17.6214L29.5731 6.98125C31.8641 4.33632 35.0447 2.70386 38.5293 2.3844L39.5187 2.29378C39.9877 2.25082 40.4462 2.4169 40.7786 2.74939C41.1111 3.0818 41.2772 3.54101 41.2342 4.00931L41.1436 4.99873C40.9334 7.2912 40.133 9.50582 38.8287 11.4029C38.6292 11.6931 38.7028 12.0901 38.9929 12.2896C39.2832 12.4892 39.6801 12.4155 39.8796 12.1254C41.3073 10.0487 42.1834 7.62463 42.4135 5.11516L42.5041 4.12574C42.5817 3.27916 42.2814 2.44879 41.6803 1.84768C41.0791 1.24657 40.2486 0.946571 39.4022 1.02391L38.4128 1.11453C34.5986 1.46426 31.1169 3.25121 28.6093 6.14651L27.0865 7.90448L23.5743 6.44882L23.7621 6.26097C24.3215 5.70153 24.3215 4.79133 23.7621 4.23197L22.6979 3.16736C22.1385 2.60818 21.2283 2.60801 20.6689 3.16736L19.2003 4.63589L17.5118 3.93609L17.935 3.51289C18.4944 2.95345 18.4944 2.04333 17.935 1.48398L16.8705 0.419453C16.311 -0.139903 15.4008 -0.139732 14.8415 0.419453L13.1377 2.12324L10.2668 0.933367C8.90585 0.369296 7.35356 0.678039 6.31184 1.71959L4.4009 3.63052C3.99528 4.03615 3.78633 4.59705 3.82766 5.16926C3.86898 5.74148 4.15646 6.26645 4.61611 6.60966ZM21.5706 4.06924C21.6325 4.007 21.7337 4.00691 21.796 4.06924L22.8604 5.13368C22.9226 5.19576 22.9226 5.29701 22.8605 5.35909L22.2993 5.92024L20.4754 5.16438L21.5706 4.06924ZM15.7433 1.32125C15.8053 1.259 15.9065 1.25892 15.9687 1.32125L17.0331 2.38569C17.0953 2.44776 17.0953 2.54893 17.0331 2.61101L16.2367 3.40751L14.4128 2.65165L15.7433 1.32125ZM5.30278 4.53231L7.21363 2.62147C7.66504 2.17014 8.2641 1.93102 8.87532 1.93102C9.17892 1.93102 9.48569 1.99009 9.77875 2.1115L26.207 8.92014C26.2071 8.92022 26.2068 8.92005 26.207 8.92014C26.2071 8.92022 26.2068 8.92005 26.207 8.92014L19.7817 16.3382L5.37892 5.58767C5.21362 5.46437 5.1145 5.28312 5.09958 5.07744C5.08484 4.87175 5.15686 4.67807 5.30278 4.53231Z" fill="black"/>
<path d="M43.4784 27.0277L42.414 25.9631C41.8545 25.4037 40.9443 25.4039 40.385 25.9631L39.858 26.4901L39.0498 24.5401L40.3606 23.2292C40.92 22.6698 40.92 21.7597 40.3606 21.2003L39.2962 20.1357C38.7367 19.5763 37.8265 19.5764 37.2672 20.1358L37.237 20.166L35.6751 16.3971L37.3818 14.9188C37.5077 14.8096 37.6333 14.6971 37.7551 14.5842C38.0135 14.3448 38.0287 13.9413 37.7893 13.6831C37.5501 13.4249 37.1466 13.4096 36.8882 13.649C36.7768 13.7522 36.662 13.8551 36.5468 13.9549L17.9168 30.0915C16.9431 30.9349 15.9289 31.7285 14.8793 32.4711C13.43 33.4965 11.8984 34.4313 10.3271 35.2496C10.3267 35.2498 10.3264 35.2501 10.326 35.2502C9.92007 35.4617 9.5105 35.6664 9.09707 35.8637C8.59173 36.1049 8.13414 35.9133 7.87444 35.6537C7.61483 35.394 7.42329 34.9364 7.66438 34.431C7.87453 33.9906 8.09385 33.5547 8.32011 33.1226C8.4049 32.9607 8.49056 32.799 8.57784 32.6379C8.59747 32.6016 8.61762 32.5657 8.63734 32.5294C8.72359 32.3714 8.81053 32.2138 8.8991 32.0567C8.91762 32.0239 8.93657 31.9912 8.95517 31.9584C9.04614 31.7982 9.13797 31.6383 9.23125 31.4792C9.24857 31.4497 9.26614 31.4204 9.28346 31.3909C9.37855 31.2296 9.47466 31.069 9.57214 30.909C9.58981 30.88 9.60773 30.8511 9.62547 30.8221C9.72253 30.6636 9.8207 30.5057 9.91998 30.3486C9.94022 30.3165 9.96062 30.2847 9.98094 30.2527C10.0777 30.1005 10.1756 29.949 10.2743 29.7982C10.2988 29.761 10.3233 29.7239 10.3478 29.6868C10.443 29.5426 10.5392 29.3991 10.6362 29.2564C10.6649 29.2141 10.6938 29.1718 10.7227 29.1296C10.8172 28.9917 10.9127 28.8544 11.0088 28.7178C11.6924 27.7471 12.419 26.8064 13.1886 25.9004C13.4165 25.632 13.3838 25.2296 13.1154 25.0016C12.8467 24.7738 12.4446 24.8065 12.2166 25.0748C11.5554 25.8532 10.9252 26.6567 10.3253 27.4817L4.56306 24.8733C3.4759 24.381 2.17911 24.6173 1.3357 25.461L0.354773 26.442C0.106561 26.6902 -0.0216172 27.0335 0.00298962 27.3838C0.0276822 27.734 0.20276 28.0558 0.483295 28.2667L6.90131 33.0939C6.76953 33.3553 6.63955 33.6176 6.51343 33.8819C6.079 34.7926 6.25931 35.842 6.97273 36.5554C7.42783 37.0106 8.0196 37.2487 8.62491 37.2487C8.96846 37.2487 9.31647 37.1719 9.64622 37.0146C9.91055 36.8884 10.1728 36.7585 10.4342 36.6268L15.2614 43.0448C15.4724 43.3253 15.7942 43.5004 16.1443 43.5251C16.1729 43.5271 16.2013 43.5281 16.2296 43.5281C16.5498 43.5281 16.8579 43.4013 17.086 43.1732L18.0667 42.1924C18.9104 41.3489 19.1466 40.0518 18.6546 38.965L16.0466 33.2036C16.9774 32.5267 17.8801 31.8102 18.7516 31.0553L26.2415 24.5679L37.0373 39.031C37.3805 39.4908 37.9055 39.7782 38.4777 39.8195C38.5254 39.8229 38.5729 39.8246 38.6204 39.8246C39.1422 39.8246 39.6446 39.618 40.0165 39.2461L41.9273 37.3354C42.969 36.2938 43.2776 34.7414 42.7136 33.3805L41.6708 30.8643L43.4785 29.0566C44.0378 28.4972 44.0378 27.587 43.4784 27.0277ZM1.30853 27.2918L2.2375 26.3629C2.70786 25.8925 3.43115 25.7608 4.03714 26.0352L9.57823 28.5435C9.56631 28.561 9.55465 28.5789 9.54282 28.5964C9.47363 28.6986 9.40495 28.8011 9.33662 28.9039C9.30336 28.954 9.27035 29.0043 9.23734 29.0545C9.00499 29.408 8.77812 29.7649 8.55683 30.1253C8.52923 30.1703 8.50145 30.2152 8.47401 30.2603C8.40859 30.3678 8.34377 30.4756 8.27938 30.5838C8.24603 30.6397 8.21302 30.6957 8.18001 30.7518C8.11785 30.8573 8.05578 30.9627 7.99456 31.0687C7.96335 31.1227 7.93283 31.1771 7.90188 31.2312C7.80062 31.4084 7.70074 31.5864 7.60214 31.7652C7.56836 31.8265 7.53398 31.8876 7.50054 31.949L1.30853 27.2918ZM17.493 39.491C17.7673 40.097 17.6356 40.8202 17.1651 41.2907L16.2363 42.2195L11.5791 36.0275C11.6794 35.9729 11.7792 35.9173 11.8791 35.8617C12.0218 35.7825 12.1638 35.7023 12.3055 35.6214C12.3724 35.5832 12.4392 35.545 12.5059 35.5064C12.6126 35.4447 12.7188 35.3824 12.8249 35.3198C12.878 35.2884 12.9309 35.2567 12.9838 35.225C13.3493 35.0067 13.7112 34.7828 14.0695 34.5532C14.1164 34.5232 14.1633 34.4932 14.21 34.463C14.3207 34.3914 14.4312 34.3195 14.5412 34.2468C14.5853 34.2176 14.6292 34.188 14.6733 34.1587C14.7773 34.0894 14.8817 34.0208 14.985 33.9505L17.493 39.491ZM38.1688 21.0376C38.2308 20.9753 38.3321 20.9753 38.3942 21.0375L39.4587 22.1021C39.5208 22.1642 39.5208 22.2654 39.4587 22.3274L38.5212 23.265L37.7654 21.4411L38.1688 21.0376ZM41.0255 36.4336L39.1146 38.3444C38.9689 38.4902 38.7755 38.5615 38.5696 38.5476C38.3638 38.5328 38.1826 38.4335 38.0593 38.2683L27.2081 23.7308L34.6591 17.277C34.6591 17.2772 34.659 17.2769 34.6591 17.277L41.5354 33.8687C41.5354 33.8688 41.5354 33.8687 41.5354 33.8687C41.9013 34.7512 41.7012 35.758 41.0255 36.4336ZM42.5766 28.1547L41.1423 29.5891L40.3864 27.7651L41.2868 26.8648C41.3488 26.8025 41.45 26.8025 41.5122 26.8647L42.5766 27.9292V27.9293C42.6388 27.9915 42.6388 28.0926 42.5766 28.1547Z" fill="black"/>
</svg>
