<svg width="24" height="18" viewBox="0 0 24 18" fill="none" xmlns="http://www.w3.org/2000/svg">
<path d="M20.0516 1.36704C20.0516 1.36704 18.7881 -0.0628442 16.577 0.00215044C13.9616 0.0848709 11.5294 1.57975 11.8073 5.42034C11.8073 5.42034 7.86523 6.54297 1.73098 1.08933C1.73098 1.08933 -0.240063 4.09681 3.24717 6.93294C3.24717 6.93294 2.26797 7.18701 0.960253 6.50752C0.960253 6.50752 0.259016 9.04822 4.75072 10.9744C4.75072 10.9744 3.23454 11.3762 2.54593 10.9744C2.54593 10.9744 2.94393 13.6747 6.98079 14.3187C6.98079 14.3187 4.90866 16.2449 0 16.1917C0 16.1917 10.2027 21.0722 17.2719 14.7973C22.3259 10.3186 21.6246 4.33907 21.6246 4.33907C21.6246 4.33907 23.1092 3.91365 24 2.40104C24 2.40104 22.3132 2.89737 21.3404 2.81465C21.3404 2.81465 23.1977 1.72746 23.343 0.445296C23.3367 0.445296 21.751 1.50294 20.0516 1.36704Z" fill="#1DA1F2"/>
</svg>
