<svg width="402" height="197" viewBox="0 0 402 197" fill="none" xmlns="http://www.w3.org/2000/svg">
<g clip-path="url(#clip0_163_1494)">
<path d="M49.5001 1.00002C73.2001 5.60002 92.6001 27.1 94.8001 51.2C103.3 39.1 117.5 31.2 132.3 30.2C138.4 29.8 144.6 30.5 150 33.2C167.3 41.9 169.3 65.4 168.9 84.8C185.1 68.9 207.2 59 229.9 57.4C239.5 56.8 249.6 57.7 257.7 62.8C272.9 72.4 276.4 92.6 278.4 110.4C283.5 104.6 292 102 299.5 104C307 106 313.1 112.5 314.7 120.1C331.2 112 351.7 116.6 366.8 127.2C381.8 137.8 392.4 153.4 402.1 169.1C392 175 380.4 177.9 369 180.3C310.8 192.5 251.1 195.3 191.6 196.5C121.9 197.8 52.1001 197 -17.1999 189.9C-21.2999 189.5 -25.5999 189 -28.7999 186.4C-31.1999 184.5 -32.6999 181.8 -33.8999 179.1C-43.0999 159.4 -43.8999 136.9 -43.7999 115.1C-43.7999 98.7 -43.2999 82 -38.1999 66.3C-32.0999 47.5 -17.3999 35.3 -4.7999 21C8.6001 5.70002 29.0001 -2.99998 49.5001 1.00002Z" fill="white"/>
<path opacity="0.1" d="M52.9002 68.3C63.6002 66.4 74.9002 66.1 85.0002 70C95.1002 73.9 103.8 82.7 105.3 93.4C108.2 85.9 109.2 77.8 107.5 69.9C105.8 62 100.8 54.7 93.5002 51.3C90.4002 49.8 86.9002 49.1 83.5002 48.9C71.2002 48.1 60.3002 58.4 52.9002 68.3Z" fill="#9092EC"/>
<path opacity="0.1" d="M245.1 153.1C244.1 145.9 232.7 130.8 211.7 128.5C203 127.5 181.4 139.4 173.5 143.3C173.6 128.3 160.9 116.5 146.3 112.9C131.7 109.3 116.3 113.1 102.4 118.6C109.9 109.9 117.8 101.8 127.2 95.2C136.6 88.6 148.2 84.4 159.6 86C171 87.6 181 104.8 183.1 116.1C193.5 106.7 211.9 96.6 224.9 101.9C254.3 113.9 251.9 148.2 245.1 153.1Z" fill="#9092EC"/>
<path opacity="0.1" d="M14.2 76.3C28 69 45.8 72.4 58.3 81.8C70.8 91.2 78.7 105.6 83.4 120.5C91.1 120.8 98.3 124.6 104.4 129.3C108.3 132.3 111.9 135.8 114.6 139.9C119 146.6 120.6 154.7 120.5 162.7C120.5 170.7 118.9 178.5 117.3 186.3C113.2 175 106.3 164.8 97.4 156.7C88.5 148.6 76.9 143.2 64.8 142.9C63.6 128.5 58.7 113.7 49.9 102.2C41 90.7 28.5 78.3 14.2 76.3Z" fill="#9092EC"/>
</g>
<defs>
<clipPath id="clip0_163_1494">
<rect width="446" height="197" fill="white" transform="matrix(-1 0 0 1 402 0)"/>
</clipPath>
</defs>
</svg>
