<svg width="388" height="197" viewBox="0 0 388 197" fill="none" xmlns="http://www.w3.org/2000/svg">
<g clip-path="url(#clip0_163_1488)">
<path d="M352.5 1.00002C328.8 5.60002 309.4 27.1 307.2 51.2C298.7 39.1 284.5 31.2 269.7 30.2C263.6 29.8 257.4 30.5 252 33.2C234.7 41.9 232.7 65.4 233.1 84.8C216.9 68.9 194.8 59 172.1 57.4C162.5 56.8 152.4 57.7 144.3 62.8C129.1 72.4 125.6 92.6 123.6 110.4C118.5 104.6 110 102 102.5 104C94.9999 106 88.8999 112.5 87.2999 120.1C70.7999 112 50.2999 116.6 35.1999 127.2C20.1999 137.8 9.5999 153.4 -0.100098 169.1C9.9999 175 21.5999 177.9 32.9999 180.3C91.1999 192.5 150.9 195.3 210.4 196.5C280.1 197.8 349.9 197 419.2 189.9C423.3 189.5 427.6 189 430.8 186.4C433.2 184.5 434.7 181.8 435.9 179.1C445.1 159.4 445.9 136.9 445.8 115.1C445.8 98.7 445.3 82 440.2 66.3C434.1 47.5 419.4 35.3 406.8 21C393.4 5.70002 373 -2.99998 352.5 1.00002Z" fill="white"/>
<path opacity="0.1" d="M349.1 68.3C338.4 66.4 327.1 66.1 317 70C306.9 73.9 298.2 82.7 296.7 93.4C293.8 85.9 292.8 77.8 294.5 69.9C296.2 62 301.2 54.7 308.5 51.3C311.6 49.8 315.1 49.1 318.5 48.9C330.8 48.1 341.7 58.4 349.1 68.3Z" fill="#9092EC"/>
<path opacity="0.1" d="M156.9 153.1C157.9 145.9 169.3 130.8 190.3 128.5C199 127.5 220.6 139.4 228.5 143.3C228.4 128.3 241.1 116.5 255.7 112.9C270.3 109.3 285.7 113.1 299.6 118.6C292.1 109.9 284.2 101.8 274.8 95.2C265.4 88.6 253.8 84.4 242.4 86C231 87.6 221 104.8 218.9 116.1C208.5 106.7 190.1 96.6 177.1 101.9C147.7 113.9 150.1 148.2 156.9 153.1Z" fill="#9092EC"/>
<path opacity="0.1" d="M387.8 76.3C374 69 356.2 72.4 343.7 81.8C331.2 91.2 323.3 105.6 318.6 120.5C310.9 120.8 303.7 124.6 297.6 129.3C293.7 132.3 290.1 135.8 287.4 139.9C283 146.6 281.4 154.7 281.5 162.7C281.5 170.7 283.1 178.5 284.7 186.3C288.8 175 295.7 164.8 304.6 156.7C313.5 148.6 325.1 143.2 337.2 142.9C338.4 128.5 343.3 113.7 352.1 102.2C361 90.7 373.5 78.3 387.8 76.3Z" fill="#9092EC"/>
</g>
<defs>
<clipPath id="clip0_163_1488">
<rect width="446" height="197" fill="white"/>
</clipPath>
</defs>
</svg>
