<svg width="104" height="45" viewBox="0 0 104 45" fill="none" xmlns="http://www.w3.org/2000/svg">
<path d="M54.6855 33.1156C54.1051 32.4458 53.8372 31.8207 53.7032 31.2402C53.6139 30.749 53.3906 30.3471 53.2567 29.856C52.8102 28.5164 52.0064 27.3108 51.292 26.0605C51.158 25.8373 50.9794 25.6586 50.8008 25.5247C49.8185 24.8103 49.0147 23.8279 47.8538 23.2474C47.5858 23.1135 47.3179 22.8456 47.05 22.6669C46.9607 22.5776 46.8714 22.4437 46.7821 22.4437C45.7551 22.3097 44.996 21.6846 44.0583 21.3274C43.8797 21.2827 43.6118 21.1488 43.4778 21.1934C42.4955 21.5953 41.5131 21.1041 40.5308 21.1488C39.861 21.1488 39.1912 21.1934 38.5214 21.2381C38.0749 21.2827 37.6284 21.372 37.1819 21.3274C36.8246 21.2827 36.4228 21.5506 36.0209 21.6846C35.7083 21.8186 35.4404 21.9972 35.1279 22.0865C34.2795 22.399 33.4311 22.7562 32.7613 23.426C32.7166 23.4707 32.6273 23.56 32.5827 23.56C30.5287 24.453 29.591 26.3284 28.564 28.1145C27.9389 29.2308 27.8495 30.4364 27.9835 31.6867C28.0282 32.2225 28.1175 32.7584 28.1621 33.2495C28.1621 33.4281 28.1175 33.6514 28.0728 33.83C27.7156 33.7407 27.6709 33.4728 27.6709 33.2495C27.5816 32.4458 27.537 31.642 27.4477 30.7937C27.4477 30.5704 27.403 30.3025 27.403 30.0792C27.3584 29.722 27.1351 29.4987 26.8225 29.3648C25.8402 29.0076 24.9025 29.2308 23.9648 29.4541C23.6522 29.5434 23.3397 29.6773 23.0271 29.8113C22.5806 30.0346 22.1787 30.3025 21.9554 30.7937C21.6875 31.3295 21.1964 31.776 21.1517 32.4011C21.9554 32.937 22.7145 33.3835 23.429 33.964C23.9201 34.3658 24.2327 34.9017 24.7239 35.4375C24.1434 35.5714 23.7415 35.2589 23.3843 35.0803C23.0717 34.9463 22.8485 34.6784 22.5806 34.4551C21.9108 33.9193 21.1517 33.4728 20.2587 33.2942C19.5889 33.1602 18.8744 32.937 18.2047 32.7137C16.6418 32.2225 15.079 31.776 13.4715 32.4458C13.159 32.5797 12.7124 32.5351 12.3552 32.6244C10.5691 33.0263 9.31886 34.1872 8.24721 35.5268C7.80068 36.0626 7.44347 36.6877 7.0416 37.2236C6.95229 37.3575 6.81833 37.4022 6.63972 37.4915C6.32716 36.8664 6.99694 36.5538 6.90764 35.9733C6.50577 35.7054 6.1039 35.3928 5.47877 35.6161C5.34481 35.6607 5.12154 35.7054 4.98759 35.6161C4.45177 35.3035 4.00524 35.5714 3.55872 35.7501C3.38011 35.7947 3.2015 35.9733 2.97824 36.018C2.12984 36.1519 1.72798 36.8217 1.37077 37.4468C0.968895 38.1613 0.790276 38.9204 1.05819 39.6794C1.19215 40.126 1.37076 40.5725 1.86193 40.8404C2.44241 41.153 2.75497 41.7781 3.42476 42.046C4.63037 42.5372 5.88064 42.9391 7.2202 42.6265C8.0686 42.4479 8.82768 42.1353 9.58678 41.8228C9.85469 41.6888 10.0779 41.4209 10.3905 41.153C10.4798 41.153 10.6584 41.153 10.7924 41.1976C11.9087 41.6888 13.0696 41.7781 14.2753 41.6888C15.213 41.5995 16.106 41.5548 17.0437 41.5102C18.4279 41.4209 19.5889 40.9744 20.7052 40.3046C21.107 40.0813 21.5089 39.9027 22.0001 39.8134C22.2234 40.2153 21.5982 40.3939 21.6875 40.7958C21.7322 40.8404 21.7768 40.9744 21.8215 40.9744C22.8931 41.3316 23.9648 41.7335 25.1258 41.6888C25.8848 41.6888 26.6439 41.6441 27.403 41.6441C28.2068 41.6441 28.9212 41.3316 29.591 41.0637C30.5287 40.6618 31.4664 40.2153 32.4934 39.9027C32.4041 39.099 31.511 39.0543 31.2431 38.4292C31.4217 38.4738 31.6003 38.4292 31.7343 38.5185C33.0292 39.2329 34.2795 39.9474 35.5297 40.7065C35.6637 40.7958 35.8423 40.8404 36.0209 40.8851C37.0479 41.1976 38.0303 41.5102 39.0573 41.8228C39.2805 41.9121 39.5484 41.9121 39.8163 41.9567C40.2182 42.0014 40.6647 42.0014 41.0666 42.046C41.9597 42.1353 42.808 42.18 43.7011 42.0907C44.5941 42.0014 45.5765 42.2693 46.4695 41.8674C46.6481 41.7781 46.8714 41.8228 47.0947 41.8228C48.4789 41.9121 49.7738 41.5102 51.0687 41.153C51.7831 40.9744 52.5422 40.7958 53.2567 40.6171C53.5246 40.5278 53.7478 40.3492 54.0604 40.1706C53.346 39.6795 52.8102 39.1883 52.5422 38.4738C52.7208 38.1613 52.9441 38.2952 53.1227 38.3399C53.7032 38.5185 54.239 38.7418 54.5962 39.2329C54.6855 39.3669 54.8195 39.5008 54.9535 39.5901C55.7125 39.9027 56.3823 40.4385 57.1414 40.7511C57.7666 41.019 58.3917 41.1976 59.0615 41.4209C59.7313 41.6441 60.4457 41.7781 61.1601 41.8674C62.0978 42.0014 62.9909 42.0907 63.9286 42.2693C64.3304 42.3586 64.6876 42.3139 65.0449 42.2246C65.4467 42.1353 65.8933 42.0907 66.2951 42.046C66.4737 42.046 66.6523 42.046 66.7863 42.0014C67.4561 41.6888 68.1705 41.5995 68.885 41.5995C69.3315 41.5995 69.778 41.3316 70.1799 41.153C70.6264 40.9297 71.1176 40.8404 71.6534 40.8851C71.2069 41.7335 71.1622 41.7335 69.7334 42.3139C70.4031 42.8498 71.2515 42.8051 72.0106 42.9837C72.6358 43.1177 73.3502 43.1177 74.02 43.1623C74.4665 43.207 74.8684 43.1177 75.2702 42.9837C75.6274 42.8944 76.074 43.1177 76.4758 42.8498C76.6098 42.7605 76.8331 42.7158 76.967 42.7605C77.6368 42.9837 78.0833 42.6265 78.5745 42.3139C79.0657 42.0014 79.6908 42.0014 80.048 41.4209C80.0927 41.3316 80.3606 41.2869 80.5392 41.2869C80.8518 41.2869 81.1197 41.1976 81.2536 40.8851C81.2983 40.7958 81.3429 40.7065 81.3876 40.7065C82.2806 40.4832 82.5932 39.6348 83.1737 39.099C83.7542 38.5631 84.3346 38.0273 84.9151 37.4915C85.0044 37.4022 85.2277 37.3575 85.3616 37.4022C85.4956 37.4468 85.5849 37.6701 85.5849 37.8041C85.5849 38.2506 85.4063 38.6971 85.0937 39.0543C84.3793 39.8581 83.8435 40.7958 82.8165 41.3316C82.4592 41.5102 82.5485 41.8674 82.9504 42.0907C83.7542 42.5372 84.6472 42.5818 85.5402 42.5818C85.8528 42.5818 86.1207 42.4925 86.4333 42.5372C87.5943 42.6265 88.5766 42.18 89.559 41.6441C89.6036 41.5995 89.6483 41.5102 89.7376 41.3762C89.0678 40.9297 88.264 40.7065 87.8622 39.9027C87.9961 39.9027 88.0854 39.8134 88.1301 39.8581C89.5143 40.6171 91.0771 40.7958 92.5953 41.1083C93.2204 41.2423 93.8456 41.2423 94.4707 41.3762C94.6493 41.4209 96.1228 41.153 96.3014 41.0637C96.8373 40.7958 97.3284 40.5278 97.8643 40.2599C98.0875 40.1706 98.3108 40.0813 98.5787 40.0367C98.7573 39.992 99.0699 39.992 99.1592 39.8581C99.5164 39.4115 100.008 39.2329 100.454 38.8757C100.633 38.7418 100.722 38.5631 100.811 38.3845C100.901 38.2506 100.901 38.0273 100.99 37.938C101.883 37.045 101.883 35.8394 102.106 34.7677C102.285 33.9193 102.017 33.0709 101.66 32.2672C101.124 31.3295 100.543 30.3471 99.7397 29.4987C99.1592 28.8736 98.4894 28.3378 97.7303 27.8913C97.0605 27.4894 96.3461 27.1322 95.5424 27.0429C94.7833 26.9536 94.0688 26.8643 93.3097 26.775C91.6576 26.5963 90.1394 27.0875 88.6659 27.668C87.5049 28.1145 86.6566 28.9629 85.9868 29.9453C85.7635 30.3025 85.5402 30.615 85.2723 30.9723C85.0044 30.5257 84.9151 30.1239 85.2277 29.7667C85.3616 29.588 85.4509 29.4094 85.5402 29.2308C85.9421 28.6503 86.344 28.0699 86.7905 27.4001C87.4603 27.3108 88.0854 26.8643 88.7552 26.4177C89.3803 25.9712 90.0948 25.7479 90.8539 25.614C91.1664 25.5693 91.5237 25.48 91.8362 25.48C92.372 25.48 92.7293 25.2568 92.7739 24.7209C92.9079 23.9172 93.3544 23.2028 93.3097 22.3544C93.2204 21.3274 93.1311 20.345 92.5507 19.452C92.3274 19.1394 92.1934 18.8268 92.0148 18.4696C91.5237 17.4873 90.5413 16.9961 89.7822 16.237C89.559 16.0138 89.2017 15.9245 88.8892 15.8351C88.3533 15.6565 87.7729 15.4779 87.237 15.344C86.9691 15.2993 86.6566 15.2547 86.3886 15.2547C85.6742 15.2993 85.0044 15.3886 84.29 15.4779C83.6649 15.5672 83.129 15.7905 82.9504 16.5496C82.8165 17.0854 82.5039 17.5766 82.2806 18.1124C81.8341 19.2287 81.075 20.1218 80.1373 20.8809C79.6462 21.2827 79.2443 21.6846 78.7085 21.9972C78.3959 22.1758 78.0387 22.3544 77.6368 22.0418C77.7261 21.9079 77.7708 21.7292 77.9047 21.6846C78.6192 21.2381 79.2889 20.7915 79.6908 20.0325C79.8694 19.7199 80.2713 19.5413 80.4499 19.2734C80.9411 18.5589 81.4322 17.8445 81.7448 17.0854C82.0574 16.237 82.236 15.2993 82.3699 14.3616C82.5039 13.4686 82.5485 12.5755 82.2806 11.7271C82.1913 11.4146 82.1467 11.102 82.1467 10.7448C82.102 9.62849 81.6555 8.64614 81.1197 7.66379C80.8964 7.26192 80.4945 6.994 80.4499 6.50283C80.4499 6.41352 80.3159 6.32422 80.2266 6.19026C79.9141 5.65444 79.155 5.56513 78.9317 4.89535C78.7085 4.31487 78.0387 4.22556 77.7261 3.68974C77.6368 3.64508 77.4582 3.60043 77.2796 3.55578C76.6991 3.33252 76.1633 3.10926 75.5828 2.84134C74.4665 2.30552 73.2609 2.08226 72.0999 1.72504C71.7427 1.63573 71.3855 1.54643 71.0283 1.45712C70.7604 1.36782 70.4924 1.32317 70.1799 1.41247C70.0013 1.45712 69.778 1.45712 69.5994 1.41247C69.1082 1.23386 68.6617 1.18921 68.2152 1.54643C68.1259 1.63573 67.9026 1.63573 67.7687 1.59108C67.4114 1.45712 67.1435 1.54643 66.831 1.68039C66.6077 1.76969 66.3398 1.85899 66.1165 1.81434C65.4021 1.63573 64.777 1.85899 64.1518 2.17156C64.0179 2.21621 63.8839 2.30552 63.7946 2.30552C62.9909 2.30552 62.3211 2.75204 61.6959 3.15391C61.3834 3.33252 61.0262 3.37717 60.6689 3.55578C60.401 3.68974 60.0885 3.82369 59.9992 4.04695C59.7313 4.76139 59.1508 5.0293 58.6149 5.20791C58.3917 5.60978 58.2131 6.01165 57.9898 6.32422C57.4986 6.9047 57.2307 7.52983 56.8735 8.19961C56.293 9.22662 56.0251 10.3876 55.6679 11.5039C55.4446 12.129 55.5339 12.8881 55.5339 13.5579C55.5339 14.1384 55.5786 14.6742 55.5786 15.2547C55.5786 15.344 55.4 15.5226 55.266 15.5672C55.1321 15.5672 54.9088 15.4779 54.8642 15.344C54.4623 14.1384 53.4353 13.6472 52.3636 13.156C50.9794 12.5309 49.5505 12.6648 48.1217 12.9774C47.8091 13.0667 47.4965 13.2007 47.2286 13.3793C46.9607 13.5132 46.6928 13.7811 46.3802 13.8704C45.6211 14.1384 45.2639 14.7188 44.9067 15.3886C44.5941 15.9245 44.4602 16.5049 44.1923 17.0408C43.8797 17.8445 43.8797 18.6929 43.8797 19.5413C44.4602 20.0325 45.2639 19.8092 45.8891 20.2111C46.4695 20.5683 47.1393 20.7915 47.8538 21.1041C48.3896 20.7022 48.9701 20.345 49.5059 19.8985C50.4436 19.0501 51.6492 18.6036 52.8102 18.291C54.1051 17.9338 55.4446 18.0678 56.7395 18.5143C58.5256 19.1394 59.9992 20.2557 61.2048 21.6846C61.428 21.9079 61.5173 22.2204 61.6959 22.533C62.8123 22.2651 63.8839 22.0418 64.9556 21.7739C66.2505 21.4613 67.5007 21.5506 68.7957 21.6399C70.0906 21.7292 71.2515 22.399 72.4125 22.9349C72.5464 22.9795 72.6804 23.1135 72.8144 23.2028C73.8414 23.6939 74.7344 24.3191 75.4042 25.2568C75.94 25.9712 76.5651 26.5963 76.967 27.4447C77.0563 27.668 77.2796 27.8466 77.3242 28.0699C77.3689 28.7396 77.9047 29.2308 77.8601 29.9453C77.8154 30.3471 78.0387 30.749 78.0387 31.1509C78.0387 31.8207 78.0387 32.5351 77.9494 33.2049C77.8601 34.0533 77.6815 34.9017 77.5028 35.7501C77.2349 36.9557 76.4758 37.9827 75.6721 38.9204C75.5828 39.0543 75.5381 39.0543 74.913 39.0097C75.047 38.6971 75.1363 38.3845 75.3149 38.1166C76.2079 36.8217 76.4312 35.3035 76.6991 33.83C76.8331 33.0709 76.4312 31.1062 76.0293 30.4364C75.7614 30.0346 76.0293 29.6327 75.9847 29.1862C75.5828 28.695 75.0916 28.2038 74.8237 27.534C74.6004 26.9536 74.0646 26.507 73.5735 26.0605C73.0376 25.5693 72.5911 25.0335 71.966 24.587C70.939 23.9172 69.778 23.56 68.6617 23.1581C68.1259 22.9795 67.5454 22.8456 66.9203 23.0688C66.7417 23.1135 66.4737 23.1581 66.2951 23.0688C64.9556 22.6669 63.75 23.2028 62.589 23.6493C62.2318 23.7832 61.9192 23.9619 61.562 24.0958C61.428 24.1851 61.2494 24.2298 61.1155 24.3191C59.9099 25.48 58.5256 26.507 57.7666 28.0699C57.6326 28.2931 57.6326 28.2931 57.2307 28.4271C57.0521 28.1592 57.2307 27.9806 57.32 27.7573C57.4986 27.3108 57.7219 26.8643 57.9005 26.4177C58.347 25.4354 58.9275 24.587 59.9099 24.0065C60.3117 23.7832 60.6243 23.426 60.9815 23.1135C60.5796 22.399 59.9992 21.8632 59.374 21.4167C59.0168 21.1488 58.6149 20.8809 58.2577 20.6576C57.9005 20.4343 57.5879 20.1664 57.1414 20.1664C57.0968 20.1664 57.0521 20.1664 57.0075 20.1218C56.1591 19.3627 55.0428 19.6306 54.0604 19.4073C53.7032 19.318 53.346 19.452 52.9888 19.5413C51.4706 19.7645 50.3096 20.5683 49.238 21.5953C49.1487 21.6846 49.104 21.8632 49.0147 22.0418C50.5329 23.2474 51.8278 24.6316 52.8102 26.2391C53.5692 27.4447 54.1944 28.7843 54.4623 30.1685C54.6409 30.9723 55.0428 31.9546 54.6855 33.1156Z" fill="white"/>
<path d="M43.4329 16.5497C43.3882 16.5497 43.3882 16.5497 43.3436 16.5943C43.3436 16.639 43.3436 16.639 43.3436 16.6836C43.3882 16.6836 43.3882 16.6836 43.4329 16.6836C43.4329 16.5943 43.4329 16.5497 43.4329 16.5497Z" fill="white"/>
<path d="M46.3797 42.6264C46.2904 42.6264 46.2011 42.6264 46.1118 42.6711C46.0225 42.805 45.9331 42.805 45.8438 42.6711C45.442 42.5818 45.0401 42.9836 44.5936 42.7604C44.1024 42.5371 43.6112 42.5818 43.0754 42.5818C42.1824 42.5818 41.2893 42.4925 40.4409 42.2246C40.2177 42.1352 39.9944 42.0013 39.7265 42.0906C39.1907 42.3139 38.7441 42.1353 38.253 41.9566C37.8511 41.8227 37.4492 41.7334 37.0473 41.5994C36.6008 41.4655 36.0203 41.5101 35.6631 41.1082C35.4845 41.1082 35.3506 41.1082 35.172 41.1082C34.7254 41.0189 34.3236 40.885 33.877 40.7957C33.7877 40.7064 33.6984 40.6617 33.6091 40.5724C33.2966 40.5278 33.0286 40.4831 32.7161 40.4831C32.091 40.4385 31.5551 40.5278 31.1533 41.0636C30.93 41.3315 30.6621 41.6441 30.2602 41.6441C29.8583 41.9566 29.8583 41.9566 29.5011 41.5994C29.4118 41.6441 29.2779 41.6887 29.1886 41.778C28.876 42.0459 28.5634 42.1352 28.1616 41.912C28.0276 41.8227 27.849 41.8227 27.6704 41.778C27.4918 42.0013 27.3132 42.0013 27.1792 41.7334C26.0629 42.0013 24.9466 41.9566 23.8749 41.5548C23.7856 41.4655 23.6963 41.4208 23.607 41.3315C23.0265 41.3315 22.4461 41.2422 21.9102 40.9743C21.5084 40.751 21.1512 40.7064 20.7939 41.1082C20.3921 41.5994 19.8116 41.7334 19.1864 41.5994C18.606 41.5101 18.0255 41.6441 17.445 41.778C17.3557 41.8227 17.2664 41.912 17.1771 41.9566C16.3734 42.1799 15.5696 42.4925 14.7212 42.2246C14.0514 42.0013 13.5156 42.0013 12.9351 42.4032C12.8458 42.4478 12.6672 42.4478 12.5779 42.4478C12.2654 42.7157 12.2207 42.6711 12.0421 42.2692C11.149 41.6887 10.3007 41.7334 9.45226 42.3585C9.05038 42.6711 8.64852 42.7604 8.15735 42.7157C8.06804 42.805 7.97874 42.8497 7.88943 42.939C7.62151 42.9836 7.39825 42.939 7.13034 43.0283C6.54987 43.2069 5.92474 43.1622 5.38891 42.9836C4.62982 42.7157 3.82607 42.7157 3.02234 42.6711C2.93303 42.5818 2.84373 42.5371 2.75442 42.4478C2.4865 42.4032 2.17394 42.3585 1.99533 42.0906C1.81673 41.778 1.54881 41.5101 1.23624 41.2869C0.611115 40.7957 0.209244 40.2152 0.343201 39.4115C0.387856 39.1882 0.387848 38.9203 0.298546 38.697C0.030632 37.9826 0.253891 37.4468 0.834373 37.0002C1.01298 36.8663 1.14694 36.7323 1.32555 36.643C1.41486 36.5984 1.50416 36.5091 1.59347 36.4644C1.90603 36.3305 1.95068 35.9286 2.3079 35.7946C3.15629 35.5714 3.87073 34.8569 4.89773 35.1248C5.03168 35.1695 5.2103 35.0355 5.38891 34.9909C5.88008 34.9016 6.2373 34.9909 6.59451 35.3928C7.13034 36.0625 7.93408 35.8839 8.24665 35.1248C8.38061 34.8123 8.51456 34.5444 8.82713 34.3658C8.91644 34.2765 9.00574 34.2318 9.09504 34.1425C9.13969 33.9639 9.18434 33.696 9.45226 33.8746C9.63087 33.9639 9.76482 34.1425 9.94344 34.1871C10.4793 34.3211 10.5686 34.723 10.5686 35.2141C10.6132 35.3035 10.7025 35.3481 10.7472 35.4374C11.1044 35.7053 11.417 36.0625 11.6849 36.4198C11.9081 36.777 12.2207 37.0002 12.6672 37.0895C12.7565 37.1788 12.8458 37.2235 12.9351 37.3128C14.23 37.8933 15.5696 38.0719 16.9538 38.2952C17.0431 38.2952 17.1324 38.2952 17.2218 38.2952C17.8022 38.2952 18.3827 38.3398 19.0078 38.3398C19.0971 38.2952 19.1864 38.2058 19.2758 38.1612C20.2134 38.1165 21.0172 37.67 21.8656 37.2682C21.9549 37.1788 22.0442 37.1342 22.1335 37.0449C22.714 37.0002 22.9819 36.5984 23.2498 36.1965C23.4284 35.8839 23.4284 35.616 23.2498 35.3035C22.9819 34.8569 22.58 34.589 22.1781 34.2765C21.5084 33.696 21.2405 32.8476 20.526 32.3564C20.2135 32.1331 20.1688 31.4634 20.4814 31.2401C21.0172 30.9275 21.2405 30.3024 21.9102 30.0791C22.58 29.8559 23.1159 29.3647 23.8749 29.454C23.9642 29.454 24.0982 29.3647 24.1875 29.3201C24.4554 29.0521 24.768 29.0521 25.1252 29.0968C25.5717 29.1414 26.0629 29.1414 26.5094 29.1414C26.688 28.8735 26.8666 28.9182 27.0006 29.1861C27.2239 29.0968 27.3578 29.0075 27.4471 28.7842C27.6257 28.3377 27.849 27.8912 27.8043 27.3554C27.8043 27.0874 27.849 26.8195 28.0722 26.6856C28.6081 26.4177 28.742 25.8818 29.1439 25.5246C29.2332 25.4353 29.2779 25.3907 29.3672 25.3013C29.5011 24.319 30.1263 23.7385 31.0193 23.3813C31.3765 23.2473 31.6891 23.1134 31.823 22.7115C31.9123 22.4436 32.1803 22.265 32.4035 22.131C32.7607 21.9078 33.1626 21.8185 33.4305 21.5059C33.5198 21.4166 33.7431 21.372 33.877 21.372C34.8594 21.2826 35.7971 20.7915 36.7794 20.9254C37.0027 20.9254 37.226 20.7915 37.4939 20.7022C37.7618 20.6129 38.0744 20.5682 38.3423 20.5236C38.4316 20.4343 38.5209 20.3896 38.6102 20.3003C38.6995 20.3003 38.7888 20.3003 38.8781 20.3003C39.0121 20.077 39.1907 20.077 39.4139 20.1217C39.9051 20.1217 40.3963 20.1217 40.8874 20.1217C41.0214 20.1217 41.2 20.1663 41.334 20.1663C41.3786 20.1663 41.4679 20.2556 41.4679 20.3003C41.5126 20.4343 41.4233 20.5236 41.2893 20.5682C41.1554 20.6129 40.9767 20.6129 40.8428 20.6129C40.5749 20.6129 40.3516 20.6129 40.0837 20.6129C39.8158 20.9254 39.4586 20.7915 39.1014 20.7915H39.0567C38.9227 20.9701 38.7441 21.0147 38.5655 21.0147C38.0744 21.2826 37.6278 21.5059 37.1367 21.7738C36.1543 22.3543 35.0826 22.8901 34.4575 23.9171C34.3682 24.0511 34.2343 24.1404 34.1003 24.2743C33.8324 24.4976 33.7431 24.8102 33.6091 25.0781C33.2073 25.8818 32.8947 26.6409 33.1626 27.534C33.2073 27.6679 33.0733 27.8465 33.0286 27.9805C32.85 28.8289 32.9393 29.588 33.5645 30.2577C33.6984 30.3917 33.7877 30.5257 33.8324 30.6596C33.9663 31.0615 34.011 31.4634 34.145 31.8206C34.2789 32.2671 34.904 32.1778 35.038 32.5797C35.172 32.9815 35.4845 33.1601 35.8417 33.2941C36.199 33.4281 36.4669 33.696 36.7348 33.9639C36.9134 34.1425 37.092 34.3211 37.3153 34.4104C38.2976 34.8569 39.28 35.3035 40.3963 35.4821C40.7535 35.5267 41.1554 35.616 41.5126 35.7053C42.4056 35.9286 43.3433 35.7946 44.2364 36.0625C44.3703 36.1072 44.5043 36.0625 44.5936 36.0625C45.0401 35.9286 45.5313 35.9732 45.9778 35.8839C46.8262 35.7053 47.7639 35.7053 48.4337 35.0802C48.8355 34.723 49.2821 34.4104 49.9072 34.4551C50.1305 34.4997 50.3091 34.3211 50.443 34.1871C50.7109 33.9639 50.9342 33.7406 51.2021 33.5174C51.8719 33.0262 52.4524 32.4457 53.2115 32.0885C53.8366 31.8206 53.9706 31.5527 53.8366 30.9722C53.7919 30.7936 53.7473 30.6596 53.658 30.5257C53.3454 29.6326 52.8542 28.8289 52.7649 27.8912C52.7203 27.4893 52.5417 27.1321 52.2291 26.8195C52.0505 26.6409 51.8272 26.4623 51.7826 26.239C51.6486 25.6586 51.2468 25.346 50.8895 24.9441C49.9072 23.9171 48.9695 22.8901 48.523 21.5059C48.4783 21.3273 48.3444 21.1933 48.1658 21.238C47.5406 21.4166 46.9601 21.372 46.3797 20.9701C46.2457 20.8808 45.9778 20.8808 45.7545 20.8808C44.8168 20.8361 44.0131 20.5682 43.3433 19.8984C43.0308 19.5859 42.7182 19.2733 42.5842 18.8268C42.4949 18.5142 42.361 18.2016 42.2717 17.8891C42.0931 17.3086 42.0484 16.7281 42.2717 16.1923C42.4949 15.6565 42.7628 15.076 43.4326 14.8527C43.5666 14.8081 43.7452 14.6741 43.8345 14.5848C44.0578 14.1383 44.6382 13.9597 44.7722 13.4685C44.8168 13.2899 45.0401 13.2006 45.1741 13.2899C45.6206 13.4685 45.9332 13.3345 46.335 13.1559C46.5583 13.022 46.8708 13.0666 47.1834 13.022C47.2727 12.9327 47.362 12.8434 47.4513 12.7541C47.5406 12.6201 47.6299 12.6648 47.7192 12.7987C47.6299 13.022 47.4513 13.0666 47.2281 13.0666C47.1834 13.3345 47.0495 13.5132 46.8708 13.6918C46.5136 14.0936 46.335 14.6295 46.2011 15.1206C45.8885 16.1476 46.3797 17.3979 47.2281 18.023C47.6746 18.3356 48.1211 18.5589 48.6123 18.7821C49.0588 18.9607 49.6393 19.1393 49.7732 19.7198C49.8625 19.8091 49.9519 19.8984 50.0412 19.9431C50.3537 19.9877 50.6663 19.9877 50.8002 19.5859C50.8896 19.3179 51.0682 19.1393 51.3361 18.9607C51.4254 18.8268 51.5147 18.8268 51.604 18.9607C51.604 19.184 51.604 19.4519 51.5147 19.6752C51.2468 20.3449 51.2468 21.0147 51.2914 21.6845C51.3807 22.8455 51.6933 23.9171 52.6756 24.6762C53.0775 24.9888 53.524 25.3013 53.9706 25.6139C54.0599 25.7032 54.1492 25.7479 54.2385 25.8372C54.685 25.8818 55.1315 25.8818 55.578 26.0604C56.1585 26.2837 56.6497 26.1944 57.1855 25.7925C57.8106 25.346 58.4358 24.8548 59.1056 24.453C59.6414 24.0957 60.2219 23.7832 60.8023 23.4706C60.9363 23.292 61.1149 23.2473 61.2935 23.292C61.3828 23.1134 61.4721 22.9348 61.5614 22.8008C61.2042 22.3543 60.8917 21.9078 60.5344 21.4613C59.954 20.7468 59.1949 20.3449 58.3018 20.1217C58.2125 20.2556 58.1232 20.2556 58.0339 20.1217C57.5427 20.1217 57.2302 19.7645 56.7836 19.6305C56.3371 19.4966 56.1585 19.2286 55.9799 18.8268C55.578 17.8444 55.3548 16.7728 54.7296 15.8351C54.5957 15.6565 54.5957 15.3885 54.551 15.1206C54.4617 15.0313 54.4171 14.9867 54.3278 14.8974C54.0599 14.5402 53.658 14.2276 53.5687 13.7364C53.524 13.4238 53.658 13.3345 54.0599 13.4685C54.1492 13.3792 54.2385 13.2452 54.3278 13.1559C54.4171 12.6648 54.7296 12.2629 54.6403 11.7271C54.5064 11.0573 54.8189 10.4321 55.1315 9.85167C55.2655 9.62841 55.3994 9.40515 55.4441 9.18188C55.6227 8.15488 56.3818 7.39579 56.6497 6.41345C56.739 6.01158 57.1855 5.78831 57.2302 5.34179C57.2302 4.89527 57.5427 4.5827 57.9 4.40409C58.5251 4.13618 58.9716 3.64501 59.4181 3.19848C59.686 2.93057 59.9986 2.79661 60.3112 2.618C60.847 2.30544 61.4721 2.21613 61.9633 1.85892C62.008 1.591 62.1866 1.45705 62.4545 1.45705H62.4991C62.6777 1.23378 62.8564 1.23378 62.9903 1.5017C62.901 1.591 62.8564 1.68031 62.767 1.76961C62.6777 1.90357 62.5438 1.94822 62.3652 1.94822C62.3205 2.03752 62.2759 2.12683 62.2759 2.21613C62.1866 2.30544 62.1419 2.35009 62.0526 2.4394C62.008 2.97522 61.6061 3.33244 61.2935 3.68966C60.981 4.09153 61.0256 4.5827 60.6684 4.98457C60.2665 5.4311 59.8647 5.92227 59.7753 6.5474C59.7307 6.94927 59.5074 7.30649 59.4181 7.70836C59.2395 8.37814 58.9716 9.04793 59.0609 9.71771C59.2395 11.5931 59.8647 13.3345 60.9363 14.942C61.0256 15.0313 61.1149 15.076 61.1596 15.1653C61.4275 15.5225 61.5168 15.969 62.008 16.1476C62.1419 16.1923 62.2759 16.3262 62.3652 16.4602C62.5438 16.8174 62.8117 17.13 63.1689 17.3532C63.3029 17.4872 63.3475 17.7105 63.4368 17.8891C63.7494 17.8891 64.1066 17.8891 64.1959 18.3356C64.955 19.2733 66.0713 19.7645 66.9197 20.5682C66.9644 20.6129 67.0537 20.6129 67.143 20.6575C67.8128 20.8808 68.5272 21.1487 69.197 21.372C69.2863 21.4613 69.3756 21.5059 69.4202 21.5952C69.3309 21.8185 69.1077 21.8631 68.9291 21.9078C68.7505 22.0417 68.5718 22.2203 68.4379 22.3543C68.5718 22.5329 68.7505 22.5776 68.9291 22.5776C68.9291 22.6669 68.9291 22.7562 68.9291 22.8455C68.2593 22.8455 67.5895 22.8455 66.9197 22.8455C66.8304 22.8901 66.7411 22.9794 66.6518 23.0687C66.4285 23.0241 66.2053 22.9348 66.0267 22.9794C65.2676 23.292 64.4192 23.426 63.8387 24.0511C63.5708 24.3637 63.3029 24.5423 62.901 24.5423C62.8117 24.6316 62.7224 24.6762 62.6777 24.7655C62.4545 25.212 62.2312 25.6139 61.74 25.8818C61.4721 26.0158 61.2489 26.239 61.1149 26.4623C60.8024 27.0428 60.5791 27.6679 59.9986 28.0251C59.686 28.9628 59.2842 29.9005 59.1056 30.9275C59.0163 31.5527 58.9716 32.2224 59.1502 32.8476C59.1949 32.9815 59.1949 33.1601 59.1502 33.3388C58.9716 33.7853 59.1056 34.2318 59.2395 34.6337C59.4181 35.1695 59.5967 35.7053 59.686 36.2858C59.82 37.0002 60.2219 37.6254 60.5791 38.2505C60.8023 38.6524 61.1149 38.9649 61.5614 39.1435C61.7847 39.2328 62.008 39.3668 62.2312 39.5008C62.3205 39.5901 62.4098 39.6347 62.4991 39.724C63.2582 40.5278 64.2406 40.7957 65.3122 40.9743C65.4015 41.0189 65.4908 41.1082 65.5801 41.1529C65.7588 41.1529 65.9374 41.1529 66.0713 41.1529C66.1606 41.0636 66.2499 41.0189 66.3392 41.1529C66.7858 41.1976 67.2323 41.2422 67.6788 41.1082C67.9914 41.0189 68.3039 41.0189 68.6611 41.0189C68.9291 41.0189 69.197 41.0189 69.4202 41.0189C69.5988 41.0189 69.7775 41.0189 69.9114 40.9743C70.0454 40.7957 70.224 40.751 70.4472 40.751C70.8938 40.7064 71.251 40.5278 71.4742 40.1706C71.6082 39.9919 71.7422 39.8133 71.9654 39.8133C72.4119 39.7687 72.6798 39.4561 73.0371 39.2775C73.7069 38.9649 74.2427 38.3845 75.0018 38.2058C75.2697 37.7593 75.3143 37.7593 75.6716 38.0719C75.7162 38.1165 75.7609 38.2058 75.8055 38.2505C76.1181 38.4738 76.1627 38.4738 76.252 38.4738C76.3413 38.5184 76.4306 38.6077 76.5199 38.6524C77.0111 38.6524 77.5469 38.6524 78.0381 38.697C78.1274 38.5631 78.2167 38.5631 78.306 38.6524C79.1098 38.7863 79.8689 38.697 80.5833 38.4291C81.1191 38.2505 81.6103 37.9379 82.1015 37.67C82.1908 37.5807 82.2801 37.5361 82.3694 37.4468C82.6373 37.2682 82.8606 37.0895 83.1285 36.9109C83.2178 36.8216 83.3071 36.777 83.3517 36.6877C83.3964 36.5537 83.3964 36.4198 83.441 36.3305C84.1108 35.4821 84.5573 34.5444 84.6467 33.4281C84.6467 33.2494 84.7806 33.0262 84.8699 32.8476C85.0485 32.535 85.0932 32.2224 84.9146 31.9099C84.736 31.508 84.9146 31.1954 85.1378 30.8829C85.1825 30.7936 85.3611 30.7489 85.4504 30.7936C85.5397 30.7936 85.6737 30.9275 85.7183 31.0168C85.763 31.1061 85.763 31.2401 85.8076 31.3741C86.0309 32.1331 86.1648 32.8922 86.4774 33.562C87.2365 35.0802 88.4421 36.2858 89.871 37.2235C90.1835 37.4468 90.4961 37.7593 90.9873 37.7593C91.0766 37.8486 91.1659 37.8933 91.2552 37.9826C91.4784 38.1165 91.7464 38.2505 92.0143 38.2505C92.1036 38.3398 92.1929 38.3845 92.2822 38.4738C92.4608 38.4738 92.5948 38.4738 92.7734 38.5184C92.8627 38.6077 92.952 38.6524 93.0413 38.7417C93.1306 38.7417 93.2199 38.7863 93.2645 38.7863C93.5325 38.7863 93.845 38.697 94.0236 38.9649C94.6488 39.0542 95.2739 39.0542 95.899 39.1435C96.9707 39.3222 98.0423 39.0542 99.114 38.831C99.2033 38.7863 99.2926 38.697 99.3372 38.6524C99.9177 38.2505 100.454 37.7593 101.168 37.67C101.257 37.67 101.436 37.7147 101.481 37.7593C101.525 37.8486 101.57 37.9826 101.525 38.0719C101.481 38.2058 101.391 38.3845 101.257 38.4738C100.766 38.7863 100.32 39.1882 100.052 39.6794C99.9177 39.9026 99.7391 40.0812 99.4712 40.0812C99.2033 40.1259 98.98 40.1705 98.7568 40.3492C98.1316 40.9296 97.3279 41.1529 96.5242 41.3762C96.3009 41.4655 96.0776 41.5548 95.8097 41.6441C95.7204 41.778 95.6311 41.778 95.5418 41.6887C94.3362 41.6887 93.1306 41.5548 91.9696 42.0013C91.5231 42.3139 91.4338 42.3139 91.2105 41.8227C90.764 41.778 90.4068 42.0013 90.0942 42.2692C89.8263 42.4925 89.5137 42.5371 89.2012 42.5818C89.1119 42.6264 89.0226 42.7157 88.9333 42.7604C88.4421 42.805 87.9956 43.0729 87.4597 43.0729C86.656 43.0283 85.8969 43.0729 85.0932 43.0729C85.0039 43.0283 84.9146 42.939 84.8253 42.8943C84.6467 42.8943 84.468 42.8497 84.3341 42.8497C84.0662 42.8497 83.7983 42.8497 83.5303 42.8497C82.682 42.5371 81.8336 42.2246 80.9852 41.912C80.8959 41.912 80.8066 41.912 80.6726 41.912C80.36 41.9566 80.0028 41.9566 79.6903 42.0013C79.6009 42.0906 79.5116 42.1352 79.467 42.2246C78.9758 42.4925 76.3413 43.3855 75.9395 43.4302C75.7609 43.4302 75.5822 43.4302 75.4483 43.4302C74.6445 43.4302 73.8408 43.4748 73.0371 43.4302C71.8315 43.3855 70.5812 43.2962 69.5095 42.7157C68.9737 42.4032 68.3486 42.3585 67.8128 42.6264C67.0537 42.9836 66.2499 42.9836 65.4462 42.9836C65.3569 42.8943 65.2676 42.8497 65.1783 42.805C64.9104 42.7604 64.6871 42.8497 64.5085 43.0283C64.2406 43.2516 63.928 43.2962 63.6154 43.2962C63.4368 43.5195 63.2582 43.5195 63.1243 43.2516C62.8564 43.2516 62.5884 43.2962 62.3652 43.2069C61.6061 42.9836 60.8917 42.8943 60.1326 43.1623C59.9093 43.2516 59.7307 43.2069 59.5521 43.0729C58.6144 42.4478 57.5427 42.0906 56.5157 41.6441C56.0246 41.4208 55.712 41.1082 55.4887 40.7064C55.3994 40.6171 55.3101 40.5724 55.2208 40.4831C54.9083 40.2152 54.551 40.1705 54.1938 40.4385C53.7026 40.7957 53.2561 41.2422 52.5417 41.2422C52.4524 41.2422 52.3184 41.3315 52.2291 41.4208C51.9166 41.7334 51.47 41.7334 51.1128 41.912C50.6216 42.0906 49.9965 42.0013 49.5946 42.4478C49.3267 42.7157 49.0588 42.7604 48.6569 42.6264C48.2551 42.4925 47.8532 42.3585 47.4513 42.3139C47.1388 42.1352 46.8708 42.6264 46.3797 42.6264ZM47.5853 13.1559L47.6299 13.2006C47.5853 13.2006 47.5853 13.1559 47.5853 13.1559ZM55.3548 14.5402C55.4441 14.6741 55.4887 14.8527 55.5334 15.0313C55.3101 14.8974 55.0869 14.7188 54.9529 14.5402C55.0869 14.7188 55.2655 14.8974 55.5334 15.0313C55.4887 14.8527 55.4441 14.6741 55.3548 14.5402Z" fill="#B3E1EB"/>
<path d="M102.017 36.7324C102.195 36.7771 102.151 36.9557 102.062 37.0897C101.928 37.2236 101.794 37.3129 101.704 37.0897C101.704 36.8664 101.749 36.6431 102.017 36.7324Z" fill="#B3E1EB"/>
<path d="M53.2116 13.1113C53.3456 13.022 53.4795 13.1113 53.5688 13.2006C53.4795 13.2453 53.3456 13.2453 53.2563 13.2453C53.2116 13.2453 53.2116 13.1113 53.2116 13.1113Z" fill="#B3E1EB"/>
<path d="M53.6137 13.5132C53.569 13.5578 53.4797 13.5132 53.3904 13.4685C53.3458 13.4238 53.3011 13.3792 53.2118 13.2899C53.3011 13.2899 53.4351 13.2452 53.5244 13.2452C53.6583 13.2899 53.7476 13.4238 53.6137 13.5132Z" fill="#B3E1EB"/>
<path d="M69.3757 22.9795C69.3757 23.1581 69.2864 23.1134 69.1971 23.0241C69.1971 22.9348 69.1971 22.8455 69.1971 22.7562C69.2418 22.8455 69.3757 22.9348 69.3757 22.9795Z" fill="#B3E1EB"/>
<path d="M83.486 14.183C83.4413 13.2007 83.3967 12.3077 83.352 11.4146C83.352 10.9234 83.2627 10.4323 83.0841 9.98574C82.6376 8.82478 82.325 7.57452 81.6552 6.45821C80.9854 5.43121 80.3157 4.44886 79.378 3.60046C78.7975 3.06464 78.217 2.57346 77.5472 2.17159C76.3863 1.45716 75.136 0.965982 73.7964 0.698068C72.9034 0.519459 71.9657 0.251546 71.0726 0.162241C69.3312 -0.0163676 67.5451 -0.105672 65.8483 0.206894C64.3748 0.474807 62.9013 0.876677 61.5617 1.59111C61.2938 1.72507 60.9366 1.81437 60.6687 1.94833C60.4901 2.12694 60.2668 2.17159 60.1775 2.30555C59.8649 2.79672 59.3737 2.97533 58.8379 2.93068C58.4807 3.42186 58.2128 3.82373 57.8556 4.27025C57.7216 4.44886 57.4984 4.58281 57.3197 4.76142C56.7393 5.20795 56.1141 5.65447 56.0695 6.45821C56.0695 6.50286 56.0695 6.54751 56.0248 6.59217C55.3997 7.35125 55.3104 8.37826 54.8192 9.22665C54.5513 9.67317 54.462 10.1643 54.5066 10.6555C54.596 11.4146 54.5066 12.129 53.8369 12.7542C53.435 12.5309 52.9885 12.3077 52.542 12.0844C52.3187 11.9951 52.0954 11.9058 51.8722 11.8611C51.6936 11.8165 51.4256 11.8165 51.2917 11.6825C50.7559 11.236 50.1307 11.236 49.5056 11.37C48.5679 11.5932 47.5409 11.5932 46.6479 11.9504C46.4246 12.0397 46.246 12.1737 46.0227 12.3077C45.7995 12.4416 45.6208 12.6202 45.3976 12.7095C44.5045 13.0221 43.9687 13.6472 43.5222 14.4063C43.3882 14.6296 43.3436 14.8975 43.165 15.0314C42.1826 15.7905 42.2719 16.9068 42.1826 17.9338C42.138 18.3804 42.3166 18.7822 42.3612 19.2288C42.1826 19.4967 41.9147 19.586 41.6021 19.5413C40.1733 19.3627 38.6998 19.3627 37.3155 19.8092C36.0653 20.2111 34.7704 20.5683 33.6094 21.1488C33.0289 21.4614 32.5824 21.9972 32.0019 22.3098C30.841 22.8902 30.1265 23.9172 29.3228 24.8103C28.6083 25.614 28.1172 26.5517 27.8046 27.6234C27.7153 27.9359 27.5813 28.2039 27.4474 28.5164C26.6436 28.4718 25.8846 28.3825 25.1701 28.3378C24.1878 28.2932 23.2501 28.4271 22.491 29.1416C21.2854 29.5434 20.7495 30.5704 20.2137 31.5974C20.1691 31.6867 20.0798 31.776 20.0351 31.8653C19.9458 31.8653 19.8119 31.91 19.7672 31.8653C19.0528 31.4635 18.3383 31.1956 17.4899 31.1956C17.1327 31.1956 16.8202 31.1509 16.5076 31.0616C15.5699 30.7937 14.5875 30.9276 13.6498 31.0616C13.2926 31.1063 12.9354 31.3295 12.5782 31.4188C10.4349 32.0439 8.87205 33.3835 7.57713 35.1696C6.99666 35.0357 6.41618 34.857 5.79105 34.7231C4.85335 34.4998 3.82635 34.4998 2.9333 34.7677C2.17422 34.991 1.50443 35.5268 1.05791 36.152C0.522079 36.911 0.164864 37.8041 0.0309067 38.7418C-0.147705 39.8581 0.477425 40.7065 1.10256 41.5102C1.54908 42.1354 2.17421 42.6712 3.06725 42.7605C3.24586 42.7605 3.42448 42.9391 3.64774 43.0284C4.71939 43.5642 5.83569 43.6535 6.99665 43.6089C7.35387 43.6089 7.71109 43.3856 8.02366 43.207C8.8274 42.7605 9.63113 42.314 10.3456 41.9121C11.3726 42.0461 12.087 42.6712 13.0694 42.6712C13.9178 42.6712 14.8108 43.0731 15.7038 42.7605C16.5969 42.4479 17.5792 42.6712 18.4723 42.3586C19.276 42.0461 20.0798 41.6888 20.9728 41.287C21.464 41.5102 22.1338 41.6442 22.6696 42.0461C22.8929 42.2247 23.2054 42.314 23.518 42.3586C24.3664 42.4479 25.1701 42.6712 26.0185 42.8498C26.2864 42.8945 26.599 42.9391 26.9116 42.8944C27.8493 42.7605 28.7423 42.5819 29.68 42.4033C29.9479 42.3586 30.2605 42.2247 30.4837 42.0907C31.1982 41.6442 31.9126 41.1977 32.6271 40.7511C32.895 40.6172 33.1629 40.4832 33.3861 40.3493C34.2345 40.9744 35.3062 41.1084 36.0206 41.8674C36.7797 41.9121 37.4048 42.4926 38.2086 42.4479C38.5658 42.4479 38.923 42.6265 39.3249 42.7158C39.6821 42.8051 40.084 42.8498 40.4412 42.8944C40.6198 42.9391 40.7538 42.9391 40.9324 42.9391C41.4682 42.9838 41.9147 43.341 42.5398 43.207C43.031 43.1177 43.6115 43.2963 44.1473 43.341C44.6832 43.3856 45.2636 43.4749 45.7548 43.1624C46.8711 43.2517 47.9428 43.0731 49.0144 42.8498C49.4163 43.0284 49.7289 42.7605 50.0861 42.6265C50.22 42.5372 50.3986 42.4033 50.5326 42.4479C51.2024 42.6265 51.6489 42.2693 52.1401 41.9568C52.2294 41.8674 52.3187 41.7781 52.4526 41.7335C53.3903 41.5995 54.0601 40.8851 55.0425 40.6618C55.623 41.1977 56.516 41.3316 57.0965 41.9568C57.1858 42.0461 57.3197 42.0907 57.409 42.0907C58.8379 42.4479 60.2668 42.8498 61.6957 43.1624C62.4101 43.2963 63.1692 43.341 63.9283 43.2517C64.1515 43.207 64.3748 43.207 64.5534 43.2517C65.6697 43.3856 66.7414 43.2517 67.7237 42.9838C69.5991 43.6982 71.4299 44.1894 73.3499 44.3233C73.6178 44.3233 73.8411 44.368 74.109 44.4126C74.2429 44.4126 74.3769 44.5466 74.4662 44.5019C75.5379 44.1447 76.6988 44.5019 77.7258 44.0108C77.9491 43.9215 78.217 43.8768 78.4403 43.8321C79.244 43.6535 80.0031 43.4749 80.6282 42.9391C80.8068 42.8051 81.0747 42.7605 81.3427 42.6265C82.9501 43.341 84.6469 43.6535 86.3884 43.5642C88.1298 43.4749 89.8266 43.1177 91.3001 42.1354C91.9252 42.2693 92.5504 42.4479 93.1755 42.5372C94.6044 42.7605 96.0332 42.5819 97.4621 42.2247C97.5514 42.2247 97.6407 42.18 97.6854 42.1354C99.5608 40.8404 101.347 39.8134 102.508 38.072C103.178 37.1343 103.49 36.1073 103.758 35.0357C103.803 34.857 103.803 34.6338 103.803 34.4105C103.579 33.5175 103.356 32.5798 103.133 31.6867C103.044 31.3295 102.82 31.0169 102.642 30.7044C102.597 30.6151 102.419 30.5258 102.419 30.4365C102.061 29.1862 100.945 28.6057 99.9626 27.9806C99.8733 27.9359 99.8287 27.8913 99.784 27.8466C99.0696 27.0429 98.1319 26.641 97.1942 26.2392C96.2565 25.8373 95.2295 25.614 94.1578 25.2568C94.2472 24.6317 94.0239 23.9172 94.5597 23.2921C94.7383 23.1135 94.6937 22.7563 94.6937 22.4884C94.649 21.8186 94.5597 21.1041 94.4258 20.4344C94.3365 19.9878 94.2472 19.586 93.9346 19.1841C93.4881 18.6483 93.0862 18.0678 92.7736 17.4427C92.2825 16.505 91.3448 16.1477 90.675 15.3887C89.9159 15.2547 89.3801 14.6296 88.6656 14.451C87.7726 14.2277 86.8795 14.0491 85.9865 14.0044C85.1381 13.9151 84.379 14.0937 83.486 14.183ZM54.6853 33.1156C55.0425 31.91 54.6406 30.9723 54.462 30.0346C54.1941 28.6504 53.569 27.3108 52.8099 26.1052C51.7829 24.4977 50.5326 23.1135 49.0144 21.9079C49.1037 21.7293 49.1484 21.5507 49.2377 21.4614C50.3093 20.4344 51.4703 19.6306 52.9885 19.4074C53.3457 19.3627 53.7476 19.2288 54.0601 19.2734C55.0425 19.4967 56.1588 19.1841 57.0072 19.9878C57.0518 20.0325 57.0965 20.0325 57.1411 20.0325C57.5877 20.0325 57.9002 20.3004 58.2574 20.5237C58.6147 20.7916 59.0165 21.0148 59.3737 21.2828C59.9542 21.7739 60.5347 22.2651 60.9812 22.9795C60.5794 23.2921 60.2668 23.6493 59.9096 23.8726C58.9272 24.4084 58.3467 25.3015 57.9002 26.2838C57.677 26.7303 57.4984 27.1769 57.3197 27.6234C57.2304 27.8466 57.0518 28.0252 57.2304 28.2932C57.6323 28.1592 57.6323 28.2039 57.7663 27.9359C58.57 26.4178 59.9096 25.3461 61.1152 24.1852C61.2491 24.0958 61.4277 24.0512 61.5617 23.9619C61.9189 23.8279 62.2315 23.6493 62.5887 23.5154C63.7943 23.0242 64.9553 22.4884 66.2948 22.9349C66.4735 22.9795 66.7414 22.9795 66.92 22.9349C67.5005 22.7116 68.1256 22.8456 68.6614 23.0242C69.7777 23.4261 70.9387 23.7833 71.9657 24.4531C72.5908 24.8549 73.0373 25.4354 73.5732 25.9266C74.0643 26.3731 74.6002 26.8643 74.8234 27.4001C75.0913 28.0699 75.5379 28.5611 75.9844 29.0522C76.029 29.4988 75.7611 29.856 76.029 30.3025C76.4309 30.9723 76.8328 32.937 76.6988 33.6961C76.4309 35.1696 76.2076 36.6878 75.3146 37.9827C75.136 38.2506 75.0467 38.5632 74.9127 38.8757C75.5379 38.8757 75.5825 38.9204 75.6718 38.7864C76.4756 37.8487 77.2346 36.8664 77.5026 35.6161C77.6812 34.7677 77.8598 33.9193 77.9491 33.071C78.0384 32.4012 78.083 31.6867 78.0384 31.017C78.0384 30.6151 77.8598 30.2132 77.8598 29.8113C77.9044 29.0969 77.3686 28.6057 77.3239 27.9359C77.3239 27.7127 77.1007 27.5341 76.9667 27.3108C76.6095 26.4624 75.9397 25.8373 75.4039 25.1229C74.7341 24.1852 73.8411 23.5154 72.8141 23.0688C72.6801 23.0242 72.5462 22.8902 72.4122 22.8009C71.2512 22.2651 70.1349 21.5953 68.7954 21.506C67.5005 21.4167 66.2055 21.3274 64.9553 21.64C63.8836 21.9079 62.7673 22.1312 61.6957 22.3991C61.5171 22.1312 61.4277 21.8186 61.2045 21.5507C59.9989 20.1218 58.5254 19.0055 56.7393 18.3804C55.4443 17.9338 54.1048 17.7999 52.8099 18.1571C51.6489 18.5143 50.4433 18.9162 49.5056 19.7646C49.0144 20.2111 48.3893 20.5683 47.8535 20.9702C47.139 20.6576 46.4692 20.4344 45.8888 20.0771C45.2636 19.6753 44.5045 19.8985 43.8794 19.4074C43.8794 18.559 43.8794 17.7106 44.192 16.9068C44.4152 16.371 44.5939 15.7905 44.9064 15.2547C45.2636 14.5849 45.6208 14.0044 46.3799 13.7365C46.6925 13.6472 46.9158 13.3793 47.2283 13.2454C47.4962 13.1114 47.8088 12.9328 48.1214 12.8435C49.5503 12.4863 50.9791 12.397 52.3633 13.0221C53.435 13.5133 54.462 14.0044 54.8639 15.2101C54.9085 15.2994 55.1318 15.4333 55.2657 15.4333C55.3997 15.4333 55.5783 15.2547 55.5783 15.1207C55.5783 14.5403 55.5337 14.0044 55.5337 13.424C55.5337 12.7542 55.4443 11.9951 55.6676 11.37C56.0248 10.2536 56.2481 9.09269 56.8732 8.06569C57.2304 7.44056 57.4984 6.77077 57.9895 6.1903C58.2574 5.87773 58.3914 5.52051 58.6147 5.07399C59.1505 4.89538 59.731 4.62747 59.9989 3.91303C60.0882 3.68977 60.4007 3.55581 60.6687 3.42186C60.9812 3.24325 61.3831 3.19859 61.6957 3.01999C62.3208 2.75207 62.9459 2.30555 63.7943 2.30555C63.8836 2.30555 64.0176 2.21624 64.1069 2.17159C64.732 1.85903 65.3571 1.63577 66.0716 1.81437C66.2948 1.85903 66.5628 1.81437 66.786 1.68042C67.0986 1.54646 67.3665 1.45716 67.7237 1.59111C67.8577 1.63577 68.0809 1.63577 68.1702 1.54646C68.6168 1.18924 69.0633 1.2339 69.5545 1.4125C69.7331 1.45716 69.9563 1.50181 70.1349 1.4125C70.4475 1.3232 70.7154 1.4125 70.9833 1.45716C71.3405 1.54646 71.6978 1.63577 72.055 1.72507C73.2159 2.08229 74.4216 2.2609 75.5379 2.79672C76.0737 3.06464 76.6542 3.2879 77.2346 3.51116C77.4579 3.60046 77.6365 3.64512 77.7258 3.77907C77.9937 4.27025 78.7082 4.40421 78.9314 4.98468C79.1547 5.60982 79.9138 5.69912 80.2263 6.2796C80.271 6.3689 80.405 6.45821 80.4496 6.59217C80.4943 7.08334 80.8961 7.35125 81.1194 7.75312C81.6552 8.69082 82.1017 9.67317 82.1464 10.8341C82.1464 11.1467 82.191 11.5039 82.2803 11.8165C82.5483 12.7095 82.5036 13.6026 82.3697 14.451C82.2357 15.3887 82.1017 16.3264 81.7445 17.1747C81.432 17.9785 80.9408 18.6929 80.4496 19.3627C80.271 19.6753 79.8245 19.8092 79.6905 20.1218C79.2886 20.8809 78.6189 21.3274 77.9044 21.7739C77.7705 21.8632 77.7258 21.9972 77.6365 22.1312C78.083 22.4437 78.3956 22.2651 78.7082 22.0865C79.244 21.7739 79.6905 21.3274 80.137 20.9702C81.0747 20.2111 81.8338 19.3181 82.2803 18.2018C82.5036 17.6659 82.8608 17.1747 82.9501 16.6389C83.1287 15.8798 83.6646 15.6566 84.2897 15.5673C84.9595 15.4333 85.6739 15.3887 86.3884 15.344C86.6563 15.2994 86.9688 15.344 87.2367 15.4333C87.8172 15.5673 88.3531 15.7459 88.8889 15.9245C89.2014 16.0138 89.5587 16.1031 89.7819 16.3264C90.541 17.0854 91.5234 17.5766 92.0145 18.559C92.1931 18.8715 92.3271 19.2288 92.5504 19.5413C93.1308 20.4344 93.2648 21.4167 93.3095 22.4437C93.3541 23.2921 92.9076 24.0065 92.7736 24.8103C92.6843 25.3461 92.3718 25.5694 91.8359 25.5694C91.5234 25.5694 91.1661 25.6587 90.8536 25.7033C90.0945 25.8373 89.3801 26.0605 88.7549 26.5071C88.1298 26.9536 87.46 27.4001 86.7902 27.4894C86.2991 28.1592 85.9418 28.7397 85.54 29.3202C85.406 29.4988 85.3167 29.6774 85.2274 29.856C84.9595 30.2579 85.0041 30.6151 85.2721 31.0616C85.54 30.7044 85.7632 30.3472 85.9865 30.0346C86.6563 29.0076 87.5493 28.2039 88.6656 27.7573C90.1391 27.1769 91.6573 26.6857 93.3095 26.8643C94.0685 26.9536 94.783 27.0429 95.5421 27.1322C96.3458 27.2662 97.0156 27.5787 97.73 27.9806C98.4891 28.4271 99.1589 28.9629 99.7394 29.5881C100.543 30.3472 101.124 31.3295 101.659 32.3565C102.061 33.1156 102.285 34.0087 102.106 34.857C101.883 35.9287 101.927 37.1343 101.034 38.0274C100.945 38.1167 100.945 38.3399 100.856 38.4739C100.766 38.6525 100.632 38.8311 100.498 38.965C100.097 39.2776 99.5608 39.5009 99.2036 39.9474C99.1142 40.0814 98.8017 40.0814 98.6231 40.126C98.3998 40.2153 98.1319 40.26 97.9086 40.3493C97.3728 40.6172 96.8816 40.8851 96.3458 41.153C96.1672 41.2423 94.6937 41.5102 94.5151 41.4656C93.8899 41.287 93.2648 41.287 92.6397 41.1977C91.1215 40.8851 89.5587 40.7065 88.1744 39.9474C88.1298 39.9027 87.9958 39.9921 87.9065 39.9921C88.3084 40.7511 89.1121 41.0191 89.7819 41.4656C89.6926 41.5995 89.6926 41.6888 89.6033 41.7335C88.6656 42.2693 87.6386 42.7158 86.4777 42.6265C86.1651 42.5819 85.8972 42.6712 85.5846 42.6712C84.6916 42.6712 83.7985 42.6265 82.9948 42.18C82.5929 41.9568 82.5483 41.5995 82.8608 41.4209C83.8878 40.9297 84.4237 39.9474 85.1381 39.1437C85.4507 38.7864 85.6293 38.3399 85.6293 37.8934C85.6293 37.7594 85.54 37.5808 85.406 37.4915C85.2721 37.4469 85.0488 37.4915 84.9595 37.5808C84.379 38.1167 83.7985 38.6525 83.218 39.1883C82.6376 39.7241 82.3697 40.5725 81.432 40.7958C81.3873 40.7958 81.3427 40.9297 81.298 40.9744C81.164 41.2423 80.8961 41.3763 80.5836 41.3763C80.405 41.3763 80.1817 41.3763 80.0924 41.5102C79.7798 42.0907 79.11 42.0907 78.6189 42.4033C78.1277 42.7158 77.6365 43.0731 77.0114 42.8498C76.8774 42.8051 76.6542 42.8498 76.5202 42.9391C76.1183 43.207 75.6718 42.9838 75.3146 43.0731C74.9127 43.207 74.5109 43.2517 74.0643 43.2517C73.3946 43.207 72.7248 43.2517 72.055 43.0731C71.2959 42.8945 70.4475 42.9391 69.7777 42.4033C71.2512 41.8228 71.2959 41.7781 71.6978 40.9744C71.1619 40.9744 70.7154 41.0191 70.2242 41.2423C69.8224 41.4656 69.3759 41.6888 68.9293 41.6888C68.2149 41.7335 67.5005 41.7781 66.8307 42.0907C66.6967 42.1354 66.5181 42.1354 66.3395 42.1354C65.9376 42.18 65.4911 42.2247 65.0892 42.314C64.732 42.4033 64.3748 42.4033 63.9729 42.3586C63.0799 42.2247 62.1422 42.1354 61.2045 41.9568C60.4901 41.8228 59.7756 41.7335 59.1058 41.5102C58.4807 41.287 57.8109 41.1084 57.1858 40.8404C56.4267 40.5279 55.7569 39.9921 54.9978 39.6795C54.8639 39.6348 54.7299 39.4562 54.6406 39.3223C54.2834 38.8311 53.7476 38.6078 53.1671 38.4292C52.9885 38.3846 52.7652 38.2506 52.5866 38.5632C52.8099 39.2776 53.3457 39.7688 54.1048 40.26C53.7922 40.4386 53.569 40.6172 53.301 40.7065C52.5866 40.9297 51.8275 41.0637 51.1131 41.2423C49.8182 41.5995 48.5232 41.9567 47.139 41.9121C46.9158 41.9121 46.6925 41.8674 46.5139 41.9568C45.6208 42.3586 44.6832 42.0907 43.7455 42.18C42.8524 42.2693 42.004 42.2247 41.111 42.1354C40.7091 42.0907 40.2626 42.0907 39.8607 42.0461C39.5928 42.0014 39.3695 42.0014 39.1016 41.9121C38.0746 41.5995 37.0923 41.287 36.0653 40.9744C35.8867 40.9297 35.7527 40.8851 35.5741 40.7958C34.2792 40.0814 33.0289 39.3669 31.7787 38.6078C31.6447 38.5632 31.5107 38.5632 31.2875 38.5185C31.5554 39.1883 32.4484 39.233 32.5377 39.9921C31.5554 40.3046 30.6177 40.7511 29.6353 41.153C28.9656 41.4209 28.2511 41.7335 27.4474 41.7335C26.6883 41.7335 25.9292 41.7781 25.1701 41.7781C24.0092 41.7781 22.9375 41.4209 21.8659 41.0637C21.8212 41.0637 21.7766 40.9297 21.7319 40.8851C21.6426 40.5279 22.2677 40.3493 22.0445 39.9027C21.5979 40.0367 21.1961 40.1707 20.7495 40.3939C19.6332 41.0637 18.4723 41.5102 17.0881 41.5995C16.1504 41.6442 15.2573 41.6888 14.3196 41.7781C13.114 41.8674 11.9531 41.7781 10.8368 41.287C10.7028 41.2423 10.5242 41.2423 10.4349 41.2423C10.1223 41.5102 9.94371 41.7781 9.63114 41.9121C8.87206 42.2247 8.06831 42.5372 7.26457 42.7158C5.88035 43.0284 4.67474 42.6265 3.46913 42.1354C2.79935 41.8674 2.48678 41.2423 1.9063 40.9297C1.37048 40.6172 1.23652 40.2153 1.10256 39.7688C0.834648 39.0097 1.01325 38.206 1.41512 37.5362C1.77234 36.911 2.17422 36.2413 3.02261 36.1073C3.20122 36.0627 3.37983 35.9287 3.60309 35.8394C4.04961 35.7054 4.49613 35.3929 5.03196 35.7054C5.16592 35.7947 5.38918 35.7501 5.52312 35.7054C6.14826 35.4822 6.55013 35.7947 6.952 36.0627C7.04131 36.6431 6.37152 37.0004 6.68409 37.5808C6.81805 37.4915 6.99665 37.4022 7.08596 37.3129C7.48783 36.7324 7.84505 36.152 8.29157 35.6161C9.36323 34.2766 10.6135 33.1156 12.3996 32.7137C12.7568 32.6244 13.1587 32.6691 13.5159 32.5351C15.168 31.8653 16.6862 32.3119 18.249 32.803C18.9188 33.0263 19.5886 33.2049 20.303 33.3835C21.1961 33.5621 21.9552 34.0086 22.6249 34.5445C22.8929 34.7677 23.1161 34.991 23.4287 35.1696C23.7859 35.3482 24.1431 35.6608 24.7682 35.5268C24.2771 34.991 23.9645 34.4552 23.4733 34.0533C22.7589 33.4728 21.9552 33.0263 21.1961 32.4905C21.2407 31.8653 21.7319 31.4188 21.9998 30.883C22.2231 30.3918 22.6249 30.1239 23.0715 29.9006C23.384 29.7667 23.6966 29.6327 24.0092 29.5434C24.9469 29.3202 25.8846 29.0969 26.8669 29.4541C27.2241 29.5881 27.4474 29.8113 27.4474 30.1686C27.4474 30.3918 27.492 30.6597 27.492 30.883C27.5813 31.6867 27.626 32.4905 27.7153 33.3389C27.76 33.5621 27.7599 33.83 28.1172 33.9193C28.1618 33.7407 28.2065 33.5175 28.2065 33.3389C28.1618 32.803 28.0725 32.2672 28.0279 31.776C27.8939 30.5258 27.9832 29.2755 28.6083 28.2039C29.6353 26.4178 30.5284 24.5424 32.6271 23.6493C32.7164 23.6047 32.761 23.56 32.8057 23.5154C33.4754 22.8456 34.3238 22.4884 35.1722 22.1758C35.4848 22.0418 35.7527 21.8632 36.0653 21.7739C36.4671 21.64 36.869 21.3721 37.2262 21.4167C37.7174 21.4614 38.1193 21.3721 38.5658 21.3274C39.2356 21.2828 39.9054 21.2828 40.5751 21.2381C41.5575 21.1935 42.4952 21.6846 43.5222 21.2828C43.7008 21.2381 43.9241 21.3274 44.1027 21.4167C45.0404 21.7293 45.8441 22.3991 46.8265 22.533C46.9158 22.533 47.0051 22.667 47.0944 22.7563C47.3623 22.9349 47.5856 23.2028 47.8981 23.3368C49.0591 23.8726 49.8182 24.8549 50.8452 25.614C51.0238 25.748 51.2024 25.9712 51.3363 26.1499C52.0508 27.4001 52.8545 28.5611 53.301 29.9453C53.435 30.3918 53.7029 30.7937 53.7476 31.3295C53.8369 31.8653 54.1048 32.4458 54.6853 33.1156ZM43.4329 16.5496C43.4329 16.5943 43.4329 16.5943 43.4775 16.6389C43.4329 16.6389 43.4329 16.6389 43.3882 16.6389C43.3882 16.5943 43.3882 16.5943 43.3882 16.5496C43.3436 16.5496 43.3882 16.5496 43.4329 16.5496Z" fill="#324C76"/>
</svg>
