<svg width="102" height="47" viewBox="0 0 102 47" fill="none" xmlns="http://www.w3.org/2000/svg">
<path d="M48.2648 34.8856C48.8352 34.18 49.0984 33.5215 49.2301 32.9099C49.3178 32.3925 49.5372 31.9692 49.6688 31.4517C50.1076 30.0406 50.8974 28.7705 51.5994 27.4534C51.731 27.2182 51.9066 27.0301 52.0821 26.889C53.0473 26.1363 53.8371 25.1015 54.9779 24.49C55.2412 24.3489 55.5044 24.0666 55.7677 23.8785C55.8555 23.7844 55.9432 23.6433 56.031 23.6433C57.0401 23.5022 57.786 22.8436 58.7075 22.4673C58.883 22.4203 59.1462 22.2791 59.2779 22.3262C60.2431 22.7495 61.2084 22.2321 62.1737 22.2791C62.8319 22.2791 63.49 22.3262 64.1482 22.3732C64.5869 22.4203 65.0257 22.5143 65.4645 22.4673C65.8155 22.4203 66.2104 22.7025 66.6053 22.8436C66.9124 22.9847 67.1757 23.1729 67.4828 23.267C68.3165 23.5962 69.1501 23.9725 69.8083 24.6781C69.8521 24.7252 69.9399 24.8192 69.9838 24.8192C72.0021 25.76 72.9235 27.7357 73.9327 29.6172C74.547 30.7932 74.6347 32.0632 74.5031 33.3803C74.4592 33.9448 74.3714 34.5093 74.3276 35.0267C74.3276 35.2149 74.3715 35.45 74.4153 35.6382C74.7663 35.5441 74.8102 35.2619 74.8102 35.0267C74.898 34.18 74.9418 33.3333 75.0296 32.4396C75.0296 32.2044 75.0735 31.9221 75.0735 31.6869C75.1174 31.3106 75.3367 31.0754 75.6439 30.9343C76.6092 30.558 77.5306 30.7932 78.452 31.0284C78.7591 31.1225 79.0663 31.2636 79.3734 31.4047C79.8122 31.6399 80.2071 31.9221 80.4264 32.4396C80.6897 33.004 81.1723 33.4744 81.2162 34.133C80.4264 34.6974 79.6805 35.1678 78.9785 35.7793C78.4959 36.2027 78.1887 36.7671 77.7061 37.3316C78.2765 37.4727 78.6714 37.1434 79.0224 36.9553C79.3295 36.8142 79.5489 36.5319 79.8122 36.2967C80.4703 35.7323 81.2162 35.2619 82.0938 35.0737C82.7519 34.9326 83.4539 34.6974 84.1121 34.4622C85.6478 33.9448 87.1835 33.4744 88.763 34.18C89.0702 34.3211 89.5089 34.2741 89.8599 34.3681C91.615 34.7915 92.8436 36.0145 93.8966 37.4257C94.3354 37.9901 94.6864 38.6487 95.0813 39.2132C95.169 39.3543 95.3007 39.4013 95.4762 39.4954C95.7833 38.8368 95.1251 38.5076 95.2129 37.8961C95.6078 37.6138 96.0027 37.2846 96.617 37.5198C96.7486 37.5668 96.968 37.6138 97.0996 37.5198C97.6261 37.1905 98.0649 37.4727 98.5037 37.6609C98.6792 37.7079 98.8547 37.8961 99.0741 37.9431C99.9077 38.0842 100.303 38.7898 100.654 39.4483C101.049 40.201 101.224 41.0006 100.961 41.8003C100.829 42.2707 100.654 42.7411 100.171 43.0233C99.6006 43.3526 99.2934 44.0111 98.6353 44.2934C97.4506 44.8108 96.2221 45.2341 94.9058 44.9049C94.0721 44.7167 93.3262 44.3874 92.5803 44.0582C92.317 43.917 92.0976 43.6348 91.7905 43.3526C91.7028 43.3526 91.5273 43.3526 91.3956 43.3996C90.2987 43.917 89.1579 44.0111 87.9732 43.917C87.0518 43.823 86.1743 43.7759 85.2529 43.7289C83.8927 43.6348 82.7519 43.1644 81.655 42.4588C81.2601 42.2236 80.8652 42.0355 80.3826 41.9414C80.1632 42.3648 80.7775 42.5529 80.6897 42.9763C80.6458 43.0233 80.602 43.1644 80.5581 43.1644C79.505 43.5407 78.452 43.9641 77.3112 43.917C76.5653 43.917 75.8194 43.87 75.0735 43.87C74.2837 43.87 73.5817 43.5407 72.9235 43.2585C72.0021 42.8352 71.0807 42.3648 70.0715 42.0355C70.1593 41.1888 71.0368 41.1418 71.3001 40.4832C71.1246 40.5302 70.9491 40.4832 70.8174 40.5773C69.545 41.3299 68.3165 42.0825 67.0879 42.8822C66.9563 42.9763 66.7808 43.0233 66.6053 43.0704C65.5961 43.3996 64.6308 43.7289 63.6216 44.0582C63.4023 44.1522 63.139 44.1522 62.8757 44.1993C62.4809 44.2463 62.0421 44.2463 61.6472 44.2934C60.7697 44.3874 59.936 44.4345 59.0585 44.3404C58.1809 44.2463 57.2156 44.5286 56.3381 44.1052C56.1626 44.0111 55.9432 44.0582 55.7238 44.0582C54.3637 44.1522 53.0912 43.7289 51.8188 43.3526C51.1168 43.1644 50.3709 42.9763 49.6688 42.7881C49.4056 42.694 49.1862 42.5059 48.8791 42.3177C49.5811 41.8003 50.1076 41.2829 50.3709 40.5302C50.1954 40.201 49.976 40.3421 49.8005 40.3891C49.2301 40.5773 48.7035 40.8125 48.3525 41.3299C48.2648 41.471 48.1332 41.6121 48.0015 41.7062C47.2556 42.0355 46.5975 42.6 45.8516 42.9292C45.2373 43.2115 44.623 43.3996 43.9649 43.6348C43.3067 43.87 42.6047 44.0111 41.9027 44.1052C40.9812 44.2463 40.1037 44.3404 39.1823 44.5286C38.7874 44.6226 38.4364 44.5756 38.0854 44.4815C37.6905 44.3874 37.2517 44.3404 36.8568 44.2934C36.6813 44.2934 36.5058 44.2934 36.3742 44.2463C35.716 43.917 35.014 43.823 34.312 43.823C33.8732 43.823 33.4344 43.5407 33.0396 43.3526C32.6008 43.1174 32.1181 43.0233 31.5916 43.0704C32.0304 43.9641 32.0743 43.9641 33.4783 44.5756C32.8202 45.1401 31.9865 45.093 31.2406 45.2812C30.6263 45.4223 29.9243 45.4223 29.2662 45.4693C28.8274 45.5164 28.4325 45.4223 28.0376 45.2812C27.6866 45.1871 27.2478 45.4223 26.8529 45.1401C26.7213 45.046 26.5019 44.9989 26.3703 45.046C25.7121 45.2812 25.2734 44.9049 24.7907 44.5756C24.3081 44.2463 23.6938 44.2463 23.3428 43.6348C23.2989 43.5407 23.0357 43.4937 22.8601 43.4937C22.553 43.4937 22.2898 43.3996 22.1581 43.0704C22.1142 42.9763 22.0704 42.8822 22.0265 42.8822C21.149 42.647 20.8418 41.7533 20.2714 41.1888C19.701 40.6243 19.1306 40.0599 18.5602 39.4954C18.4725 39.4013 18.2531 39.3543 18.1215 39.4013C17.9898 39.4484 17.9021 39.6835 17.9021 39.8247C17.9021 40.2951 18.0776 40.7654 18.3847 41.1418C19.0868 41.9885 19.6133 42.9763 20.6224 43.5407C20.9734 43.7289 20.8857 44.1052 20.4908 44.3404C19.701 44.8108 18.8235 44.8578 17.946 44.8578C17.6388 44.8578 17.3756 44.7637 17.0684 44.8108C15.9276 44.9049 14.9623 44.4345 13.997 43.87C13.9532 43.823 13.9093 43.7289 13.8215 43.5878C14.4797 43.1174 15.2695 42.8822 15.6644 42.0355C15.5327 42.0355 15.445 41.9414 15.4011 41.9885C14.0409 42.7881 12.5052 42.9763 11.0134 43.3055C10.3992 43.4467 9.78488 43.4467 9.1706 43.5878C8.9951 43.6348 7.54716 43.3526 7.37166 43.2585C6.84514 42.9763 6.36249 42.694 5.83597 42.4118C5.61659 42.3177 5.3972 42.2236 5.13394 42.1766C4.95844 42.1296 4.6513 42.1296 4.56355 41.9885C4.21253 41.5181 3.72989 41.3299 3.29112 40.9536C3.11561 40.8125 3.02786 40.6243 2.94011 40.4362C2.85235 40.2951 2.85235 40.0599 2.7646 39.9658C1.88706 39.025 1.88706 37.7549 1.66768 36.626C1.49217 35.7323 1.75543 34.8385 2.10645 33.9918C2.63297 33.004 3.20337 31.9692 3.99315 31.0754C4.56355 30.4169 5.2217 29.8524 5.9676 29.382C6.62575 28.9587 7.32778 28.5824 8.11756 28.4883C8.86347 28.3942 9.56549 28.3001 10.3114 28.2061C11.9348 28.0179 13.4266 28.5353 14.8746 29.1468C16.0154 29.6172 16.849 30.511 17.5072 31.5458C17.7266 31.9221 17.946 32.2514 18.2092 32.6277C18.4725 32.1573 18.5602 31.734 18.2531 31.3577C18.1215 31.1695 18.0337 30.9813 17.946 30.7932C17.5511 30.1817 17.1562 29.5702 16.7174 28.8646C16.0593 28.7705 15.445 28.3001 14.7868 27.8297C14.1726 27.3594 13.4705 27.1242 12.7246 26.983C12.4175 26.936 12.0665 26.8419 11.7593 26.8419C11.2328 26.8419 10.8818 26.6067 10.8379 26.0423C10.7063 25.1956 10.2675 24.4429 10.3114 23.5492C10.3992 22.4673 10.4869 21.4324 11.0573 20.4917C11.2767 20.1624 11.4083 19.8331 11.5838 19.4568C12.0665 18.422 13.0318 17.9045 13.7777 17.1049C13.997 16.8697 14.3481 16.7756 14.6552 16.6815C15.1817 16.4934 15.7521 16.3052 16.2786 16.1641C16.5419 16.117 16.849 16.07 17.1123 16.07C17.8143 16.117 18.4725 16.2111 19.1745 16.3052C19.7888 16.3993 20.3153 16.6345 20.4908 17.4341C20.6224 17.9986 20.9296 18.516 21.149 19.0805C21.5877 20.2565 22.3336 21.1973 23.255 21.9969C23.7377 22.4203 24.1326 22.8436 24.6591 23.1729C24.9662 23.361 25.3172 23.5492 25.7121 23.2199C25.6244 23.0788 25.5805 22.8907 25.4489 22.8436C24.7468 22.3732 24.0887 21.9028 23.6938 21.1032C23.5183 20.7739 23.1234 20.5857 22.9479 20.3035C22.4653 19.5509 21.9826 18.7983 21.6755 17.9986C21.3683 17.1049 21.1928 16.117 21.0612 15.1292C20.9296 14.1885 20.8857 13.2477 21.149 12.3539C21.2367 12.0247 21.2806 11.6954 21.2806 11.3191C21.3245 10.1431 21.7632 9.10825 22.2898 8.07339C22.5091 7.65004 22.904 7.36781 22.9479 6.85038C22.9479 6.7563 23.0795 6.66223 23.1673 6.52111C23.4744 5.95664 24.2203 5.86256 24.4397 5.15698C24.6591 4.54547 25.3172 4.4514 25.6244 3.88693C25.7121 3.83989 25.8876 3.79285 26.0632 3.74581C26.6335 3.51062 27.1601 3.27542 27.7305 2.99319C28.8274 2.42872 30.0121 2.19353 31.1529 1.81722C31.5039 1.72314 31.8549 1.62906 32.2059 1.53498C32.4692 1.44091 32.7324 1.39387 33.0396 1.48794C33.2151 1.53498 33.4344 1.53498 33.6099 1.48794C34.0926 1.29979 34.5314 1.25275 34.9701 1.62906C35.0579 1.72314 35.2773 1.72314 35.4089 1.6761C35.7599 1.53498 36.0232 1.62906 36.3303 1.77018C36.5497 1.86426 36.813 1.95833 37.0323 1.9113C37.7344 1.72314 38.3486 1.95833 38.9629 2.28761C39.0945 2.33465 39.2262 2.42872 39.3139 2.42872C40.1037 2.42872 40.7619 2.89911 41.3761 3.32246C41.6833 3.51062 42.0343 3.55766 42.3853 3.74581C42.6486 3.88693 42.9557 4.02805 43.0434 4.26324C43.3067 5.01586 43.8771 5.2981 44.4036 5.48625C44.623 5.9096 44.7985 6.33295 45.0179 6.66223C45.5005 7.27373 45.7638 7.93228 46.1148 8.63786C46.6852 9.71976 46.9485 10.9428 47.2995 12.1187C47.5189 12.7773 47.4311 13.5769 47.4311 14.2825C47.4311 14.894 47.3872 15.4585 47.3872 16.07C47.3872 16.1641 47.5628 16.3522 47.6944 16.3993C47.826 16.3993 48.0454 16.3052 48.0893 16.1641C48.4842 14.894 49.4933 14.3766 50.5464 13.8592C51.9066 13.2006 53.3106 13.3418 54.7147 13.671C55.0218 13.7651 55.3289 13.9062 55.5922 14.0944C55.8555 14.2355 56.1187 14.5177 56.4259 14.6118C57.1718 14.894 57.5228 15.5055 57.8738 16.2111C58.1809 16.7756 58.3126 17.3871 58.5758 17.9516C58.883 18.7983 58.883 19.692 58.883 20.5857C58.3126 21.1032 57.5228 20.868 56.9085 21.2913C56.3381 21.6676 55.68 21.9028 54.9779 22.2321C54.4514 21.8088 53.881 21.4324 53.3545 20.9621C52.4331 20.0683 51.2484 19.5979 50.1076 19.2687C48.8352 18.8923 47.5189 19.0335 46.2465 19.5038C44.4914 20.1624 43.0434 21.3384 41.8588 22.8436C41.6394 23.0788 41.5516 23.4081 41.3761 23.7374C40.2792 23.4551 39.2262 23.2199 38.1731 22.9377C36.9007 22.6084 35.6722 22.7025 34.3997 22.7966C33.1273 22.8907 31.9865 23.5962 30.8457 24.1607C30.7141 24.2077 30.5825 24.3489 30.4508 24.4429C29.4417 24.9604 28.5641 25.6189 27.906 26.6067C27.3795 27.3594 26.7652 28.0179 26.3703 28.9116C26.2825 29.1468 26.0632 29.335 26.0193 29.5702C25.9754 30.2758 25.4489 30.7932 25.4928 31.5458C25.5366 31.9692 25.3172 32.3925 25.3172 32.8159C25.3172 33.5214 25.3172 34.2741 25.405 34.9797C25.4928 35.8734 25.6683 36.7671 25.8438 37.6609C26.107 38.9309 26.8529 40.0128 27.6427 41.0006C27.7305 41.1418 27.7743 41.1418 28.3886 41.0947C28.257 40.7654 28.1692 40.4362 27.9937 40.1539C27.1162 38.7898 26.8968 37.1905 26.6335 35.6382C26.5019 34.8385 26.8968 32.7688 27.2917 32.0632C27.555 31.6399 27.2917 31.2165 27.3356 30.7462C27.7305 30.2287 28.2131 29.7113 28.4764 29.0057C28.6958 28.3942 29.2223 27.9238 29.7049 27.4534C30.2314 26.936 30.6702 26.3715 31.2845 25.9011C32.2936 25.1956 33.4344 24.8192 34.5314 24.3959C35.0579 24.2077 35.6283 24.0666 36.2426 24.3018C36.4181 24.3489 36.6813 24.3959 36.8568 24.3018C38.1731 23.8785 39.3578 24.4429 40.4986 24.9133C40.8496 25.0544 41.1567 25.2426 41.5078 25.3837C41.6394 25.4778 41.8149 25.5248 41.9465 25.6189C43.1312 26.8419 44.4914 27.9238 45.2373 29.5702C45.3689 29.8054 45.3689 29.8054 45.7638 29.9465C45.9393 29.6643 45.7638 29.4761 45.6761 29.2409C45.5005 28.7705 45.2812 28.3001 45.1057 27.8297C44.6669 26.7949 44.0965 25.9011 43.1312 25.2896C42.7363 25.0544 42.4292 24.6781 42.0782 24.3489C42.4731 23.5962 43.0434 23.0318 43.6577 22.5614C44.0087 22.2791 44.4036 21.9969 44.7546 21.7617C45.1057 21.5265 45.4128 21.2443 45.8516 21.2443C45.8954 21.2443 45.9393 21.2443 45.9832 21.1973C46.8169 20.3976 47.9138 20.6798 48.8791 20.4446C49.2301 20.3505 49.5811 20.4917 49.9321 20.5857C51.4239 20.8209 52.5647 21.6676 53.6177 22.7495C53.7055 22.8436 53.7494 23.0318 53.8371 23.2199C52.3453 24.49 51.0729 25.9482 50.1076 27.6416C49.3617 28.9116 48.7474 30.3228 48.4842 31.781C48.3087 32.6277 47.9138 33.6626 48.2648 34.8856Z" fill="white"/>
<path d="M59.3215 17.4342C59.3654 17.4342 59.3654 17.4342 59.4093 17.4812C59.4093 17.5283 59.4093 17.5283 59.4093 17.5753C59.3654 17.5753 59.3654 17.5753 59.3215 17.5753C59.3215 17.4812 59.3215 17.4342 59.3215 17.4342Z" fill="white"/>
<path d="M56.4257 44.9047C56.5134 44.9047 56.6012 44.9047 56.6889 44.9517C56.7767 45.0929 56.8645 45.0929 56.9522 44.9517C57.3471 44.8577 57.742 45.281 58.1808 45.0458C58.6634 44.8106 59.146 44.8577 59.6726 44.8577C60.5501 44.8577 61.4276 44.7636 62.2613 44.4813C62.4807 44.3873 62.7001 44.2462 62.9633 44.3402C63.4898 44.5754 63.9286 44.3873 64.4113 44.1991C64.8061 44.058 65.201 43.9639 65.5959 43.8228C66.0347 43.6817 66.6051 43.7287 66.9561 43.3054C67.1316 43.3054 67.2632 43.3054 67.4388 43.3054C67.8775 43.2113 68.2724 43.0702 68.7112 42.9761C68.7989 42.882 68.8867 42.835 68.9744 42.7409C69.2816 42.6939 69.5448 42.6468 69.852 42.6468C70.4662 42.5998 70.9928 42.6939 71.3877 43.2583C71.607 43.5406 71.8703 43.8698 72.2652 43.8698C72.6601 44.1991 72.6601 44.1991 73.0111 43.8228C73.0988 43.8698 73.2305 43.9169 73.3182 44.011C73.6254 44.2932 73.9325 44.3873 74.3274 44.1521C74.459 44.058 74.6345 44.058 74.81 44.011C74.9855 44.2462 75.1611 44.2462 75.2927 43.9639C76.3896 44.2462 77.4865 44.1991 78.5396 43.7758C78.6273 43.6817 78.7151 43.6346 78.8028 43.5406C79.3732 43.5406 79.9436 43.4465 80.4701 43.1643C80.865 42.9291 81.216 42.882 81.5671 43.3054C81.962 43.8228 82.5323 43.9639 83.1466 43.8228C83.717 43.7287 84.2874 43.8698 84.8578 44.011C84.9456 44.058 85.0333 44.1521 85.1211 44.1991C85.9109 44.4343 86.7006 44.7636 87.5343 44.4813C88.1925 44.2462 88.719 44.2462 89.2894 44.6695C89.3771 44.7165 89.5526 44.7165 89.6404 44.7165C89.9475 44.9988 89.9914 44.9517 90.1669 44.5284C91.0444 43.9169 91.8781 43.9639 92.7118 44.6225C93.1067 44.9517 93.5015 45.0458 93.9842 44.9988C94.0719 45.0929 94.1597 45.1399 94.2474 45.234C94.5107 45.281 94.7301 45.234 94.9933 45.328C95.5637 45.5162 96.178 45.4692 96.7045 45.281C97.4504 44.9988 98.2402 44.9988 99.03 44.9517C99.1178 44.8577 99.2055 44.8106 99.2933 44.7165C99.5565 44.6695 99.8637 44.6225 100.039 44.3402C100.215 44.011 100.478 43.7287 100.785 43.4935C101.399 42.9761 101.794 42.3646 101.663 41.5179C101.619 41.2827 101.619 41.0005 101.706 40.7653C101.97 40.0126 101.75 39.4482 101.18 38.9778C101.004 38.8367 100.873 38.6956 100.697 38.6015C100.61 38.5544 100.522 38.4604 100.434 38.4133C100.127 38.2722 100.083 37.8489 99.732 37.7077C98.8984 37.4725 98.1964 36.7199 97.1872 37.0022C97.0556 37.0492 96.88 36.9081 96.7045 36.861C96.2219 36.767 95.8709 36.861 95.5199 37.2844C94.9933 37.99 94.2036 37.8018 93.8964 37.0022C93.7648 36.6729 93.6332 36.3907 93.326 36.2025C93.2383 36.1084 93.1505 36.0614 93.0628 35.9673C93.0189 35.7791 92.975 35.4969 92.7118 35.6851C92.5363 35.7791 92.4046 35.9673 92.2291 36.0143C91.7026 36.1555 91.6148 36.5788 91.6148 37.0962C91.571 37.1903 91.4832 37.2374 91.4393 37.3314C91.0883 37.6137 90.7812 37.99 90.5179 38.3663C90.2985 38.7426 89.9914 38.9778 89.5526 39.0719C89.4649 39.1659 89.3771 39.213 89.2894 39.3071C88.0169 39.9186 86.7006 40.1067 85.3405 40.3419C85.2527 40.3419 85.165 40.3419 85.0772 40.3419C84.5068 40.3419 83.9364 40.389 83.3221 40.389C83.2344 40.3419 83.1466 40.2478 83.0589 40.2008C82.1375 40.1538 81.3477 39.6834 80.514 39.26C80.4263 39.166 80.3385 39.1189 80.2508 39.0248C79.6804 38.9778 79.4171 38.5544 79.1538 38.1311C78.9783 37.8018 78.9783 37.5196 79.1538 37.1903C79.4171 36.7199 79.812 36.4377 80.2069 36.1084C80.865 35.4969 81.1283 34.6032 81.8303 34.0857C82.1375 33.8506 82.1813 33.145 81.8742 32.9098C81.3477 32.5805 81.1283 31.922 80.4701 31.6868C79.812 31.4516 79.2855 30.9341 78.5396 31.0282C78.4518 31.0282 78.3202 30.9341 78.2324 30.8871C77.9692 30.6049 77.662 30.6049 77.311 30.6519C76.8723 30.6989 76.3896 30.6989 75.9508 30.6989C75.7753 30.4167 75.5998 30.4637 75.4682 30.746C75.2488 30.6519 75.1172 30.5578 75.0294 30.3226C74.8539 29.8522 74.6345 29.3819 74.6784 28.8174C74.6784 28.5352 74.6345 28.2529 74.4152 28.1118C73.8886 27.8296 73.757 27.2651 73.3621 26.8888C73.2744 26.7947 73.2305 26.7477 73.1427 26.6536C73.0111 25.6187 72.3968 25.0072 71.5193 24.6309C71.1683 24.4898 70.8611 24.3487 70.7295 23.9253C70.6418 23.6431 70.3785 23.455 70.1591 23.3138C69.8081 23.0786 69.4132 22.9846 69.1499 22.6553C69.0622 22.5612 68.8428 22.5142 68.7112 22.5142C67.7459 22.4201 66.8245 21.9027 65.8592 22.0438C65.6398 22.0438 65.4204 21.9027 65.1572 21.8086C64.8939 21.7145 64.5868 21.6675 64.3235 21.6204C64.2358 21.5264 64.148 21.4793 64.0602 21.3852C63.9725 21.3852 63.8847 21.3852 63.797 21.3852C63.6653 21.15 63.4898 21.15 63.2705 21.1971C62.7878 21.1971 62.3052 21.1971 61.8225 21.1971C61.6909 21.1971 61.5154 21.2441 61.3838 21.2441C61.3399 21.2441 61.2521 21.3382 61.2521 21.3852C61.2083 21.5264 61.296 21.6204 61.4276 21.6675C61.5593 21.7145 61.7348 21.7145 61.8664 21.7145C62.1297 21.7145 62.349 21.7145 62.6123 21.7145C62.8756 22.0438 63.2266 21.9027 63.5776 21.9027H63.6215C63.7531 22.0908 63.9286 22.1379 64.1041 22.1379C64.5868 22.4201 65.0255 22.6553 65.5082 22.9375C66.4735 23.549 67.5265 24.1135 68.1408 25.1954C68.2285 25.3365 68.3602 25.4306 68.4918 25.5717C68.7551 25.8069 68.8428 26.1362 68.9744 26.4184C69.3693 27.2651 69.6765 28.0648 69.4132 29.0055C69.3693 29.1467 69.501 29.3348 69.5448 29.4759C69.7203 30.3697 69.6326 31.1693 69.0183 31.8749C68.8867 32.016 68.7989 32.1571 68.7551 32.2983C68.6234 32.7216 68.5795 33.145 68.4479 33.5213C68.3163 33.9917 67.702 33.8976 67.5704 34.3209C67.4388 34.7443 67.1316 34.9324 66.7806 35.0736C66.4296 35.2147 66.1663 35.4969 65.9031 35.7791C65.7276 35.9673 65.552 36.1555 65.3327 36.2495C64.3674 36.7199 63.4021 37.1903 62.3052 37.3785C61.9542 37.4255 61.5593 37.5196 61.2083 37.6137C60.3307 37.8489 59.4093 37.7077 58.5318 37.99C58.4001 38.037 58.2685 37.99 58.1808 37.99C57.742 37.8489 57.2593 37.8959 56.8206 37.8018C55.9869 37.6137 55.0655 37.6137 54.4074 36.9551C54.0125 36.5788 53.5737 36.2495 52.9594 36.2966C52.74 36.3436 52.5645 36.1555 52.4329 36.0143C52.1696 35.7791 51.9503 35.544 51.687 35.3088C51.0288 34.7913 50.4585 34.1798 49.7125 33.8035C49.0983 33.5213 48.9666 33.239 49.0983 32.6275C49.1421 32.4394 49.186 32.2983 49.2738 32.1571C49.5809 31.2164 50.0636 30.3697 50.1513 29.3819C50.1952 28.9585 50.3707 28.5822 50.6778 28.2529C50.8533 28.0648 51.0727 27.8766 51.1166 27.6414C51.2482 27.0299 51.6431 26.7006 51.9941 26.2773C52.9594 25.1954 53.8808 24.1135 54.3196 22.6553C54.3635 22.4671 54.4951 22.326 54.6706 22.3731C55.2849 22.5612 55.8553 22.5142 56.4257 22.0908C56.5573 21.9967 56.8206 21.9967 57.04 21.9967C57.9614 21.9497 58.7512 21.6675 59.4093 20.9619C59.7164 20.6326 60.0236 20.3033 60.1552 19.833C60.243 19.5037 60.3746 19.1744 60.4623 18.8451C60.6379 18.2336 60.6817 17.6221 60.4623 17.0577C60.243 16.4932 59.9797 15.8817 59.3216 15.6465C59.1899 15.5994 59.0144 15.4583 58.9267 15.3643C58.7073 14.8939 58.1369 14.7057 58.0052 14.1883C57.9614 14.0001 57.742 13.906 57.6104 14.0001C57.1716 14.1883 56.8645 14.0472 56.4696 13.859C56.2502 13.7179 55.943 13.7649 55.6359 13.7179C55.5482 13.6238 55.4604 13.5297 55.3726 13.4357C55.2849 13.2945 55.1971 13.3416 55.1094 13.4827C55.1971 13.7179 55.3726 13.7649 55.592 13.7649C55.6359 14.0472 55.7675 14.2353 55.943 14.4235C56.2941 14.8468 56.4696 15.4113 56.6012 15.9287C56.9083 17.0106 56.4257 18.3277 55.592 18.9863C55.1533 19.3155 54.7145 19.5507 54.2318 19.7859C53.7931 19.9741 53.2227 20.1622 53.0911 20.7737C53.0033 20.8678 52.9155 20.9619 52.8278 21.0089C52.5207 21.056 52.2135 21.056 52.0819 20.6326C51.9941 20.3504 51.8186 20.1622 51.5554 19.9741C51.4676 19.833 51.3799 19.833 51.2921 19.9741C51.2921 20.2093 51.2921 20.4915 51.3799 20.7267C51.6431 21.4323 51.6431 22.1379 51.5992 22.8434C51.5115 24.0665 51.2044 25.1954 50.2391 25.9951C49.8442 26.3243 49.4054 26.6536 48.9666 26.9829C48.8789 27.0769 48.7911 27.124 48.7034 27.2181C48.2646 27.2651 47.8258 27.2651 47.3871 27.4533C46.8167 27.6885 46.334 27.5944 45.8075 27.171C45.1932 26.7006 44.579 26.1832 43.9208 25.7599C43.3943 25.3835 42.8239 25.0543 42.2535 24.725C42.1219 24.5368 41.9464 24.4898 41.7709 24.5368C41.6831 24.3487 41.5953 24.1605 41.5076 24.0194C41.8586 23.549 42.1657 23.0786 42.5168 22.6082C43.0872 21.8556 43.8331 21.4323 44.7106 21.1971C44.7983 21.3382 44.8861 21.3382 44.9739 21.1971C45.4565 21.1971 45.7636 20.8208 46.2024 20.6797C46.6412 20.5385 46.8167 20.2563 46.9922 19.833C47.3871 18.7981 47.6065 17.6692 48.2207 16.6813C48.3524 16.4932 48.3524 16.211 48.3962 15.9287C48.484 15.8346 48.5279 15.7876 48.6156 15.6935C48.8789 15.3172 49.2738 14.9879 49.3615 14.4705C49.4054 14.1412 49.2738 14.0472 48.8789 14.1883C48.7911 14.0942 48.7034 13.9531 48.6156 13.859C48.5279 13.3416 48.2207 12.9182 48.3085 12.3538C48.4401 11.6482 48.133 10.9896 47.8258 10.3781C47.6942 10.1429 47.5626 9.90774 47.5187 9.67254C47.3432 8.59065 46.5973 7.79099 46.334 6.75613C46.2463 6.33278 45.8075 6.09758 45.7636 5.6272C45.7636 5.15681 45.4565 4.82753 45.1055 4.63938C44.4912 4.35714 44.0524 3.83972 43.6137 3.36933C43.3504 3.08709 43.0433 2.94598 42.7361 2.75782C42.2096 2.42855 41.5953 2.33447 41.1127 1.95816C41.0688 1.67593 40.8933 1.53481 40.6301 1.53481H40.5862C40.4107 1.29961 40.2352 1.29961 40.1035 1.58185C40.1913 1.67593 40.2352 1.77 40.3229 1.86408C40.4107 2.0052 40.5423 2.05224 40.7178 2.05224C40.7617 2.14632 40.8056 2.24039 40.8056 2.33447C40.8933 2.42855 40.9372 2.47559 41.0249 2.56967C41.0688 3.13413 41.4637 3.51044 41.7709 3.88676C42.078 4.31011 42.0341 4.82753 42.3851 5.25088C42.78 5.72127 43.1749 6.2387 43.2627 6.89725C43.3065 7.3206 43.5259 7.69691 43.6137 8.12026C43.7892 8.82584 44.0524 9.53143 43.9647 10.237C43.7892 12.2126 43.1749 14.0472 42.1219 15.7406C42.0341 15.8346 41.9464 15.8817 41.9025 15.9758C41.6392 16.3521 41.5515 16.8225 41.0688 17.0106C40.9372 17.0577 40.8056 17.1988 40.7178 17.3399C40.5423 17.7162 40.279 18.0455 39.928 18.2807C39.7964 18.4218 39.7525 18.657 39.6648 18.8451C39.3576 18.8451 39.0066 18.8451 38.9189 19.3155C38.173 20.3033 37.076 20.8208 36.2424 21.6675C36.1985 21.7145 36.1108 21.7145 36.023 21.7615C35.3648 21.9967 34.6628 22.279 34.0047 22.5142C33.9169 22.6082 33.8292 22.6553 33.7853 22.7494C33.873 22.9846 34.0924 23.0316 34.2679 23.0786C34.4434 23.2198 34.6189 23.4079 34.7506 23.549C34.6189 23.7372 34.4434 23.7842 34.2679 23.7842C34.2679 23.8783 34.2679 23.9724 34.2679 24.0665C34.9261 24.0665 35.5842 24.0665 36.2424 24.0665C36.3301 24.1135 36.4179 24.2076 36.5056 24.3016C36.725 24.2546 36.9444 24.1605 37.1199 24.2076C37.8658 24.5368 38.6995 24.678 39.2699 25.3365C39.5331 25.6658 39.7964 25.8539 40.1913 25.8539C40.279 25.948 40.3668 25.9951 40.4107 26.0891C40.6301 26.5595 40.8494 26.9829 41.3321 27.2651C41.5953 27.4062 41.8147 27.6414 41.9464 27.8766C42.2535 28.4881 42.4729 29.1467 43.0433 29.523C43.3504 30.5108 43.7453 31.4986 43.9208 32.5805C44.0086 33.239 44.0524 33.9446 43.8769 34.6032C43.8331 34.7443 43.8331 34.9324 43.8769 35.1206C44.0524 35.591 43.9208 36.0614 43.7892 36.4847C43.6137 37.0492 43.4382 37.6137 43.3504 38.2252C43.2188 38.9778 42.8239 39.6363 42.4729 40.2949C42.2535 40.7182 41.9464 41.0475 41.5076 41.2357C41.2882 41.3297 41.0688 41.4709 40.8494 41.612C40.7617 41.7061 40.6739 41.7531 40.5862 41.8472C39.8403 42.6939 38.875 42.9761 37.8219 43.1643C37.7342 43.2113 37.6464 43.3054 37.5587 43.3524C37.3832 43.3524 37.2077 43.3524 37.076 43.3524C36.9883 43.2583 36.9005 43.2113 36.8128 43.3524C36.374 43.3995 35.9352 43.4465 35.4965 43.3054C35.1893 43.2113 34.8822 43.2113 34.5312 43.2113C34.2679 43.2113 34.0047 43.2113 33.7853 43.2113C33.6098 43.2113 33.4343 43.2113 33.3026 43.1643C33.171 42.9761 32.9955 42.9291 32.7761 42.9291C32.3373 42.882 31.9863 42.6939 31.767 42.3176C31.6353 42.1294 31.5037 41.9412 31.2843 41.9412C30.8455 41.8942 30.5823 41.5649 30.2313 41.3768C29.5731 41.0475 29.0466 40.436 28.3007 40.2478C28.0374 39.7775 27.9936 39.7775 27.6425 40.1067C27.5987 40.1538 27.5548 40.2478 27.5109 40.2949C27.2038 40.5301 27.1599 40.5301 27.0721 40.5301C26.9844 40.5771 26.8966 40.6712 26.8089 40.7182C26.3262 40.7182 25.7997 40.7182 25.3171 40.7653C25.2293 40.6242 25.1416 40.6242 25.0538 40.7182C24.264 40.8593 23.5181 40.7653 22.8161 40.483C22.2896 40.2949 21.8069 39.9656 21.3243 39.6834C21.2365 39.5893 21.1488 39.5423 21.061 39.4482C20.7978 39.26 20.5784 39.0719 20.3151 38.8837C20.2274 38.7896 20.1396 38.7426 20.0957 38.6485C20.0519 38.5074 20.0519 38.3663 20.008 38.2722C19.3498 37.3785 18.9111 36.3907 18.8233 35.2147C18.8233 35.0265 18.6917 34.7913 18.6039 34.6032C18.4284 34.2739 18.3845 33.9446 18.5601 33.6154C18.7356 33.192 18.5601 32.8627 18.3407 32.5335C18.2968 32.4394 18.1213 32.3923 18.0335 32.4394C17.9458 32.4394 17.8141 32.5805 17.7703 32.6746C17.7264 32.7687 17.7264 32.9098 17.6825 33.0509C17.4631 33.8505 17.3315 34.6502 17.0244 35.3558C16.2785 36.9551 15.0938 38.2252 13.6897 39.213C13.3826 39.4482 13.0755 39.7775 12.5928 39.7775C12.5051 39.8715 12.4173 39.9186 12.3296 40.0126C12.1102 40.1538 11.8469 40.2949 11.5836 40.2949C11.4959 40.389 11.4081 40.436 11.3204 40.5301C11.1449 40.5301 11.0133 40.5301 10.8377 40.5771C10.75 40.6712 10.6622 40.7182 10.5745 40.8123C10.4867 40.8123 10.399 40.8593 10.3551 40.8593C10.0918 40.8593 9.7847 40.7653 9.60919 41.0475C8.99492 41.1416 8.38065 41.1416 7.76637 41.2357C6.71333 41.4238 5.66029 41.1416 4.60725 40.9064C4.51949 40.8594 4.43174 40.7653 4.38786 40.7182C3.81746 40.2949 3.29094 39.7775 2.58891 39.6834C2.50116 39.6834 2.32565 39.7304 2.28178 39.7775C2.2379 39.8715 2.19402 40.0126 2.2379 40.1067C2.28178 40.2478 2.36953 40.436 2.50116 40.5301C2.98381 40.8593 3.42257 41.2827 3.68583 41.8001C3.81746 42.0353 3.99297 42.2235 4.25623 42.2235C4.51949 42.2705 4.73888 42.3176 4.95826 42.5057C5.57253 43.1172 6.36232 43.3524 7.1521 43.5876C7.37148 43.6817 7.59086 43.7758 7.85412 43.8698C7.94188 44.011 8.02963 44.011 8.11739 43.9169C9.30206 43.9169 10.4867 43.7758 11.6275 44.2462C12.0663 44.5754 12.154 44.5754 12.3734 44.058C12.8122 44.011 13.1632 44.2462 13.4703 44.5284C13.7336 44.7636 14.0407 44.8106 14.3479 44.8577C14.4356 44.9047 14.5234 44.9988 14.6111 45.0458C15.0938 45.0929 15.5326 45.3751 16.0591 45.3751C16.8489 45.328 17.5948 45.3751 18.3845 45.3751C18.4723 45.328 18.5601 45.234 18.6478 45.1869C18.8233 45.1869 18.9988 45.1399 19.1304 45.1399C19.3937 45.1399 19.657 45.1399 19.9202 45.1399C20.7539 44.8106 21.5875 44.4813 22.4212 44.1521C22.509 44.1521 22.5967 44.1521 22.7283 44.1521C23.0355 44.1991 23.3865 44.1991 23.6936 44.2462C23.7814 44.3402 23.8691 44.3873 23.913 44.4813C24.3957 44.7636 26.9844 45.7044 27.3793 45.7514C27.5548 45.7514 27.7303 45.7514 27.8619 45.7514C28.6517 45.7514 29.4415 45.7984 30.2313 45.7514C31.4159 45.7044 32.6445 45.6103 33.6975 44.9988C34.2241 44.6695 34.8383 44.6225 35.3648 44.9047C36.1108 45.281 36.9005 45.281 37.6903 45.281C37.7781 45.1869 37.8658 45.1399 37.9536 45.0928C38.2168 45.0458 38.4362 45.1399 38.6117 45.328C38.875 45.5632 39.1821 45.6103 39.4893 45.6103C39.6648 45.8455 39.8403 45.8455 39.9719 45.5632C40.2352 45.5632 40.4984 45.6103 40.7178 45.5162C41.4637 45.281 42.1657 45.1869 42.9116 45.4692C43.131 45.5632 43.3065 45.5162 43.482 45.3751C44.4035 44.7165 45.4565 44.3402 46.4657 43.8698C46.9483 43.6346 47.2554 43.3054 47.4748 42.882C47.5626 42.7879 47.6503 42.7409 47.7381 42.6468C48.0452 42.3646 48.3962 42.3176 48.7473 42.5998C49.2299 42.9761 49.6687 43.4465 50.3707 43.4465C50.4585 43.4465 50.5901 43.5406 50.6778 43.6346C50.985 43.9639 51.4237 43.9639 51.7747 44.1521C52.2574 44.3402 52.8717 44.2462 53.2666 44.7165C53.5298 44.9988 53.7931 45.0458 54.188 44.9047C54.5829 44.7636 54.9778 44.6225 55.3726 44.5754C55.6798 44.3873 55.943 44.9047 56.4257 44.9047ZM55.241 13.859L55.1971 13.906C55.241 13.906 55.241 13.859 55.241 13.859ZM47.6065 15.3172C47.5187 15.4583 47.4748 15.6465 47.431 15.8346C47.6503 15.6935 47.8697 15.5054 48.0014 15.3172C47.8697 15.5054 47.6942 15.6935 47.431 15.8346C47.4748 15.6465 47.5187 15.4583 47.6065 15.3172Z" fill="#B3E1EB"/>
<path d="M1.75518 38.6958C1.57968 38.7428 1.62355 38.931 1.71131 39.0721C1.84294 39.2132 1.97457 39.3073 2.06232 39.0721C2.06232 38.8369 2.01844 38.6017 1.75518 38.6958Z" fill="#B3E1EB"/>
<path d="M49.7121 13.8119C49.5805 13.7178 49.4488 13.8119 49.3611 13.906C49.4488 13.953 49.5805 13.953 49.6682 13.953C49.7121 13.953 49.7121 13.8119 49.7121 13.8119Z" fill="#B3E1EB"/>
<path d="M49.3176 14.2355C49.3614 14.2825 49.4492 14.2355 49.5369 14.1884C49.5808 14.1414 49.6247 14.0944 49.7124 14.0003C49.6247 14.0003 49.4931 13.9532 49.4053 13.9532C49.2737 14.0003 49.1859 14.1414 49.3176 14.2355Z" fill="#B3E1EB"/>
<path d="M33.8291 24.2077C33.8291 24.3959 33.9169 24.3488 34.0046 24.2548C34.0046 24.1607 34.0046 24.0666 34.0046 23.9725C33.9607 24.0666 33.8291 24.1607 33.8291 24.2077Z" fill="#B3E1EB"/>
<path d="M19.9639 14.9411C20.0078 13.9063 20.0517 12.9655 20.0956 12.0247C20.0956 11.5073 20.1833 10.9899 20.3588 10.5195C20.7976 9.29646 21.1047 7.97937 21.7629 6.8034C22.421 5.72151 23.0792 4.68665 24.0006 3.79291C24.571 3.22844 25.1414 2.71102 25.7995 2.28766C26.9403 1.53504 28.1689 1.01761 29.4852 0.73538C30.3627 0.547225 31.2841 0.264991 32.1617 0.170913C33.8729 -0.0172425 35.6279 -0.11132 37.2952 0.217952C38.7432 0.500186 40.1911 0.923536 41.5074 1.67616C41.7707 1.81728 42.1217 1.91135 42.3849 2.05247C42.5604 2.24063 42.7798 2.28766 42.8676 2.42878C43.1747 2.94621 43.6574 3.13437 44.1839 3.08733C44.5349 3.60475 44.7982 4.0281 45.1492 4.49849C45.2808 4.68665 45.5002 4.82777 45.6757 5.01592C46.2461 5.48631 46.8604 5.9567 46.9042 6.8034C46.9042 6.85044 46.9042 6.89748 46.9481 6.94452C47.5624 7.74418 47.6501 8.82607 48.1328 9.71981C48.3961 10.1902 48.4838 10.7076 48.4399 11.2251C48.3522 12.0247 48.4399 12.7773 49.0981 13.4359C49.493 13.2007 49.9317 12.9655 50.3705 12.7303C50.5899 12.6362 50.8093 12.5421 51.0287 12.4951C51.2042 12.4481 51.4674 12.4481 51.5991 12.307C52.1256 11.8366 52.7399 11.8366 53.3541 11.9777C54.2755 12.2129 55.2847 12.2129 56.1622 12.5892C56.3816 12.6833 56.5571 12.8244 56.7765 12.9655C56.9959 13.1066 57.1714 13.2948 57.3908 13.3889C58.2683 13.7181 58.7948 14.3767 59.2336 15.1763C59.3652 15.4115 59.4091 15.6938 59.5846 15.8349C60.5499 16.6345 60.4622 17.8105 60.5499 18.8924C60.5938 19.3628 60.4183 19.7861 60.3744 20.2565C60.5499 20.5388 60.8132 20.6328 61.1203 20.5858C62.5244 20.3976 63.9723 20.3977 65.3325 20.868C66.561 21.2914 67.8335 21.6677 68.9743 22.2792C69.5446 22.6085 69.9834 23.1729 70.5538 23.5022C71.6946 24.1137 72.3966 25.1956 73.1864 26.1364C73.8885 26.9831 74.3711 27.9709 74.6782 29.0999C74.766 29.4291 74.8976 29.7114 75.0292 30.0406C75.819 29.9936 76.5649 29.8995 77.267 29.8525C78.2322 29.8054 79.1537 29.9466 79.8996 30.6992C81.0842 31.1225 81.6108 32.2044 82.1373 33.2863C82.1812 33.3804 82.2689 33.4745 82.3128 33.5686C82.4005 33.5686 82.5322 33.6156 82.576 33.5686C83.2781 33.1452 83.9801 32.863 84.8138 32.863C85.1648 32.863 85.4719 32.8159 85.779 32.7219C86.7005 32.4396 87.6657 32.5807 88.5872 32.7219C88.9382 32.7689 89.2892 33.0041 89.6402 33.0982C91.7463 33.7567 93.282 35.1679 94.5544 37.0494C95.1248 36.9083 95.6952 36.7202 96.3095 36.579C97.2309 36.3438 98.24 36.3438 99.1176 36.6261C99.8635 36.8613 100.522 37.4257 100.96 38.0843C101.487 38.8839 101.838 39.8247 101.97 40.8125C102.145 41.9885 101.531 42.8823 100.917 43.729C100.478 44.3875 99.8635 44.952 98.9859 45.046C98.8104 45.046 98.6349 45.2342 98.4156 45.3283C97.3625 45.8927 96.2656 45.9868 95.1248 45.9398C94.7738 45.9398 94.4228 45.7046 94.1156 45.5164C93.3258 45.046 92.5361 44.5757 91.834 44.1523C90.8249 44.2934 90.1228 44.952 89.1576 44.952C88.3239 44.952 87.4464 45.3753 86.5688 45.046C85.6913 44.7168 84.726 44.952 83.8485 44.6227C83.0587 44.2934 82.2689 43.9171 81.3914 43.4938C80.9087 43.729 80.2506 43.8701 79.7241 44.2934C79.5047 44.4816 79.1975 44.5757 78.8904 44.6227C78.0567 44.7168 77.267 44.952 76.4333 45.1401C76.17 45.1872 75.8629 45.2342 75.5558 45.1872C74.6343 45.046 73.7568 44.8579 72.8354 44.6697C72.5721 44.6227 72.265 44.4816 72.0456 44.3405C71.3436 43.8701 70.6416 43.3997 69.9395 42.9293C69.6763 42.7882 69.413 42.6471 69.1936 42.5059C68.36 43.1645 67.3069 43.3056 66.6049 44.1053C65.859 44.1523 65.2447 44.7638 64.4549 44.7168C64.1039 44.7168 63.7529 44.9049 63.358 44.999C63.007 45.0931 62.6121 45.1401 62.2611 45.1872C62.0856 45.2342 61.954 45.2342 61.7785 45.2342C61.2519 45.2812 60.8132 45.6576 60.1989 45.5164C59.7163 45.4224 59.1459 45.6105 58.6193 45.6576C58.0928 45.7046 57.5224 45.7987 57.0398 45.4694C55.9429 45.5635 54.8898 45.3753 53.8368 45.1401C53.4419 45.3283 53.1347 45.0461 52.7837 44.9049C52.6521 44.8109 52.4766 44.6697 52.345 44.7168C51.6868 44.9049 51.248 44.5286 50.7654 44.1993C50.6776 44.1053 50.5899 44.0112 50.4583 43.9642C49.5368 43.823 48.8787 43.0704 47.9134 42.8352C47.343 43.3997 46.4655 43.5408 45.8951 44.1993C45.8073 44.2934 45.6757 44.3405 45.5879 44.3405C44.1839 44.7168 42.7798 45.1401 41.3758 45.4694C40.6737 45.6105 39.9278 45.6576 39.1819 45.5635C38.9626 45.5164 38.7432 45.5164 38.5677 45.5635C37.4707 45.7046 36.4177 45.5635 35.4524 45.2812C33.6096 46.0339 31.8106 46.5513 29.9239 46.6924C29.6607 46.6924 29.4413 46.7395 29.178 46.7865C29.0464 46.7865 28.9148 46.9276 28.827 46.8806C27.774 46.5043 26.6332 46.8806 25.624 46.3631C25.4046 46.2691 25.1414 46.222 24.922 46.175C24.1322 45.9868 23.3863 45.7987 22.772 45.2342C22.5965 45.0931 22.3333 45.0461 22.07 44.9049C20.4904 45.6576 18.8231 45.9868 17.1119 45.8927C15.4007 45.7987 13.7334 45.4224 12.2855 44.3875C11.6712 44.5286 11.0569 44.7168 10.4427 44.8109C9.03861 45.046 7.63455 44.8579 6.2305 44.4816C6.14275 44.4816 6.05499 44.4345 6.01111 44.3875C4.16829 43.0234 2.41322 41.9415 1.27243 40.107C0.614275 39.1191 0.307137 38.0373 0.0438767 36.9083C0 36.7202 0 36.485 0 36.2498C0.219384 35.309 0.438767 34.3212 0.658151 33.3804C0.745905 33.0041 0.965288 32.6748 1.1408 32.3455C1.18467 32.2515 1.36018 32.1574 1.36018 32.0633C1.71119 30.7462 2.80811 30.1347 3.7734 29.4762C3.86115 29.4291 3.90503 29.3821 3.94891 29.335C4.65094 28.4883 5.57235 28.065 6.49376 27.6416C7.41517 27.2183 8.42434 26.9831 9.47738 26.6068C9.38962 25.9482 9.60901 25.1956 9.08249 24.5371C8.90698 24.3489 8.95086 23.9726 8.95086 23.6904C8.99473 22.9848 9.08249 22.2322 9.21412 21.5266C9.30187 21.0562 9.38962 20.6328 9.69676 20.2095C10.1355 19.645 10.5304 19.0335 10.8376 18.375C11.3202 17.3872 12.2416 17.0108 12.8998 16.2112C13.6457 16.0701 14.1722 15.4115 14.8742 15.2234C15.7518 14.9882 16.6293 14.8 17.5068 14.753C18.3405 14.6589 19.0864 14.8471 19.9639 14.9411ZM48.2644 34.8856C47.9134 33.6156 48.3083 32.6278 48.4838 31.64C48.7471 30.1817 49.3613 28.7706 50.1072 27.5005C51.1164 25.8071 52.345 24.3489 53.8368 23.0789C53.749 22.8907 53.7051 22.7026 53.6174 22.6085C52.5643 21.5266 51.4235 20.6799 49.9317 20.4447C49.5807 20.3977 49.1858 20.2565 48.8787 20.3036C47.9134 20.5388 46.8165 20.2095 45.9828 21.0562C45.939 21.1032 45.8951 21.1032 45.8512 21.1032C45.4124 21.1032 45.1053 21.3855 44.7543 21.6207C44.4033 21.9029 44.0084 22.1381 43.6574 22.4203C43.087 22.9378 42.5166 23.4552 42.0778 24.2078C42.4727 24.5371 42.7798 24.9134 43.1308 25.1486C44.0961 25.713 44.6665 26.6538 45.1053 27.6887C45.3247 28.1591 45.5002 28.6295 45.6757 29.0999C45.7635 29.335 45.939 29.5232 45.7635 29.8054C45.3686 29.6643 45.3686 29.7114 45.2369 29.4291C44.4471 27.8298 43.1308 26.7009 41.9462 25.4779C41.8145 25.3838 41.639 25.3367 41.5074 25.2427C41.1564 25.1015 40.8493 24.9134 40.4982 24.7723C39.3136 24.2548 38.1728 23.6904 36.8565 24.1608C36.681 24.2078 36.4177 24.2078 36.2422 24.1608C35.6718 23.9256 35.0575 24.0667 34.531 24.2548C33.4341 24.6782 32.2933 25.0545 31.2841 25.7601C30.6698 26.1834 30.2311 26.7949 29.7046 27.3124C29.2219 27.7828 28.6954 28.3002 28.476 28.8647C28.2128 29.5702 27.774 30.0877 27.3352 30.6051C27.2913 31.0755 27.5546 31.4518 27.2913 31.9222C26.8964 32.6278 26.5016 34.6975 26.6332 35.4971C26.8964 37.0494 27.1158 38.6488 27.9934 40.0129C28.1689 40.2951 28.2566 40.6244 28.3883 40.9537C27.774 40.9537 27.7301 41.0007 27.6424 40.8596C26.8526 39.8718 26.1067 38.8369 25.8434 37.5198C25.6679 36.6261 25.4924 35.7323 25.4046 34.8386C25.3169 34.133 25.273 33.3804 25.3169 32.6748C25.3169 32.2515 25.4924 31.8281 25.4924 31.4048C25.4485 30.6521 25.975 30.1347 26.0189 29.4291C26.0189 29.1939 26.2383 29.0058 26.3699 28.7706C26.7209 27.8768 27.3791 27.2183 27.9056 26.4657C28.5638 25.4779 29.4413 24.7723 30.4505 24.3019C30.5821 24.2548 30.7137 24.1137 30.8454 24.0196C31.9862 23.4552 33.0831 22.7496 34.3994 22.6555C35.6718 22.5614 36.9442 22.4674 38.1728 22.7966C39.2258 23.0789 40.3227 23.3141 41.3758 23.5963C41.5513 23.3141 41.639 22.9848 41.8584 22.7026C43.0431 21.1973 44.491 20.0213 46.2461 19.3628C47.5185 18.8924 48.8348 18.7513 50.1072 19.1276C51.248 19.5039 52.4327 19.9273 53.3541 20.821C53.8368 21.2914 54.451 21.6677 54.9776 22.0911C55.6796 21.7618 56.3377 21.5266 56.9081 21.1503C57.5224 20.7269 58.2683 20.9621 58.8826 20.4447C58.8826 19.551 58.8826 18.6572 58.5755 17.8105C58.3561 17.246 58.1806 16.6345 57.8734 16.0701C57.5224 15.3645 57.1714 14.753 56.4255 14.4707C56.1184 14.3767 55.899 14.0944 55.5918 13.9533C55.3286 13.8122 55.0214 13.624 54.7143 13.53C53.3102 13.1537 51.9062 13.0596 50.546 13.7181C49.493 14.2356 48.4838 14.753 48.0889 16.023C48.045 16.1171 47.8257 16.2582 47.694 16.2582C47.5624 16.2582 47.3869 16.0701 47.3869 15.929C47.3869 15.3174 47.4308 14.753 47.4308 14.1415C47.4308 13.4359 47.5185 12.6362 47.2991 11.9777C46.9481 10.8017 46.7287 9.5787 46.1145 8.4968C45.7635 7.83826 45.5002 7.13267 45.0175 6.52117C44.7543 6.1919 44.6227 5.81558 44.4033 5.34519C43.8767 5.15704 43.3064 4.87481 43.0431 4.12218C42.9553 3.88699 42.6482 3.74587 42.3849 3.60475C42.0778 3.4166 41.6829 3.36956 41.3758 3.1814C40.7615 2.89917 40.1472 2.42878 39.3136 2.42878C39.2258 2.42878 39.0942 2.3347 39.0064 2.28766C38.3922 1.95839 37.7779 1.7232 37.0759 1.91135C36.8565 1.95839 36.5932 1.91135 36.3738 1.77024C36.0667 1.62912 35.8034 1.53504 35.4524 1.67616C35.3208 1.7232 35.1014 1.7232 35.0136 1.62912C34.5749 1.25281 34.1361 1.29985 33.6535 1.488C33.478 1.53504 33.2586 1.58208 33.0831 1.488C32.7759 1.39393 32.5127 1.488 32.2494 1.53504C31.8984 1.62912 31.5474 1.7232 31.1964 1.81728C30.0556 2.19359 28.8709 2.38174 27.774 2.94621C27.2475 3.22844 26.6771 3.46364 26.1067 3.69883C25.8873 3.79291 25.7118 3.83995 25.624 3.98107C25.3608 4.49849 24.6587 4.63961 24.4394 5.25112C24.22 5.90966 23.4741 6.00374 23.1669 6.61525C23.123 6.70932 22.9914 6.8034 22.9475 6.94452C22.9037 7.46195 22.5088 7.74418 22.2894 8.16753C21.7629 9.15535 21.3241 10.1902 21.2802 11.4132C21.2802 11.7425 21.2363 12.1188 21.1486 12.4481C20.8853 13.3889 20.9292 14.3296 21.0608 15.2234C21.1925 16.2112 21.3241 17.199 21.6751 18.0927C21.9823 18.9394 22.4649 19.6921 22.9475 20.3977C23.123 20.7269 23.5618 20.868 23.6934 21.1973C24.0883 21.997 24.7465 22.4674 25.4485 22.9378C25.5801 23.0318 25.624 23.1729 25.7118 23.3141C25.273 23.6433 24.9659 23.4552 24.6587 23.267C24.1322 22.9378 23.6934 22.4674 23.2547 22.0911C22.3333 21.2914 21.5874 20.3506 21.1486 19.1746C20.9292 18.6102 20.5782 18.0927 20.4904 17.5283C20.3149 16.7286 19.7884 16.4934 19.1741 16.3993C18.516 16.2582 17.814 16.2112 17.1119 16.1641C16.8487 16.1171 16.5415 16.1641 16.2783 16.2582C15.7079 16.3993 15.1814 16.5875 14.6548 16.7757C14.3477 16.8697 13.9967 16.9638 13.7773 17.199C13.0314 17.9987 12.0661 18.5161 11.5835 19.551C11.408 19.8802 11.2763 20.2565 11.0569 20.5858C10.4865 21.5266 10.3549 22.5614 10.311 23.6433C10.2672 24.5371 10.7059 25.2897 10.8376 26.1364C10.9253 26.7009 11.2324 26.9361 11.759 26.9361C12.0661 26.9361 12.4171 27.0301 12.7243 27.0772C13.4702 27.2183 14.1722 27.4535 14.7865 27.9239C15.4007 28.3943 16.0589 28.8647 16.717 28.9587C17.1997 29.6643 17.5507 30.2758 17.9456 30.8873C18.0772 31.0755 18.165 31.2636 18.2527 31.4518C18.516 31.8751 18.4721 32.2515 18.2089 32.7219C17.9456 32.3455 17.7262 31.9692 17.5068 31.64C16.8487 30.5581 15.9711 29.7114 14.8742 29.241C13.4263 28.6295 11.9345 28.112 10.311 28.3002C9.56513 28.3943 8.8631 28.4883 8.1172 28.5824C7.32742 28.7235 6.66927 29.0528 5.96724 29.4762C5.22133 29.9466 4.56318 30.511 3.99278 31.1696C3.203 31.9692 2.63261 33.0041 2.10608 34.086C1.71119 34.8856 1.49181 35.8264 1.66732 36.7202C1.8867 37.8491 1.84282 39.1191 2.72036 40.0599C2.80811 40.154 2.80811 40.3892 2.89587 40.5303C2.98362 40.7185 3.11525 40.9066 3.24688 41.0477C3.64177 41.377 4.16829 41.6122 4.51931 42.0826C4.60706 42.2237 4.9142 42.2237 5.0897 42.2707C5.30909 42.3648 5.57235 42.4119 5.79173 42.5059C6.31825 42.7882 6.8009 43.0704 7.32742 43.3526C7.50292 43.4467 8.95086 43.729 9.12636 43.6819C9.74064 43.4938 10.3549 43.4938 10.9692 43.3997C12.461 43.0704 13.9967 42.8823 15.3569 42.0826C15.4007 42.0356 15.5324 42.1296 15.6201 42.1296C15.2252 42.9293 14.4355 43.2115 13.7773 43.6819C13.8651 43.823 13.8651 43.9171 13.9528 43.9642C14.8742 44.5286 15.8834 44.999 17.0242 44.9049C17.3313 44.8579 17.5946 44.952 17.9017 44.952C18.7792 44.952 19.6568 44.9049 20.4466 44.4345C20.8415 44.1993 20.8853 43.823 20.5782 43.6349C19.569 43.1175 19.0425 42.0826 18.3405 41.2359C18.0333 40.8596 17.8578 40.3892 17.8578 39.9188C17.8578 39.7777 17.9456 39.5895 18.0772 39.4955C18.2089 39.4484 18.4282 39.4955 18.516 39.5895C19.0864 40.154 19.6568 40.7185 20.2272 41.2829C20.7976 41.8474 21.0608 42.7411 21.9823 42.9763C22.0261 42.9763 22.07 43.1175 22.1139 43.1645C22.2455 43.4467 22.5088 43.5878 22.8159 43.5878C22.9914 43.5878 23.2108 43.5878 23.2986 43.729C23.6057 44.3405 24.2638 44.3405 24.7465 44.6697C25.2291 44.999 25.7118 45.3753 26.326 45.1401C26.4577 45.0931 26.6771 45.1401 26.8087 45.2342C27.2036 45.5164 27.6424 45.2812 27.9934 45.3753C28.3883 45.5164 28.7831 45.5635 29.2219 45.5635C29.8801 45.5164 30.5382 45.5635 31.1964 45.3753C31.9423 45.1872 32.7759 45.2342 33.4341 44.6697C31.9861 44.0582 31.9423 44.0112 31.5474 43.1645C32.0739 43.1645 32.5127 43.2115 32.9953 43.4467C33.3902 43.6819 33.829 43.9171 34.2677 43.9171C34.9698 43.9641 35.6718 44.0112 36.3299 44.3405C36.4616 44.3875 36.6371 44.3875 36.8126 44.3875C37.2075 44.4345 37.6462 44.4816 38.0411 44.5757C38.3922 44.6697 38.7432 44.6697 39.1381 44.6227C40.0156 44.4816 40.937 44.3875 41.8584 44.1993C42.5604 44.0582 43.2625 43.9642 43.9206 43.729C44.5349 43.4938 45.1931 43.3056 45.8073 43.0234C46.5532 42.6941 47.2114 42.1296 47.9573 41.8004C48.0889 41.7533 48.2205 41.5652 48.3083 41.4241C48.6593 40.9066 49.1858 40.6714 49.7562 40.4833C49.9317 40.4362 50.1511 40.2951 50.3266 40.6244C50.1072 41.377 49.5807 41.8944 48.8348 42.4119C49.142 42.6 49.3613 42.7882 49.6246 42.8823C50.3266 43.1175 51.0725 43.2586 51.7746 43.4467C53.047 43.823 54.3194 44.1993 55.6796 44.1523C55.899 44.1523 56.1184 44.1053 56.2939 44.1993C57.1714 44.6227 58.0928 44.3405 59.0142 44.4345C59.8918 44.5286 60.7254 44.4816 61.603 44.3875C61.9978 44.3405 62.4366 44.3405 62.8315 44.2934C63.0948 44.2464 63.3141 44.2464 63.5774 44.1523C64.5866 43.823 65.5519 43.4938 66.561 43.1645C66.7365 43.1175 66.8682 43.0704 67.0437 42.9763C68.3161 42.2237 69.5446 41.4711 70.7732 40.6714C70.9048 40.6244 71.0365 40.6244 71.2558 40.5774C70.9926 41.2829 70.1151 41.33 70.0273 42.1296C70.9926 42.4589 71.914 42.9293 72.8793 43.3526C73.5374 43.6349 74.2395 43.9642 75.0292 43.9642C75.7751 43.9642 76.5211 44.0112 77.267 44.0112C78.4078 44.0112 79.4608 43.6349 80.5138 43.2586C80.5577 43.2586 80.6016 43.1175 80.6455 43.0704C80.7332 42.6941 80.1189 42.5059 80.3383 42.0356C80.7771 42.1767 81.172 42.3178 81.6108 42.553C82.7077 43.2586 83.8485 43.729 85.2086 43.823C86.1301 43.8701 87.0076 43.9171 87.929 44.0112C89.1137 44.1053 90.2545 44.0112 91.3514 43.4938C91.483 43.4467 91.6585 43.4467 91.7463 43.4467C92.0534 43.729 92.2289 44.0112 92.5361 44.1523C93.282 44.4816 94.0717 44.8109 94.8615 44.999C96.2217 45.3283 97.4064 44.9049 98.5911 44.3875C99.2492 44.1053 99.5563 43.4467 100.127 43.1175C100.653 42.7882 100.785 42.3648 100.917 41.8944C101.18 41.0948 101.004 40.2481 100.609 39.5425C100.258 38.8839 99.8635 38.1784 99.0298 38.0372C98.8543 37.9902 98.6788 37.8491 98.4594 37.755C98.0207 37.6139 97.5819 37.2846 97.0554 37.6139C96.9237 37.708 96.7044 37.6609 96.5727 37.6139C95.9585 37.3787 95.5636 37.708 95.1687 37.9902C95.0809 38.6017 95.7391 38.978 95.4319 39.5895C95.3003 39.4955 95.1248 39.4014 95.037 39.3073C94.6422 38.6958 94.2911 38.0843 93.8524 37.5198C92.7993 36.1087 91.5708 34.8856 89.8157 34.4623C89.4647 34.3682 89.0698 34.4152 88.7188 34.2741C87.0953 33.5686 85.6035 34.0389 84.0679 34.5564C83.4097 34.7916 82.7515 34.9797 82.0495 35.1679C81.172 35.356 80.4261 35.8264 79.7679 36.3909C79.5047 36.6261 79.2853 36.8613 78.9781 37.0494C78.6271 37.2376 78.2761 37.5669 77.6618 37.4257C78.1445 36.8613 78.4516 36.2968 78.9343 35.8735C79.6363 35.262 80.4261 34.7916 81.172 34.2271C81.1281 33.5686 80.6455 33.0982 80.3822 32.5337C80.1628 32.0163 79.7679 31.734 79.3292 31.4988C79.022 31.3577 78.7149 31.2166 78.4078 31.1225C77.4863 30.8873 76.5649 30.6521 75.5996 31.0285C75.2486 31.1696 75.0292 31.4048 75.0292 31.7811C75.0292 32.0163 74.9854 32.2985 74.9854 32.5337C74.8976 33.3804 74.8537 34.2271 74.766 35.1208C74.7221 35.356 74.7221 35.6383 74.3711 35.7323C74.3272 35.5442 74.2833 35.309 74.2833 35.1208C74.3272 34.5564 74.415 33.9919 74.4588 33.4745C74.5905 32.1574 74.5027 30.8403 73.8884 29.7114C72.8793 27.8298 72.0017 25.8542 69.9395 24.9134C69.8518 24.8663 69.8079 24.8193 69.764 24.7723C69.1059 24.0667 68.2722 23.6904 67.4386 23.3611C67.1314 23.22 66.8682 23.0318 66.561 22.9378C66.1661 22.7966 65.7712 22.5144 65.4202 22.5614C64.9376 22.6085 64.5427 22.5144 64.1039 22.4674C63.4458 22.4203 62.7876 22.4203 62.1295 22.3733C61.1642 22.3262 60.2428 22.8437 59.2336 22.4203C59.0581 22.3733 58.8387 22.4674 58.6632 22.5614C57.7418 22.8907 56.952 23.5963 55.9867 23.7374C55.899 23.7374 55.8112 23.8785 55.7235 23.9726C55.4602 24.1608 55.2408 24.443 54.9337 24.5841C53.7929 25.1486 53.047 26.1834 52.0378 26.9831C51.8623 27.1242 51.6868 27.3594 51.5552 27.5476C50.8532 28.8647 50.0634 30.0877 49.6246 31.5459C49.493 32.0163 49.2297 32.4396 49.1858 33.0041C49.0981 33.5686 48.8348 34.1801 48.2644 34.8856ZM59.3214 17.4342C59.3214 17.4812 59.3214 17.4812 59.2775 17.5283C59.3214 17.5283 59.3214 17.5283 59.3652 17.5283C59.3652 17.4812 59.3652 17.4812 59.3652 17.4342C59.4091 17.4342 59.3652 17.4342 59.3214 17.4342Z" fill="#324C76"/>
</svg>
